<svg width="50" height="50" viewBox="0 0 50 50" fill="none" xmlns="http://www.w3.org/2000/svg">
<path d="M50 25C50 38.8067 38.8067 50 25 50C11.1933 50 0 38.8067 0 25C0 11.1933 11.1933 0 25 0C38.8067 0 50 11.1933 50 25Z" fill="#A6BFE7"/>
<path d="M34.6114 43.8469C33.442 41.3137 34.7178 34.4918 34.7178 34.4918L15.4649 33.3224C15.4649 33.3224 15.6764 42.2886 14.9327 44.0427C14.62 44.7772 13.3193 45.597 11.912 46.3026C15.7185 48.6467 20.2003 50 25 50C29.6303 50 33.9662 48.7399 37.6846 46.5457C36.372 45.8296 35.1015 44.9072 34.6114 43.8469Z" fill="#5C261E"/>
<path d="M38.4244 22.903C38.1169 22.8518 37.8607 22.8518 37.5532 22.8518C37.4494 23.2105 37.2957 23.6204 37.142 23.9791L37.8094 26.9525C38.3219 25.5177 38.988 24.4929 38.4244 22.903Z" fill="#6B2F27"/>
<path d="M37.7582 24.8515C37.7582 24.8515 37.9632 23.5691 38.4244 23.2616C38.4244 23.2616 38.9026 24.4928 38.0657 26.0301L37.7582 24.8515Z" fill="#6B2F27"/>
<path d="M38.4953 22.8833C38.4887 22.8609 38.469 22.836 38.4441 22.832C38.151 22.7808 37.8488 22.7663 37.5532 22.79C37.5099 22.7926 37.4849 22.8268 37.4928 22.8688C37.5269 23.0422 37.389 23.2932 37.3312 23.4548C37.2681 23.6296 37.1971 23.803 37.1249 23.9751C37.117 23.9935 37.1498 24.0067 37.1577 23.9883C37.2812 23.7005 37.3942 23.4088 37.4941 23.1132C37.569 22.8911 37.7109 22.9227 37.904 22.9292C38.0591 22.9332 38.2141 22.9503 38.3678 22.97C38.5991 23.644 38.6267 24.3141 38.4559 25.0079C38.2916 25.674 37.975 26.2889 37.7753 26.9433C37.7621 26.988 37.8252 27.0011 37.8423 26.9617C38.1156 26.31 38.4073 25.6477 38.5846 24.9632C38.7647 24.2681 38.7174 23.5626 38.4953 22.8833ZM37.7976 26.0814C37.77 25.5939 37.7713 25.1498 37.8764 24.6689C37.9724 24.2248 38.1353 23.7951 38.3008 23.3733C38.314 23.3392 38.2562 23.3155 38.243 23.3484C37.8935 24.1722 37.498 25.1826 37.7188 26.0918C37.7293 26.1365 37.8015 26.1273 37.7976 26.0814Z" fill="#6B2F27"/>
<path d="M37.3995 23.9278L37.2957 23.4667C37.1932 22.2881 37.707 19.1097 37.707 19.1097C37.9855 17.0494 37.6308 14.8986 36.9961 12.9342C36.4679 11.2958 35.9187 10.2696 34.5746 9.15409C32.2673 7.23971 29.2755 5.23992 26.1721 5.16634C21.8663 5.06385 18.8929 6.39618 15.1509 9.88201C11.4088 13.3678 11.1014 15.9313 11.0501 18.2386C10.9989 20.5445 12.28 23.3129 12.28 23.3129L12.2602 23.2998C12.2497 23.2866 12.2392 23.2735 12.2287 23.2617L12.2392 23.2866L11.9725 23.108C11.7675 22.9542 10.7939 23.4154 10.384 23.6716C9.97403 23.9278 9.92277 25.2615 10.0253 26.5425C10.1277 27.8236 10.8452 28.5936 11.2551 29.1573C11.665 29.7209 12.0237 30.1821 12.2287 30.797C12.4337 31.4119 14.0235 31.4632 14.0235 31.4632C14.0235 31.4632 14.6897 34.3854 14.9971 34.8978C15.3046 35.4102 17.0994 36.3851 17.0994 36.3851C18.5855 37.9737 19.3541 38.9486 22.0201 40.2297L29.3504 41.0496L31.5552 40.1272L33.9124 38.1786C33.9124 38.1786 34.9898 36.7951 35.7072 35.8727C36.4246 34.949 37.0907 31.1557 37.2957 30.0796C37.502 29.0035 38.0144 28.5936 38.2194 27.3112C38.4244 26.0301 37.3995 23.9278 37.3995 23.9278Z" fill="#6B2F27"/>
<path d="M17.4581 19.5708C17.4581 19.5708 15.9708 12.9066 18.3805 10.5481C20.7902 8.19095 28.0694 5.11507 34.1187 10.4457C34.1187 10.4457 35.3997 12.5992 35.451 16.4437C35.5022 20.2883 34.9385 19.7246 34.9385 19.7246L30.3753 21.1607L29.8116 21.8268H25.4034C25.4034 21.8268 23.2499 21.1607 23.0449 21.1081C22.8399 21.0582 17.4581 19.5708 17.4581 19.5708Z" fill="#6B2F27"/>
<path d="M28.1206 29.721C25.7989 29.721 23.9174 31.052 23.9174 32.6944C23.9174 34.3368 25.7989 35.6678 28.1206 35.6678C30.4423 35.6678 32.3238 34.3368 32.3238 32.6944C32.3238 31.052 30.4423 29.721 28.1206 29.721Z" fill="#6B2F27"/>
<path d="M19.5604 33.89C21.7494 32.9295 22.4221 29.6408 21.0635 26.5452C19.7036 23.4496 16.8275 21.7191 14.6385 22.6809C12.4481 23.6414 11.7754 26.9301 13.134 30.0257C13.3626 30.5447 13.6333 31.0243 13.9355 31.4592C13.9907 31.4632 14.0235 31.4632 14.0235 31.4632C14.0235 31.4632 14.038 31.5289 14.0643 31.6406C15.5674 33.6837 17.7892 34.6678 19.5604 33.89Z" fill="#6B2F27"/>
<path d="M38.2194 27.3112C38.4243 26.0302 37.3995 23.9279 37.3995 23.9279L37.2957 23.4667C37.2681 23.1474 37.2865 22.6809 37.3259 22.1711C35.3813 22.3078 33.392 24.1263 32.5183 26.7751C31.4592 29.985 32.4407 33.1963 34.7125 33.9452C35.2736 34.1305 35.8609 34.1476 36.4429 34.0201C36.845 32.5695 37.1656 30.7681 37.2957 30.0796C37.502 29.0035 38.0144 28.5936 38.2194 27.3112Z" fill="#6B2F27"/>
<path d="M10.401 25.1419C10.401 25.1419 10.4352 23.8083 11.5967 24.4573C12.7582 25.1077 13.2023 27.0891 13.2378 27.4649L12.9986 28.2178C12.9986 28.2178 12.5191 28.9352 13.2719 29.3793C13.2719 29.3793 12.7582 29.9259 12.2799 29.4818C11.8017 29.0377 11.46 28.4215 11.0159 27.7724C10.5718 27.1233 10.2302 26.4742 10.401 25.1419Z" fill="#6B2F27"/>
<path d="M13.2719 29.3794C12.5191 28.9352 12.9986 28.2178 12.9986 28.2178L13.2378 27.465C13.2023 27.0892 12.7582 25.1078 11.5967 24.4574C10.4352 23.8083 10.401 25.142 10.401 25.142C10.3839 25.2773 10.3721 25.4034 10.3655 25.5256C10.581 25.1459 11.1355 25.0066 11.5205 25.3798C11.9606 25.8055 11.7241 26.515 11.5967 27.0445C11.6532 26.8619 11.9449 26.4821 12.1774 26.5071C12.41 26.5321 12.5099 26.8881 12.5808 27.0892C12.6754 27.3546 12.7766 27.6542 12.7595 27.9432C12.7424 28.2454 12.5099 28.3387 12.4507 28.5936C12.3496 29.0298 12.8068 29.4319 13.2246 29.4227C13.2548 29.3964 13.2719 29.3794 13.2719 29.3794Z" fill="#6B2F27"/>
<path d="M19.8665 37.82C19.2516 37.1026 18.483 33.9242 17.7656 32.7456C17.0482 31.5657 15.9195 30.2334 14.5359 28.8498C13.1524 27.465 13.4086 25.8764 13.4086 25.8764C13.1011 26.4401 13.4086 27.6699 13.4086 27.6699C13.4086 27.6699 13.6136 29.3623 13.5111 30.4896C13.469 30.9469 13.3429 31.2109 13.2076 31.362C13.6293 31.4514 14.0235 31.4632 14.0235 31.4632C14.0235 31.4632 14.6897 34.3854 14.9971 34.8978C15.3046 35.4103 17.0994 36.3852 17.0994 36.3852C18.5854 37.9737 19.3541 38.9486 22.02 40.2297L22.9818 40.3375L22.0713 39.4611C22.0713 39.4611 20.4827 38.5374 19.8665 37.82ZM36.2196 30.2846C35.2972 31.412 34.9385 33.1043 34.5286 35.0515C34.1186 37.0001 33.5024 38.3836 33.5024 38.3836L33.4656 38.5479L33.9123 38.1787C33.9123 38.1787 34.9898 36.7951 35.7072 35.8727C36.4246 34.9491 37.0907 31.1558 37.2957 30.0797C37.4928 29.0495 37.9697 28.6278 38.1905 27.4689C37.8528 28.4123 37.0014 29.3307 36.2196 30.2846Z" fill="#642A23"/>
<path d="M37.707 19.1097C37.9855 17.0495 37.6307 14.8986 36.9961 12.9343C36.4679 11.2958 35.9187 10.2696 34.5746 9.15412C32.2673 7.23974 29.2755 5.23995 26.172 5.16637C21.8663 5.06388 18.8929 6.39621 15.1508 9.88204C11.4088 13.3679 11.1013 15.9313 11.0501 18.2386C10.9988 20.5445 12.2799 23.3129 12.2799 23.3129L12.2602 23.2998C12.2497 23.2867 12.2392 23.2735 12.2287 23.2617L12.2392 23.2841C12.4074 23.6309 12.8725 24.615 12.9986 25.159L13.4086 25.8764L13.6136 24.8515C13.6136 24.8515 13.6648 23.6716 13.9722 22.8005C14.2797 21.9294 15.612 21.2632 16.1245 19.5197C16.6369 17.7774 16.2795 16.5463 16.2795 14.6503C16.2795 12.753 17.5606 9.31836 21.4563 7.98604C25.3521 6.65241 30.2215 6.2937 34.5286 10.2407C34.5286 10.2407 35.5534 11.7281 35.7072 15.4189C35.8609 19.1097 36.2196 19.8271 36.5783 20.6982C36.9304 21.5536 36.5441 22.9976 37.3009 23.489L37.2957 23.4667C37.1932 22.2881 37.707 19.1097 37.707 19.1097Z" fill="#6B2F27"/>
<path d="M37.7096 16.65C37.5808 15.1114 37.2182 13.5676 36.6545 12.1301C36.1842 10.9318 35.4641 9.96084 34.4708 9.14095C32.2411 7.30409 29.5699 5.4659 26.5991 5.24648C24.1539 5.06516 21.6482 5.54212 19.4868 6.71019C18.3082 7.34745 17.2229 8.14369 16.2073 9.01482C15.0615 9.99763 13.9526 11.0514 13.0565 12.2707C12.41 13.151 11.8661 14.1141 11.5415 15.1613C11.288 15.9799 11.1658 16.8248 11.1263 17.6788C11.0685 18.9205 11.2525 20.1674 11.6046 21.3644C11.4088 19.7745 11.1303 15.4005 13.4428 12.4284C16.3124 8.73757 20.7561 5.4567 25.6084 5.66167C30.462 5.86664 32.1018 7.84937 33.8795 8.94255C35.4838 9.93062 37.5349 14.4295 37.7149 18.2622C37.749 17.7274 37.7543 17.19 37.7096 16.65Z" fill="#6B2F27"/>
<path d="M29.5449 26.9472C29.7958 27.4675 30.3923 27.9668 30.2202 28.608C30.01 29.3885 29.2584 29.6907 28.5345 29.7748C27.6909 29.8733 26.8697 29.5501 26.2903 28.9129C25.8317 28.4096 25.7884 27.9524 26.176 27.3703C26.5255 26.8434 26.6503 26.3744 26.6082 25.7227C26.582 25.314 26.3928 24.9343 26.377 24.5178C26.3612 24.0803 26.5202 23.7005 26.6017 23.2879C26.6345 23.1198 26.5806 22.8399 26.6595 22.698C26.8894 22.2815 29.1086 22.5127 29.1205 22.3905C29.0968 22.8255 29.0364 23.355 29.2138 23.7675C29.4411 24.297 29.6513 24.9015 29.4857 25.4717C29.357 25.9184 29.3162 26.3901 29.4923 26.8303C29.5081 26.8697 29.5265 26.9091 29.5449 26.9472Z" fill="#6B2F27"/>
<path d="M26.0958 27.2087C26.0958 27.2087 28.0181 26.2088 29.7866 27.1062L29.5554 26.5938C29.5554 26.5938 27.7868 25.9276 26.172 26.85L26.0958 27.2087Z" fill="#6B2F27"/>
<path d="M23.2 29.0548C23.0883 29.4989 23.422 29.5948 23.7636 29.3819C24.033 29.2137 24.5454 28.7775 24.5073 28.4136C24.4364 27.7461 23.288 28.6921 23.2 29.0285V29.0548Z" fill="#6B2F27"/>
<path d="M31.7549 29.3438C31.5499 29.3057 31.3266 28.8353 31.2399 28.675C31.1413 28.4937 30.9587 28.1692 31.2477 28.047C31.8337 27.8 32.1793 29.4227 31.7549 29.3438Z" fill="#6B2F27"/>
<path d="M24.5835 28.0036C25.2825 27.4373 25.8988 26.8553 25.8962 25.9014C25.8948 25.4415 25.8147 25.004 25.8594 24.5375C25.9067 24.0461 26.0657 23.5035 26.0131 23.0081C25.6281 23.3156 25.2681 23.7229 24.891 24.0632C24.3957 24.5112 23.9187 25.025 23.6152 25.6202C23.3353 26.1681 23.2525 26.7778 23.3012 27.3953C23.3209 27.6384 23.3997 28.386 23.6349 28.4911L24.5835 28.0036Z" fill="#6B2F27"/>
<path d="M30.709 28.0811C30.4843 27.708 30.2386 27.3677 29.9719 27.0247C29.6841 26.6542 29.604 26.4558 29.5817 25.9789C29.5606 25.561 29.7025 25.1866 29.6841 24.774C29.6671 24.3772 29.3557 23.9594 29.3701 23.5691C29.3714 23.5586 29.3517 23.5166 29.3491 23.5021C29.9009 24.2629 30.7077 24.7871 31.2477 25.5886C31.5709 26.0695 31.6511 26.5728 31.7076 27.1391C31.747 27.5411 31.8981 28.0562 31.8324 28.4569C31.6931 28.2559 31.6301 27.9787 31.3555 27.9208C31.1163 27.8696 30.8956 28.0877 30.7602 28.2598L30.709 28.0811Z" fill="#6B2F27"/>
<path d="M17.6118 23.1592C17.6118 23.1592 15.3216 22.1343 15.9707 20.8349C15.9707 20.8349 17.1335 19.9808 18.6708 19.9808C20.2094 19.9808 23.284 20.5274 23.284 20.5274L25.1642 21.5194L25.5058 21.861C25.5058 21.861 25.0276 23.6374 23.5244 23.7399L21.5759 23.5691L17.6118 23.1592Z" fill="#6B2F27"/>
<path d="M30.462 23.7057C30.462 23.7057 29.265 22.9542 29.8458 21.8268L30.6328 20.9715C30.6328 20.9715 31.931 20.2199 32.0676 20.1857C32.2043 20.1516 33.8099 20.0149 33.8099 20.0149L35.3826 20.1857L36.305 20.7665C36.305 20.7665 37.1249 22.3393 35.6559 23.1592C35.6559 23.1592 34.3919 23.7057 34.2553 23.7057C34.1187 23.7057 32.9558 23.6716 32.7509 23.6716C32.5459 23.6716 30.462 23.7057 30.462 23.7057Z" fill="#6B2F27"/>
<path d="M21.0977 25.0736C21.0977 25.0736 22.6008 24.4929 23.0449 24.0816L23.5928 24.2524C23.5928 24.2524 22.635 24.9711 21.0977 25.0736Z" fill="#6B2F27"/>
<path d="M32.1017 25.0736C32.1017 25.0736 31.1123 24.4929 30.8206 24.0816L30.4619 24.2524C30.4619 24.2524 31.0913 24.9711 32.1017 25.0736Z" fill="#6B2F27"/>
<path d="M23.3011 30.0284C23.3011 30.0284 24.301 29.4135 25.2497 29.4385C26.1983 29.4647 26.7357 29.5935 27.0445 29.8996C27.352 30.2084 29.248 30.8483 30.2216 29.336C30.2216 29.336 31.5552 29.311 31.6827 30.1309C31.6827 30.1309 31.299 30.7208 30.9653 30.8233C30.9653 30.8233 30.0166 32.2332 28.2481 32.3357C26.4795 32.4381 24.1736 30.9258 24.1736 30.9258C24.1736 30.9258 23.5324 30.5921 23.3011 30.0284Z" fill="#6B2F27"/>
<path d="M24.891 30.1059C24.891 30.1059 25.7109 29.7472 26.5058 30.3109C26.5058 30.3109 25.7371 30.9258 24.891 30.1059Z" fill="#050301"/>
<path d="M29.9141 30.3358L30.1966 30.0021C30.1966 30.0021 30.8115 29.9771 30.9652 30.2596C30.9652 30.2596 30.8115 30.6183 29.9141 30.3358Z" fill="#050301"/>
<path d="M31.0034 30.5447C31.0296 30.3423 30.985 30.1847 30.8063 30.0717C30.6683 29.985 30.4344 29.9403 30.2544 29.9679C30.2899 29.9061 30.3201 29.843 30.3451 29.7774C30.353 29.7576 30.3228 29.7406 30.3096 29.7563C29.9062 30.2596 29.4753 30.6551 28.8564 30.881C28.1758 31.1294 27.3874 31.0584 26.7922 30.634C26.783 30.6275 26.7712 30.6432 26.7804 30.6511C27.3782 31.1373 28.0904 31.2345 28.8209 31.0124C29.3137 30.8627 29.8813 30.5263 30.1914 30.0704C30.3543 30.0874 30.5106 30.0572 30.6749 30.1071C30.8733 30.1676 30.9823 30.3384 30.9784 30.5407C30.9784 30.5552 31.0007 30.5578 31.0034 30.5447ZM29.5304 26.62C30.0192 27.2376 30.6052 27.7854 30.8864 28.5423C30.8877 28.5462 30.893 28.5449 30.8917 28.541C30.6433 27.7789 30.2137 27.0746 29.5817 26.5675C29.5449 26.5385 29.5015 26.5832 29.5304 26.62ZM31.4251 27.8511C31.391 27.8249 31.3489 27.8656 31.3778 27.8997C31.7654 28.3557 31.9704 28.8668 31.8758 29.4725C31.7865 30.0415 31.4159 30.5368 30.9337 30.8377C30.918 30.8456 30.9311 30.8679 30.9469 30.86C31.5079 30.571 31.8995 30.0717 32.0033 29.4436C32.0992 28.8668 31.8824 28.2243 31.4251 27.8511ZM29.5883 25.3928C29.5423 25.716 29.5186 26.0195 29.6027 26.3388C29.604 26.3454 29.6132 26.3428 29.6119 26.3362C29.4766 25.6989 29.7735 25.0748 29.6408 24.4297C29.5029 23.7648 29.1034 23.1289 29.4161 22.4496C29.4253 22.4312 29.3991 22.4141 29.3872 22.4325C29.0561 22.9975 29.3518 23.644 29.5213 24.2116C29.6408 24.611 29.6474 24.9829 29.5883 25.3928ZM24.2708 30.3279C24.2616 30.3345 24.2695 30.3502 24.28 30.3436C25.0276 29.8838 26.017 29.9889 26.7239 30.4606C26.7489 30.4764 26.7725 30.4409 26.7541 30.4212C26.1576 29.7445 24.9449 29.8496 24.2708 30.3279ZM24.6374 31.0965C24.0934 30.8902 23.56 30.4632 23.2814 29.9495C22.8991 29.2439 23.4036 28.6342 23.9778 28.2506C23.9975 28.2374 23.9804 28.2072 23.9581 28.2177C23.3379 28.5436 22.8912 29.1243 23.1146 29.8457C23.3261 30.5302 23.9844 30.9257 24.6321 31.1136C24.644 31.1163 24.6466 31.1005 24.6374 31.0965Z" fill="black"/>
<path d="M12.8699 28.7881C12.8541 28.6685 12.9606 28.4688 13.0092 28.365C13.1314 28.1022 13.2759 27.8132 13.2457 27.5162C13.2404 27.4715 13.176 27.4558 13.1629 27.5057C13.1103 27.6949 13.0788 27.8841 13.0092 28.0694C12.9487 28.231 12.8699 28.3821 12.8265 28.5503C12.7438 28.8669 12.9855 29.1691 13.1971 29.3688C13.2049 29.3767 13.2181 29.3636 13.2089 29.3557C13.0486 29.1954 12.8975 29.022 12.8699 28.7881ZM13.1248 27.465C13.1248 27.5004 13.176 27.4991 13.1787 27.465C13.226 26.9578 12.9592 26.4059 12.7543 25.9553C12.5414 25.4901 12.2944 24.9751 11.9488 24.5914C11.8188 24.4456 11.6506 24.347 11.4693 24.2774C11.2945 24.2104 11.1381 24.2459 10.9595 24.28C10.539 24.3602 10.3958 24.7806 10.38 25.159C10.38 25.163 10.3866 25.163 10.3866 25.159C10.4194 24.778 10.694 24.1276 11.196 24.3444C11.3418 24.4075 11.4877 24.4403 11.6256 24.5257C11.8017 24.6335 11.9291 24.7859 12.0474 24.9514C12.0723 24.9869 12.096 25.0237 12.1196 25.0592C12.1775 25.4428 12.1643 25.8265 12.1578 26.2141C12.1538 26.4611 11.824 26.6201 11.6782 26.8146C11.3839 27.2074 11.5166 27.712 11.6624 28.1325C11.6637 28.1364 11.669 28.1351 11.669 28.1311C11.5796 27.8395 11.4942 27.5307 11.5494 27.2245C11.5954 26.9775 11.8096 26.7883 11.9948 26.6372C12.0684 26.5781 12.2392 26.5045 12.2878 26.423C12.3496 26.3166 12.3075 26.067 12.3102 25.9448C12.3154 25.7096 12.2997 25.4717 12.2445 25.2444C12.4271 25.5282 12.5913 25.8265 12.7398 26.1287C12.9435 26.5452 13.1248 26.9946 13.1248 27.465Z" fill="#6B2F27"/>
<path d="M13.4073 25.8738C13.4402 25.6898 13.4796 25.5059 13.5177 25.3219C13.5505 25.159 13.5834 24.9974 13.6136 24.8358C13.6741 24.5125 13.7187 24.1893 13.7187 23.8582C13.7187 23.8135 13.72 23.7689 13.7187 23.7229C13.7174 23.7203 13.7135 23.7203 13.7135 23.7229C13.7148 23.7886 13.7135 23.8529 13.7095 23.9173C13.7016 24.0842 13.6793 24.2511 13.6478 24.4153C13.5637 24.8568 13.4178 25.2917 13.3245 25.7292C13.2339 26.1484 13.1918 26.5701 13.2943 27.0024C13.3035 27.0405 13.314 27.0773 13.3245 27.1154C13.3377 27.1561 13.3981 27.1391 13.3889 27.097C13.2956 26.6897 13.3337 26.285 13.406 25.8816C13.406 25.879 13.406 25.8764 13.4073 25.8738ZM37.8213 24.8121C37.7123 24.5152 37.5914 24.2222 37.456 23.9357C37.3522 23.715 37.3338 23.3839 37.3312 23.1303C37.322 21.9386 37.5414 20.7666 37.6991 19.5906C37.7753 19.023 37.8371 18.4554 37.8515 17.8838C37.891 16.3255 37.6058 14.7672 37.1617 13.2785C36.8188 12.1288 36.3786 11.0107 35.6021 10.0804C35.1816 9.57587 34.6732 9.15542 34.162 8.74548C33.6181 8.30794 33.0583 7.89011 32.4815 7.49725C31.2898 6.68393 30.0061 5.98623 28.6304 5.54081C27.331 5.12167 25.9973 5.05202 24.644 5.13612C23.4864 5.20838 22.342 5.42649 21.2462 5.80622C18.7826 6.65895 16.6764 8.3329 14.8185 10.1185C13.159 11.7123 11.7202 13.6214 11.2262 15.9077C11.0567 16.6973 11.0042 17.5093 10.991 18.3148C10.9726 19.5564 11.2998 20.8046 11.6953 21.9714C11.8306 22.3708 11.9791 22.7676 12.1486 23.1553C12.0934 23.1171 12.0382 23.0804 11.9804 23.0462C11.8569 22.9739 11.6506 23.0449 11.5271 23.0791C11.1211 23.196 10.6087 23.397 10.2868 23.6769C9.9609 23.9607 9.95827 24.615 9.93594 25.0026C9.89521 25.7043 9.90572 26.4571 10.0673 27.143C10.3419 28.3058 11.2643 29.1362 11.8635 30.1283C12.0159 30.3818 12.0868 30.6775 12.2366 30.9271C12.3247 31.0729 12.4889 31.1649 12.6374 31.2346C12.9816 31.3975 13.3771 31.454 13.7529 31.4921C13.8304 31.4987 13.9079 31.5039 13.9854 31.5079C13.9854 31.5105 13.9868 31.5118 13.9868 31.5157C13.9973 31.5604 14.0078 31.6051 14.0183 31.6498C14.0998 31.994 14.1839 32.3383 14.2706 32.6812C14.3823 33.1266 14.5005 33.5707 14.6306 34.0109C14.7186 34.3092 14.8027 34.6258 14.9512 34.9004C15.1141 35.2039 15.4794 35.422 15.754 35.6112C16.1101 35.8583 16.4845 36.079 16.8616 36.2932C17.1941 36.4797 17.4174 36.7754 17.6789 37.0526C18.0284 37.4245 18.3831 37.7924 18.7589 38.1379C19.7207 39.0196 20.8467 39.6726 22.0175 40.2336C22.0214 40.2363 22.024 40.2336 22.024 40.2297C22.0253 40.2284 22.0253 40.2257 22.0227 40.2257C20.8927 39.6752 19.818 39.0314 18.8824 38.1852C18.5053 37.8449 18.1545 37.4757 17.809 37.1038C17.5606 36.8371 17.3254 36.4745 17.0062 36.2945C16.6606 36.0987 16.3203 35.8924 15.9879 35.6743C15.6581 35.4588 15.2245 35.2105 15.0221 34.8597C14.8553 34.568 14.7764 34.208 14.6845 33.8887C14.5557 33.4459 14.4414 33.0005 14.331 32.5537C14.2403 32.1872 14.1523 31.8193 14.0682 31.4514C14.0643 31.4303 14.0433 31.4172 14.0236 31.4172C13.8002 31.4093 13.5111 31.3922 13.2286 31.3371C12.795 31.2543 12.3798 31.0795 12.2484 30.7011C11.8871 29.6565 11.0015 28.9024 10.4878 27.9406C10.158 27.3243 10.0752 26.6687 10.045 25.9802C10.0174 25.3626 10.0056 24.7018 10.1803 24.1039C10.3183 23.6335 10.8544 23.4601 11.2696 23.2906C11.4548 23.2157 11.7071 23.1001 11.9108 23.1408C12.0251 23.1631 12.1565 23.2985 12.2511 23.3629C12.2524 23.3629 12.2524 23.3629 12.2537 23.3629C12.2957 23.4378 12.3378 23.51 12.3812 23.5823C12.4915 23.7702 12.6006 23.9581 12.6899 24.163C12.8397 24.5073 12.9724 24.8568 13.0946 25.2115C13.0972 25.2194 13.1091 25.2155 13.1064 25.2076C12.9921 24.8489 12.8988 24.4836 12.7688 24.1302C12.6702 23.8635 12.5428 23.531 12.3338 23.3182C12.3352 23.3077 12.3352 23.2959 12.3299 23.284C12.0435 22.6652 11.7991 22.0227 11.6046 21.3644C11.2525 20.1674 11.0685 18.9205 11.1264 17.6788C11.1658 16.8248 11.288 15.9799 11.5416 15.1613C11.8661 14.1141 12.4101 13.151 13.0565 12.2707C13.9526 11.0514 15.0615 9.99764 16.2073 9.01483C17.2229 8.1437 18.3083 7.34746 19.4868 6.71021C21.6482 5.54213 24.1539 5.06517 26.5991 5.24649C29.5699 5.46592 32.2411 7.3041 34.4708 9.14096C35.4641 9.96085 36.1842 10.9318 36.6546 12.1301C37.2182 13.5676 37.5809 15.1114 37.7096 16.65C37.7543 17.19 37.7491 17.7274 37.7149 18.2622C37.6282 19.6602 37.3483 21.0451 37.2576 22.4484C37.2353 22.7939 37.2222 23.1316 37.2629 23.4614C37.2918 23.6966 37.3496 23.9292 37.4508 24.1565C37.8529 25.0565 38.2339 26.0827 38.1958 27.0813C38.1879 27.2849 38.1524 27.4846 38.1038 27.683C38.0013 28.1022 37.8266 28.5082 37.6518 28.8932C37.4508 29.3373 37.305 29.7814 37.2143 30.261C37.0448 31.1741 36.87 32.086 36.6611 32.99C36.4535 33.8887 36.2512 34.8754 35.7887 35.6835C35.5285 36.1394 35.1409 36.5481 34.8216 36.9633C34.5365 37.3351 34.2501 37.7056 33.9649 38.0761C33.9426 38.1051 33.9203 38.134 33.8979 38.1642C33.8901 38.1734 33.8927 38.1839 33.8979 38.1918C33.9058 38.2023 33.919 38.2075 33.9282 38.1944C34.4984 37.4625 35.0765 36.7373 35.6481 36.0067C36.1579 35.3563 36.3629 34.4905 36.5705 33.706C36.828 32.7285 37.029 31.7365 37.2182 30.7432C37.2971 30.3345 37.3588 29.922 37.4928 29.5265C37.6689 29.0009 37.9488 28.5174 38.1143 27.9866C38.4507 26.9013 38.2023 25.8501 37.8213 24.8121ZM13.6898 29.0193C13.833 29.6027 13.9552 30.1952 13.9697 30.797C13.9697 30.7996 13.9736 30.7996 13.9736 30.797C13.9815 29.6986 13.7371 28.5699 13.3771 27.5333C13.3758 27.5267 13.3732 27.5188 13.3705 27.5122C13.3653 27.4978 13.3403 27.4991 13.3429 27.5162C13.3666 27.7172 13.4073 27.9169 13.4546 28.114C13.5269 28.4175 13.6162 28.7184 13.6898 29.0193Z" fill="#642A23"/>
<path d="M34.0162 37.7438C32.8993 38.4625 31.5999 38.992 30.2899 39.2219C29.8642 39.2968 29.3163 39.0629 29.3504 38.5544C29.3741 38.2036 29.7472 37.5848 30.0429 37.41C30.0389 37.4126 29.4752 37.7438 28.428 37.7687C27.3769 37.795 26.2745 37.5637 26.2745 37.5637C26.2745 37.5637 26.967 38.4612 27.147 38.8199C27.5175 39.5609 26.084 39.4479 25.8002 39.4229C25.092 39.3599 24.3864 39.2561 23.6861 39.1273C21.8663 38.7949 20.0715 37.9224 20.0715 37.9224C20.0715 37.9224 20.2515 38.3587 20.5077 38.5374C20.7639 38.7174 21.2002 39.3323 22.1225 40.4596C23.0449 41.5883 24.481 42.1007 24.481 42.1007C28.4018 43.5106 30.2991 42.0495 30.2991 42.0495C32.5551 40.9983 33.6561 38.4349 33.7849 38.1787C33.9124 37.9224 34.3998 37.5125 34.3998 37.5125L34.0162 37.7438Z" fill="#050301"/>
<path d="M21.5076 34.2316C21.5076 34.2316 24.0027 36.1802 26.1549 36.8292C26.1549 36.8292 27.3178 37.205 28.7867 37.1025C30.2557 37 31.0769 36.0435 31.0769 36.0435C31.0769 36.0435 32.4092 34.6074 32.6484 34.4366C32.8875 34.2658 32.2384 34.095 32.2384 34.095L31.1452 33.89L25.9158 34.0266L21.5076 34.2316Z" fill="#5A2118"/>
<path d="M24.3522 36.0553V36.0619C24.9396 36.3707 25.5597 36.6492 26.1549 36.8292C26.1549 36.8292 27.3178 37.205 28.7867 37.1025C30.2557 37 31.0769 36.0435 31.0769 36.0435C31.0769 36.0435 31.1268 35.9883 31.2096 35.9003C30.9534 36.0606 29.9062 36.6624 28.4451 36.803C26.7567 36.9646 24.3522 36.0553 24.3522 36.0553Z" fill="#471814"/>
<path d="M32.58 33.9241C32.0676 33.8729 30.7353 32.7968 29.5041 32.7968C29.3714 32.8191 29.2387 32.8572 29.1139 32.9072C28.9063 32.9913 28.7618 33.1805 28.5568 33.2488C28.139 33.3868 27.7908 32.9702 27.4058 32.9072C27.1496 32.8638 26.7974 32.8966 26.5452 32.9571C26.285 33.0202 26.0262 33.0858 25.7686 33.1555C25.1616 33.3197 24.5559 33.4958 23.9686 33.7192C22.8911 34.1291 22.4812 34.1803 22.0713 34.1803C21.6613 34.1803 20.8414 33.9754 20.8414 33.9754C22.8294 34.97 24.9133 34.6139 26.9998 34.5916L27.3519 34.6416C27.7106 34.6416 28.0181 34.7953 28.3255 34.8978C28.6343 34.8294 28.9891 34.6902 29.2978 34.4839C30.3621 34.3801 31.5709 34.1843 32.6313 34.3853C32.99 34.2829 33.3999 33.9241 33.5536 33.5654C33.5536 33.5654 33.0925 33.9754 32.58 33.9241Z" fill="#471814"/>
<path d="M27.1982 34.5811C25.0618 34.5049 22.857 34.9082 20.8454 33.9688C20.8362 33.9649 20.8283 33.978 20.8375 33.9819C21.7993 34.476 22.8136 34.6822 23.8897 34.719C24.9921 34.7558 26.0971 34.6455 27.1982 34.6008C27.21 34.6008 27.21 34.5811 27.1982 34.5811ZM33.551 33.5628C33.3828 33.9005 33.0438 34.1908 32.6825 34.3052C32.5235 34.3538 32.3501 34.3091 32.1872 34.292C31.973 34.2697 31.7628 34.25 31.546 34.2513C30.8522 34.2513 30.1624 34.3446 29.4752 34.4274C29.5712 34.3406 29.6565 34.2447 29.7275 34.1396C29.7406 34.1186 29.7117 34.1015 29.696 34.1146C29.3281 34.4076 28.9589 34.6323 28.5095 34.7769C28.2861 34.8478 28.1626 34.8281 27.9393 34.7493C27.7474 34.6823 27.5543 34.6441 27.3519 34.6402C27.348 34.6389 27.348 34.6442 27.3519 34.6442C27.5267 34.652 27.6896 34.6875 27.8552 34.7401C27.9616 34.7729 28.2126 34.8242 28.2677 34.9319C28.2809 34.9608 28.315 34.9687 28.3426 34.9634C28.6948 34.8938 29.0745 34.7427 29.3741 34.5115C30.1913 34.4431 31.0007 34.3433 31.8232 34.3472C32.0545 34.3472 32.3974 34.313 32.5997 34.4405C32.6641 34.4825 32.8113 34.3748 32.8625 34.3485C33.1752 34.183 33.4157 33.8847 33.5576 33.568C33.5602 33.5628 33.5523 33.5575 33.551 33.5628Z" fill="#471814"/>
<path d="M15.9196 20.8532C15.9196 20.8532 16.792 20.3907 19.0467 20.3907C21.3027 20.3907 21.7126 20.442 22.1738 20.5957C22.635 20.7494 23.4549 21.2632 24.1736 21.3656L24.7373 21.4681C24.7373 21.4681 25.4034 21.7756 25.5572 21.9293C25.5572 21.9293 24.7885 20.5444 24.2761 20.237L24.4298 20.6982L23.8662 20.1857C23.8662 20.1857 23.3524 20.1345 22.3788 20.032C21.4052 19.9295 18.3805 19.0584 18.3805 19.0584C18.3805 19.0584 17.6631 19.1609 15.9196 20.8532Z" fill="#050301"/>
<path d="M36.3221 20.8532C36.3221 20.8532 35.7295 20.3907 34.1935 20.3907C32.6575 20.3907 32.3777 20.442 32.0637 20.5957C31.7496 20.7494 31.1912 21.2632 30.7024 21.3656L30.3188 21.4681C30.3188 21.4681 29.8655 21.7756 29.7603 21.9293C29.7603 21.9293 30.2846 20.5444 30.6328 20.237L30.529 20.6982L30.9127 20.1857C30.9127 20.1857 31.2608 20.1345 31.9244 20.032C32.5879 19.9295 34.6468 19.0584 34.6468 19.0584C34.6468 19.0584 35.1356 19.1609 36.3221 20.8532Z" fill="#050301"/>
<path d="M17.9574 22.3432C18.4711 21.6968 19.5354 21.4931 20.3067 21.4458C21.2409 21.388 22.2552 21.5969 22.9293 22.2841C22.9477 22.3025 22.9713 22.2762 22.9569 22.2565C22.3577 21.4839 21.2212 21.317 20.3067 21.3446C19.4737 21.3709 18.4304 21.5825 17.9482 22.3367C17.9443 22.3419 17.9535 22.3485 17.9574 22.3432Z" fill="#1E0D0B"/>
<path d="M17.9876 23.5009L17.5777 23.1592C17.5777 23.1592 18.1926 22.271 19.8665 21.9977C21.5418 21.7244 22.7716 22.5785 23.217 23.3642L21.371 23.6375L17.9876 23.5009Z" fill="#050301"/>
<path d="M17.9193 23.2958C19.1491 21.7927 22.0542 21.9977 23.217 23.4667L23.5586 23.7399L23.1132 23.6716C21.7126 24.4245 19.4566 24.9014 17.9876 23.535L17.9193 23.2958Z" fill="white"/>
<path d="M21.7231 23.0987C21.7231 22.8478 21.6521 22.6152 21.5312 22.4155C20.7994 22.2118 19.9887 22.2066 19.2779 22.4234C19.1596 22.6205 19.09 22.8517 19.09 23.0987C19.09 23.7636 19.5827 24.3115 20.2239 24.4008C20.3592 24.4048 20.4959 24.4022 20.6325 24.3943C21.2514 24.2878 21.7231 23.7491 21.7231 23.0987Z" fill="#310F0B"/>
<path d="M20.4065 24.2642C21.0504 24.2642 21.572 23.7413 21.572 23.0988C21.572 22.8189 21.4734 22.5627 21.3092 22.3617C20.7153 22.2316 20.0833 22.2276 19.5026 22.3643C19.3396 22.564 19.2411 22.8202 19.2411 23.0988C19.2411 23.7413 19.7627 24.2642 20.4065 24.2642Z" fill="#310F0B"/>
<path d="M21.0937 23.0988C21.0937 23.4785 20.7863 23.7859 20.4065 23.7859C20.0268 23.7859 19.7194 23.4785 19.7194 23.0988C19.7194 22.7191 20.0268 22.4116 20.4065 22.4116C20.7863 22.4116 21.0937 22.7191 21.0937 23.0988Z" fill="#050301"/>
<path d="M20.8927 23.0988C20.8927 23.3668 20.6746 23.5836 20.4065 23.5836C20.1385 23.5836 19.9217 23.3668 19.9217 23.0988C19.9217 22.8308 20.1385 22.6127 20.4065 22.6127C20.6746 22.6127 20.8927 22.8308 20.8927 23.0988Z" fill="#050301"/>
<path d="M20.6877 22.5272C20.6877 22.6836 20.5616 22.8097 20.4066 22.8097C20.2515 22.8097 20.1254 22.6836 20.1254 22.5272C20.1254 22.3722 20.2515 22.246 20.4066 22.246C20.5616 22.246 20.6877 22.3722 20.6877 22.5272Z" fill="white"/>
<path d="M17.9272 23.3037C18.5973 22.5784 19.6353 22.2946 20.5931 22.3222C21.0937 22.3366 21.5891 22.451 22.0489 22.6481C22.5062 22.8438 22.8478 23.1421 23.1934 23.4903C23.2183 23.5152 23.2656 23.4824 23.2446 23.4509C22.7033 22.6244 21.5221 22.2683 20.5931 22.2105C20.0636 22.1777 19.5249 22.2565 19.0282 22.4444C18.5578 22.6231 18.211 22.8964 17.9101 23.2906C17.9035 23.3011 17.918 23.3116 17.9272 23.3037Z" fill="#050301"/>
<path d="M17.9797 23.5429C19.3659 24.8095 21.5917 24.5796 23.1198 23.6821C23.1316 23.6743 23.1211 23.6559 23.108 23.6624C21.5011 24.4258 19.45 24.8397 17.9955 23.5271C17.985 23.5166 17.9679 23.5337 17.9797 23.5429Z" fill="black"/>
<path d="M35.3603 22.3432C34.9149 21.6968 33.9899 21.4931 33.3198 21.4458C32.5078 21.388 31.6274 21.5969 31.0414 22.2841C31.0257 22.3025 31.0046 22.2762 31.0178 22.2565C31.5381 21.4839 32.5262 21.317 33.3198 21.3446C34.0424 21.3709 34.949 21.5825 35.3682 22.3367C35.3708 22.3419 35.3642 22.3485 35.3603 22.3432Z" fill="#1E0D0B"/>
<path d="M35.334 23.5009L35.6901 23.1592C35.6901 23.1592 35.1554 22.271 33.7008 21.9977C32.2463 21.7244 31.1781 22.5785 30.7918 23.3642L32.3948 23.6375L35.334 23.5009Z" fill="#050301"/>
<path d="M35.3931 23.2958C34.3249 21.7927 31.8022 21.9977 30.7918 23.4667L30.4948 23.7399L30.8811 23.6716C32.0978 24.4245 34.0569 24.9014 35.334 23.535L35.3931 23.2958Z" fill="white"/>
<path d="M34.2724 23.0988C34.2724 22.832 34.1949 22.5837 34.0648 22.3761C33.3487 22.1698 32.5367 22.2486 31.8561 22.5758C31.7891 22.7361 31.751 22.9122 31.751 23.0988C31.751 23.6729 32.1031 24.1591 32.5932 24.3391C32.789 24.3746 32.9874 24.3969 33.1845 24.4022C33.7981 24.3128 34.2724 23.7636 34.2724 23.0988Z" fill="#310F0B"/>
<path d="M33.011 24.2642C33.6272 24.2642 34.1265 23.7413 34.1265 23.0988C34.1265 22.8005 34.0188 22.5285 33.8427 22.3222C33.258 22.204 32.6273 22.2631 32.065 22.4839C31.9599 22.6625 31.8968 22.8728 31.8968 23.0988C31.8968 23.7413 32.3961 24.2642 33.011 24.2642Z" fill="#310F0B"/>
<path d="M33.6693 23.0988C33.6693 23.4785 33.375 23.7859 33.0111 23.7859C32.6484 23.7859 32.3541 23.4785 32.3541 23.0988C32.3541 22.7191 32.6484 22.4116 33.0111 22.4116C33.375 22.4116 33.6693 22.7191 33.6693 23.0988Z" fill="#050301"/>
<path d="M33.4761 23.0988C33.4761 23.3668 33.2685 23.5836 33.011 23.5836C32.7548 23.5836 32.5472 23.3668 32.5472 23.0988C32.5472 22.8308 32.7548 22.6127 33.011 22.6127C33.2685 22.6127 33.4761 22.8308 33.4761 23.0988Z" fill="#050301"/>
<path d="M33.2817 22.5272C33.2817 22.6836 33.1608 22.8097 33.011 22.8097C32.8625 22.8097 32.743 22.6836 32.743 22.5272C32.743 22.3722 32.8625 22.246 33.011 22.246C33.1608 22.246 33.2817 22.3722 33.2817 22.5272Z" fill="white"/>
<path d="M35.3866 23.3037C34.8032 22.5784 33.9032 22.2946 33.0701 22.3222C32.6365 22.3366 32.2056 22.451 31.8061 22.6481C31.4093 22.8438 31.1124 23.1421 30.8128 23.4903C30.7892 23.5152 30.7497 23.4824 30.7681 23.4509C31.2385 22.6244 32.2634 22.2683 33.0701 22.2105C33.5313 22.1777 33.9978 22.2565 34.43 22.4444C34.8387 22.6231 35.1396 22.8964 35.401 23.2906C35.4076 23.3011 35.3945 23.3116 35.3866 23.3037Z" fill="#050301"/>
<path d="M35.3406 23.5429C34.137 24.8095 32.2029 24.5796 30.8759 23.6821C30.8654 23.6743 30.8746 23.6559 30.8864 23.6624C32.2818 24.4258 34.0621 24.8397 35.3274 23.5271C35.3366 23.5166 35.3511 23.5337 35.3406 23.5429Z" fill="black"/>
</svg>
