<svg width="50" height="50" viewBox="0 0 50 50" fill="none" xmlns="http://www.w3.org/2000/svg">
<path d="M50 25.0001C50 38.8072 38.8079 50 25.0003 50C11.1929 50 0 38.8072 0 25.0001C0 11.1932 11.1929 0 25.0003 0C38.8079 0 50 11.1932 50 25.0001Z" fill="#8BD489"/>
<path d="M31.8631 45.117C30.9709 42.5834 31.9445 35.7621 31.9445 35.7621L17.2522 34.5927C17.2522 34.5927 17.4145 43.5576 16.8461 45.3117C16.6248 45.9953 15.7494 46.7528 14.7637 47.4228C17.8882 48.8267 21.3525 49.6082 24.9997 49.6082C28.2662 49.6082 31.3861 48.9809 34.2465 47.8415C33.2309 47.1223 32.2415 46.1899 31.8631 45.117Z" fill="#F4967B"/>
<path d="M23.8169 4.00218C23.8169 4.00218 18.5899 5.55391 17.0891 6.27919C15.5882 7.00315 11.7583 10.4706 10.8787 11.5059C9.99882 12.5413 8.49794 18.9072 8.49794 18.9072L7.94374 20.1659C7.92745 20.1606 7.90721 20.1619 7.89447 20.1803C7.16879 21.2026 6.69118 22.3864 6.3832 23.5957C6.30529 23.9013 6.23933 24.2106 6.19163 24.5221C6.17219 24.6475 6.23001 24.7533 6.26903 24.8736C6.57714 25.8208 6.86226 26.7851 7.03819 27.7667C7.22674 28.819 7.13201 29.9215 7.0562 30.9812C7.02926 31.3557 6.99851 31.7301 6.96001 32.1037C6.95791 32.1251 6.97867 32.1395 6.9972 32.141C7.53958 32.1829 8.18129 32.3793 8.60292 32.7244C9.10589 33.1359 9.35697 33.8667 9.57863 34.4523C9.81842 35.086 9.99409 35.7571 10.3494 36.3398C10.4693 36.5367 10.643 36.7917 10.8623 36.8935C10.8889 36.9057 10.9283 36.8782 10.9071 36.8485C10.5746 36.3816 10.3081 35.74 10.4126 35.1483C10.5365 35.7079 10.7342 36.2743 11.106 36.7164C11.1792 36.8033 11.2248 36.837 11.3281 36.8826C11.6085 37.0063 11.8807 37.15 12.1507 37.2953C12.7718 37.6306 13.4131 37.9905 13.944 38.4602C14.1902 38.6783 14.3816 38.9416 14.6487 39.1412C14.8423 39.2854 15.0467 39.4217 15.2661 39.524C15.2891 39.5347 15.3127 39.5079 15.2939 39.4881C14.9181 39.0958 14.7249 38.5639 14.6372 38.0353C14.6351 38.0233 14.6334 38.0146 14.6315 38.0069C14.6456 38.021 14.6602 38.0353 14.6744 38.0494C14.8104 38.1829 14.9477 38.3144 15.086 38.4451C15.747 39.0707 16.4455 39.7766 17.3995 39.8785C17.4101 39.8795 17.4146 39.8649 17.4079 39.8582C16.7936 39.2768 16.5931 38.463 16.733 37.643C16.7335 37.6396 16.7311 37.6376 16.7287 37.6363L18.1242 33.8115L28.7334 5.91655C28.7334 5.91655 26.7153 3.17443 26.6115 3.01807C26.5083 2.86303 23.8169 4.00218 23.8169 4.00218ZM42.5031 23.5328L42.6555 21.9081L41.879 20.7177L40.8962 20.3564L37.6876 21.7019L34.0638 27.3942L33.4437 36.9659C33.441 36.9659 33.4384 36.9683 33.441 36.971C33.8838 37.5122 34.5079 37.8934 35.1991 38.0153C35.2109 38.0172 35.2201 38.0043 35.2109 37.9951C34.9599 37.7226 34.7431 37.3462 34.7642 36.9668C34.7839 36.6134 35.1715 36.3601 35.4145 36.1504C35.6918 35.9111 35.9743 35.6796 36.2265 35.413C36.8717 34.7311 37.0136 33.6947 37.1673 32.8045C37.1765 32.7517 37.1883 32.6425 37.2015 32.6281C37.3026 32.5232 37.4104 32.4245 37.5194 32.3276C38.0226 31.8794 38.5837 31.5115 39.1841 31.2068C39.7005 30.9443 40.1827 30.6042 40.6097 30.2118C40.7687 30.0647 40.8817 29.9378 40.9868 29.7502C41.2299 29.3133 41.4506 28.792 41.3836 28.2827C41.3232 27.8184 41.0919 27.4213 41.1103 26.9393C41.1379 26.2262 41.582 25.5381 41.9644 24.9582C42.2534 24.5195 42.4229 24.0899 42.532 23.5734C42.5372 23.5508 42.5202 23.5358 42.5031 23.5328Z" fill="#1E0B09"/>
<path d="M37.7901 26.2556L37.325 18.6483C37.2553 18.1648 36.2896 16.3017 35.3239 15.6119C34.3569 14.9221 32.2178 14.0247 31.1141 13.8171C30.0104 13.6108 28.975 14.3006 28.975 14.3006L26.4219 16.3713C26.4219 16.3713 22.7646 18.9925 22.1434 19.3381C21.5226 19.6823 17.5893 22.029 16.6921 22.5812C16.2118 22.8769 15.8307 23.6074 15.5799 24.2227C15.0032 24.2465 14.5417 24.4351 14.3462 24.5132C14.0011 24.6514 12.621 26.5835 12.4829 26.9977C12.3449 27.4115 11.8102 29.7747 11.8102 29.7747C12.0689 31.3273 12.2762 33.6045 14.3979 33.1386C14.5532 33.2421 14.7602 33.3458 14.8637 33.501L14.9789 33.4752L15.019 33.6563C15.4849 35.157 15.6401 36.3991 16.6751 37.6414C17.6066 38.8315 19.1075 40.1255 20.4531 40.8498C20.4531 40.8498 22.5233 42.6093 24.2308 43.1273C25.9389 43.6448 29.9237 43.8517 31.1654 42.1955C32.2362 40.7677 33.4949 37.4344 33.4949 37.4344C33.4949 37.4344 34.1164 36.7616 34.6853 35.5713C35.2542 34.3806 36.2384 30.5513 36.2384 30.5513C36.2384 30.5513 36.9623 30.5513 37.2724 29.93C37.5838 29.3091 37.3762 27.9118 37.6351 27.239C37.8939 26.5662 37.7901 26.2556 37.7901 26.2556Z" fill="#F8A38A"/>
<path d="M20.6955 37.9374C22.7766 36.6649 22.9803 33.2072 21.1502 30.214C19.3204 27.2207 16.1499 25.8258 14.0688 27.0981C12.4938 28.0608 11.9953 30.2765 12.6394 32.5949C13.0011 33.0691 13.5444 33.3263 14.3979 33.1386C14.5532 33.2422 14.7602 33.3458 14.8637 33.501L14.9789 33.4753L15.019 33.6563C15.4849 35.1571 15.6401 36.3991 16.6751 37.6414C16.7409 37.7254 16.8101 37.81 16.8816 37.895C18.219 38.537 19.6064 38.6029 20.6955 37.9374Z" fill="#F8A38A"/>
<path d="M34.6853 35.5713C35.2543 34.3807 36.2384 30.5513 36.2384 30.5513C36.2384 30.5513 36.9623 30.5513 37.2724 29.93C37.5838 29.3091 37.3762 27.9118 37.6351 27.239C37.8939 26.5662 37.7901 26.2556 37.7901 26.2556L37.7809 26.1064C37.7376 26.0799 37.6929 26.054 37.6469 26.0308C35.8495 25.1213 33.1073 26.9217 31.5241 30.0521C29.9408 33.1829 30.1143 36.4577 31.9117 37.3668C32.3742 37.6008 32.8984 37.6544 33.449 37.5533C33.4779 37.4777 33.4949 37.4344 33.4949 37.4344C33.4949 37.4344 34.1164 36.7616 34.6853 35.5713Z" fill="#F8A38A"/>
<path d="M27.7329 32.7937C27.7329 32.7937 26.2494 32.7594 26.1458 31.9313C26.0424 31.103 26.3875 30.6544 26.4219 29.7231C26.4565 28.7913 26.3184 27.5149 26.3875 26.5835C26.4565 25.6517 26.4219 25.1687 26.4219 25.1687L28.5609 24.9619C28.5609 24.9619 28.5609 26.2728 28.5609 26.8247C28.5609 27.377 28.6645 28.5845 28.5956 29.1709C28.5265 29.7575 28.6301 30.4821 28.699 30.7929C28.7681 31.103 29.113 31.5862 28.9061 32.1381C28.9061 32.1381 28.5265 32.7937 27.7329 32.7937Z" fill="#F8A38A"/>
<path d="M26.0424 30.8961C26.0424 30.8961 27.1121 30.2409 28.699 30.7929L28.7681 30.5167C28.7681 30.5167 27.3533 30.0682 26.1458 30.5857L26.0424 30.8961Z" fill="#F8A38A"/>
<path d="M16.7268 25.2206C16.7268 25.2206 17.3995 25.7381 18.3312 25.6864C19.2628 25.6346 20.9188 25.8415 20.9188 25.8415L23.61 26.4107C23.61 26.4107 25.6283 25.4277 25.473 23.8233C25.473 23.8233 24.179 22.9952 24.0239 22.9952C23.8686 22.9952 22.6267 22.4258 22.4197 22.4258C22.2126 22.4258 21.2293 21.9607 19.8837 22.1669C18.5382 22.3745 17.4514 22.6329 17.1926 22.7883C16.9337 22.9436 16.7268 25.2206 16.7268 25.2206Z" fill="#F8A38A"/>
<path d="M30.0788 26.2556C30.0788 26.2556 29.096 25.3243 29.1998 24.2373C29.1998 24.2373 29.8725 23.668 30.1314 23.254C30.3902 22.8401 32.6672 22.5811 32.6672 22.5811C32.6672 22.5811 34.219 22.477 34.3753 22.477C34.5303 22.477 35.3581 22.477 35.3581 22.477L35.927 23.668L35.772 24.7548C35.772 24.7548 35.0993 25.8416 34.1165 25.8416C33.1323 25.8416 30.0788 26.2556 30.0788 26.2556Z" fill="#F8A38A"/>
<path d="M24.1791 32.0003C24.4799 31.6877 24.8879 31.0281 25.1627 30.6544C25.5445 30.1356 25.58 29.7666 25.7851 29.1538C26.0708 28.2995 26.1808 26.949 25.8262 26.1095C25.2257 26.075 24.6519 26.7935 24.27 27.1743C23.7334 27.7091 23.3115 28.3393 23.1818 29.0994C22.9955 30.1906 23.1829 31.8794 24.1791 32.5695V32.0003Z" fill="#F8A38A"/>
<path d="M30.1314 31.8451C29.774 31.386 28.9273 30.9188 28.8889 30.2922C28.8889 30.2922 28.6819 29.1538 28.7335 28.1186C28.7853 27.0836 28.7853 26.4108 28.7853 26.4108C28.7853 26.4108 29.234 26.9801 29.4928 27.3425C29.7516 27.7047 30.9762 28.5329 31.08 29.6195C31.1838 30.7065 30.8382 31.6205 30.0788 32.6213C30.0788 32.6213 30.1826 32.3625 30.0788 32.1037L30.1314 31.8451Z" fill="#F8A38A"/>
<path d="M20.8325 40.6602C20.2115 39.9011 18.9694 37.9002 17.7275 34.933C17.7275 34.933 16.4164 33.208 15.8641 32.6557C15.3121 32.1036 14.4843 30.8617 14.4153 30.5858C14.3462 30.3096 14.3462 30.3096 14.3462 30.3096C14.3462 30.3096 13.3799 30.3096 13.3799 29.3438C13.3799 29.3438 13.449 28.6537 13.0351 28.5156C12.7492 28.4202 12.2331 28.917 11.9183 29.3018C11.8534 29.5839 11.8102 29.7747 11.8102 29.7747C12.0689 31.3272 12.2762 33.6045 14.3979 33.1386C14.5532 33.2421 14.7602 33.3458 14.8637 33.501L14.9789 33.4752L15.019 33.6563C15.4849 35.157 15.6401 36.3991 16.6751 37.6414C17.6066 38.8315 19.1075 40.1254 20.4531 40.8498C20.4531 40.8498 21.9738 42.142 23.4837 42.8375L23.5237 42.7995C23.5237 42.7995 21.4536 41.4192 20.8325 40.6602ZM37.7901 26.2556L37.7454 25.524C37.4248 25.3726 37.141 25.2725 36.9794 25.2034C36.4972 24.9964 36.0137 25.5485 36.0137 25.5485C36.0137 25.5485 36.082 26.4455 36.22 28.3775C36.3579 30.3096 35.2542 31.6897 34.7707 32.3108C34.2885 32.9318 33.5291 35.2779 33.1152 37.21C32.721 39.0525 31.323 41.8964 31.1943 42.1573C32.2585 40.7097 33.4949 37.4344 33.4949 37.4344C33.4949 37.4344 34.1164 36.7616 34.6853 35.5713C35.2542 34.3806 36.2384 30.5512 36.2384 30.5512C36.2384 30.5512 36.9623 30.5512 37.2724 29.93C37.5838 29.3091 37.3762 27.9117 37.6351 27.239C37.8939 26.5662 37.7901 26.2556 37.7901 26.2556Z" fill="#F8A38A"/>
<path d="M35.048 17.3541C34.8916 17.3029 33.7025 17.9756 33.5987 18.1819L31.1062 21.6545C30.9473 21.4417 30.5452 21.1316 30.5452 21.1316L29.7174 22.1157L27.3879 24.0303C27.3879 24.0303 28.4749 24.1337 29.5098 23.3575C29.8659 23.0909 30.1642 22.8434 30.4086 22.6259L29.251 24.2373C29.251 24.2373 30.6477 24.1855 31.9419 22.8401C33.2361 21.4942 34.2189 21.598 34.6853 19.8387C35.1504 18.0781 35.203 17.4053 35.048 17.3541ZM27.2842 19.321C28.5783 17.4579 29.4586 16.5776 29.6136 16.4225C29.7687 16.2675 30.2864 14.4044 29.8725 14.1968C29.7845 14.1534 29.565 14.135 29.2707 14.1363C29.0852 14.227 28.975 14.3006 28.975 14.3006L26.4219 16.3713C26.4219 16.3713 22.7646 18.9925 22.1434 19.3381C21.5226 19.6823 17.5893 22.029 16.6921 22.5812C16.2118 22.8769 15.8307 23.6074 15.5799 24.2227C15.0032 24.2465 14.5417 24.4352 14.3462 24.5132C14.0011 24.6514 12.621 26.5835 12.4829 26.9977C12.3449 27.4115 11.8102 29.7747 11.8102 29.7747C11.9016 30.323 11.987 30.9616 12.1521 31.5379L12.1727 31.5345C12.1727 31.5345 13.9838 28.0668 18.1242 25.6864L19.2628 24.6514C19.2628 24.6514 21.6435 23.8749 22.575 22.8917C23.5062 21.9081 25.9904 21.1841 27.2842 19.321ZM37.0136 24.082C36.9111 23.8233 36.8073 23.1505 36.5484 22.8401C36.4105 22.6754 36.0557 22.5112 35.7457 22.4166C35.7259 22.3535 35.701 22.3023 35.6681 22.2708C35.4618 22.0632 34.9442 22.1157 34.7891 22.4258L34.8916 25.1687C34.8916 25.1687 34.9639 24.8459 35.0966 24.4958C35.2319 25.363 35.5078 26.517 35.8232 27.239C36.1858 28.0668 36.3409 29.7231 36.3409 29.7231L37.0136 26.7213C37.0136 26.7213 37.1174 24.3409 37.0136 24.082ZM30.4414 18.8033C31.8394 15.3359 30.5964 16.5263 30.4414 16.6301C30.2864 16.7326 28.7335 19.0622 28.2679 19.6824C27.8022 20.3038 25.9904 22.2182 25.7321 22.2708C25.473 22.322 24.386 22.7883 24.1791 22.8917L24.8004 23.2539C24.8004 23.2539 29.0442 22.2707 30.4414 18.8033Z" fill="#F8A38A"/>
<path d="M14.7481 33.3863C14.6979 33.3387 14.6431 33.2994 14.5844 33.2704C14.6363 33.3096 14.6949 33.3474 14.7481 33.3863ZM14.451 33.124C14.4383 33.0936 14.4162 33.0812 14.3831 33.0857C13.9466 33.1449 13.5153 33.1586 13.1207 32.9335C12.8018 32.7517 12.5888 32.4302 12.4336 32.1067C12.0845 31.3795 11.991 30.5506 11.832 29.7688C11.8271 29.744 11.7843 29.7494 11.7876 29.7747C11.9015 30.6614 11.9809 31.6149 12.4271 32.4089C12.6221 32.7557 12.9095 33.029 13.2814 33.1759C13.4898 33.2583 13.7194 33.277 13.9414 33.2704C14.0546 33.2672 14.1668 33.2485 14.2777 33.2276C14.3923 33.206 14.4935 33.2255 14.5844 33.2704C14.5243 33.2252 14.4736 33.1776 14.451 33.124ZM14.7481 33.3863C14.7869 33.4227 14.8235 33.4633 14.8577 33.5069C14.8636 33.5145 14.877 33.5044 14.8709 33.4968C14.8409 33.4578 14.7966 33.4215 14.7481 33.3863ZM13.3521 29.0977C13.4819 29.3112 13.3589 29.5942 13.4409 29.8404C13.5011 30.0201 13.6413 30.1526 13.7712 30.2834C13.9901 30.5027 14.176 30.7238 14.2815 31.0203C14.2872 31.0362 14.3127 31.0298 14.3074 31.0134C14.1574 30.543 13.7091 30.2676 13.5678 29.8057C13.5256 29.6673 13.5351 29.517 13.557 29.3766C13.5878 29.1803 13.6009 29.1941 13.487 29.0187C13.2778 28.6959 13.1219 28.3352 12.8713 28.041C12.8432 28.0082 12.794 28.0501 12.8136 28.0855C12.9972 28.4198 13.1539 28.7717 13.3521 29.0977ZM12.9942 30.8729C13.0086 30.8808 13.0212 30.8594 13.007 30.8506C12.6814 30.6471 12.7368 30.0064 12.7255 29.6825C12.7128 29.3166 12.7372 28.9503 12.7199 28.5845C12.7181 28.5459 12.6621 28.546 12.6603 28.5845C12.6352 29.0287 12.6218 29.4737 12.6607 29.9178C12.6847 30.1934 12.7126 30.7196 12.9942 30.8729ZM37.8046 26.2516C37.7993 26.2334 37.7704 26.2411 37.7757 26.2596C37.8821 26.6055 37.6824 27.0145 37.5812 27.3342C37.4446 27.7578 37.4603 28.2376 37.4419 28.6772C37.4209 29.1677 37.4261 29.7391 37.0937 30.1353C36.894 30.372 36.5445 30.5105 36.2384 30.5125C36.2213 30.5125 36.2042 30.5239 36.2003 30.5408C35.8114 32.0292 35.4146 33.5288 34.8824 34.973C34.5618 35.8409 34.0862 36.7039 33.4647 37.3944C33.3819 37.4858 33.3491 37.6741 33.3044 37.7858C33.1481 38.1821 32.9825 38.5758 32.813 38.967C32.3834 39.956 31.9261 40.9502 31.3362 41.8547C31.076 42.2533 30.7751 42.5638 30.3586 42.7995C29.9211 43.0467 29.4271 43.1858 28.9376 43.2834C27.8823 43.4938 26.7759 43.4785 25.7109 43.3566C24.638 43.2342 23.6765 42.9204 22.7365 42.3834C22.0115 41.9695 21.3243 41.4817 20.6724 40.9611C20.4971 40.821 20.3247 40.7213 20.128 40.6058C19.5813 40.2842 19.0684 39.9056 18.5784 39.5033C17.6668 38.7547 16.7663 37.8704 16.1625 36.8487C15.5841 35.8694 15.3694 34.7257 15.0268 33.6539C15.0236 33.6442 15.0082 33.6483 15.0111 33.6585C15.3906 34.943 15.6312 36.2657 16.4244 37.3779C17.2315 38.5096 18.306 39.4791 19.4368 40.2779C19.7974 40.5326 20.2101 40.7203 20.5502 40.9989C20.8529 41.2471 21.1656 41.4831 21.4838 41.7111C22.3907 42.3612 23.3844 42.9748 24.4742 43.2556C25.4066 43.4955 26.3916 43.5726 27.3516 43.5575C28.3397 43.5419 29.3732 43.4119 30.2719 42.9758C31.1273 42.5593 31.5701 41.7459 31.9971 40.9359C32.474 40.0352 32.88 39.0973 33.2637 38.1541C33.3557 37.927 33.4463 37.6988 33.533 37.4698C33.5396 37.4561 33.5541 37.4418 33.6027 37.3852C33.7196 37.2452 33.83 37.0979 33.9364 36.9487C34.5329 36.1111 34.9179 35.1982 35.2332 34.2271C35.5302 33.3082 35.7916 32.3764 36.0426 31.4435C36.1149 31.1775 36.1858 30.911 36.2542 30.6442C36.2581 30.6255 36.2633 30.6068 36.2686 30.5882C36.4158 30.5804 36.559 30.543 36.6956 30.4912C37.5247 30.1772 37.4827 29.1918 37.5063 28.4577C37.5221 27.9702 37.5654 27.5256 37.7192 27.0615C37.7967 26.8274 37.8821 26.5004 37.8046 26.2516Z" fill="#F8A38A"/>
<path d="M29.5966 32.8627C29.3548 32.3796 28.9751 32.4486 28.9751 32.4486C27.8366 33.7253 26.5257 33.0007 26.5257 33.0007C26.5257 33.0007 26.1114 32.6213 25.3868 32.6213C24.6623 32.6213 24.1793 32.9318 24.1793 32.9318C24.2483 33.3805 24.9727 33.7597 24.9727 33.7597C24.9727 33.7597 25.8488 34.4496 26.8789 34.6194C26.9877 34.7852 27.277 35.209 27.388 35.209C27.5011 35.209 27.4986 34.816 27.6076 34.6354C28.6356 34.4866 29.2168 33.5872 29.2168 33.5872C29.5966 33.4837 29.9763 32.6558 29.9763 32.6558L29.5966 32.8627Z" fill="#F8A38A"/>
<path d="M25.0331 32.9836C25.5766 33.6563 26.2235 33.1907 26.2235 33.1907L26.0681 33.113C25.5506 32.88 25.0331 32.9836 25.0331 32.9836ZM29.0182 32.7506L28.7334 33.113L28.6559 33.2422C29.1472 33.2682 29.3548 33.0871 29.3548 33.0871C29.3548 32.8023 29.0182 32.7506 29.0182 32.7506Z" fill="#050301"/>
<path d="M24.7003 32.4216C24.9231 32.1693 25.1147 31.6733 25.1463 31.35C25.1972 30.8249 24.9558 30.9286 24.7231 31.2462C24.5091 31.5376 24.1149 31.8143 24.0917 32.2085C24.0672 32.6117 24.4353 32.7218 24.7003 32.4216Z" fill="#F8A38A"/>
<path d="M29.6675 32.3236C29.4087 32.144 29.3022 31.8444 29.2392 31.5519C29.1104 30.9559 29.5677 31.347 29.7634 31.5776C29.8751 31.7095 30.0669 31.9165 30.0827 32.0977C30.1103 32.4094 29.9172 32.4969 29.6675 32.3236Z" fill="#F8A38A"/>
<path d="M24.1132 32.4344C24.1199 31.861 24.6724 31.3963 24.9487 30.9366C24.9552 30.9253 24.9383 30.9116 24.93 30.9223C24.5395 31.4229 23.9646 31.8821 23.9875 32.5772C24.0088 33.2179 24.6944 33.7277 25.2835 33.7982C25.2878 33.7985 25.2878 33.7923 25.2845 33.7909C24.7265 33.5796 24.1053 33.0783 24.1132 32.4344ZM29.0947 30.6109C29.0814 30.5915 29.0518 30.6087 29.0628 30.6293C29.326 31.1173 29.8344 31.4418 30.0092 31.9808C30.2142 32.6152 29.6308 33.262 29.1762 33.6165C29.1696 33.6216 29.1788 33.6336 29.1854 33.6282C29.6925 33.2862 30.1761 32.8519 30.1629 32.1914C30.1498 31.5571 29.4153 31.0898 29.0947 30.6109ZM24.6201 33.0907C24.6038 33.0984 24.6155 33.1251 24.6322 33.1196C25.245 32.9129 25.8278 32.9883 26.3799 33.3242C26.3944 33.333 26.4113 33.3118 26.3982 33.3008C25.8537 32.8373 25.2626 32.7902 24.6201 33.0907ZM29.28 32.935C29.3509 33.029 29.3535 33.1602 29.3352 33.2715C29.3312 33.2963 29.3667 33.3071 29.3733 33.2821C29.4127 33.1503 29.4101 33.0206 29.3391 32.9C29.301 32.8339 29.2103 32.7522 29.1223 32.7296C29.1446 32.6859 29.1657 32.6413 29.1814 32.5959C29.1919 32.5647 29.1446 32.5351 29.1236 32.5626C28.7995 32.9752 28.4844 33.2974 27.9855 33.4969C27.4991 33.6919 26.9102 33.6909 26.4586 33.4111C26.4536 33.4077 26.4498 33.4155 26.4544 33.4185C26.9243 33.7811 27.4699 33.8133 28.0194 33.6194C28.4053 33.4833 28.8501 33.1865 29.0782 32.81C29.096 32.8157 29.1144 32.8199 29.1328 32.8259C29.1933 32.8446 29.2419 32.8857 29.28 32.935ZM28.7602 27.7301C28.7346 28.605 28.7468 29.4451 28.9046 30.3099C28.9051 30.3123 28.9083 30.3112 28.9077 30.3093C28.7829 29.4469 28.7593 28.5986 28.7949 27.7301C28.8364 26.7186 28.6953 25.7249 28.9209 24.7245C28.9254 24.7052 28.8959 24.6969 28.8913 24.7161C28.6551 25.7116 28.7901 26.7199 28.7602 27.7301Z" fill="black"/>
<path d="M22.7421 36.9843C22.7421 36.9843 23.9241 37.8811 24.2934 38.2372C24.6629 38.5931 25.642 39.3463 26.2607 39.4331C26.8797 39.5201 28.61 39.3631 29.0329 39.0647C29.456 38.7665 30.1879 37.338 30.7489 37.0092L29.6859 36.7711L26.9312 36.5533L24.4378 36.8262L22.7421 36.9843Z" fill="#F36162"/>
<path d="M28.3745 39.1492C27.2468 39.3997 26.2654 39.4081 25.2913 38.7258C25.0714 38.5719 24.3902 38.0939 24.7207 37.7666C25.1985 37.2939 26.6925 37.9177 27.3058 37.8487C27.7544 37.7988 29.2734 37.0689 29.5138 37.6696C29.7989 38.3815 28.9371 39.0244 28.3745 39.1492Z" fill="#F46873"/>
<path d="M22.0964 36.693C22.0621 36.6684 22.0277 36.6438 21.9934 36.6173C21.9934 36.6173 22.029 36.6496 22.0964 36.693ZM31.2456 36.5403C30.8974 36.6683 30.6109 37.0398 29.9369 36.4335C29.4087 35.9569 28.8935 35.5401 28.4461 35.4926C27.9988 35.4451 27.5402 35.7772 27.5402 35.7772C27.1689 35.4902 26.4803 35.4358 25.9924 35.5943C25.5046 35.7523 24.236 36.6478 23.3668 36.8642C22.7264 37.0235 22.285 36.8142 22.0964 36.693C23.5517 37.7345 25.0905 37.122 26.7741 37.2046L26.8843 37.2018L26.9792 37.2795C27.1152 37.3524 27.3218 37.3586 27.4589 37.3968C27.6399 37.3574 27.8076 37.2728 27.961 37.1732L28.0178 37.1716C29.6137 36.9073 30.7988 37.6664 31.9866 35.9748C31.9866 35.9748 31.5951 36.4123 31.2456 36.5403Z" fill="#E7545B"/>
<path d="M26.7747 37.1845C25.997 37.06 25.1582 37.2342 24.3755 37.2559C23.5075 37.2791 22.7119 37.1279 21.9974 36.6106C21.9893 36.605 21.9815 36.6178 21.9893 36.6239C22.6326 37.1257 23.4034 37.3534 24.2136 37.3623C24.6183 37.3665 25.0224 37.3267 25.4252 37.2939C25.8744 37.2569 26.3251 37.2582 26.7735 37.2243C26.7994 37.2225 26.7998 37.189 26.7747 37.1845ZM31.976 35.9627C31.7014 36.277 31.4321 36.5828 31.0629 36.788C30.7567 36.9574 30.4243 37.0076 30.0866 37.0639C29.4231 37.1742 28.7465 37.0588 28.0785 37.1497C28.1272 37.1091 28.1728 37.0667 28.2143 37.0244C28.2359 37.0022 28.21 36.9634 28.1817 36.9797C27.7922 37.2023 27.4465 37.4714 26.9807 37.274C26.9748 37.2714 26.9702 37.2816 26.976 37.2843C27.088 37.336 27.2035 37.3584 27.3245 37.3804C27.4975 37.412 27.3821 37.4623 27.5466 37.43C27.7195 37.3961 27.8894 37.2992 28.0358 37.184C28.4243 37.1245 28.8139 37.1183 29.2063 37.1275C29.5558 37.1357 29.9172 37.1834 30.2667 37.1559C31.0077 37.0972 31.6344 36.6136 32.001 35.9839C32.0115 35.968 31.9892 35.9478 31.976 35.9627Z" fill="#E7545B"/>
<path d="M35.3713 21.2696C35.3713 21.2696 35.0191 21.3734 34.7471 21.5455C34.4739 21.7189 33.5778 21.8569 33.227 21.8227C32.8761 21.7872 31.3954 21.7531 31.0446 21.7872C30.7634 21.8148 30.2063 22.3102 29.6544 23.0565C29.732 22.7691 29.8962 22.2629 30.1577 21.9778C30.1577 21.9778 29.2813 22.7277 28.9013 23.763C28.9013 23.763 29.3457 23.7134 29.7333 23.5629C30.2838 23.4572 31.1825 23.2683 31.7462 23.0642C32.6042 22.7536 33.5002 22.8572 34.1625 22.8572C34.8247 22.8572 35.4488 23.0642 35.6038 23.1332C35.7602 23.2022 35.9559 23.9957 35.9559 23.9957C35.9559 23.9957 36.2279 22.6501 35.3713 21.2696Z" fill="black"/>
<path d="M16.748 21.2696C16.748 21.2696 17.2239 21.3734 17.5939 21.5455C17.9637 21.7189 19.1801 21.8569 19.6559 21.8227C20.1318 21.7872 22.1409 21.7531 22.6168 21.7872C22.9988 21.8148 23.7548 22.3102 24.503 23.0565C24.3985 22.7691 24.175 22.2629 23.8197 21.9778C23.8197 21.9778 25.0094 22.7277 25.5249 23.763C25.5249 23.763 24.9226 23.7134 24.3968 23.5629C23.6495 23.4572 22.4292 23.2683 21.6653 23.0642C20.5019 22.7536 19.2857 22.8572 18.3871 22.8572C17.4882 22.8572 16.6423 23.0642 16.4307 23.1332C16.2191 23.2022 15.9546 23.9957 15.9546 23.9957C15.9546 23.9957 15.5848 22.6501 16.748 21.2696Z" fill="black"/>
<path d="M30.2338 26.0486C30.2338 26.0486 30.5702 25.1171 31.0629 24.7289C31.5543 24.341 32.951 24.082 33.8826 24.4702C33.8826 24.4702 34.4002 24.7809 34.4002 25.6864C34.4002 25.6864 33.3399 25.945 33.2361 25.9711C33.1323 25.9969 30.2338 26.0486 30.2338 26.0486Z" fill="#050301"/>
<path d="M34.1663 25.7538C34.1597 25.407 34.0573 25.1066 33.8575 24.8066L33.7025 24.7031C32.4083 24.2889 31.2691 24.8584 31.2691 24.8584C30.804 25.1687 30.4414 25.7899 30.0788 26.2556L29.9933 26.3764L30.3718 26.3938L30.6477 26.4628C31.934 26.6169 33.0666 26.7191 34.1479 25.8561C34.1492 25.8217 34.1545 25.7873 34.1663 25.7538Z" fill="white"/>
<path d="M33.2361 25.3257C33.2361 25.039 33.1441 24.7756 32.993 24.5635C32.0181 24.4838 31.2692 24.8583 31.2692 24.8583C31.1194 24.9589 30.9788 25.0918 30.8461 25.2416C30.8448 25.2696 30.8422 25.2973 30.8422 25.3257C30.8422 25.9356 31.2508 26.4444 31.7961 26.5634C31.9721 26.5688 32.1469 26.5659 32.319 26.5538C32.8446 26.4206 33.2361 25.922 33.2361 25.3257Z" fill="#310F0B"/>
<path d="M32.0391 26.4444C32.6238 26.4444 33.0981 25.9436 33.0981 25.3257C33.0981 25.026 32.9864 24.7544 32.8038 24.5537C31.9248 24.5313 31.2692 24.8583 31.2692 24.8583C31.1785 24.9187 31.0918 24.9911 31.009 25.0715C30.9906 25.1535 30.9801 25.2383 30.9801 25.3257C30.9801 25.9436 31.4544 26.4444 32.0391 26.4444Z" fill="#310F0B"/>
<path d="M32.6645 25.3257C32.6645 25.6903 32.3847 25.9858 32.0391 25.9858C31.6949 25.9858 31.4137 25.6903 31.4137 25.3257C31.4137 24.9611 31.6949 24.6658 32.0391 24.6658C32.3847 24.6658 32.6645 24.9611 32.6645 25.3257Z" fill="#050301"/>
<path d="M32.4806 25.3257C32.4806 25.5831 32.2835 25.792 32.0391 25.792C31.7961 25.792 31.5977 25.5831 31.5977 25.3257C31.5977 25.0682 31.7961 24.8593 32.0391 24.8593C32.2835 24.8593 32.4806 25.0682 32.4806 25.3257Z" fill="#050301"/>
<path d="M32.0391 25.048C32.181 25.048 32.2953 24.9268 32.2953 24.7776C32.2953 24.7036 32.2664 24.6366 32.2217 24.5877C32.0667 24.6097 31.9274 24.6391 31.8039 24.671C31.7908 24.7036 31.7829 24.7396 31.7829 24.7776C31.7829 24.9268 31.8985 25.048 32.0391 25.048Z" fill="white"/>
<path d="M30.105 26.2812C30.4834 25.8033 30.8421 25.079 31.4399 24.8505C32.1678 24.5713 32.9365 24.5712 33.6894 24.7492C33.7498 24.7634 33.7721 24.6781 33.7143 24.6571C32.9798 24.3846 32.1311 24.4524 31.4071 24.7347C30.783 24.9789 30.4269 25.7278 30.0472 26.2374C30.0235 26.2704 30.0787 26.3137 30.105 26.2812Z" fill="#050301"/>
<path d="M33.8299 24.8221C33.9127 24.9516 33.981 25.0838 34.0362 25.2277C34.0743 25.3306 34.1873 25.6433 34.1137 25.7362C34.0678 25.7935 34.1085 25.8827 34.1873 25.863C34.3962 25.8119 34.617 25.7822 34.7668 25.6132C34.7983 25.5782 34.7576 25.5173 34.7155 25.5458C34.6104 25.616 34.5027 25.6438 34.3805 25.6664C34.3318 25.676 34.2819 25.6831 34.232 25.6927C34.1847 25.7179 34.1729 25.7057 34.1978 25.6563C34.1952 25.6129 34.1899 25.57 34.1834 25.5271C34.1492 25.2594 34.0296 25.014 33.8838 24.7911C33.8615 24.7582 33.8089 24.7882 33.8299 24.8221Z" fill="#050301"/>
<path d="M30.6477 26.4651C31.8854 26.6439 33.1639 26.7129 34.1808 25.854C34.1953 25.8413 34.1756 25.8143 34.1585 25.8262C33.6316 26.2144 33.064 26.4544 32.4097 26.522C31.8263 26.5822 31.2298 26.5147 30.6477 26.4596C30.6451 26.4596 30.6451 26.465 30.6477 26.4651Z" fill="#ED8596"/>
<path d="M17.9432 25.7381C17.9432 25.7381 18.0207 25.2724 18.564 24.4961C18.564 24.4961 19.7803 24.2115 20.8411 24.3149C21.9022 24.4185 22.6267 25.0135 23.2993 26.0227L20.6602 25.9969L17.9432 25.7381Z" fill="#050301"/>
<path d="M23.4449 26.2556C22.9869 25.7899 22.5287 25.1687 21.9398 24.8584C21.9398 24.8584 20.5 24.2889 18.8641 24.7031L18.6676 24.8066C18.4059 25.1171 18.2749 25.4277 18.2749 25.7899C18.2665 25.7876 18.2561 25.7857 18.2471 25.7838C18.2497 25.7999 18.2515 25.8165 18.2519 25.8334L18.2749 25.8416C19.6494 26.7214 21.0889 26.6178 22.7251 26.4628L23.334 26.4282L23.5583 26.4628L23.4449 26.2556Z" fill="white"/>
<path d="M21.6745 25.3257C21.6745 25.1108 21.6205 24.9085 21.5259 24.7313C21.068 24.614 20.2742 24.476 19.3735 24.6035C19.2307 24.8084 19.1463 25.0571 19.1463 25.3257C19.1463 25.8312 19.4435 26.2662 19.8724 26.4683C20.1394 26.5181 20.4102 26.5465 20.6861 26.5588C21.2515 26.4328 21.6745 25.9291 21.6745 25.3257Z" fill="#310F0B"/>
<path d="M20.4103 26.4444C21.0281 26.4444 21.5291 25.9436 21.5291 25.3257C21.5291 25.0867 21.4536 24.8658 21.3259 24.684C20.8965 24.591 20.2769 24.5088 19.5794 24.5786C19.4011 24.7768 19.2917 25.0382 19.2917 25.3257C19.2917 25.9436 19.7927 26.4444 20.4103 26.4444Z" fill="#310F0B"/>
<path d="M21.0705 25.3257C21.0705 25.6903 20.7749 25.9858 20.4104 25.9858C20.0459 25.9858 19.7503 25.6903 19.7503 25.3257C19.7503 24.9611 20.0459 24.6658 20.4104 24.6658C20.7749 24.6658 21.0705 24.9611 21.0705 25.3257Z" fill="#050301"/>
<path d="M20.8769 25.3257C20.8769 25.5831 20.668 25.7921 20.4104 25.7921C20.1531 25.7921 19.9442 25.5831 19.9442 25.3257C19.9442 25.0682 20.1531 24.8593 20.4104 24.8593C20.668 24.8593 20.8769 25.0682 20.8769 25.3257Z" fill="#050301"/>
<path d="M20.14 24.7776C20.14 24.9268 20.261 25.048 20.4104 25.048C20.5595 25.048 20.6805 24.9268 20.6805 24.7776C20.6805 24.6952 20.6432 24.6224 20.5852 24.5729C20.4803 24.5641 20.371 24.5578 20.2577 24.5549C20.1869 24.6035 20.14 24.6851 20.14 24.7776Z" fill="white"/>
<path d="M23.4737 26.2267C22.9446 25.666 22.468 24.9427 21.6975 24.7087C20.7933 24.4338 19.7578 24.3759 18.8496 24.6514C18.7827 24.6718 18.8109 24.7672 18.8782 24.7548C19.8134 24.5839 20.7425 24.5839 21.6621 24.8375C22.4074 25.0431 22.8931 25.7614 23.4161 26.2845C23.4533 26.3221 23.5099 26.2652 23.4737 26.2267Z" fill="#050301"/>
<path d="M18.6433 24.7822C18.399 25.0757 18.2357 25.4015 18.2379 25.7899C18.2537 25.778 18.2693 25.7662 18.2849 25.7542C18.2776 25.7592 18.2705 25.7641 18.2632 25.7691C18.2591 25.733 18.2399 25.6921 18.1992 25.685C17.989 25.6491 17.772 25.6416 17.5796 25.5412C17.5325 25.517 17.479 25.5785 17.5211 25.617C17.6965 25.7769 17.9258 25.8156 18.1528 25.8527C18.1904 25.8589 18.2322 25.8501 18.2514 25.8129C18.2558 25.8171 18.2605 25.8213 18.265 25.8254C18.2895 25.8315 18.3107 25.8144 18.3118 25.7899C18.331 25.422 18.463 25.1167 18.692 24.8309C18.7195 24.7966 18.6719 24.7477 18.6433 24.7822Z" fill="#050301"/>
<path d="M22.7251 26.4596C21.9799 26.5132 21.2304 26.57 20.4837 26.5178C19.6942 26.4623 18.9675 26.2196 18.2852 25.8243C18.2626 25.8113 18.2438 25.8447 18.2651 25.8589C19.5888 26.7534 21.2139 26.6423 22.7251 26.4659C22.7289 26.4651 22.7292 26.4591 22.7251 26.4596Z" fill="#ED8596"/>
<path d="M43.0471 21.7623C42.779 21.3182 42.3678 20.97 42.0262 20.5837C41.544 20.0397 41.3718 19.4564 41.3561 18.7337C41.3403 18.0137 41.4809 17.295 41.5584 16.5802C41.6333 15.893 41.611 15.2098 41.473 14.5305C41.4073 14.2034 41.3101 13.8854 41.1892 13.5779C41.2115 13.5766 41.2352 13.5569 41.2247 13.5319C40.6098 12.038 41.2628 10.1276 39.8766 8.96612C39.7728 8.8794 39.6625 8.80451 39.5495 8.73487C39.1448 7.63776 38.3052 6.88095 37.2567 6.39875C36.1964 5.91129 34.9416 5.85873 34.0468 5.05199C33.6448 4.69067 33.357 4.22028 33.089 3.75647C33.0364 3.6645 32.8748 3.24667 32.7789 3.22434C32.7342 3.21514 32.6882 3.20464 32.6422 3.19544C31.8749 3.03909 31.0971 2.93134 30.3193 2.84463C28.8893 2.68696 27.4468 2.63308 26.009 2.6909C25.2064 2.72374 24.406 2.80258 23.6123 2.92477C23.39 2.95893 23.2122 3.23223 23.0452 3.37282C22.3826 3.93254 21.6071 4.31751 20.7582 4.49489C20.4535 4.55796 20.1492 4.62234 19.8465 4.69461C17.4877 5.25696 15.1963 6.20429 13.2369 7.64696C11.9496 8.59429 10.8321 9.75973 9.96378 11.1025C8.92422 12.7108 8.29316 14.5502 8.0154 16.4396C7.85431 17.5368 7.81476 18.6444 7.86982 19.752C7.87166 19.7862 7.89609 19.8046 7.92263 19.8072L7.86521 20.3249C7.85627 20.3367 7.84721 20.3485 7.83853 20.3603C7.81935 20.3866 7.86192 20.4103 7.88111 20.3853C8.69704 19.3276 9.47699 18.2752 10.6219 17.5473C10.6246 17.5459 10.6236 17.5433 10.6219 17.542L12.3435 15.4752C12.345 15.4765 12.3466 15.4765 12.3476 15.4752C12.6716 14.8958 12.9419 14.294 13.0961 13.6476C13.1044 13.6318 13.1063 13.6226 13.1027 13.6187C13.1088 13.595 13.1153 13.5701 13.1207 13.5464C13.1245 13.528 13.0977 13.5149 13.0892 13.5333C12.7773 14.2362 12.3053 14.7697 11.7649 15.3084C11.2697 15.8037 10.7709 16.303 10.4484 16.9297C10.5126 15.7236 10.6906 14.5699 11.1351 13.4347C11.5749 12.3127 12.2387 11.2839 13.0277 10.376C14.6301 8.53254 16.7608 7.19366 19.0129 6.28707C19.6996 6.00983 20.4053 5.77069 21.1162 5.56573C21.1345 5.56047 21.1396 5.54339 21.1356 5.53025C21.4014 5.45667 23.5476 4.85754 24.421 4.50278C25.2197 4.17693 25.7129 4.1559 25.8374 4.1559C24.1056 5.80617 22.1236 7.09905 20.1815 8.47997C18.3484 9.78337 16.6032 11.251 15.444 13.2087C15.0351 13.8998 14.714 14.6369 14.4669 15.4003C14.4625 15.4135 14.4742 15.4214 14.4853 15.4214L14.4907 15.4989H14.491L14.4965 15.5777C13.6308 16.9613 12.9808 18.4644 12.6679 20.0516C12.621 20.1435 12.5748 20.2355 12.5292 20.3275C12.5254 20.3354 12.5221 20.3419 12.5183 20.3498C11.8047 21.7899 11.2493 23.1774 11.1525 23.4227C11.1346 23.4139 11.1125 23.4162 11.1005 23.4392C10.2798 25.0273 9.75475 26.7817 9.71651 28.5763C9.70232 29.243 9.73267 29.9771 9.94447 30.6178C9.96483 30.6798 10.0506 30.6664 10.0555 30.6028C10.151 29.3317 10.5955 28.0007 11.3161 26.9228C10.8118 28.4309 10.5796 30.0207 10.6813 31.6115C10.7256 32.3069 10.8153 33.0438 11.0503 33.7054C11.0665 33.751 11.1467 33.7638 11.1559 33.7054C11.3569 32.436 11.8294 31.2068 12.4209 30.071C13.0615 28.8416 13.9491 27.7931 14.9247 26.8162C15.8845 25.8554 17.035 25.1857 18.1569 24.4396C18.3774 24.2931 18.597 24.1443 18.8155 23.9942C19.7967 23.6784 20.7548 23.2911 21.6745 22.8543C23.768 21.8595 25.7457 20.5128 27.2592 18.7429C28.1778 17.6681 28.8892 16.4199 29.2865 15.064L28.9755 16.6446C28.9742 16.6446 28.9729 16.6433 28.9721 16.6459C28.2454 17.9362 27.4661 19.2054 26.5087 20.3406C26.0228 20.9161 25.4837 21.4483 24.8831 21.9029C24.5905 22.1249 24.28 22.3194 23.9559 22.4915C23.6231 22.6682 23.213 22.888 22.8338 22.9318C22.7535 22.9411 22.7503 23.0537 22.8338 23.0587C25.1107 23.2019 27.1713 22.008 28.6878 20.3919C29.2905 19.7494 29.8252 19.0267 30.2759 18.2528C30.2759 18.2568 30.2759 18.262 30.2759 18.266C30.2811 18.3527 30.2851 18.4118 30.2851 18.4315C30.2812 18.4328 30.2772 18.4355 30.2772 18.4407C30.2982 19.5286 29.9514 20.5824 29.4297 21.5258C29.1683 21.9975 28.8503 22.4376 28.4979 22.8451C28.325 23.0447 28.1392 23.232 27.9465 23.4116C27.7563 23.589 27.5343 23.817 27.2941 23.9189C27.2433 23.9406 27.2803 24.0282 27.3318 24.0084C28.561 23.5358 29.8318 22.6958 30.7055 21.5993C30.5663 22.0329 30.3784 22.4442 30.1524 22.841C30.021 23.0715 29.8725 23.2915 29.7149 23.5053C29.544 23.7391 29.3378 24.0405 29.0921 24.2023C29.0496 24.2308 29.0881 24.2989 29.1341 24.2721C29.6452 23.9717 30.1366 23.6268 30.5899 23.2407L30.5794 23.2796C30.5689 23.283 30.5584 23.2872 30.5479 23.2906C30.4861 23.3115 30.5124 23.4101 30.5755 23.3898C32.0392 22.9247 33.0903 21.736 33.7788 20.4063C34.1532 19.6824 34.4462 18.8769 34.6236 18.0505C34.6617 18.5734 34.6551 19.0845 34.596 19.6127C34.5238 20.2434 34.4108 20.8688 34.3306 21.4982C34.1729 22.734 34.2097 24.0599 34.8667 25.1593C34.8956 25.2083 34.9705 25.1756 34.9573 25.1213C34.8851 24.8215 34.9324 24.4674 34.9573 24.1629C34.9849 23.8129 35.0441 23.466 35.1137 23.1222C35.2359 22.5283 35.412 21.9449 35.5946 21.3681L35.4632 22.1591C35.4593 22.1578 35.454 22.1591 35.454 22.1643C35.3279 22.9025 35.3029 23.643 35.4041 24.3854C35.5144 25.1926 35.8258 25.9088 36.0991 26.6671C36.1057 26.6847 36.1202 26.6956 36.1372 26.7006L36.1491 26.7777C36.1425 26.779 36.1359 26.7848 36.1386 26.7943C36.3895 27.7248 36.6667 28.8738 36.3107 29.8131C36.287 29.8742 36.3842 29.8993 36.4066 29.8398C36.8323 28.7662 37.3671 27.7601 37.8729 26.724C38.3564 25.7308 38.7664 24.6835 38.8623 23.5736L39.0436 23.8154C39.041 23.817 39.0397 23.8192 39.0397 23.8233C39.0673 24.1962 39.083 24.569 39.0751 24.9432C39.0686 25.313 39.0673 25.7404 38.9451 26.0907C38.9293 26.136 38.9989 26.153 39.016 26.1103C39.7019 24.403 41.1826 22.9825 41.2996 21.0738L41.3653 21.1132L41.3902 21.129C41.3889 21.1303 41.3889 21.1329 41.3902 21.1355C41.6924 21.6769 42.0196 22.2235 42.1786 22.8289C42.3455 23.4719 42.2311 24.1529 42.0669 24.7843C42.0616 24.8054 42.0906 24.8171 42.1024 24.7987C42.4361 24.2678 42.8631 23.8158 43.1154 23.2287C43.3322 22.7268 43.3296 22.2313 43.0471 21.7623ZM39.0305 8.46421C38.727 8.3302 38.4116 8.22114 38.1081 8.10683C37.3973 7.83748 36.7797 7.49586 36.3422 6.86125C36.404 6.87044 36.4644 6.88095 36.5235 6.89146C36.5262 6.89278 36.5288 6.89277 36.5301 6.89277C36.5879 6.9046 36.6457 6.91511 36.7009 6.92825H36.7022C37.6009 7.15687 38.585 7.60623 39.0305 8.46421Z" fill="#1E0B09"/>
</svg>
