<svg width="50" height="50" viewBox="0 0 50 50" fill="none" xmlns="http://www.w3.org/2000/svg">
<path d="M49.9997 25C49.9997 38.8071 38.8065 50 24.9999 50C11.1932 50 0 38.8071 0 25C0 11.1932 11.1932 0 24.9999 0C38.8065 0 49.9997 11.1932 49.9997 25Z" fill="#EE2468"/>
<path d="M32.8492 44.5608C32.8216 44.5174 32.794 44.4731 32.7664 44.4282C32.7507 44.4042 32.7362 44.3796 32.7205 44.3548C32.6968 44.3157 32.6718 44.2761 32.6482 44.2358C32.6311 44.2084 32.6153 44.1813 32.5983 44.1536C32.572 44.11 32.5457 44.065 32.5181 44.0197C32.5037 43.9955 32.4905 43.9716 32.4761 43.9469C32.434 43.8761 32.392 43.8041 32.3499 43.7299C31.5366 42.3185 31.3303 39.2003 31.2857 37.1575C31.2804 36.9499 31.2778 36.7535 31.2765 36.571C31.2765 36.5625 31.2765 36.5543 31.2765 36.5459C31.2765 36.4912 31.2751 36.4379 31.2751 36.3861C31.2751 36.383 31.2751 36.3797 31.2751 36.3765C31.2751 36.3241 31.2751 36.2734 31.2751 36.2237C31.2751 36.2095 31.2751 36.1957 31.2751 36.1819C31.2751 36.1466 31.2751 36.1123 31.2751 36.0784C31.2751 36.0636 31.2751 36.0483 31.2751 36.0339C31.2751 35.9931 31.2751 35.9537 31.2751 35.9157C31.2751 35.8988 31.2751 35.8828 31.2765 35.8663C31.2765 35.8424 31.2765 35.8189 31.2765 35.7963C31.2765 35.7787 31.2765 35.7611 31.2765 35.744C31.2778 35.724 31.2778 35.7049 31.2778 35.6858C31.2778 35.6586 31.2778 35.6325 31.2791 35.6074C31.2791 35.5913 31.2791 35.5752 31.2791 35.5599C31.2791 35.544 31.2791 35.5284 31.2804 35.5134C31.2804 35.5007 31.2804 35.4887 31.2804 35.4769C31.2804 35.4589 31.2817 35.4417 31.2817 35.4255C31.2817 35.4092 31.2817 35.3933 31.283 35.3791C31.283 35.3688 31.283 35.3592 31.283 35.35C31.283 35.3401 31.283 35.3311 31.2843 35.3223C31.2843 35.315 31.2843 35.3078 31.2843 35.3011C31.2843 35.2877 31.2843 35.2756 31.2857 35.2656C31.2857 35.2602 31.2857 35.2563 31.2857 35.252C31.2857 35.2475 31.2857 35.2429 31.2857 35.2397C31.2857 35.2371 31.2857 35.2341 31.2857 35.2322C31.2857 35.2297 31.2857 35.2261 31.2857 35.2261L23.4468 39.3452C23.4626 39.4977 23.4757 39.6473 23.4876 39.7948C23.4915 39.8443 23.4955 39.8922 23.4981 39.9413C23.506 40.0385 23.5125 40.1353 23.5178 40.2303C23.5217 40.2864 23.523 40.3415 23.527 40.3971C23.5309 40.4827 23.5336 40.5678 23.5375 40.6514C23.5388 40.7084 23.5401 40.7648 23.5414 40.821C23.5441 40.9013 23.5454 40.9806 23.5454 41.0593C23.5467 41.115 23.5467 41.1704 23.5467 41.2253C23.5467 41.3029 23.5454 41.3797 23.5441 41.456C23.5428 41.508 23.5428 41.5606 23.5414 41.6121C23.5388 41.6916 23.5349 41.7695 23.5322 41.8473C23.5296 41.8929 23.5283 41.939 23.5257 41.9839C23.5204 42.0829 23.5125 42.1798 23.506 42.2756C23.5033 42.2972 23.502 42.3196 23.5007 42.3412C23.4915 42.456 23.4797 42.5685 23.4665 42.679C23.4626 42.7201 23.456 42.7598 23.4508 42.8004C23.4429 42.8707 23.4337 42.9409 23.4232 43.0096C23.4166 43.0546 23.4101 43.0987 23.4022 43.1431C23.3917 43.2052 23.3825 43.2671 23.3706 43.3278C23.3627 43.3726 23.3549 43.417 23.3457 43.4612C23.3352 43.5195 23.3233 43.5773 23.3102 43.6343C23.301 43.6778 23.2918 43.7208 23.2813 43.7634C23.2681 43.8203 23.255 43.876 23.2406 43.9316C23.2314 43.9716 23.2208 44.012 23.2103 44.0511C23.1946 44.1098 23.1775 44.1669 23.1617 44.2239C23.1512 44.2583 23.142 44.293 23.1315 44.3266C23.1092 44.3992 23.0855 44.47 23.0619 44.5399C23.0566 44.5564 23.0513 44.5737 23.0448 44.5899C22.4719 46.2309 21.4733 47.1849 20.3907 47.7824C19.8217 48.0968 19.0715 48.5741 18.2976 49.0901C20.4314 49.6823 22.6782 50 24.9999 50C29.0244 50 32.8256 49.0475 36.1931 47.358C34.5153 46.6056 33.7874 46.0354 32.8492 44.5608Z" fill="#F68B75"/>
<path d="M37.3678 22.8065C37.2377 22.7126 36.7384 22.573 36.6018 22.5376C36.9329 19.9465 37.7606 15.1245 34.1776 11.3023C30.1465 7.00184 24.6359 7.00184 21.6126 7.74157C18.5893 8.47999 15.0286 11.5033 14.2888 14.796C13.5504 18.0887 14.0129 19.082 13.6805 20.1449C13.3481 21.2079 12.7503 22.6697 13.5478 24.2643C13.5478 24.2643 13.9472 25.8587 13.9472 27.6525C13.9472 29.4463 15.0089 31.9707 17.0021 34.4952C18.9953 37.0199 20.2015 39.6581 22.5166 39.8766C26.0379 40.2087 31.0413 37.0365 32.748 33.3716C33.2421 32.309 33.585 31.1691 33.878 30.0357C34.4351 30.1387 34.8858 29.7677 35.2747 29.1839C35.7727 28.4364 36.4204 27.9383 36.9184 27.2407C37.666 26.1945 38.4636 23.6036 37.3678 22.8065Z" fill="#F79785"/>
<path d="M15.2309 14.6318C15.5686 13.674 16.0981 12.8015 16.9325 12.1038C18.4645 10.8228 20.6745 10.2302 22.6506 10.359C23.6926 10.426 24.9487 10.6861 25.8789 11.1815C27.5844 12.0881 28.5435 13.0591 28.8444 15.0142C28.9719 15.838 28.9692 16.6789 29.1217 17.4988C29.1492 17.6472 29.8115 19.5642 30.0926 19.3185C30.0926 19.3185 28.9469 20.3158 28.7984 20.3158C28.6486 20.3158 13.9499 20.8637 13.9499 20.8637L13.6017 20.664C13.6017 20.664 14.5976 19.2686 14.6476 18.1728C14.7028 16.9758 14.8368 15.7473 15.2309 14.6318Z" fill="#F79785"/>
<path d="M19.2278 31.0074C19.2278 31.0074 19.262 31.3729 19.7928 31.4394C20.325 31.5056 20.6902 31.2732 20.8886 30.8083C21.0884 30.3431 21.4865 27.885 21.3538 25.1944L19.3605 25.2277C19.3605 25.2277 19.7258 28.018 19.6601 28.9148C19.5931 29.8116 19.2278 31.0074 19.2278 31.0074Z" fill="#F79785"/>
<path d="M19.35 30.4871C19.35 30.4871 19.6154 30.2878 19.8822 30.2878C20.1476 30.2878 21.1212 30.6642 21.1212 30.6642L21.2539 30.3985C21.2539 30.3985 20.2356 29.9999 19.8822 29.9999C19.8822 29.9999 19.6825 29.9999 19.5051 30.1328L19.35 30.4871Z" fill="#F79785"/>
<path d="M25.5596 27.3157C25.5596 27.9623 25.0353 28.4865 24.3889 28.4865C23.7411 28.4865 23.2169 27.9623 23.2169 27.3157C23.2169 26.6688 23.7411 26.1447 24.3889 26.1447C25.0353 26.1447 25.5596 26.6688 25.5596 27.3157Z" fill="#F79785"/>
<path d="M19.4775 27.2423C19.5274 27.8456 19.174 28.3674 18.6865 28.408C18.2004 28.4483 17.7655 27.992 17.7142 27.3886C17.6643 26.7854 18.0191 26.2635 18.5052 26.2231C18.9927 26.1825 19.4276 26.6389 19.4775 27.2423Z" fill="#F79785"/>
<path d="M33.2105 31.4268C32.0004 33.5352 29.7773 34.532 28.2439 33.6524C26.7119 32.7729 26.4491 30.3507 27.6579 28.2423C28.868 26.1337 31.0912 25.1373 32.6245 26.0167C34.1579 26.8963 34.4193 29.3185 33.2105 31.4268Z" fill="#F79785"/>
<path d="M17.7339 29.3565C17.0415 27.2897 15.3111 25.848 13.8592 26.1234C13.9104 26.5897 13.9472 27.112 13.9472 27.6525C13.9472 29.2448 14.7855 31.4129 16.3674 33.6458C17.8167 33.3458 18.4277 31.4286 17.7339 29.3565Z" fill="#F79785"/>
<path d="M14.0997 24.4007C14.0997 24.4007 13.6017 20.8637 14.8473 20.3158C16.0929 19.7679 17.6367 20.4143 17.6367 20.4143L18.4842 21.4615L18.584 21.8097C18.584 21.8097 19.082 24.0021 18.9322 27.5397L17.4869 26.3938C17.4869 26.3938 16.2913 25.198 16.0429 25.1482C15.7933 25.0984 14.7973 25.0984 14.7973 25.0984L14.0997 24.4007Z" fill="#F79785"/>
<path d="M23.9645 27.2907C23.9645 27.2907 22.9685 22.1093 24.1642 20.5142C25.3599 18.9204 27.3031 19.0702 27.3031 19.0702L29.3962 19.2686C29.3962 19.2686 31.3382 19.8165 31.7376 20.2659C31.7376 20.2659 31.7376 23.1552 30.4421 25.7959L23.9645 27.2907Z" fill="#F79785"/>
<path d="M19.107 31.3507C19.0807 31.4658 19.4736 31.7023 19.5471 31.7345C20.0714 31.9609 20.6692 31.6797 21.1659 31.5056C21.6087 31.3507 22.3182 31.7495 22.3839 31.9929C22.3839 31.9929 22.4062 32.2808 22.2289 32.3251C22.0515 32.3695 19.4171 32.3473 19.4171 32.3473L19.128 32.17L19.0176 31.7495C19.0176 31.7495 19.1057 31.3517 19.107 31.3507Z" fill="#F79785"/>
<path d="M19.0623 31.6718C19.0623 31.6718 19.2279 32.1369 19.9255 32.1037C20.6232 32.0704 21.0555 31.7382 21.2881 31.6718C21.5206 31.6055 22.351 31.8379 22.3182 32.1037L22.2512 32.3695C22.2512 32.3695 21.8531 34.1299 21.0555 34.163C20.258 34.1966 20.3907 33.0338 19.8257 32.768C19.8257 32.768 19.0623 32.3029 19.0623 31.6718Z" fill="#F79785"/>
<path d="M21.6205 37.7505C21.6205 37.7505 22.6834 37.8172 22.9817 37.7505C22.9817 37.7505 22.8161 38.3154 22.4837 38.2823C22.1513 38.2489 21.6205 37.7505 21.6205 37.7505Z" fill="#F79785"/>
<path d="M18.5972 34.6615L18.3974 35.1266C18.3974 35.1266 17.9665 34.6615 18.5972 34.6615Z" fill="#F79785"/>
<path d="M27.8642 34.4621L28.2308 35.0269C28.2308 35.0269 28.6617 34.5287 27.8642 34.4621Z" fill="#F79785"/>
<path d="M26.6555 21.7598C26.6555 21.7598 28.1008 21.112 30.0427 22.1093C30.0427 22.1093 28.2006 20.4143 26.6555 21.7598Z" fill="#C85D4E"/>
<path d="M17.5526 22.246C17.5526 22.246 16.4462 21.7178 15.0771 22.7418C15.0771 22.7418 16.328 21.0753 17.5526 22.246Z" fill="#C85D4E"/>
<path d="M36.883 23.1681L36.607 23.4322C36.3101 23.6109 35.6715 24.5467 35.6715 24.5467L35.301 25.1226L35.2892 25.1113C35.0895 25.2938 34.6913 26.2243 34.6913 26.2243L34.7124 26.2893L34.6913 26.3072C34.7111 26.3328 34.7281 26.3594 34.7426 26.3859L34.8188 26.621C34.8569 26.96 34.6243 27.2706 34.6243 27.2706C34.6243 27.2706 35.1893 27.0712 35.3063 26.6726C35.3982 26.3537 35.1946 26.0991 35.1092 26.0097C35.1683 25.8703 35.2261 25.7413 35.2721 25.6596C35.4219 25.3936 35.6715 25.4768 35.6715 25.4768L35.5309 25.3421L35.5874 25.3605C35.5046 25.1943 35.9041 24.7957 35.9041 24.7957L35.8949 24.7858C36.046 24.9034 36.2194 25.0117 36.2194 25.0117C36.2194 25.0117 36.0526 24.5632 36.2194 24.2976C36.3416 24.1026 36.6688 23.9076 36.8343 23.8176C37.0012 23.995 37.2049 24.2411 37.3652 24.5301C37.3652 24.5301 37.1155 23.4171 36.883 23.1681ZM35.6873 26.5729L35.7871 26.0083C35.7871 26.0083 35.5546 26.1413 35.6873 26.5729ZM36.0696 26.9384C36.4178 26.2741 36.2523 25.8255 36.2523 25.8255C36.1196 26.2574 36.0696 26.9384 36.0696 26.9384ZM37.0327 24.9288C37.1996 25.3771 36.8672 26.656 36.8672 26.656C37.398 25.7425 37.3152 25.0282 37.3152 25.0282L37.0327 24.9288Z" fill="#EB715C"/>
<path d="M19.6824 32.4136C19.6824 32.4136 20.3249 32.8123 20.6127 32.7899C20.9004 32.768 21.0778 32.5243 21.1435 32.3473C21.1435 32.3473 20.2579 32.5689 19.6824 32.4136Z" fill="#F79785"/>
<path d="M37.8907 23.6812C37.8368 23.3663 37.7015 23.0616 37.4703 22.8372C37.1181 22.4956 36.6083 22.4417 36.1616 22.5996C35.9343 22.6799 35.7412 22.8197 35.5717 22.9855C35.4876 23.0667 35.4573 23.1687 35.4009 23.2666C35.3352 23.3793 35.28 23.4968 35.2222 23.6128C34.9673 24.1217 34.7373 24.6505 34.3773 25.0972C34.376 25.099 34.3786 25.1011 34.3786 25.0995C34.6453 24.7781 34.8424 24.4086 35.033 24.039C35.1262 23.8577 35.2195 23.6749 35.3246 23.4998C35.4258 23.3307 35.5428 23.123 35.7096 23.0094C36.0841 22.7533 36.4612 22.577 36.9276 22.6647C37.2758 22.7297 37.5636 22.9684 37.7133 23.2831C37.9971 23.8806 37.8841 24.6353 37.7383 25.2528C37.5833 25.9065 37.3257 26.5213 36.9854 27.099C36.5584 27.8262 35.862 28.3552 35.3614 29.0286C35.1184 29.3547 34.9016 29.6944 34.5376 29.8987C34.1579 30.1114 33.7532 30.0143 33.3945 29.8095C33.3656 29.7929 33.3406 29.836 33.3682 29.8539C33.6612 30.0411 33.9923 30.1349 34.3339 30.0426C34.669 29.9523 34.9331 29.6766 35.1381 29.4127C35.2655 29.2493 35.3706 29.0709 35.4954 28.9055C35.6544 28.6946 35.8318 28.4984 36.0105 28.3045C36.3127 27.9755 36.6346 27.6547 36.9027 27.2974C37.2811 26.7952 37.5268 26.194 37.7068 25.5959C37.8894 24.9862 37.9998 24.3149 37.8907 23.6812ZM34.3261 27.9881C34.3261 27.9902 34.33 27.99 34.33 27.9881C34.3681 27.6277 34.5902 27.3655 34.7636 27.0626C34.9186 26.7935 34.9239 26.5395 34.7846 26.2606C34.7465 26.184 34.6296 26.2517 34.669 26.3279C34.8385 26.654 34.8162 26.9149 34.6243 27.2213C34.4706 27.4662 34.3458 27.6943 34.3261 27.9881ZM36.9158 23.2518C36.9736 23.2051 36.8961 23.1028 36.8356 23.1479C36.6254 23.3064 36.4415 23.5191 36.2641 23.7151C36.0565 23.9445 35.8699 24.1916 35.6925 24.4441C35.3207 24.974 34.9686 25.5398 34.7097 26.135C34.7005 26.157 34.7321 26.1765 34.7426 26.1543C34.9042 25.8474 35.0671 25.5436 35.2406 25.2462C35.2406 25.264 35.2524 25.2822 35.2747 25.2836C35.703 25.3118 35.8581 25.776 35.7701 26.1439C35.7687 26.1481 35.7753 26.1498 35.7766 26.1455C35.9054 25.7823 35.7267 25.2268 35.2747 25.2119C35.2681 25.2117 35.2629 25.2134 35.2576 25.2155C35.3838 25.0005 35.5165 24.789 35.6597 24.5822C35.7188 24.7462 35.8029 24.83 35.9593 24.922C36.042 24.971 36.1353 25.0159 36.2076 25.0807C36.3009 25.1639 36.293 25.3251 36.2864 25.4383C36.2601 25.9464 36.0355 26.4264 36.0709 26.9418C36.0709 26.9426 36.0723 26.9426 36.0723 26.9418C36.0407 26.4142 36.2825 25.9179 36.318 25.3966C36.3311 25.2167 36.3364 25.0447 36.1839 24.9254C36.0276 24.8042 35.7806 24.7287 35.6939 24.5386C35.6925 24.5376 35.6925 24.5369 35.6925 24.5361C35.8725 24.2805 36.0709 24.0373 36.2825 23.8072C36.4783 23.5949 36.6937 23.43 36.9158 23.2518Z" fill="#C85D4E"/>
<path d="M19.58 28.5863C19.6956 29.1373 19.6181 29.6586 19.4434 30.186C19.3028 30.6073 19.0623 30.9991 18.9677 31.4344C18.8876 31.8003 18.9704 32.1445 19.2253 32.4214C19.4092 32.6211 19.6497 32.7496 19.9006 32.8439C20.0635 32.9053 20.2317 32.9267 20.4012 32.9601C20.5576 32.9907 20.7244 33.0224 20.8834 32.9991C20.9123 32.9949 20.911 32.947 20.8834 32.942C20.731 32.915 20.576 32.9121 20.4235 32.8809C20.2462 32.8449 20.074 32.7508 19.9137 32.6713C19.6812 32.5565 19.4565 32.4157 19.2896 32.2156C19.0466 31.9234 19.1004 31.5405 19.1806 31.1989C19.2765 30.782 19.4447 30.386 19.5485 29.9713C19.6628 29.513 19.6983 29.0476 19.5813 28.5858C19.5813 28.5848 19.58 28.5853 19.58 28.5863Z" fill="#C85D4E"/>
<path d="M21.4378 32.5679C21.3564 32.3646 21.5101 32.3198 21.6809 32.3086C21.8491 32.2975 22.0041 32.2843 22.1671 32.3357C22.1841 32.3407 22.1907 32.3153 22.1749 32.3101C21.9687 32.2433 21.7492 32.1607 21.5338 32.2236C21.3537 32.2757 21.334 32.4325 21.4102 32.5796C21.4181 32.5947 21.4444 32.584 21.4378 32.5679Z" fill="#C85D4E"/>
<path d="M22.125 32.5279C22.3891 32.3487 22.4653 31.9756 22.4364 31.6751C22.4338 31.655 22.4062 31.6552 22.4049 31.6751C22.3668 32.0054 22.3563 32.2625 22.1171 32.5174C22.1119 32.5228 22.1185 32.5321 22.125 32.5279Z" fill="#C85D4E"/>
<path d="M21.4366 32.4277C21.4366 32.4277 21.4129 32.2616 21.903 32.3112C21.903 32.3112 21.6534 32.5024 21.4366 32.4277Z" fill="#69242A"/>
<path d="M18.9729 34.9161C18.9729 34.9161 19.6456 34.3386 20.1331 34.2496C20.4432 34.1928 20.6889 34.4656 20.9832 34.4974C21.3314 34.5348 21.6283 34.3307 21.9713 34.3158C22.4811 34.2936 22.7465 34.3658 23.7648 34.5649C24.7843 34.7644 27.2335 34.7832 27.4555 34.7611C27.4555 34.7611 26.0378 35.5583 25.6397 35.5583C25.2403 35.5583 22.5389 35.8241 22.4285 35.8463C22.3181 35.8683 21.0331 35.7796 20.7901 35.7796L18.9729 34.9161Z" fill="#F79785"/>
<path d="M18.9269 34.9038C18.9269 34.9038 19.1937 35.36 19.4919 35.7184C19.7889 36.0766 19.7692 36.6698 20.0267 36.9242C20.3249 37.2172 22.0488 37.5431 23.0605 37.0867C24.0722 36.6308 27.1153 34.4912 27.1153 34.4912C27.1153 34.4912 26.7618 34.5924 26.3821 34.6757C26.1114 34.735 25.8329 34.8386 25.4991 34.8386C24.6963 34.8386 21.3353 34.9038 21.246 34.9364C21.1567 34.969 19.6404 34.9038 19.5511 34.9038C19.4617 34.9038 18.9269 34.9038 18.9269 34.9038Z" fill="#F03E70"/>
<path d="M19.8087 35.8814C19.8087 35.8814 19.7693 36.6416 20.4827 36.837C21.1962 37.0325 22.0896 36.9241 22.0896 36.9241L22.9621 36.8155L23.2787 36.7284C23.2787 36.7284 24.2694 36.2505 24.4678 35.8379C24.6662 35.4252 23.5363 35.4686 23.5363 35.4686C23.5363 35.4686 22.8478 35.42 22.8031 35.4686C22.7426 35.5337 20.1069 35.5337 20.1069 35.5337L19.8087 35.8814Z" fill="black"/>
<path d="M19.8087 35.8814C19.8087 35.8814 19.7693 36.6416 20.4827 36.837C21.1962 37.0325 22.0896 36.9241 22.0896 36.9241L22.9621 36.8155L23.2787 36.7284C23.2787 36.7284 24.2694 36.2505 24.4678 35.8379C24.6662 35.4252 23.5363 35.4686 23.5363 35.4686C23.5363 35.4686 22.8478 35.42 22.8031 35.4686C22.7426 35.5337 20.1069 35.5337 20.1069 35.5337L19.8087 35.8814Z" fill="#F03E70"/>
<path d="M26.3821 34.6757C26.1114 34.735 25.8329 34.8386 25.4991 34.8386C24.6963 34.8386 21.3353 34.9038 21.246 34.9364C21.1567 34.969 19.6404 34.9038 19.5511 34.9038C19.4617 34.9038 18.9269 34.9038 18.9269 34.9038C18.9269 34.9038 19.1937 35.36 19.4919 35.7184C19.5747 35.819 19.6338 35.9376 19.6798 36.0624L19.6995 36.0766C19.6995 36.0766 19.7298 35.8162 20.8006 35.8162C21.8701 35.8162 24.5479 35.751 24.607 36.1419C24.6083 36.1541 24.6109 36.166 24.6136 36.1778C25.8014 35.4148 27.1153 34.4912 27.1153 34.4912C27.1153 34.4912 26.7618 34.5924 26.3821 34.6757ZM20.0267 36.5655C20.0267 36.5655 20.3539 37.0544 21.0975 37.0868C21.8412 37.1196 22.9712 36.9242 23.3286 36.7284C23.3286 36.7284 20.8295 36.9891 20.0267 36.5655Z" fill="#F03E70"/>
<path d="M19.1201 35.0342L19.5222 35.5229C19.5222 35.5229 19.7889 35.5065 20.1016 35.539C20.413 35.5718 20.3092 35.7674 21.0227 35.7674C21.7374 35.7674 21.7821 35.6694 22.154 35.6205C22.5258 35.5718 25.0524 35.3111 25.1865 35.3925C25.3205 35.4739 25.3205 35.4739 25.3205 35.4739C25.3205 35.4739 26.2875 34.9852 26.5542 34.7245C26.5542 34.7245 25.4098 35.0504 25.2022 35.1317C24.9933 35.2134 22.3169 35.4903 21.8412 35.4578L21.3945 35.539C21.3945 35.539 20.547 35.7836 20.2948 35.2786C20.2948 35.2786 20.0267 35.3925 19.1201 35.0342Z" fill="#F03E70"/>
<path d="M27.1219 34.4819C27.1193 34.4827 27.1179 34.4834 27.1153 34.4844L26.4505 34.5781C25.8264 34.6757 24.9342 34.7408 24.0421 34.6757C23.1499 34.6104 22.1093 34.3172 21.6034 34.415C21.0976 34.5129 20.8006 34.7736 20.8006 34.7736C20.8006 34.7736 20.2646 34.3172 20.0267 34.3172C19.7889 34.3172 19.4026 34.5129 19.1346 34.6757C18.8863 34.8268 18.5263 34.6166 18.475 34.5853C18.4737 34.5834 18.4711 34.582 18.4697 34.5804C18.4684 34.5794 18.4671 34.5809 18.4684 34.5819C18.5394 34.6483 18.6117 34.7067 18.6865 34.7617C18.6918 34.7654 18.6971 34.769 18.7023 34.7726C18.7338 34.7959 18.7667 34.8189 18.7995 34.8404C19.1004 35.0403 19.4223 35.1675 19.7193 35.2395C19.8612 35.2813 20.0057 35.32 20.1516 35.3567C20.1621 35.3592 20.2593 35.3606 20.2659 35.3742C20.2908 35.422 20.3289 35.4673 20.3684 35.5002C20.4682 35.5819 20.5786 35.621 20.6995 35.6449C20.8282 35.6703 20.9583 35.674 21.0871 35.6519C21.204 35.6318 21.3604 35.6388 21.4642 35.572C21.4707 35.5682 21.4721 35.5615 21.4707 35.5551L21.8557 35.4617C21.8557 35.4634 21.857 35.4652 21.8583 35.4655C22.7242 35.4917 23.5993 35.4087 24.4546 35.2789C24.9171 35.209 25.3744 35.1143 25.8264 34.9884C26.0432 34.9282 26.256 34.8612 26.4676 34.7822C26.6922 34.6981 26.9038 34.5844 27.1232 34.4848C27.1245 34.4841 27.1232 34.4812 27.1219 34.4819Z" fill="#ED1C4D"/>
<path d="M23.5283 21.493C23.5362 21.4865 24.427 21.0608 25.2981 20.4498C25.7514 20.1331 26.2087 19.806 27.1797 19.5787C28.1336 19.3842 29.6012 19.2896 31.6969 20.2159C31.8349 20.212 31.9728 20.2107 32.1134 20.212C32.1095 20.2199 30.9007 19.4841 29.1768 18.99C27.4477 18.4934 25.871 18.7443 24.6688 19.3908C23.4363 20.0569 22.9869 21.1159 23.5283 21.493Z" fill="#050301"/>
<path d="M24.2194 21.0805C23.9369 21.2447 23.7083 21.3656 23.6019 21.4208C23.4836 21.3091 23.4298 21.1554 23.4521 20.9596C23.4994 20.5194 23.9737 19.9045 24.7476 19.4906C25.0367 19.3343 25.3468 19.2029 25.666 19.1043C26.704 18.7798 27.9181 18.7562 29.1584 19.1385C30.358 19.5064 31.3067 20.0044 31.7587 20.2632C31.735 20.2632 31.7114 20.2632 31.689 20.2632C30.1084 19.4749 28.6854 19.3435 27.6198 19.4683C26.4518 19.6207 25.8697 20.0004 25.3967 20.321C25.3494 20.3539 25.3021 20.388 25.2561 20.4209C24.9421 20.6469 24.5952 20.8637 24.2194 21.0805Z" fill="#050301"/>
<path d="M18.6274 21.8832C18.6156 21.8767 18.0874 21.6967 17.5474 21.1711C17.2702 20.9109 16.9969 20.6258 16.4568 20.4616C15.9339 20.3157 15.1114 20.2816 14.0156 21.0345C13.9276 21.0069 13.8382 20.9819 13.7476 20.9596C13.7554 20.9661 14.3782 20.3722 15.319 19.8782C16.1717 19.4341 17.0599 19.5681 17.7563 20.0043C18.5105 20.4734 18.8823 21.3419 18.6274 21.8832Z" fill="#050301"/>
<path d="M18.1859 21.5981C18.3593 21.7033 18.4986 21.7676 18.5656 21.7952C18.6168 21.6428 18.63 21.4707 18.5932 21.2762C18.5196 20.8597 18.1846 20.3788 17.7194 20.0898C17.5499 19.982 17.3712 19.8953 17.1926 19.8322C16.6131 19.626 15.9535 19.6509 15.3413 19.9978C14.7014 20.3591 14.2192 20.7783 13.9774 20.999C13.9919 21.0029 14.0076 21.0069 14.0221 21.0108C14.8485 20.3841 15.6303 20.2527 16.2084 20.3434C16.8391 20.4498 17.1913 20.7599 17.4724 21.0266C17.5013 21.0542 17.5289 21.0818 17.5578 21.1094C17.7523 21.2999 17.9599 21.4602 18.1859 21.5981Z" fill="#050301"/>
<path d="M27.2033 27.2907L28.1493 27.7889C28.1493 27.7889 29.4948 27.0914 30.3922 26.6927L30.492 25.497L27.2532 27.0914L27.2033 27.2907Z" fill="#050301"/>
<path d="M30.3226 23.8943C30.3226 23.8943 31.5563 23.1614 31.9295 22.1526C31.9295 22.1526 31.8349 23.4554 30.341 24.4743L30.3226 23.8943Z" fill="#050301"/>
<path d="M30.6878 24.1979C30.6878 24.1979 31.153 23.8326 31.3527 23.301C31.3527 23.301 30.0243 22.1711 27.6658 22.4036C25.3192 22.6355 24.5098 25.3272 24.0775 27.0214L26.3703 26.2244L30.6878 24.1979Z" fill="#050301"/>
<path d="M24.3167 26.7623C24.5387 25.9319 24.833 25.0202 25.2955 24.2497C25.9183 23.2161 26.6988 22.6663 27.6816 22.5691C27.8892 22.5494 28.0968 22.5389 28.2991 22.5389C29.8509 22.5389 30.8481 23.1442 31.149 23.3557C30.9729 23.7292 30.6668 23.9994 30.5998 24.0565L26.3072 26.0703L24.3167 26.7623Z" fill="#050301"/>
<path d="M27.453 23.2051C25.5596 23.4542 24.4625 25.6962 23.9645 27.3403C23.9645 27.3403 24.5111 27.2041 24.9947 27.1919C25.7869 27.3987 26.6791 27.4645 27.2638 27.4841C27.2769 27.4861 27.2901 27.488 27.3032 27.4897C28.0009 27.5896 27.901 27.4897 27.901 27.4897C28.6486 27.2907 29.3963 27.0413 29.9442 26.4935C29.9442 26.4935 30.6419 25.6962 30.6419 24.4507V24.1019C29.7944 23.4542 28.6486 23.0555 27.453 23.2051Z" fill="white"/>
<path d="M30.0874 25.0227C30.0874 24.4606 29.9192 23.9412 29.6341 23.5184C28.9719 23.24 28.2229 23.1089 27.453 23.2051C26.5963 23.3175 25.9039 23.8374 25.3547 24.5254C25.3258 24.6861 25.31 24.8526 25.31 25.0227C25.31 26.172 26.0129 27.1447 26.9826 27.4719C27.0812 27.4773 27.1757 27.4813 27.2638 27.4841C27.2769 27.4861 27.2901 27.488 27.3032 27.4897C28.0009 27.5896 27.901 27.4897 27.901 27.4897C28.3425 27.3721 28.7827 27.2368 29.1834 27.0332C29.7339 26.563 30.0874 25.8372 30.0874 25.0227Z" fill="#48C3D3"/>
<path d="M27.6987 27.2532C28.8457 27.2532 29.7747 26.2545 29.7747 25.0227C29.7747 24.3366 29.4856 23.7233 29.0323 23.3142C28.5317 23.183 27.9969 23.1369 27.453 23.2051C26.842 23.2855 26.3151 23.573 25.8631 23.9807C25.7107 24.2917 25.6227 24.6462 25.6227 25.0227C25.6227 26.2545 26.5529 27.2532 27.6987 27.2532Z" fill="#48C3D3"/>
<path d="M29.1663 25.0228C29.1663 25.8939 28.5093 26.6 27.6987 26.6C26.888 26.6 26.231 25.8937 26.231 25.0226C26.231 24.1516 26.888 23.4455 27.6987 23.4455C28.5093 23.4455 29.1663 24.1516 29.1663 25.0228Z" fill="#050301"/>
<path d="M28.9744 25.0227C28.9744 25.7795 28.4029 26.3932 27.6986 26.3932C26.9944 26.3932 26.4228 25.7795 26.4228 25.0226C26.4228 24.2658 26.9944 23.6522 27.6986 23.6522C28.4029 23.6522 28.9744 24.2658 28.9744 25.0227Z" fill="#050301"/>
<path d="M28.9744 25.0227C28.9744 25.7795 28.4029 26.3932 27.6986 26.3932C26.9944 26.3932 26.4228 25.7795 26.4228 25.0226C26.4228 24.2658 26.9944 23.6522 27.6986 23.6522C28.4029 23.6522 28.9744 24.2658 28.9744 25.0227Z" fill="#050301"/>
<path d="M27.1442 23.7725C27.1442 24.1013 27.3926 24.368 27.6987 24.368C28.0048 24.368 28.2532 24.1013 28.2532 23.7725C28.2532 23.4607 28.0298 23.2052 27.746 23.1794C27.6895 23.1824 27.6343 23.1862 27.5778 23.1914C27.3308 23.2506 27.1442 23.488 27.1442 23.7725Z" fill="white"/>
<path d="M30.6511 24.092C29.4738 23.0135 27.4845 22.6889 26.1496 23.6541C25.5714 24.0715 25.1431 24.6546 24.8041 25.2741C24.4651 25.8919 24.1918 26.5507 23.9934 27.2265C23.9829 27.2642 23.9724 27.3019 23.9619 27.3395C23.9606 27.3439 23.9672 27.3456 23.9685 27.3414C24.3981 26.0516 25.013 24.7043 26.1233 23.8577C26.733 23.3939 27.4385 23.2306 28.1953 23.2701C29.0757 23.3164 29.8942 23.6575 30.634 24.1141C30.6471 24.1222 30.6629 24.1029 30.6511 24.092ZM29.9402 26.4901C29.6485 26.7402 29.3345 26.9446 28.985 27.1028C28.6342 27.2621 28.2637 27.3613 27.8997 27.4873C27.8971 27.4885 27.8984 27.4933 27.901 27.4925C28.6276 27.3534 29.4409 27.0602 29.9468 26.4968C29.9507 26.4922 29.9442 26.4862 29.9402 26.4901Z" fill="#050301"/>
<path d="M15.6448 26.5433V27.0413C15.6448 27.0413 16.3911 27.4399 17.1387 27.9383L17.8863 27.3904L15.6448 26.5433Z" fill="#050301"/>
<path d="M15.3755 25.4933C15.3755 25.4933 14.1325 24.9323 13.6017 23.9027C13.6017 23.9027 14.8433 25.0616 15.541 25.1943L15.3755 25.4933Z" fill="#050301"/>
<path d="M15.3084 25.3605C15.3084 25.3605 14.976 25.294 14.5779 24.8622C14.5779 24.8622 14.5963 23.3969 15.8734 22.9025C16.9022 22.5034 17.73 23.3117 18.1636 24.1762C18.4079 24.6638 18.5104 25.1996 18.5998 25.7334C18.6392 25.9672 18.6431 27.0755 18.8297 27.2206C18.8297 27.2206 17.634 26.2907 17.5013 26.2574C17.3686 26.2243 15.3084 25.3605 15.3084 25.3605Z" fill="#050301"/>
<path d="M18.5209 26.7737C17.6761 26.1299 17.5775 26.1052 17.5408 26.0964C17.4304 26.0648 16.1519 25.5341 15.3728 25.2074L15.3597 25.2018L15.3426 25.198C15.3399 25.1974 15.0759 25.1352 14.7474 24.7994C14.7671 24.521 14.9116 23.4528 15.9338 23.0574C16.0928 22.9953 16.2544 22.9639 16.4108 22.9639C17.3016 22.9639 17.864 23.9489 18.0151 24.251C18.2503 24.7195 18.3475 25.2326 18.4355 25.7608C18.4447 25.8154 18.4539 25.9475 18.4618 26.0874C18.4802 26.3668 18.4973 26.5928 18.5209 26.7737Z" fill="#050301"/>
<path d="M15.2454 25.3973L15.2953 25.5965C15.4951 26.2941 15.8932 26.7924 15.8932 26.7924C16.223 27.2188 16.4752 27.3724 16.9404 27.5896C17.5513 27.8754 18.3778 27.1623 18.8823 27.5397C18.7339 26.4938 18.6839 25.3973 18.0362 24.4007C17.2045 23.122 15.4451 23.1053 15.2454 25.3973Z" fill="white"/>
<path d="M16.5146 23.5421C16.2006 23.9804 16.0206 24.6346 16.0613 25.3546C16.1296 26.6198 16.851 27.6089 17.6695 27.5637C18.1294 27.5383 18.5236 27.1913 18.768 26.6676C18.6602 25.8975 18.5052 25.123 18.0361 24.4007C17.6472 23.8025 17.0546 23.4804 16.5146 23.5421Z" fill="#48C3D3"/>
<path d="M16.2545 25.3437C16.3163 26.4432 16.9417 27.3028 17.6525 27.2636C18.1202 27.238 18.5079 26.8315 18.7023 26.2443C18.5933 25.6156 18.4185 24.9907 18.0362 24.4007C17.7235 23.9213 17.282 23.6193 16.8405 23.5498C16.4529 23.9073 16.2138 24.5832 16.2545 25.3437Z" fill="#48C3D3"/>
<path d="M17.4659 23.8652C16.9627 23.8929 16.5895 24.5455 16.6316 25.3231C16.6749 26.1004 17.1177 26.7081 17.621 26.6805C18.1163 26.6533 18.4842 26.022 18.4553 25.2617C18.3528 24.9691 18.2175 24.6811 18.0362 24.4007C17.8956 24.1851 17.7287 24.0055 17.5474 23.8667C17.5211 23.8645 17.4935 23.8638 17.4659 23.8652Z" fill="#050301"/>
<path d="M18.3344 25.2293C18.3725 25.9048 18.048 26.472 17.6104 26.496C17.1742 26.5201 16.7892 25.9921 16.7524 25.3164C16.7143 24.6409 17.0389 24.0741 17.4764 24.0495C17.9126 24.0257 18.2976 24.5539 18.3344 25.2293Z" fill="#050301"/>
<path d="M18.3344 25.2293C18.3725 25.9048 18.048 26.472 17.6104 26.496C17.1742 26.5201 16.7892 25.9921 16.7524 25.3164C16.7143 24.6409 17.0389 24.0741 17.4764 24.0495C17.9126 24.0257 18.2976 24.5539 18.3344 25.2293Z" fill="#050301"/>
<path d="M17.1387 24.1761C17.1545 24.4697 17.3214 24.699 17.5119 24.6888C17.7011 24.6782 17.8417 24.4317 17.8259 24.1382C17.8259 24.1336 17.8246 24.129 17.8246 24.1242C17.663 23.9438 17.4803 23.8012 17.2898 23.7015C17.1886 23.7979 17.1269 23.976 17.1387 24.1761Z" fill="white"/>
<path d="M18.7194 26.2202C18.6418 25.7723 18.5275 25.3272 18.3475 24.9089C18.1163 24.3734 17.751 23.8005 17.1847 23.572C16.7695 23.4045 16.2847 23.4265 15.9247 23.7107C15.4411 24.0938 15.2848 24.7585 15.2467 25.3453C15.2454 25.3626 15.2441 25.38 15.2427 25.3973C15.2427 25.401 15.248 25.4007 15.248 25.3973C15.3203 24.8164 15.5029 24.1703 16.0035 23.8118C16.3661 23.5523 16.8142 23.5602 17.2083 23.7411C17.7615 23.9952 18.1044 24.5015 18.3409 25.0459C18.5144 25.4421 18.6156 25.8614 18.6878 26.2863C18.7601 26.7019 18.7745 27.1323 18.8705 27.5429C18.8731 27.5573 18.8967 27.5542 18.8954 27.5397C18.8731 27.1012 18.7929 26.6528 18.7194 26.2202ZM16.9456 27.579C16.7629 27.4703 16.5724 27.3773 16.3964 27.2586C16.2045 27.1299 16.0482 26.9609 15.8971 26.7884C15.8931 26.7832 15.8839 26.7898 15.8879 26.7952C16.1546 27.1727 16.5001 27.4464 16.9364 27.601C16.9495 27.6058 16.9574 27.586 16.9456 27.579Z" fill="#050301"/>
<path d="M40.0915 23.3763C40.0981 23.3576 40.1046 23.3367 40.1112 23.3166C40.1178 23.2974 40.1243 23.279 40.1309 23.2587C40.1375 23.2373 40.1454 23.2141 40.1519 23.1915C40.1585 23.1708 40.1651 23.1505 40.1716 23.1285C40.1782 23.1046 40.1861 23.0788 40.1927 23.0536C40.1992 23.0311 40.2058 23.0092 40.2124 22.9858C40.2189 22.9588 40.2268 22.9308 40.2347 22.9027C40.2413 22.8789 40.2465 22.8558 40.2531 22.8311C40.261 22.8012 40.2689 22.77 40.2767 22.739C40.282 22.7146 40.2886 22.6905 40.2952 22.6653C40.303 22.6321 40.3109 22.597 40.3188 22.5626C40.3241 22.5376 40.3306 22.514 40.3359 22.489C40.3385 22.4785 40.3398 22.468 40.3424 22.4561C40.3424 22.4575 40.3424 22.4574 40.3424 22.4574C41.0953 19.0702 41.6432 10.2065 34.7031 6.56301C26.7303 2.37688 17.2964 6.89543 17.2964 6.89543C7.61413 11.6781 6.89279 16.3583 6.86126 17.4291C6.84023 17.483 6.81921 17.5368 6.7995 17.5907L6.85995 17.5329C6.86126 17.6144 6.86652 17.6577 6.86652 17.6577C6.89017 17.5776 6.92564 17.4948 6.96637 17.4094C6.98082 17.3818 6.99396 17.3529 7.00973 17.324C7.02155 17.3016 7.0347 17.2806 7.04653 17.2583C7.06361 17.2281 7.08069 17.1992 7.09908 17.1689C7.11222 17.1466 7.12799 17.1243 7.14244 17.1019C7.16215 17.0717 7.18185 17.0415 7.20287 17.01C7.21864 16.9876 7.23441 16.9653 7.25149 16.9416C7.27383 16.9101 7.29617 16.8799 7.31982 16.8483C7.3369 16.826 7.35529 16.8024 7.37237 16.78C7.39734 16.7472 7.4223 16.7156 7.44989 16.6828C7.46697 16.6605 7.48537 16.6381 7.50377 16.6158C7.53267 16.5829 7.56026 16.5488 7.58917 16.5146C7.60757 16.4936 7.62727 16.4726 7.64567 16.4515C7.67589 16.4161 7.70741 16.3806 7.73895 16.3451C7.75603 16.3267 7.77312 16.3083 7.7902 16.2899C7.82567 16.2518 7.86115 16.2137 7.89794 16.1743C7.90582 16.1664 7.9137 16.1585 7.92159 16.1507C8.05955 16.0061 8.20539 15.8629 8.35649 15.7197C8.37226 15.7039 8.38934 15.6882 8.40511 15.6711C8.44321 15.6369 8.48132 15.6014 8.51811 15.566C8.54176 15.5449 8.56409 15.5239 8.58642 15.5029C8.6219 15.4714 8.65869 15.4385 8.69417 15.4057C8.71913 15.3833 8.74541 15.3597 8.77037 15.3373C8.80453 15.3058 8.84001 15.2756 8.87418 15.2454C8.90045 15.2217 8.92805 15.1981 8.95564 15.1744C8.9898 15.1442 9.02265 15.1153 9.05682 15.0864C9.08441 15.0614 9.11199 15.0378 9.1409 15.0141C9.17375 14.9865 9.2066 14.9576 9.24076 14.93C9.26836 14.9064 9.29595 14.8827 9.32354 14.8591C9.35639 14.8315 9.38923 14.8052 9.42208 14.7776C9.44967 14.754 9.47726 14.7316 9.50616 14.708C9.5377 14.6817 9.56924 14.6567 9.60077 14.6305C9.62836 14.6081 9.65595 14.5858 9.68354 14.5634C9.71376 14.5385 9.7453 14.5135 9.77552 14.4899C9.80311 14.4675 9.8307 14.4452 9.85698 14.4242C9.88589 14.4005 9.9148 14.3782 9.94371 14.3559C9.9713 14.3335 9.99888 14.3125 10.0252 14.2915C10.0528 14.2704 10.079 14.2481 10.1066 14.2271C10.1329 14.2074 10.1592 14.1864 10.1855 14.1666C10.2104 14.1469 10.2367 14.1272 10.2617 14.1075C10.2866 14.0878 10.3116 14.0681 10.3366 14.0497C10.3602 14.0313 10.3852 14.0129 10.4075 13.9958C10.4325 13.9774 10.4561 13.959 10.4798 13.9406C10.5008 13.9249 10.5231 13.9078 10.5428 13.8934C10.5665 13.8763 10.5875 13.8592 10.6099 13.8434C10.6296 13.829 10.6493 13.8132 10.669 13.7987C10.69 13.783 10.7097 13.7685 10.7294 13.7541C10.7465 13.7409 10.7649 13.7291 10.7807 13.7173C10.7991 13.7028 10.8161 13.6897 10.8332 13.6779C10.849 13.666 10.8648 13.6542 10.8792 13.6437C10.895 13.6319 10.9094 13.6227 10.9226 13.6122C10.9357 13.603 10.9502 13.5925 10.962 13.5833C10.9764 13.5727 10.9896 13.5649 11.0014 13.5557C11.0106 13.5491 11.0198 13.5412 11.0277 13.536C11.0395 13.5281 11.0487 13.5215 11.0579 13.5149C11.0645 13.5097 11.0724 13.5044 11.0776 13.5005C11.0842 13.4965 11.0881 13.4939 11.0934 13.49C11.1078 13.4795 11.1183 13.4716 11.1183 13.4716C11.0973 13.4926 11.0776 13.5123 11.0566 13.5333L11.0579 13.532C7.85195 16.6894 6.93353 18.9296 7.06623 20.4472C7.15558 21.4799 7.30536 22.6611 7.39339 23.3211C7.39339 23.3214 7.39339 23.3219 7.39339 23.3221C7.42755 23.5739 7.45121 23.7477 7.46041 23.8095C7.46172 23.8156 7.46171 23.82 7.46303 23.824C7.46303 23.8314 7.46435 23.8361 7.46435 23.8361C7.47223 23.7418 7.48142 23.6481 7.49194 23.5551C7.49588 23.5236 7.49982 23.4925 7.50377 23.4611C7.51165 23.4002 7.51953 23.3388 7.52741 23.2781C7.53267 23.2411 7.53924 23.2043 7.54449 23.1672C7.55238 23.1132 7.56157 23.0588 7.57077 23.0054C7.57734 22.9666 7.58391 22.9284 7.59048 22.8899C7.59968 22.8385 7.60888 22.7874 7.61939 22.7365C7.62727 22.6978 7.63515 22.6591 7.64304 22.6205C7.65355 22.5704 7.66275 22.5218 7.67457 22.4732C7.68246 22.4338 7.69166 22.3957 7.70085 22.3576C7.71136 22.309 7.72318 22.2617 7.73501 22.2131C7.74421 22.1763 7.75341 22.1382 7.76261 22.1001C7.77443 22.0528 7.78757 22.0055 7.7994 21.9595C7.80991 21.9227 7.8191 21.8859 7.82961 21.8491C7.84275 21.8031 7.85589 21.7571 7.86903 21.7098C7.87954 21.6743 7.89006 21.6402 7.90057 21.6047C7.91502 21.5587 7.92947 21.5127 7.94393 21.4668C7.95444 21.4326 7.96494 21.3997 7.97545 21.3669C7.98991 21.3196 8.00567 21.2736 8.02144 21.2276C8.03195 21.1961 8.04247 21.1646 8.05298 21.1343C8.06875 21.0857 8.08583 21.0384 8.10291 20.9911C8.11342 20.9635 8.12262 20.9359 8.13181 20.9097C8.15284 20.8558 8.17254 20.8019 8.19225 20.7494C8.20013 20.7297 8.20671 20.7099 8.21459 20.6915C8.26977 20.547 8.32627 20.4077 8.38277 20.2737C8.38934 20.2593 8.39591 20.2448 8.40248 20.2304C8.42481 20.1791 8.44584 20.1279 8.46817 20.078C8.47737 20.0582 8.48525 20.0398 8.49445 20.0201C8.51416 19.9755 8.53387 19.9321 8.55358 19.8901C8.56277 19.869 8.57329 19.848 8.58248 19.8283C8.60088 19.7889 8.61928 19.7495 8.63767 19.7101C8.64818 19.689 8.65738 19.6693 8.66789 19.6483C8.68497 19.6115 8.70337 19.576 8.72045 19.5392C8.73096 19.5195 8.74147 19.4998 8.75066 19.4801C8.76774 19.446 8.78614 19.4105 8.80322 19.3776C8.81242 19.3592 8.82162 19.3408 8.83082 19.3238C8.84922 19.2896 8.8663 19.2554 8.88338 19.2239C8.89126 19.2068 8.90045 19.1911 8.90833 19.1753C8.92673 19.1424 8.94381 19.1096 8.96089 19.0781C8.96877 19.0649 8.97666 19.0505 8.98323 19.0373C9.00162 19.0045 9.01871 18.9729 9.03711 18.9427C9.04236 18.9322 9.04893 18.9204 9.05419 18.9099C9.07389 18.877 9.09229 18.8442 9.11068 18.8126C9.11331 18.8074 9.11725 18.8008 9.12119 18.7943C9.14221 18.7575 9.16324 18.7233 9.18295 18.6891C9.18295 18.6891 9.18295 18.6891 9.18295 18.6878C9.34981 18.4093 9.45756 18.2556 9.45756 18.2556C9.38924 18.4645 9.32616 18.6707 9.26572 18.8731L9.26704 18.8665C9.22106 19.0255 9.1777 19.1832 9.13565 19.3382C9.12383 19.3829 9.112 19.4262 9.10017 19.4709C9.05944 19.626 9.02002 19.781 8.98323 19.9334C8.97666 19.9623 8.97141 19.9899 8.96484 20.0188C8.94645 20.0963 8.92804 20.1752 8.91096 20.2514L8.9241 20.2015C7.99648 24.3721 8.85972 27.0075 9.20003 27.8189C9.20659 27.8358 9.21316 27.8504 9.21973 27.8657C9.22499 27.8762 9.22893 27.8863 9.23287 27.896C9.25521 27.9457 9.27361 27.9852 9.28806 28.0153C9.29069 28.0204 9.292 28.0246 9.29463 28.0292C9.3012 28.0425 9.30646 28.0533 9.3104 28.0618C9.31303 28.0662 9.31565 28.0702 9.31697 28.0737C9.3196 28.0783 9.32091 28.0801 9.32091 28.0822C9.32354 28.0859 9.32485 28.0878 9.32485 28.0878C9.05812 25.8291 10.7859 20.116 10.7859 20.116C10.757 20.2382 10.7307 20.3591 10.7071 20.4774C10.7045 20.4866 10.7031 20.4945 10.7018 20.5037C10.6782 20.6206 10.6572 20.7362 10.6388 20.8505C10.6388 20.8518 10.6388 20.8518 10.6388 20.8532C10.6204 20.9701 10.6046 21.0857 10.5915 21.2C10.5902 21.204 10.5901 21.2066 10.5901 21.2105C10.2774 23.8967 11.3181 25.8924 11.3181 31.476C11.3181 37.7875 6.86652 37.9203 6.86652 37.9203C7.31719 38.0265 7.77575 38.0566 8.23299 38.0304C8.2343 38.0302 8.23692 38.0301 8.23824 38.03C10.4469 37.9007 12.6083 36.4407 13.578 35.6951C13.62 35.663 13.6595 35.6321 13.6962 35.6029C13.6976 35.6024 13.6976 35.6017 13.6989 35.6011C13.8106 35.5129 13.9012 35.4383 13.9695 35.3818C13.9906 35.3634 14.0103 35.3472 14.0274 35.3328C14.0287 35.3318 14.03 35.3311 14.03 35.33C14.0458 35.3166 14.0602 35.305 14.0707 35.2955C14.072 35.294 14.0733 35.293 14.0747 35.2916C14.0852 35.2831 14.093 35.2764 14.0983 35.2715C14.0996 35.27 14.0996 35.2697 14.1009 35.2685C14.1049 35.2654 14.1075 35.2629 14.1075 35.2629C14.2402 36.658 12.9789 38.0532 12.9789 38.0532C13.0774 38.0532 13.1746 38.0507 13.2719 38.0464V38.0465C13.2902 38.0456 13.3073 38.044 13.3257 38.043C13.5675 38.03 13.8027 38.0047 14.03 37.9681C14.0352 37.9674 14.0392 37.967 14.0431 37.9662C14.1036 37.9564 14.1627 37.9451 14.2205 37.9339C14.2455 37.9293 14.2691 37.9255 14.2928 37.9207C14.3453 37.91 14.3979 37.8982 14.4504 37.8865C14.4793 37.8799 14.5083 37.874 14.5358 37.867C14.5858 37.8555 14.6331 37.8427 14.6817 37.8301C14.7119 37.8222 14.7434 37.8145 14.7737 37.8063C14.8196 37.7935 14.8656 37.7798 14.9103 37.7664C14.9418 37.7571 14.9734 37.7484 15.0036 37.7388C15.0483 37.7251 15.0916 37.7106 15.135 37.6961C15.1652 37.6859 15.1967 37.6759 15.227 37.6655C15.269 37.6508 15.311 37.6358 15.3518 37.6203C15.382 37.6092 15.4135 37.5982 15.4438 37.5868C15.4832 37.5714 15.5239 37.5557 15.5633 37.5399C15.5935 37.5278 15.6224 37.5158 15.6527 37.5036C15.6921 37.4877 15.7289 37.4713 15.767 37.4549C15.7959 37.4424 15.8261 37.4298 15.855 37.4169C15.8918 37.4005 15.9273 37.3835 15.9641 37.3667C15.9917 37.3536 16.0206 37.3406 16.0482 37.3272C16.0836 37.3102 16.1191 37.293 16.1533 37.2758C16.1809 37.2622 16.2085 37.2487 16.2347 37.2351C16.2689 37.2176 16.3017 37.2004 16.3346 37.1829C16.3609 37.1691 16.3871 37.1552 16.4134 37.1411C16.445 37.1239 16.4765 37.1064 16.508 37.0888C16.533 37.0748 16.558 37.0607 16.5829 37.0464C16.6131 37.029 16.6434 37.0117 16.6736 36.9942C16.6972 36.9802 16.7209 36.9658 16.7445 36.9515C16.7734 36.9342 16.8023 36.9171 16.8299 36.8997C16.8523 36.8855 16.8746 36.8716 16.8969 36.8574C16.9245 36.8404 16.9508 36.8234 16.9771 36.8063C16.9994 36.7923 17.0205 36.7783 17.0428 36.7643C17.0678 36.7475 17.0927 36.731 17.1164 36.7146C17.1374 36.7005 17.1571 36.687 17.1768 36.673C17.2005 36.6569 17.2241 36.6408 17.2464 36.625C17.2662 36.6113 17.2845 36.5981 17.3029 36.5848C17.3253 36.5693 17.3463 36.5538 17.3673 36.5386C17.3857 36.5254 17.4028 36.5125 17.4199 36.4998C17.4396 36.4849 17.4593 36.4701 17.479 36.4558C17.4948 36.4432 17.5119 36.4311 17.5276 36.419C17.5447 36.4049 17.5631 36.391 17.5802 36.3775C17.5959 36.3658 17.6091 36.3545 17.6235 36.3432C17.6406 36.33 17.6564 36.3169 17.6721 36.3043C17.6866 36.2935 17.6984 36.2831 17.7116 36.2727C17.726 36.2607 17.7405 36.2486 17.7536 36.2375C17.7668 36.227 17.7773 36.2175 17.7891 36.2078C17.8009 36.1974 17.8141 36.1871 17.8246 36.1774C17.8364 36.1676 17.8469 36.1588 17.8561 36.1499C17.8666 36.1412 17.8771 36.1323 17.8863 36.1239C17.8955 36.1153 17.9047 36.108 17.9126 36.1001C17.9205 36.0931 17.9297 36.0855 17.9363 36.0792C17.9454 36.0713 17.952 36.0649 17.9599 36.0582C17.9652 36.0532 17.9704 36.0473 17.9757 36.0427C17.9836 36.0361 17.9888 36.0311 17.9941 36.0257C17.998 36.0226 18.002 36.0189 18.0046 36.016C18.0111 36.0093 18.0164 36.0042 18.0203 36.0008C18.0203 36.0005 18.0217 36 18.0217 35.9997C18.0256 35.9959 18.0269 35.9937 18.0269 35.9937L17.9849 35.96C18.0098 35.9464 18.0348 35.9327 18.0598 35.9189C17.726 35.4517 17.3791 34.9716 17.0021 34.4953C15.0088 31.9707 13.9472 29.4463 13.9472 27.6525C13.9472 25.8588 13.5478 24.2643 13.5478 24.2643C13.4203 24.008 13.3284 23.7551 13.2653 23.5067C13.2797 23.3848 13.2968 23.2621 13.3139 23.1391C13.3178 23.1207 13.3191 23.1025 13.3231 23.0841C13.3402 22.9669 13.3586 22.8493 13.3796 22.7311C13.3835 22.7085 13.3862 22.6859 13.3901 22.6635C13.4111 22.5455 13.4335 22.4272 13.4558 22.3077C13.4597 22.2893 13.4637 22.2709 13.4663 22.2525C13.4913 22.1316 13.5162 22.0107 13.5412 21.8898C13.5425 21.8846 13.5438 21.8793 13.5451 21.8754C13.5714 21.7519 13.599 21.6297 13.6279 21.5062C13.6332 21.4838 13.6384 21.4628 13.6437 21.4418C13.6713 21.3235 13.7002 21.2066 13.7291 21.0883C13.7357 21.0634 13.7422 21.0384 13.7488 21.0135C13.779 20.8952 13.8092 20.7783 13.8421 20.66C13.8473 20.6403 13.8526 20.6206 13.8579 20.5996C13.8894 20.4853 13.9222 20.3696 13.9551 20.254C13.9577 20.2435 13.9617 20.233 13.9643 20.2225C13.9985 20.1029 14.0339 19.9847 14.0694 19.8664C14.0773 19.8414 14.0838 19.8165 14.0917 19.7915C14.1259 19.6785 14.1614 19.5655 14.1968 19.4538C14.206 19.4263 14.2152 19.3973 14.2244 19.3697C14.2599 19.2581 14.2954 19.1464 14.3322 19.0347C14.3401 19.011 14.3479 18.9874 14.3558 18.9651C14.39 18.8613 14.4255 18.7588 14.4596 18.6576C14.4662 18.6379 14.4728 18.6195 14.4793 18.6011C14.5161 18.4921 14.5555 18.383 14.5936 18.2753C14.6042 18.2464 14.6147 18.2174 14.6252 18.1872C14.6607 18.0847 14.6988 17.9823 14.7355 17.8811C14.7474 17.8482 14.7592 17.8154 14.7723 17.7825C14.8091 17.6827 14.8459 17.5841 14.884 17.4856C14.8945 17.4567 14.905 17.4291 14.9156 17.4002C14.9484 17.3161 14.9799 17.232 15.0128 17.1492C15.0246 17.119 15.0364 17.0888 15.0483 17.0586C15.0837 16.9679 15.1192 16.8786 15.1547 16.7892C15.1691 16.7537 15.1823 16.7183 15.1967 16.6828C15.2322 16.5961 15.2664 16.5107 15.3019 16.4253C15.3176 16.3872 15.3334 16.3491 15.3478 16.311C15.3794 16.2361 15.4096 16.1612 15.4411 16.0889C15.4595 16.0442 15.4779 15.9996 15.4963 15.9562C15.52 15.8997 15.5449 15.8432 15.5686 15.7867C15.5909 15.7341 15.6132 15.6816 15.6356 15.6304C15.6605 15.5725 15.6842 15.516 15.7092 15.4608C15.7276 15.4175 15.746 15.3741 15.7644 15.3321C15.7933 15.2677 15.8208 15.2033 15.8484 15.1402C15.8695 15.0956 15.8892 15.0496 15.9089 15.0049C15.9247 14.9708 15.9404 14.9379 15.9549 14.9037C15.9877 14.8302 16.0206 14.7579 16.0521 14.6883C16.0626 14.6659 16.0731 14.6423 16.0836 14.6199C16.1244 14.5319 16.1638 14.4452 16.2032 14.3611C16.2058 14.3545 16.2085 14.348 16.2124 14.3427C16.6907 13.3126 17.031 12.6754 17.031 12.6754C17.031 12.6754 17.0126 12.9736 17.2596 13.5859C17.2609 13.5898 17.2622 13.5938 17.2648 13.5977C17.274 13.6214 17.2832 13.6437 17.2937 13.6687C17.2964 13.6752 17.3003 13.6831 17.3029 13.6897C17.3148 13.7173 17.3279 13.7462 17.3411 13.7751C17.3411 13.7777 17.3424 13.7803 17.3437 13.783C17.3739 13.8487 17.4067 13.9183 17.4422 13.9906C17.4448 13.9971 17.4488 14.0024 17.4514 14.009C17.4672 14.0392 17.4816 14.0694 17.4974 14.0996C17.5013 14.1075 17.5053 14.1154 17.5092 14.1233C17.5276 14.1561 17.5447 14.189 17.5631 14.2231C17.5657 14.2271 17.5684 14.231 17.5697 14.2363C17.613 14.3151 17.659 14.3966 17.7089 14.482C17.7129 14.4886 17.7168 14.4938 17.7208 14.5004C17.7418 14.5359 17.7628 14.5726 17.7852 14.6094C17.7904 14.6186 17.797 14.6265 17.8022 14.6357C17.8246 14.6725 17.8482 14.7106 17.8719 14.7487C17.8758 14.7553 17.8797 14.7618 17.885 14.7684C17.9428 14.8604 18.0046 14.9537 18.0703 15.0509C18.0755 15.0588 18.0808 15.0654 18.086 15.0732C18.1123 15.114 18.1412 15.1547 18.1701 15.1968C18.178 15.2073 18.1859 15.2191 18.1938 15.2296C18.2227 15.2703 18.2516 15.3111 18.2805 15.3518C18.2884 15.3623 18.2963 15.3715 18.3028 15.382C18.3777 15.4858 18.4579 15.5909 18.5407 15.7C18.5472 15.7092 18.5551 15.7184 18.5617 15.7263C18.5958 15.7709 18.6313 15.8169 18.6681 15.8629C18.6786 15.8774 18.6904 15.8918 18.7023 15.9063C18.7364 15.9483 18.7706 15.9917 18.8047 16.035C18.8166 16.0495 18.8284 16.0639 18.8402 16.0784C18.881 16.1283 18.9243 16.1796 18.9664 16.2308C18.9716 16.2374 18.9769 16.2439 18.9834 16.2505C19.0321 16.3096 19.0833 16.3701 19.1359 16.4305C19.1437 16.441 19.1529 16.4502 19.1608 16.4607C19.2042 16.5107 19.2475 16.5606 19.2935 16.6118C19.308 16.6289 19.3237 16.646 19.3382 16.6631C19.3789 16.7091 19.4197 16.7537 19.4604 16.801C19.4775 16.8181 19.4932 16.8365 19.5103 16.8549C19.5563 16.9062 19.6023 16.9561 19.6496 17.0086C19.6614 17.0205 19.6732 17.0336 19.6851 17.0467C19.7455 17.1111 19.8073 17.1768 19.8703 17.2438C19.8782 17.253 19.8887 17.2622 19.8966 17.2727C19.9505 17.3279 20.0043 17.3844 20.0595 17.4422C20.0792 17.4619 20.099 17.483 20.1187 17.5027C20.166 17.5513 20.2133 17.5999 20.2619 17.6485C20.2829 17.6709 20.3052 17.6932 20.3276 17.7155C20.3788 17.7668 20.4301 17.818 20.4826 17.8706C20.501 17.889 20.5194 17.906 20.5378 17.9244C20.6101 17.9954 20.6823 18.0677 20.7572 18.1399C20.7651 18.1465 20.773 18.1544 20.7809 18.1609C20.8479 18.2266 20.9149 18.291 20.9845 18.3567C21.0082 18.3791 21.0332 18.4027 21.0568 18.425C21.112 18.4763 21.1659 18.5275 21.2223 18.5801C21.2499 18.6064 21.2789 18.6326 21.3064 18.6589C21.3629 18.7102 21.4208 18.7627 21.4786 18.8153C21.5048 18.8402 21.5311 18.8639 21.5574 18.8875C21.6415 18.9637 21.7269 19.0413 21.8136 19.1188C26.7303 23.5039 32.2106 22.8063 32.5102 27.8555C32.5168 27.9752 32.522 28.091 32.526 28.2052C32.526 28.2238 32.5273 28.2429 32.5273 28.2615C32.5299 28.3684 32.5312 28.4723 32.5312 28.5742C32.5312 28.5967 32.5312 28.6185 32.5312 28.6406C32.5299 28.7406 32.5286 28.8385 32.5247 28.9339C32.5247 28.9521 32.5233 28.9697 32.522 28.9879C32.5194 29.0735 32.5141 29.1574 32.5089 29.2392C32.5076 29.2559 32.5063 29.2731 32.5049 29.2895C32.4984 29.3751 32.4905 29.4577 32.4813 29.5391C32.4787 29.5645 32.476 29.59 32.4734 29.615C32.4642 29.6912 32.4537 29.7656 32.4432 29.8381C32.4392 29.8649 32.4353 29.8913 32.4314 29.9176C32.4209 29.9818 32.409 30.0449 32.3972 30.1065C32.3919 30.1352 32.3867 30.1634 32.3801 30.1917C32.3696 30.2433 32.3591 30.2938 32.3473 30.3433C32.3407 30.3688 32.3341 30.3948 32.3289 30.4198C32.3144 30.4784 32.2987 30.5347 32.2829 30.5906C32.275 30.6174 32.2671 30.6437 32.2592 30.6698C31.7337 32.3895 30.5919 32.7252 30.1254 32.7897C30.0138 32.8049 29.9402 32.805 29.9231 32.8048H29.9218C29.9205 32.8048 29.9192 32.8047 29.9192 32.8047C32.1121 33.4359 33.7387 29.9812 33.7387 29.9812C33.7413 30.0228 33.7413 30.067 33.7413 30.1121C33.7413 30.1122 33.7413 30.1122 33.7413 30.1122C33.7413 30.1273 33.74 30.1432 33.7387 30.1587C33.7374 30.1898 33.7361 30.2212 33.7335 30.2537C33.7321 30.2714 33.7295 30.2893 33.7282 30.3074C33.7242 30.343 33.7203 30.3797 33.7151 30.4166C33.7124 30.4302 33.7111 30.443 33.7098 30.457C33.7019 30.5068 33.6927 30.5577 33.6835 30.6098C33.6796 30.6259 33.677 30.6422 33.673 30.6584C33.6651 30.6973 33.6572 30.7367 33.648 30.7765C33.6441 30.7952 33.6402 30.8136 33.6362 30.8323C33.6244 30.881 33.6126 30.9298 33.5994 30.9795C33.5968 30.988 33.5955 30.9966 33.5929 31.005C33.5771 31.0642 33.5613 31.124 33.5442 31.1841C33.5416 31.1918 33.539 31.1998 33.5364 31.2075C33.5219 31.259 33.5061 31.3109 33.4904 31.3626C33.4864 31.3777 33.4812 31.3926 33.4772 31.4076C33.4694 31.4308 33.4628 31.4538 33.4549 31.4772C33.4483 31.4971 33.4418 31.5166 33.4365 31.5363C33.4221 31.5772 33.4089 31.6182 33.3958 31.6592C33.3892 31.6756 33.384 31.6919 33.3787 31.7082C33.3695 31.7337 33.3616 31.7594 33.3524 31.7849C33.3472 31.7999 33.3419 31.8149 33.3366 31.8297C33.3196 31.8785 33.3025 31.9274 33.2841 31.9758C33.2801 31.9865 33.2762 31.9975 33.2723 32.0082C33.2631 32.0358 33.2526 32.063 33.242 32.0903C33.2381 32.1021 33.2342 32.1141 33.2289 32.1259C33.1961 32.2139 33.1632 32.3006 33.1291 32.3851C33.1264 32.3955 33.1212 32.4059 33.1172 32.416C33.1067 32.4433 33.0962 32.4707 33.0857 32.4977C33.0857 32.4979 33.0857 32.4981 33.0844 32.4984C33.062 32.5561 33.0397 32.6126 33.0161 32.6676C33.0134 32.6747 33.0108 32.6818 33.0082 32.6888C32.9977 32.7149 32.9858 32.7411 32.9753 32.7667C32.9727 32.7723 32.9714 32.778 32.9688 32.7834C32.9464 32.8367 32.9241 32.8885 32.9031 32.9386C32.9031 32.9391 32.9031 32.9397 32.9031 32.9405C32.8925 32.964 32.882 32.9873 32.8728 33.0098C32.8689 33.0175 32.8663 33.025 32.8636 33.0325C32.8347 33.1003 32.8058 33.1638 32.7796 33.2226C32.7769 33.2309 32.773 33.2392 32.769 33.2474C32.7612 33.2645 32.7546 33.2814 32.7467 33.2976C32.7441 33.3047 32.7401 33.3118 32.7375 33.3189C32.7244 33.3476 32.7125 33.3746 32.7007 33.4C32.6981 33.4078 32.6941 33.4154 32.6902 33.4227C32.6849 33.4355 32.6797 33.4477 32.6731 33.4595C32.6705 33.4674 32.6665 33.4748 32.6639 33.4824C32.6547 33.5021 32.6455 33.5206 32.6376 33.5374C32.635 33.5431 32.6324 33.549 32.6298 33.5542C32.6258 33.5632 32.6219 33.5715 32.6179 33.5795C32.6153 33.5858 32.6127 33.592 32.6101 33.5976C32.6074 33.6027 32.6048 33.6083 32.6035 33.6131C32.5982 33.6227 32.5943 33.6316 32.5903 33.6389C32.589 33.6428 32.5877 33.6461 32.5851 33.6492C32.5838 33.6528 32.5825 33.6566 32.5811 33.659C32.5798 33.6604 32.5798 33.6623 32.5785 33.6636C32.5785 33.6658 32.5772 33.6684 32.5772 33.6684C32.543 34.0007 32.6429 34.4656 32.6429 34.4656C32.4445 33.4028 37.6581 29.0755 40.0179 23.5703C40.0297 23.5426 40.0416 23.5125 40.0534 23.4803C40.06 23.4644 40.0665 23.4466 40.0718 23.4297C40.0784 23.4121 40.0849 23.3953 40.0915 23.3763Z" fill="#FCCC33"/>
<path d="M38.6147 13.6765C38.4899 13.1693 38.3558 12.6661 38.1167 12.201C37.8053 11.594 37.3008 11.1078 36.967 10.5126C36.9486 10.4811 36.9 10.4929 36.8869 10.5218C36.2588 11.8856 34.6085 12.4349 34.3642 14.0116C34.2223 14.1272 34.0843 14.2454 33.9424 14.3611C33.9043 14.3926 33.9358 14.4596 33.9858 14.4399L33.9871 14.4386L34.0015 14.4701L33.8701 14.4478C33.8701 14.4452 33.8688 14.4412 33.8662 14.4399C33.1501 14.0208 32.459 13.7514 31.6312 13.6476C30.8363 13.5464 30.0374 13.6187 29.2438 13.6897C29.1978 13.6949 29.1676 13.7462 29.1847 13.7882C29.5907 14.8275 29.6275 15.9627 30.1373 16.9758C30.6852 18.0624 31.9636 18.4066 32.6495 19.3802C32.6521 19.3842 32.6547 19.3842 32.6574 19.3842L32.6718 19.5142C32.6705 19.5142 32.6705 19.5156 32.6692 19.5169C32.6626 19.5221 32.6692 19.5326 32.6758 19.5274C33.9976 18.6418 34.3445 17.2504 34.5836 15.7669C34.5915 15.7157 34.5612 15.6815 34.5231 15.6684L34.5284 15.654C34.6953 15.6842 34.8503 15.6789 34.983 15.6369C34.9896 15.6356 34.9948 15.6342 35.0001 15.6316C35.0947 15.6001 35.1762 15.5502 35.2419 15.4792C35.2419 15.4792 35.2432 15.4805 35.2432 15.4818C36.2102 16.3451 37.532 16.416 38.75 16.6289C38.7526 16.6289 38.7539 16.6263 38.7539 16.6236L38.9996 16.6315C38.9996 16.6328 38.9996 16.6328 38.9996 16.6341C39.001 16.6499 39.0233 16.646 39.0233 16.6315C39.0286 15.6408 38.8499 14.6357 38.6147 13.6765Z" fill="#ED1C4D"/>
</svg>
