<svg width="50" height="39" viewBox="0 0 50 39" fill="none" xmlns="http://www.w3.org/2000/svg">
<path d="M50 25C50 38.8067 38.8067 50 25 50C11.1933 50 0 38.8067 0 25C0 11.1933 11.1933 0 25 0C38.8067 0 50 11.1933 50 25Z" fill="#4CC2AC"/>
<path d="M35.3524 47.7624C35.1474 47.5075 34.9464 47.2197 34.7335 46.8847C34.7086 46.8466 34.6849 46.8085 34.66 46.7691C34.6455 46.7454 34.6311 46.7218 34.6153 46.6968C34.589 46.6534 34.5614 46.6088 34.5338 46.5641C34.5207 46.5431 34.5089 46.5221 34.4957 46.501C34.4629 46.4458 34.43 46.3907 34.3972 46.3342C34.3893 46.321 34.3814 46.3066 34.3722 46.2934C34.3302 46.2199 34.2868 46.1463 34.2421 46.0687C33.4223 44.6444 33.2186 41.4832 33.1779 39.4413C33.1765 39.4045 33.1765 39.3691 33.1752 39.3323C33.1752 39.3073 33.1739 39.2836 33.1739 39.2587C33.1739 39.2074 33.1726 39.1562 33.1726 39.1063C33.1713 39.0879 33.1713 39.0695 33.1713 39.0511C33.1713 39.0104 33.17 38.9683 33.17 38.9276C33.17 38.9079 33.17 38.8882 33.17 38.8684C33.1687 38.8251 33.1687 38.7831 33.1687 38.741C33.1687 38.7318 33.1687 38.7213 33.1687 38.7121C33.1687 38.6609 33.1687 38.6122 33.1687 38.5636C33.1687 38.5492 33.1687 38.536 33.1687 38.5216C33.1687 38.4835 33.1687 38.4467 33.1687 38.4099C33.1687 38.3994 33.1687 38.3889 33.1687 38.3784C33.1687 38.3337 33.1687 38.2916 33.1687 38.2496C33.1687 38.2391 33.1687 38.2299 33.1687 38.2194C33.1687 38.1865 33.17 38.155 33.17 38.1248C33.17 38.1143 33.17 38.1037 33.17 38.0932C33.17 38.0564 33.1713 38.021 33.1713 37.9868C33.1713 37.9855 33.1713 37.9829 33.1713 37.9815C33.1713 37.9474 33.1726 37.9159 33.1726 37.887C33.1726 37.8804 33.1726 37.8751 33.1726 37.8686C33.1739 37.8423 33.1739 37.8173 33.1739 37.7937C33.1739 37.791 33.1739 37.7858 33.1739 37.7832C33.1752 37.7569 33.1752 37.7332 33.1765 37.7109C33.1765 37.7083 33.1765 37.7056 33.1765 37.7017C33.1765 37.6859 33.1765 37.6702 33.1765 37.657C33.1779 37.6505 33.1779 37.6452 33.1779 37.6413C33.1779 37.611 33.1792 37.59 33.1792 37.5782C33.1792 37.5756 33.1792 37.5729 33.1792 37.5716C33.1792 37.569 33.1792 37.565 33.1792 37.565L25.3403 41.6842C25.3561 41.8366 25.3692 41.9864 25.381 42.1349C25.385 42.1822 25.3876 42.2295 25.3916 42.2768C25.3981 42.3753 25.406 42.4739 25.4113 42.5711C25.4139 42.625 25.4165 42.6788 25.4192 42.7327C25.4231 42.8207 25.427 42.9074 25.4297 42.9929C25.4323 43.048 25.4336 43.1032 25.4349 43.1571C25.4362 43.2399 25.4389 43.3213 25.4389 43.4015C25.4389 43.4553 25.4402 43.5092 25.4402 43.5618C25.4402 43.6419 25.4389 43.7208 25.4375 43.7996C25.4362 43.8495 25.4362 43.8995 25.4336 43.9494C25.4323 44.0322 25.4283 44.1123 25.4244 44.1925C25.4231 44.2358 25.4205 44.2792 25.4192 44.3212C25.4126 44.4263 25.406 44.5301 25.3968 44.6326C25.3955 44.6471 25.3955 44.6642 25.3942 44.6786C25.3837 44.7942 25.3718 44.9086 25.36 45.0202C25.3548 45.0583 25.3495 45.0951 25.3456 45.1319C25.3364 45.2055 25.3272 45.2791 25.3167 45.35C25.3101 45.3934 25.3022 45.4368 25.2956 45.4788C25.2864 45.5432 25.2759 45.6062 25.2641 45.668C25.2562 45.7127 25.2483 45.756 25.2391 45.7994C25.2273 45.8585 25.2155 45.9176 25.2037 45.9755C25.1945 46.0175 25.1853 46.0595 25.1761 46.1016C25.1616 46.1594 25.1485 46.2159 25.134 46.2724C25.1235 46.3118 25.1143 46.3512 25.1038 46.3907C25.088 46.4485 25.071 46.5063 25.0539 46.5641C25.0447 46.5969 25.0355 46.6324 25.025 46.6653C25.0026 46.7375 24.979 46.8072 24.9553 46.8768C24.9501 46.8939 24.9448 46.9123 24.9382 46.9294C24.4337 48.3734 23.5994 49.2852 22.6691 49.8909C23.4364 49.9619 24.213 50 25 50C28.6921 50 32.1977 49.1985 35.3524 47.7624Z" fill="#F68D76"/>
<path d="M39.2613 25.1458C39.1313 25.0512 38.632 24.9133 38.494 24.8765C38.8264 22.2854 39.6542 17.4633 36.0711 13.6411C32.0387 9.34066 26.5294 9.34066 23.5061 10.0804C20.4827 10.8188 16.9207 13.8435 16.1823 17.1349C15.4425 20.4275 15.9064 21.4222 15.5739 22.4851C15.2415 23.5481 14.6437 25.0092 15.4412 26.603C15.4412 26.603 15.8393 28.1981 15.8393 29.9916C15.8393 31.7851 16.9023 34.3104 18.8955 36.8345C20.8888 39.3585 22.0949 41.9969 24.4101 42.2163C27.9314 42.5487 32.9348 39.3756 34.6416 35.7111C35.1356 34.6481 35.4772 33.509 35.7702 32.375C36.3287 32.4775 36.7793 32.107 37.1683 31.5236C37.6662 30.776 38.314 30.278 38.812 29.5803C39.5596 28.5331 40.3571 25.9434 39.2613 25.1458Z" fill="#F79785"/>
<path d="M17.1244 16.9719C17.462 16.0141 17.9915 15.1403 18.8259 14.4426C20.3579 13.1615 22.5679 12.569 24.5428 12.6977C25.586 12.7647 26.8408 13.0262 27.7724 13.5203C29.4765 14.4269 30.437 15.3978 30.7379 17.353C30.8654 18.1768 30.8614 19.0177 31.0151 19.8376C31.0427 19.9874 31.705 21.9031 31.9861 21.6574C31.9861 21.6574 30.8404 22.6546 30.6906 22.6546C30.5408 22.6546 15.8433 23.2025 15.8433 23.2025L15.4951 23.0028C15.4951 23.0028 16.491 21.6088 16.541 20.5116C16.5948 19.3147 16.7302 18.0861 17.1244 16.9719Z" fill="#F79785"/>
<path d="M21.1213 33.3473C21.1213 33.3473 21.1542 33.7126 21.6863 33.7783C22.2171 33.8453 22.5824 33.6128 22.7821 33.1476C22.9818 32.6825 23.38 30.2241 23.2472 27.5332L21.254 27.5674C21.254 27.5674 21.6193 30.3568 21.5536 31.2543C21.4866 32.1503 21.1213 33.3473 21.1213 33.3473Z" fill="#F79785"/>
<path d="M21.2435 32.8257C21.2435 32.8257 21.5089 32.6273 21.7743 32.6273C22.0397 32.6273 23.0147 33.0031 23.0147 33.0031L23.1474 32.7377C23.1474 32.7377 22.1291 32.3396 21.7743 32.3396C21.7743 32.3396 21.5746 32.3396 21.3985 32.4723L21.2435 32.8257Z" fill="#F79785"/>
<path d="M27.4518 29.6552C27.4518 30.3017 26.9275 30.8259 26.2811 30.8259C25.6346 30.8259 25.1104 30.3017 25.1104 29.6552C25.1104 29.0088 25.6346 28.4832 26.2811 28.4832C26.9275 28.4832 27.4518 29.0088 27.4518 29.6552Z" fill="#F79785"/>
<path d="M21.371 29.5816C21.4209 30.1847 21.0675 30.7063 20.58 30.7471C20.0938 30.7878 19.6576 30.3319 19.6077 29.7275C19.5578 29.1244 19.9125 28.6028 20.3987 28.562C20.8848 28.5213 21.321 28.9785 21.371 29.5816Z" fill="#F79785"/>
<path d="M35.1041 33.7665C33.894 35.874 31.6708 36.8713 30.1375 35.991C28.6041 35.1119 28.3426 32.6904 29.5515 30.5815C30.7616 28.4727 32.9847 27.4767 34.5181 28.3558C36.0514 29.2348 36.3129 31.6576 35.1041 33.7665Z" fill="#F79785"/>
<path d="M19.6274 31.6958C18.935 29.629 17.2045 28.1876 15.7526 28.4622C15.8039 28.9286 15.8394 29.4516 15.8394 29.9916C15.8394 31.5841 16.6777 33.752 18.2609 35.9857C19.7089 35.6848 20.3212 33.7678 19.6274 31.6958Z" fill="#F79785"/>
<path d="M15.9931 26.7396C15.9931 26.7396 15.4951 23.2025 16.7407 22.6546C17.9863 22.1067 19.5302 22.7545 19.5302 22.7545L20.3776 23.8004L20.4762 24.1485C20.4762 24.1485 20.9755 26.3415 20.8257 29.8786L19.3804 28.7328C19.3804 28.7328 18.1847 27.5372 17.9364 27.4872C17.6867 27.4373 16.6908 27.4373 16.6908 27.4373L15.9931 26.7396Z" fill="#F79785"/>
<path d="M25.858 29.6302C25.858 29.6302 24.8621 24.4481 26.0577 22.853C27.2534 21.2593 29.1954 21.409 29.1954 21.409L31.2885 21.6074C31.2885 21.6074 33.2318 22.1567 33.6312 22.6047C33.6312 22.6047 33.6312 25.494 32.3357 28.135L25.858 29.6302Z" fill="#F79785"/>
<path d="M20.9991 33.6903C20.9742 33.8046 21.3657 34.0411 21.4406 34.074C21.9635 34.3 22.5627 34.0188 23.0594 33.8453C23.5021 33.6903 24.2103 34.0884 24.2774 34.3328C24.2774 34.3328 24.2997 34.6206 24.1223 34.6639C23.9449 34.7086 21.3105 34.6863 21.3105 34.6863L21.0215 34.5089L20.9111 34.0884C20.9111 34.0884 20.9991 33.6916 20.9991 33.6903Z" fill="#F79785"/>
<path d="M20.9558 34.0109C20.9558 34.0109 21.1213 34.476 21.819 34.4432C22.5167 34.4103 22.9477 34.0779 23.1816 34.0109C23.4128 33.9452 24.2445 34.1777 24.2104 34.4432L24.1447 34.7086C24.1447 34.7086 23.7452 36.4692 22.9477 36.5021C22.1514 36.5362 22.2842 35.3734 21.7192 35.1067C21.7192 35.1067 20.9558 34.6416 20.9558 34.0109Z" fill="#F79785"/>
<path d="M20.4906 37.0014L20.2909 37.4652C20.2909 37.4652 19.8586 37.0014 20.4906 37.0014Z" fill="#F79785"/>
<path d="M29.7578 36.8017L30.123 37.3666C30.123 37.3666 30.5553 36.8673 29.7578 36.8017Z" fill="#F79785"/>
<path d="M28.549 24.1C28.549 24.1 29.9929 23.4522 31.9362 24.4482C31.9362 24.4482 30.0928 22.7545 28.549 24.1Z" fill="#C85D4E"/>
<path d="M19.4461 24.5861C19.4461 24.5861 18.3384 24.0579 16.9706 25.0815C16.9706 25.0815 18.2215 23.4154 19.4461 24.5861Z" fill="#C85D4E"/>
<path d="M38.7765 25.5072L38.5006 25.7713C38.2036 25.95 37.5638 26.8855 37.5638 26.8855L37.1932 27.4623L37.1827 27.4505C36.983 27.6331 36.5849 28.5634 36.5849 28.5634L36.6046 28.6278L36.5849 28.6461C36.6046 28.6724 36.6217 28.6987 36.6361 28.725L36.7123 28.9602C36.7504 29.2992 36.5179 29.6093 36.5179 29.6093C36.5179 29.6093 37.0829 29.4109 37.1985 29.0114C37.2918 28.6934 37.0881 28.4385 37.0027 28.3492C37.0618 28.2099 37.1197 28.0812 37.1656 27.9984C37.3154 27.733 37.5638 27.8157 37.5638 27.8157L37.4232 27.6817L37.481 27.7001C37.3982 27.5332 37.7963 27.1351 37.7963 27.1351L37.7871 27.1246C37.9395 27.2429 38.113 27.3506 38.113 27.3506C38.113 27.3506 37.9461 26.9026 38.113 26.6372C38.2339 26.4414 38.561 26.2469 38.7279 26.1563C38.8948 26.3336 39.0984 26.5807 39.2587 26.8697C39.2587 26.8697 39.0091 25.7568 38.7765 25.5072ZM37.5808 28.9129L37.6807 28.3479C37.6807 28.3479 37.4481 28.4806 37.5808 28.9129ZM37.9632 29.2781C38.3114 28.6133 38.1458 28.1652 38.1458 28.1652C38.0131 28.5962 37.9632 29.2781 37.9632 29.2781ZM38.9263 27.2678C39.0919 27.7159 38.7594 28.9956 38.7594 28.9956C39.2916 28.0825 39.2088 27.3677 39.2088 27.3677L38.9263 27.2678Z" fill="#F79785"/>
<path d="M21.5746 34.7533C21.5746 34.7533 22.2171 35.1514 22.5049 35.129C22.7939 35.1067 22.97 34.8636 23.037 34.6862C23.037 34.6862 22.1514 34.9083 21.5746 34.7533Z" fill="#F79785"/>
<path d="M39.7843 26.0209C39.7291 25.7056 39.5938 25.4007 39.3625 25.1761C39.0117 24.8344 38.5006 24.7806 38.0552 24.9382C37.8278 25.0184 37.6347 25.159 37.4639 25.3245C37.3811 25.406 37.3496 25.5085 37.2931 25.6057C37.2287 25.7187 37.1735 25.8356 37.1157 25.9526C36.8595 26.4611 36.6295 26.9893 36.2695 27.436C36.2695 27.4386 36.2708 27.4399 36.2722 27.4386C36.5389 27.1167 36.7347 26.7475 36.9252 26.3783C37.0198 26.197 37.1131 26.0143 37.2169 25.8383C37.3193 25.6701 37.4363 25.4625 37.6018 25.3482C37.9776 25.092 38.3547 24.9159 38.8212 25.0039C39.1694 25.0683 39.4558 25.3074 39.6056 25.6228C39.8894 26.2193 39.7777 26.9748 39.6319 27.5924C39.4768 28.2454 39.218 28.8603 38.879 29.4384C38.4506 30.165 37.7543 30.6945 37.2537 31.3673C37.0119 31.6944 36.7951 32.0334 36.4311 32.2371C36.0514 32.4499 35.6454 32.354 35.288 32.149C35.2591 32.132 35.2342 32.1753 35.2617 32.1924C35.5548 32.3803 35.8859 32.4736 36.2275 32.3816C36.5612 32.291 36.8253 32.015 37.0303 31.7522C37.1577 31.588 37.2642 31.4106 37.389 31.2451C37.548 31.0335 37.7253 30.8377 37.9027 30.6433C38.2062 30.3148 38.5268 29.9942 38.7962 29.6368C39.1733 29.1349 39.4203 28.5331 39.599 27.9353C39.7816 27.3256 39.8933 26.6542 39.7843 26.0209ZM36.2196 30.3266C36.2196 30.3293 36.2222 30.3293 36.2235 30.3266C36.2616 29.9666 36.4837 29.7038 36.6571 29.4016C36.8122 29.1323 36.8161 28.8787 36.6782 28.6001C36.6387 28.5226 36.5231 28.5909 36.5625 28.6672C36.732 28.993 36.7097 29.2545 36.5179 29.5606C36.3641 29.805 36.2393 30.0336 36.2196 30.3266ZM38.8093 25.5913C38.8671 25.544 38.7896 25.4415 38.7292 25.4875C38.5177 25.6451 38.335 25.858 38.1576 26.0538C37.95 26.2837 37.7635 26.5307 37.5861 26.783C37.2129 27.3138 36.8621 27.8788 36.6033 28.474C36.5941 28.4963 36.6243 28.516 36.6361 28.4937C36.7977 28.1863 36.9593 27.8827 37.1341 27.5858C37.1341 27.6029 37.1446 27.6213 37.1683 27.6226C37.5966 27.6515 37.7503 28.1153 37.6636 28.4832C37.6623 28.4871 37.6675 28.4898 37.6702 28.4845C37.7976 28.1219 37.6202 27.5661 37.1683 27.5516C37.1617 27.5516 37.1564 27.5529 37.1512 27.5543C37.2773 27.3401 37.41 27.1285 37.5532 26.9209C37.611 27.0852 37.6964 27.1693 37.8528 27.2613C37.9356 27.3099 38.0289 27.3559 38.1011 27.4202C38.1931 27.503 38.1865 27.6646 38.18 27.7776C38.1524 28.2861 37.929 28.7657 37.9645 29.2808C37.9645 29.2821 37.9658 29.2821 37.9658 29.2808C37.9343 28.7539 38.176 28.2572 38.2115 27.7356C38.2233 27.5556 38.2299 27.3835 38.0762 27.2639C37.9211 27.143 37.6741 27.0681 37.5874 26.8776C37.5861 26.8763 37.5861 26.8763 37.5848 26.875C37.7648 26.6201 37.9645 26.377 38.176 26.1471C38.3705 25.9342 38.586 25.7686 38.8093 25.5913Z" fill="#F79785"/>
<path d="M21.4721 30.9258C21.5891 31.4763 21.5116 31.9979 21.3355 32.5248C21.1962 32.9466 20.9545 33.3382 20.8612 33.7744C20.781 34.1396 20.8638 34.4839 21.1187 34.7611C21.3027 34.9608 21.5418 35.0883 21.7928 35.1829C21.9557 35.2446 22.1252 35.2657 22.2947 35.2998C22.451 35.3301 22.6179 35.3616 22.7769 35.3379C22.8058 35.334 22.8045 35.2867 22.7769 35.2814C22.6245 35.2538 22.4694 35.2512 22.3157 35.2197C22.1396 35.1842 21.9662 35.0896 21.8059 35.0108C21.5746 34.8951 21.35 34.7546 21.1831 34.5548C20.94 34.2631 20.9939 33.8795 21.0727 33.5379C21.17 33.1214 21.3381 32.7259 21.4406 32.3107C21.5562 31.8521 21.5917 31.387 21.4748 30.9245C21.4735 30.9245 21.4721 30.9245 21.4721 30.9258Z" fill="#C85D4E"/>
<path d="M23.3313 34.907C23.2499 34.7033 23.4036 34.6586 23.5731 34.6481C23.7426 34.6363 23.8976 34.6232 24.0606 34.6744C24.0776 34.6797 24.0842 34.6547 24.0685 34.6494C23.8622 34.5824 23.6427 34.4997 23.4259 34.5627C23.2459 34.6153 23.2275 34.7716 23.3038 34.9188C23.3116 34.9333 23.3379 34.9227 23.3313 34.907Z" fill="#C85D4E"/>
<path d="M24.0172 34.8675C24.2813 34.6875 24.3588 34.3144 24.3286 34.0148C24.3273 33.9938 24.2997 33.9951 24.2984 34.0148C24.2603 34.3446 24.2498 34.6021 24.0093 34.857C24.0041 34.8623 24.0119 34.8715 24.0172 34.8675Z" fill="#C85D4E"/>
<path d="M23.33 34.7664C23.33 34.7664 23.305 34.6008 23.7951 34.6508C23.7951 34.6508 23.5455 34.8413 23.33 34.7664Z" fill="#69242A"/>
<path d="M20.8664 37.255C20.8664 37.255 21.5391 36.6781 22.0253 36.5888C22.3354 36.5323 22.5824 36.8043 22.8767 36.8371C23.2249 36.8739 23.5218 36.6703 23.8648 36.6545C24.3746 36.6335 24.64 36.7044 25.6583 36.9041C26.6779 37.1039 29.127 37.1223 29.3478 37.0999C29.3478 37.0999 27.9314 37.8975 27.5319 37.8975C27.1338 37.8975 24.4324 38.1629 24.322 38.1852C24.2103 38.2075 22.9266 38.1195 22.6822 38.1195L20.8664 37.255Z" fill="#F79785"/>
<path d="M20.9978 37.4323C20.9978 37.4323 21.2514 37.8974 21.5326 38.2627C21.8138 38.628 21.7954 39.2324 22.0398 39.4925C22.3209 39.7908 23.9541 40.1232 24.9107 39.6581C25.8672 39.193 28.7486 37.0119 28.7486 37.0119C28.7486 37.0119 28.4136 37.1157 28.0536 37.1997C27.7987 37.2602 27.5346 37.3666 27.2192 37.3666C26.4585 37.3666 23.2775 37.4323 23.1934 37.4652C23.1093 37.4993 21.6732 37.4323 21.5891 37.4323C21.505 37.4323 20.9978 37.4323 20.9978 37.4323Z" fill="#F14585"/>
<path d="M21.8335 38.4296C21.8335 38.4296 21.7954 39.2035 22.4707 39.4032C23.1461 39.6029 23.991 39.4926 23.991 39.4926L24.8174 39.3809L25.117 39.2929C25.117 39.2929 26.0551 38.8054 26.243 38.3849C26.4309 37.9645 25.3614 38.0078 25.3614 38.0078C25.3614 38.0078 24.7084 37.9592 24.6663 38.0078C24.6098 38.0748 22.1147 38.0748 22.1147 38.0748L21.8335 38.4296Z" fill="#F14585"/>
<path d="M21.8335 38.4296C21.8335 38.4296 21.7954 39.2035 22.4707 39.4032C23.1461 39.6029 23.991 39.4926 23.991 39.4926L24.8174 39.3809L25.117 39.2929C25.117 39.2929 26.0551 38.8054 26.243 38.3849C26.4309 37.9645 25.3614 38.0078 25.3614 38.0078C25.3614 38.0078 24.7084 37.9592 24.6663 38.0078C24.6098 38.0748 22.1147 38.0748 22.1147 38.0748L21.8335 38.4296Z" fill="#F14585"/>
<path d="M21.8335 38.4296C21.8335 38.4296 21.7954 39.2035 22.4707 39.4032C23.1461 39.6029 23.991 39.4926 23.991 39.4926L24.8174 39.3809L25.117 39.2929C25.117 39.2929 26.0551 38.8054 26.243 38.3849C26.4309 37.9645 25.3614 38.0078 25.3614 38.0078C25.3614 38.0078 24.7084 37.9592 24.6663 38.0078C24.6098 38.0748 22.1147 38.0748 22.1147 38.0748L21.8335 38.4296Z" fill="black"/>
<path d="M21.8335 38.4296C21.8335 38.4296 21.7954 39.2035 22.4707 39.4032C23.1461 39.6029 23.991 39.4926 23.991 39.4926L24.8174 39.3809L25.117 39.2929C25.117 39.2929 26.0551 38.8054 26.243 38.3849C26.4309 37.9645 25.3614 38.0078 25.3614 38.0078C25.3614 38.0078 24.7084 37.9592 24.6663 38.0078C24.6098 38.0748 22.1147 38.0748 22.1147 38.0748L21.8335 38.4296Z" fill="#F14585"/>
<path d="M28.0536 37.1998C27.7987 37.2602 27.5346 37.3667 27.2192 37.3667C26.4585 37.3667 23.2775 37.4324 23.1934 37.4652C23.1093 37.4994 21.6732 37.4324 21.5891 37.4324C21.505 37.4324 20.9978 37.4324 20.9978 37.4324C20.9978 37.4324 21.2514 37.8975 21.5326 38.2628C21.6114 38.3653 21.6666 38.4861 21.7113 38.6136L21.7297 38.628C21.7297 38.628 21.7573 38.3626 22.7716 38.3626C23.7846 38.3626 26.3179 38.2956 26.3744 38.6951C26.3757 38.7069 26.3783 38.72 26.381 38.7305C27.5044 37.954 28.7486 37.0119 28.7486 37.0119C28.7486 37.0119 28.4136 37.1157 28.0536 37.1998ZM22.0398 39.126C22.0398 39.126 22.3485 39.6253 23.0528 39.6582C23.757 39.691 24.8266 39.4926 25.1643 39.2929C25.1643 39.2929 22.7992 39.5583 22.0398 39.126Z" fill="#F14585"/>
<path d="M21.1804 37.565L21.5615 38.0643C21.5615 38.0643 21.8137 38.0472 22.1094 38.0801C22.405 38.1129 22.3065 38.3127 22.9818 38.3127C23.6585 38.3127 23.7005 38.2128 24.0527 38.1629C24.4035 38.1129 26.7961 37.8475 26.9236 37.9303C27.0497 38.0144 27.0497 38.0144 27.0497 38.0144C27.0497 38.0144 27.9655 37.5151 28.2178 37.2497C28.2178 37.2497 27.1351 37.5821 26.938 37.6649C26.741 37.7477 24.2064 38.0302 23.757 37.9973L23.334 38.0801C23.334 38.0801 22.5325 38.3297 22.2933 37.8147C22.2933 37.8147 22.0397 37.9303 21.1804 37.565Z" fill="#F14585"/>
<path d="M28.7552 37.004C28.7552 37.0027 28.7552 37.0013 28.7552 37.0027C28.7526 37.0027 28.7513 37.004 28.75 37.004L28.1193 37.0999C27.528 37.1998 26.6845 37.2668 25.8396 37.1997C24.9948 37.1341 24.0093 36.8345 23.5311 36.9343C23.0528 37.0342 22.7716 37.2996 22.7716 37.2996C22.7716 37.2996 22.2645 36.8345 22.0398 36.8345C21.8138 36.8345 21.4485 37.0342 21.1949 37.1997C20.961 37.3535 20.6221 37.1419 20.5708 37.1078C20.5695 37.1065 20.5669 37.1052 20.5656 37.1025C20.5642 37.1025 20.5642 37.1025 20.5642 37.1038C20.5642 37.1038 20.5629 37.1038 20.5642 37.1038C20.6299 37.1722 20.6996 37.2313 20.7692 37.2865C20.7758 37.2904 20.781 37.2957 20.7863 37.2996C20.8165 37.3233 20.8467 37.3456 20.877 37.3679C21.1608 37.5716 21.4669 37.7004 21.7468 37.7739C21.8821 37.8173 22.0188 37.8567 22.158 37.8935C22.1672 37.8961 22.2592 37.8988 22.2658 37.9119C22.2894 37.9605 22.3249 38.0078 22.363 38.0407C22.4563 38.1234 22.5614 38.1642 22.6757 38.1878C22.7979 38.2141 22.9214 38.218 23.0423 38.1957C23.1527 38.1747 23.3011 38.1813 23.3997 38.1142C23.4063 38.1103 23.4076 38.1037 23.4049 38.0972L23.7702 38.0012C23.7702 38.0026 23.7715 38.0052 23.7728 38.0052C24.5927 38.0315 25.4205 37.9474 26.2312 37.8147C26.6674 37.7437 27.101 37.6465 27.5293 37.519C27.733 37.4573 27.9354 37.389 28.1351 37.3088C28.3479 37.2221 28.5476 37.1065 28.7552 37.0053C28.7565 37.0053 28.7552 37.004 28.7552 37.004Z" fill="#ED1459"/>
<path d="M25.4218 23.8319C25.4297 23.8267 26.3205 23.3996 27.1916 22.7886C27.6449 22.472 28.1022 22.1448 29.0732 21.9175C30.0271 21.7231 31.4947 21.6298 33.5904 22.5548C33.7284 22.5508 33.8664 22.5495 34.0069 22.5508C34.0017 22.56 32.7942 21.8242 31.0703 21.3289C29.3399 20.8335 27.7632 21.0832 26.5623 21.7296C25.3285 22.3958 24.8804 23.4561 25.4218 23.8319Z" fill="#050301"/>
<path d="M26.1116 23.4193C25.8291 23.5836 25.6018 23.7045 25.4954 23.7596C25.3771 23.648 25.3232 23.4942 25.3456 23.2984C25.3929 22.8583 25.8659 22.2434 26.6398 21.8295C26.9302 21.6731 27.2403 21.5431 27.5595 21.4432C28.5975 21.1187 29.8103 21.095 31.0506 21.4787C32.2516 21.8453 33.2002 22.3432 33.6522 22.6021C33.6286 22.6021 33.6049 22.6021 33.5813 22.6021C32.0006 21.8137 30.5776 21.6836 29.5133 21.8071C28.3453 21.9596 27.7632 22.3393 27.2902 22.6599C27.2429 22.6927 27.1956 22.7269 27.1496 22.7597C26.8356 22.9857 26.4887 23.2025 26.1116 23.4193Z" fill="#050301"/>
<path d="M20.5209 24.2235C20.509 24.2156 19.9808 24.0356 19.4395 23.51C19.1636 23.2499 18.8903 22.9647 18.3503 22.8005C17.8273 22.6547 17.0048 22.6218 15.9077 23.3734C15.821 23.3458 15.7316 23.3208 15.6409 23.2985C15.6475 23.305 16.2716 22.7112 17.2111 22.2171C18.0638 21.773 18.952 21.907 19.6497 22.3433C20.4039 22.8123 20.7758 23.6808 20.5209 24.2235Z" fill="#050301"/>
<path d="M20.0794 23.937C20.2515 24.0422 20.3921 24.1065 20.4578 24.1341C20.5104 23.9817 20.5235 23.8096 20.4867 23.6151C20.4131 23.1986 20.0781 22.7177 19.6129 22.4287C19.4421 22.3209 19.2634 22.2342 19.0861 22.1711C18.5066 21.9661 17.8457 21.9898 17.2347 22.3367C16.5949 22.698 16.1127 23.1171 15.8696 23.3379C15.8854 23.3418 15.9011 23.3458 15.9156 23.3497C16.7407 22.723 17.5238 22.5929 18.1019 22.6822C18.7326 22.7887 19.0834 23.0988 19.3646 23.3655C19.3948 23.3931 19.4224 23.4207 19.4513 23.4496C19.6445 23.6388 19.8521 23.7991 20.0794 23.937Z" fill="#050301"/>
<path d="M29.0968 29.6303L30.0429 30.1282C30.0429 30.1282 31.3883 29.4305 32.2857 29.0324L32.3843 27.8367L29.1468 29.4305L29.0968 29.6303Z" fill="#050301"/>
<path d="M32.2161 26.2338C32.2161 26.2338 33.4498 25.5006 33.823 24.4915C33.823 24.4915 33.7284 25.7949 32.2345 26.8132L32.2161 26.2338Z" fill="#050301"/>
<path d="M32.5813 26.5373C32.5813 26.5373 33.0465 26.172 33.2462 25.6399C33.2462 25.6399 31.9165 24.5112 29.5593 24.7438C27.2113 24.975 26.4033 27.6659 25.971 29.3609L28.2638 28.5633L32.5813 26.5373Z" fill="#050301"/>
<path d="M26.2101 29.1021C26.4322 28.2717 26.7252 27.3598 27.189 26.5885C27.8105 25.5558 28.591 25.0052 29.5751 24.9093C29.7814 24.8883 29.9903 24.8778 30.1926 24.8778C31.7431 24.8778 32.7417 25.4835 33.0425 25.6951C32.8665 26.0682 32.5603 26.3389 32.492 26.3954L28.2007 28.4096L26.2101 29.1021Z" fill="#050301"/>
<path d="M29.3452 25.544C27.4518 25.7936 26.356 28.0352 25.858 29.6802C25.858 29.6802 26.4046 29.5435 26.8881 29.5317C27.6791 29.738 28.5726 29.8037 29.1559 29.8234C29.1691 29.8247 29.1835 29.8274 29.1954 29.8287C29.8944 29.9285 29.7945 29.8287 29.7945 29.8287C30.5408 29.6303 31.2884 29.3806 31.8363 28.8327C31.8363 28.8327 32.534 28.0352 32.534 26.7896V26.4414C31.6879 25.7936 30.5408 25.3942 29.3452 25.544Z" fill="white"/>
<path d="M31.9809 27.3624C31.9809 26.8001 31.8127 26.2811 31.5276 25.858C30.8654 25.5795 30.1151 25.4481 29.3452 25.544C28.4898 25.657 27.7974 26.176 27.2482 26.8645C27.2192 27.0261 27.2035 27.1916 27.2035 27.3624C27.2035 28.5108 27.9064 29.4831 28.8748 29.8116C28.9746 29.8168 29.0692 29.8208 29.156 29.8234C29.1691 29.8247 29.1836 29.8274 29.1954 29.8287C29.8944 29.9285 29.7945 29.8287 29.7945 29.8287C30.236 29.7117 30.6762 29.5764 31.0756 29.3727C31.6275 28.9024 31.9809 28.1771 31.9809 27.3624Z" fill="#55A95A"/>
<path d="M29.5922 29.5922C30.7379 29.5922 31.6682 28.5936 31.6682 27.3624C31.6682 26.6753 31.3791 26.063 30.9258 25.653C30.4252 25.5216 29.8904 25.4756 29.3452 25.544C28.7355 25.6241 28.2086 25.9119 27.7566 26.3205C27.6029 26.6306 27.5162 26.9854 27.5162 27.3624C27.5162 28.5936 28.4451 29.5922 29.5922 29.5922Z" fill="#55A95A"/>
<path d="M31.0598 27.3624C31.0598 28.2335 30.4029 28.9391 29.5922 28.9391C28.7815 28.9391 28.1245 28.2335 28.1245 27.3624C28.1245 26.4913 28.7815 25.7844 29.5922 25.7844C30.4029 25.7844 31.0598 26.4913 31.0598 27.3624Z" fill="#050301"/>
<path d="M30.868 27.3624C30.868 28.1192 30.2964 28.7328 29.5922 28.7328C28.8879 28.7328 28.3164 28.1192 28.3164 27.3624C28.3164 26.6043 28.8879 25.9907 29.5922 25.9907C30.2964 25.9907 30.868 26.6043 30.868 27.3624Z" fill="#050301"/>
<path d="M30.868 27.3624C30.868 28.1192 30.2964 28.7328 29.5922 28.7328C28.8879 28.7328 28.3164 28.1192 28.3164 27.3624C28.3164 26.6043 28.8879 25.9907 29.5922 25.9907C30.2964 25.9907 30.868 26.6043 30.868 27.3624Z" fill="#050301"/>
<path d="M29.0377 26.1116C29.0377 26.44 29.286 26.7068 29.5922 26.7068C29.8983 26.7068 30.1467 26.44 30.1467 26.1116C30.1467 25.8002 29.9233 25.5439 29.6395 25.519C29.583 25.5216 29.5278 25.5255 29.4713 25.5308C29.223 25.5899 29.0377 25.8277 29.0377 26.1116Z" fill="white"/>
<path d="M32.5446 26.4309C31.366 25.3521 29.378 25.0276 28.0431 25.9933C27.4649 26.4112 27.0353 26.9932 26.6963 27.6134C26.3586 28.2309 26.084 28.8905 25.8869 29.5659C25.8751 29.604 25.8646 29.6408 25.8541 29.6789C25.8528 29.6828 25.8593 29.6855 25.862 29.6802C26.2916 28.3912 26.9065 27.0432 28.0168 26.197C28.6251 25.7332 29.332 25.5703 30.0888 25.6097C30.9692 25.6557 31.7877 25.996 32.5275 26.4532C32.5406 26.4611 32.5564 26.4414 32.5446 26.4309ZM31.8337 28.8288C31.542 29.0797 31.228 29.2834 30.8785 29.4424C30.5277 29.6014 30.1558 29.6999 29.7932 29.8261C29.7906 29.8274 29.7906 29.8326 29.7945 29.8313C30.5198 29.692 31.3344 29.399 31.8403 28.8354C31.8442 28.8314 31.8377 28.8248 31.8337 28.8288Z" fill="#050301"/>
<path d="M17.5369 28.8826V29.3806C17.5369 29.3806 18.2846 29.7787 19.0322 30.278L19.7798 29.7288L17.5369 28.8826Z" fill="#050301"/>
<path d="M17.2676 27.8328C17.2676 27.8328 16.0259 27.2718 15.4951 26.2417C15.4951 26.2417 16.7367 27.4005 17.4344 27.5333L17.2676 27.8328Z" fill="#050301"/>
<path d="M17.2019 27.7001C17.2019 27.7001 16.8695 27.6331 16.4714 27.2008C16.4714 27.2008 16.4897 25.7358 17.7669 25.2418C18.797 24.8436 19.6234 25.6504 20.057 26.5149C20.3014 27.0037 20.4039 27.5385 20.4933 28.0733C20.5314 28.3058 20.5366 29.4148 20.7232 29.5593C20.7232 29.5593 19.5275 28.629 19.3948 28.5962C19.2608 28.5633 17.2019 27.7001 17.2019 27.7001Z" fill="#050301"/>
<path d="M20.4144 29.1125C19.5696 28.4687 19.4697 28.4438 19.4342 28.4359C19.3239 28.4043 18.0454 27.8735 17.2663 27.5464L17.2518 27.5411L17.236 27.5372C17.2334 27.5358 16.9693 27.4741 16.6408 27.139C16.6605 26.8605 16.8051 25.7923 17.826 25.3968C17.9863 25.335 18.1479 25.3035 18.3043 25.3035C19.1938 25.3035 19.7575 26.2876 19.9086 26.5898C20.1424 27.0589 20.241 27.5713 20.329 28.0995C20.3382 28.1547 20.3461 28.2861 20.3553 28.4267C20.3724 28.7052 20.3908 28.9312 20.4144 29.1125Z" fill="#050301"/>
<path d="M17.1388 27.7369L17.1887 27.9353C17.3871 28.633 17.7866 29.131 17.7866 29.131C18.1164 29.558 18.3673 29.7117 18.8325 29.9285C19.4448 30.2149 20.2712 29.5015 20.7758 29.8786C20.626 28.8327 20.576 27.7369 19.9283 26.7396C19.0979 25.4612 17.3385 25.4441 17.1388 27.7369Z" fill="white"/>
<path d="M18.4068 25.8816C18.094 26.3192 17.914 26.9735 17.9534 27.6935C18.0231 28.9588 18.7444 29.9482 19.563 29.9022C20.0229 29.8773 20.4171 29.5304 20.6601 29.0061C20.5537 28.2362 20.3987 27.4623 19.9283 26.7396C19.5394 26.1418 18.9481 25.8199 18.4068 25.8816Z" fill="#55A95A"/>
<path d="M18.1479 27.6831C18.2083 28.7828 18.8351 29.6421 19.5459 29.6027C20.0137 29.5764 20.4013 29.1704 20.5957 28.5831C20.4867 27.955 20.3119 27.3296 19.9283 26.7397C19.6169 26.2601 19.1754 25.9579 18.7339 25.8895C18.3463 26.2469 18.1072 26.9223 18.1479 27.6831Z" fill="#55A95A"/>
<path d="M19.3594 26.2048C18.8561 26.2324 18.483 26.8841 18.525 27.662C18.5684 28.4398 19.0112 29.0469 19.5144 29.0193C20.0085 28.993 20.3777 28.361 20.3488 27.6015C20.2463 27.3085 20.1109 27.0208 19.9283 26.7396C19.789 26.5241 19.6222 26.3441 19.4408 26.2062C19.4133 26.2035 19.387 26.2035 19.3594 26.2048Z" fill="#050301"/>
<path d="M20.2278 27.5687C20.2646 28.2441 19.9414 28.8117 19.5039 28.8354C19.0663 28.859 18.6827 28.3308 18.6446 27.6555C18.6078 26.9801 18.9323 26.4125 19.3685 26.3888C19.8061 26.3652 20.1911 26.8934 20.2278 27.5687Z" fill="#050301"/>
<path d="M20.2278 27.5687C20.2646 28.2441 19.9414 28.8117 19.5039 28.8354C19.0663 28.859 18.6827 28.3308 18.6446 27.6555C18.6078 26.9801 18.9323 26.4125 19.3685 26.3888C19.8061 26.3652 20.1911 26.8934 20.2278 27.5687Z" fill="#050301"/>
<path d="M19.0309 26.5149C19.0466 26.8093 19.2135 27.0379 19.404 27.0274C19.5945 27.0169 19.7351 26.7711 19.7194 26.4768C19.7194 26.4729 19.718 26.4676 19.718 26.4637C19.5564 26.2824 19.3738 26.1405 19.1833 26.0406C19.0821 26.1365 19.0203 26.3152 19.0309 26.5149Z" fill="white"/>
<path d="M20.6115 28.5594C20.5353 28.1114 20.421 27.6659 20.241 27.2481C20.0098 26.712 19.6445 26.1392 19.0782 25.9118C18.663 25.7437 18.1782 25.766 17.8181 26.0498C17.3346 26.4335 17.1783 27.0983 17.1388 27.6843C17.1388 27.7014 17.1375 27.7185 17.1362 27.7369C17.1362 27.7395 17.1415 27.7395 17.1415 27.7369C17.2137 27.1561 17.3964 26.5097 17.897 26.151C18.2596 25.8908 18.7064 25.9 19.1005 26.08C19.6537 26.3349 19.9979 26.8408 20.2344 27.3847C20.4079 27.7816 20.5077 28.2007 20.5813 28.6251C20.6536 29.0416 20.668 29.4713 20.764 29.8825C20.7666 29.897 20.7889 29.893 20.7889 29.8786C20.7653 29.441 20.6864 28.9917 20.6115 28.5594ZM18.8391 29.918C18.6564 29.8103 18.4659 29.717 18.2898 29.5974C18.098 29.4686 17.9416 29.3005 17.7905 29.127C17.7866 29.1231 17.7774 29.1296 17.7814 29.1349C18.0481 29.512 18.3923 29.7853 18.8299 29.9403C18.843 29.9456 18.8509 29.9246 18.8391 29.918Z" fill="#050301"/>
<path d="M41.1823 13.8737C41.1823 13.8737 39.8421 14.2942 39.2246 15.1903C39.2246 15.1903 39.8671 13.5649 40.7014 12.8712C40.7014 12.8712 39.1562 12.9408 38.2588 13.5623C38.2588 13.5623 39.2443 12.4993 39.5609 11.8279C39.5609 11.8279 38.0565 13.063 37.4744 13.088C37.4744 13.088 37.9487 11.9041 38.2063 10.7256C38.2063 10.7256 37.7398 11.623 37.0763 11.9462C37.0763 11.9462 37.6386 10.2446 36.7951 9.34067C36.7951 9.34067 37.3404 10.4785 36.5941 11.171C36.5941 11.171 36.0698 9.38141 34.8834 8.06486C34.8834 8.06486 35.359 9.05687 35.2631 9.86099C35.2631 9.86099 34.9267 9.08051 33.7981 8.41829C32.676 7.76002 32.0584 6.92831 30.801 6.28449C30.801 6.28449 31.6918 7.38556 31.5959 8.40122C31.5959 8.40122 30.4344 6.88495 28.9076 6.26215C27.3901 5.64198 25.5466 4.69202 25.5466 4.69202C25.5466 4.69202 26.9525 6.74436 26.5781 8.19493C26.5781 8.19493 25.8659 5.95733 24.3759 5.05861C24.3759 5.05861 25.5111 6.55122 25.2746 8.27246C25.2746 8.27246 24.6059 7.46045 23.6664 6.74043C22.7296 6.02171 21.3841 5.96915 20.5958 4.89304C20.5958 4.89304 20.9203 5.64723 21.643 6.65764C22.3669 7.66936 22.4865 8.64823 22.4865 8.64823C22.4865 8.64823 20.693 7.56162 19.3791 6.24244C18.0704 4.92852 14.9998 4.44763 14.9998 4.44763C14.9998 4.44763 18.3936 5.60782 19.0992 7.45125C19.0992 7.45125 16.1586 5.96783 13.632 6.13864C13.632 6.13864 14.7895 6.75356 15.7526 7.79944C16.7197 8.84927 18.0822 10.0187 18.7339 10.468C18.7339 10.468 17.1638 10.2079 15.2796 10.3813C13.4152 10.5521 11.3182 10.1908 10.1869 8.96357C10.1869 8.96357 10.9332 12.3837 16.0325 13.1576C16.0325 13.1576 10.74 14.2837 8.30927 12.5821C8.30927 12.5821 9.05296 15.1627 13.7082 15.0339C13.7082 15.0339 10.7978 15.7605 9.85839 17.0035C9.85839 17.0035 10.7965 16.4989 11.8634 16.5252C12.9369 16.5515 13.3127 17.2794 14.5202 17.7091C14.5202 17.7091 13.0538 18.366 11.7333 17.6723C11.7333 17.6723 11.9186 18.2688 12.8633 18.7076C13.8107 19.1478 14.6292 20.2673 14.6292 20.2673C14.6292 20.2673 12.9198 19.9125 12.4179 19.3909C12.4179 19.3909 12.5414 20.057 13.674 20.6943C14.8132 21.3368 15.2718 22.0647 15.1377 22.8728C15.005 23.6782 15.0195 24.0619 15.0576 25.2102C15.0576 25.2102 15.2849 23.0659 15.6843 22.0029C15.6843 22.0029 15.8972 19.8652 16.3676 18.0205C16.5147 18.2175 16.7828 18.5381 17.081 18.7089C17.081 18.7089 16.7683 17.5632 16.8406 16.813C16.8406 16.813 17.1599 17.2781 17.9338 17.7274C17.9338 17.7274 17.3714 15.6317 18.0927 15.1233C18.2149 15.0365 18.3424 14.9459 18.4712 14.8552C19.7417 13.9565 21.7796 14.6673 23.1737 14.4584C24.6308 14.239 27.3835 13.3153 28.7316 14.0458C28.7316 14.0458 29.3163 14.3625 30.0875 15.0129C30.374 15.5358 30.6026 16.4451 29.8957 17.6709C29.8957 17.6709 30.6657 17.4331 31.32 16.4201C31.32 16.4201 31.7759 17.7498 30.7024 18.772C30.7024 18.772 31.4658 18.9612 32.3961 18.2254L31.8101 19.1622C31.8101 19.1622 32.4526 19.1898 33.0058 18.8903C33.078 19.0571 33.145 19.2293 33.2081 19.4053C33.3815 19.8849 34.1121 20.3894 34.4195 20.8217C35.5666 22.4365 36.1723 24.4626 35.6901 26.4769C35.6901 26.4769 34.9109 28.8603 34.7362 29.9745C34.7362 29.9745 35.652 28.0483 36.6112 26.9183C36.6112 26.9183 37.188 25.4546 37.6281 25.1656C38.0683 24.8765 38.9368 24.8594 38.9368 24.8594C38.9368 24.8594 39.2062 22.1028 39.5872 19.5118C39.9709 16.9023 39.0643 15.6317 41.1823 13.8737Z" fill="#E8ADDB"/>
<path d="M36.2998 34.0227C36.259 34.0227 36.2262 34.0556 36.2262 34.0963C36.2262 34.1384 36.259 34.1712 36.2998 34.1712C36.3405 34.1712 36.3747 34.1384 36.3747 34.0963C36.3747 34.0556 36.3405 34.0227 36.2998 34.0227ZM36.2998 33.8309C36.259 33.8309 36.2262 33.8637 36.2262 33.9045C36.2262 33.9465 36.259 33.9794 36.2998 33.9794C36.3405 33.9794 36.3747 33.9465 36.3747 33.9045C36.3747 33.8637 36.3405 33.8309 36.2998 33.8309ZM36.2998 34.2146C36.259 34.2146 36.2262 34.2474 36.2262 34.2894C36.2262 34.3302 36.259 34.363 36.2998 34.363C36.3405 34.363 36.3747 34.3302 36.3747 34.2894C36.3747 34.2474 36.3405 34.2146 36.2998 34.2146ZM36.2998 33.6391C36.259 33.6391 36.2262 33.6719 36.2262 33.7126C36.2262 33.7534 36.259 33.7875 36.2998 33.7875C36.3405 33.7875 36.3747 33.7534 36.3747 33.7126C36.3747 33.6719 36.3405 33.6391 36.2998 33.6391ZM36.2998 33.4472C36.259 33.4472 36.2262 33.4801 36.2262 33.5208C36.2262 33.5615 36.259 33.5957 36.2998 33.5957C36.3405 33.5957 36.3747 33.5615 36.3747 33.5208C36.3747 33.4801 36.3405 33.4472 36.2998 33.4472ZM36.2998 34.4064C36.259 34.4064 36.2262 34.4392 36.2262 34.4813C36.2262 34.522 36.259 34.5549 36.2998 34.5549C36.3405 34.5549 36.3747 34.522 36.3747 34.4813C36.3747 34.4392 36.3405 34.4064 36.2998 34.4064ZM36.2998 34.9819C36.259 34.9819 36.2262 35.016 36.2262 35.0568C36.2262 35.0975 36.259 35.1304 36.2998 35.1304C36.3405 35.1304 36.3747 35.0975 36.3747 35.0568C36.3747 35.016 36.3405 34.9819 36.2998 34.9819ZM36.2709 32.0532C36.28 32.0571 36.2892 32.0597 36.2998 32.0597C36.3339 32.0597 36.3615 32.0361 36.3707 32.0032C36.4114 31.9638 36.4285 31.9086 36.4075 31.8639C36.3786 31.8061 36.2932 31.7877 36.217 31.8245C36.1395 31.8613 36.1 31.9402 36.129 31.9993C36.1513 32.0453 36.2091 32.065 36.2709 32.0532ZM36.2998 34.7901C36.259 34.7901 36.2262 34.8242 36.2262 34.865C36.2262 34.9057 36.259 34.9385 36.2998 34.9385C36.3405 34.9385 36.3747 34.9057 36.3747 34.865C36.3747 34.8242 36.3405 34.7901 36.2998 34.7901ZM36.2998 34.5982C36.259 34.5982 36.2262 34.6324 36.2262 34.6731C36.2262 34.7138 36.259 34.7467 36.2998 34.7467C36.3405 34.7467 36.3747 34.7138 36.3747 34.6731C36.3747 34.6324 36.3405 34.5982 36.2998 34.5982ZM36.2998 33.2554C36.259 33.2554 36.2262 33.2882 36.2262 33.329C36.2262 33.3697 36.259 33.4039 36.2998 33.4039C36.3405 33.4039 36.3747 33.3697 36.3747 33.329C36.3747 33.2882 36.3405 33.2554 36.2998 33.2554ZM36.2998 32.1031C36.259 32.1031 36.2262 32.1359 36.2262 32.178C36.2262 32.2187 36.259 32.2516 36.2998 32.2516C36.3405 32.2516 36.3747 32.2187 36.3747 32.178C36.3747 32.1359 36.3405 32.1031 36.2998 32.1031ZM36.2998 32.2949C36.259 32.2949 36.2262 32.3291 36.2262 32.3698C36.2262 32.4105 36.259 32.4434 36.2998 32.4434C36.3405 32.4434 36.3747 32.4105 36.3747 32.3698C36.3747 32.3291 36.3405 32.2949 36.2998 32.2949ZM36.828 36.732L36.3024 35.3222C36.3418 35.3209 36.3747 35.288 36.3747 35.2486C36.3747 35.2079 36.3405 35.175 36.2998 35.175C36.259 35.175 36.2262 35.2079 36.2262 35.2486C36.2262 35.288 36.2577 35.3209 36.2971 35.3222L35.7716 36.732L35.7663 36.7452L36.2998 38.1747L36.8332 36.7452L36.828 36.732ZM36.2998 32.4868C36.259 32.4868 36.2262 32.5209 36.2262 32.5616C36.2262 32.6024 36.259 32.6352 36.2998 32.6352C36.3405 32.6352 36.3747 32.6024 36.3747 32.5616C36.3747 32.5209 36.3405 32.4868 36.2998 32.4868ZM36.2998 33.0636C36.259 33.0636 36.2262 33.0964 36.2262 33.1371C36.2262 33.1779 36.259 33.212 36.2998 33.212C36.3405 33.212 36.3747 33.1779 36.3747 33.1371C36.3747 33.0964 36.3405 33.0636 36.2998 33.0636ZM36.2998 32.8704C36.259 32.8704 36.2262 32.9046 36.2262 32.9453C36.2262 32.986 36.259 33.0189 36.2998 33.0189C36.3405 33.0189 36.3747 32.986 36.3747 32.9453C36.3747 32.9046 36.3405 32.8704 36.2998 32.8704ZM36.2998 32.6786C36.259 32.6786 36.2262 32.7127 36.2262 32.7535C36.2262 32.7942 36.259 32.827 36.2998 32.827C36.3405 32.827 36.3747 32.7942 36.3747 32.7535C36.3747 32.7127 36.3405 32.6786 36.2998 32.6786ZM17.4266 35.3222C17.466 35.3209 17.4975 35.288 17.4975 35.2486C17.4975 35.2079 17.4647 35.175 17.424 35.175C17.3832 35.175 17.3491 35.2079 17.3491 35.2486C17.3491 35.288 17.3819 35.3209 17.4213 35.3222L16.8958 36.732L16.8905 36.7452L17.424 38.1747L17.9574 36.7452L17.9522 36.732L17.4266 35.3222ZM17.424 35.1304C17.4647 35.1304 17.4975 35.0975 17.4975 35.0568C17.4975 35.016 17.4647 34.9819 17.424 34.9819C17.3832 34.9819 17.3491 35.016 17.3491 35.0568C17.3491 35.0975 17.3832 35.1304 17.424 35.1304ZM17.424 34.9385C17.4647 34.9385 17.4975 34.9057 17.4975 34.865C17.4975 34.8242 17.4647 34.7901 17.424 34.7901C17.3832 34.7901 17.3491 34.8242 17.3491 34.865C17.3491 34.9057 17.3832 34.9385 17.424 34.9385Z" fill="white"/>
</svg>
