<svg width="50" height="50" viewBox="0 0 50 50" fill="none" xmlns="http://www.w3.org/2000/svg">
<path d="M50 25.0007C50 38.807 38.8079 50 25.0003 50C11.1929 50 0 38.807 0 25.0007C0 11.193 11.1929 0 25.0003 0C38.8079 0 50 11.193 50 25.0007Z" fill="#F57DC0"/>
<path d="M33.9451 44.5658C33.9149 44.5185 33.8847 44.4699 33.8545 44.4212C33.8426 44.4015 33.8308 44.3831 33.819 44.3634C33.7914 44.3187 33.7638 44.2728 33.7349 44.2268C33.7218 44.2031 33.7073 44.1808 33.6928 44.1571C33.6653 44.1112 33.6377 44.0625 33.6088 44.0152C33.5956 43.9916 33.5825 43.9706 33.568 43.9469C33.5273 43.876 33.4853 43.8037 33.4419 43.7301C32.6299 42.3177 32.4223 39.1985 32.379 37.1567C32.3776 37.0924 32.3763 37.0293 32.375 36.9675C32.375 36.957 32.375 36.9465 32.375 36.9347C32.3737 36.8729 32.3724 36.8112 32.3711 36.7508C32.3711 36.7481 32.3711 36.7468 32.3711 36.7442C32.3711 36.6903 32.3698 36.6378 32.3698 36.5852C32.3698 36.5668 32.3698 36.5471 32.3698 36.5287C32.3684 36.4906 32.3685 36.4512 32.3685 36.4144C32.3685 36.3986 32.3685 36.3829 32.3685 36.3684C32.3685 36.3211 32.3685 36.2764 32.3685 36.2318C32.3685 36.2107 32.3685 36.1897 32.3685 36.1687C32.3685 36.1424 32.3685 36.1162 32.3685 36.0899C32.3685 36.0689 32.3685 36.0478 32.3685 36.0281C32.3685 35.99 32.3685 35.9545 32.3685 35.9177C32.3685 35.898 32.3684 35.8783 32.3698 35.8586C32.3698 35.8389 32.3698 35.8192 32.3698 35.8008C32.3698 35.7798 32.3698 35.7601 32.3698 35.7417C32.3698 35.7233 32.3698 35.7075 32.3711 35.6918C32.3711 35.6615 32.3711 35.6339 32.3711 35.6077C32.3711 35.5906 32.3724 35.5748 32.3724 35.5604C32.3724 35.5433 32.3724 35.5275 32.3724 35.5118C32.3737 35.5013 32.3737 35.492 32.3737 35.4828C32.3737 35.45 32.375 35.4211 32.375 35.3948C32.375 35.3909 32.375 35.3856 32.375 35.383C32.3763 35.3699 32.3763 35.3567 32.3763 35.3449C32.3763 35.3383 32.3763 35.3304 32.3763 35.3239C32.3763 35.316 32.3777 35.3081 32.3777 35.3002C32.3777 35.2871 32.3777 35.2753 32.3777 35.2661C32.379 35.2608 32.379 35.2556 32.379 35.2516C32.379 35.2477 32.379 35.2424 32.379 35.2398C32.379 35.2372 32.379 35.2345 32.379 35.2319C32.379 35.2293 32.379 35.2253 32.379 35.2253L24.5402 39.3444C24.5558 39.4981 24.5691 39.6466 24.581 39.795C24.5851 39.8437 24.5881 39.8923 24.5915 39.9409C24.5986 40.0381 24.6055 40.1353 24.6109 40.2299C24.6143 40.2864 24.6167 40.3416 24.6195 40.3968C24.6236 40.4822 24.6274 40.5676 24.6303 40.6517C24.6323 40.7082 24.6337 40.7647 24.635 40.8212C24.6369 40.9013 24.6382 40.9802 24.6389 41.059C24.6394 41.1142 24.6398 41.1694 24.6398 41.2245C24.6395 41.3034 24.6385 41.3796 24.6371 41.4558C24.6364 41.5083 24.6356 41.5609 24.6341 41.6108C24.6318 41.6923 24.6282 41.7711 24.6248 41.8499C24.6228 41.8933 24.6212 41.9393 24.6187 41.9827C24.6131 42.0852 24.606 42.1837 24.5981 42.2822C24.5967 42.3019 24.5955 42.3216 24.594 42.34C24.5841 42.4557 24.5726 42.5686 24.56 42.679C24.5553 42.7197 24.5499 42.7579 24.5448 42.796C24.5358 42.8682 24.5268 42.9405 24.5164 43.0101C24.51 43.0548 24.5026 43.0981 24.4956 43.1415C24.4856 43.2046 24.4753 43.2663 24.4642 43.3281C24.4562 43.3728 24.4478 43.4161 24.4394 43.4608C24.428 43.5186 24.4159 43.5777 24.4037 43.6342C24.3942 43.6776 24.3851 43.7209 24.3751 43.763C24.362 43.8195 24.3482 43.876 24.3343 43.9311C24.324 43.9719 24.3141 44.0113 24.3035 44.0507C24.288 44.1085 24.2715 44.165 24.2553 44.2215C24.2448 44.257 24.2351 44.2925 24.2242 44.3266C24.2033 44.395 24.1812 44.462 24.1586 44.529C24.1517 44.5487 24.1452 44.571 24.1381 44.5907C23.5651 46.2305 22.5666 47.1843 21.4843 47.7822C20.8397 48.1382 19.965 48.7019 19.086 49.2944C20.9819 49.7543 22.9619 50 24.9994 50C29.2322 50 33.2185 48.9463 36.7135 47.0884C35.4298 46.4538 34.7676 45.8573 33.9451 44.5658Z" fill="#EC8D76"/>
<path d="M38.4605 22.8065C38.3317 22.7132 37.8324 22.5739 37.6945 22.5371C38.0269 19.9461 38.8547 15.1241 35.2716 11.302C31.2391 7.00299 25.7299 7.00299 22.7063 7.7414C19.6825 8.48112 16.1214 11.5044 15.3824 14.797C14.643 18.0883 15.1066 19.0829 14.7743 20.1458C14.442 21.2088 13.8443 22.6698 14.6415 24.2649C14.6415 24.2649 15.0401 25.8586 15.0401 27.6521C15.0401 29.4468 16.1031 31.9708 18.0961 34.4948C20.0892 37.0201 21.2954 39.6584 23.6103 39.8765C27.1313 40.2089 32.1352 37.0359 33.842 33.3714C34.336 32.3085 34.6777 31.1693 34.9707 30.0355C35.5291 30.1393 35.9798 29.7674 36.3687 29.184C36.8667 28.4364 37.5145 27.9385 38.0124 27.2408C38.7601 26.195 39.5576 23.604 38.4605 22.8065Z" fill="#F79785"/>
<path d="M16.324 14.6327C16.6622 13.6749 17.1918 12.8012 18.0254 12.1048C19.5584 10.8238 21.7678 10.2299 23.7433 10.3587C24.7858 10.427 26.0413 10.6871 26.9724 11.1825C28.6769 12.0891 29.6368 13.0587 29.9377 15.0151C30.0652 15.8376 30.0612 16.6785 30.2136 17.4984C30.2425 17.6481 30.9047 19.5638 31.1859 19.3194C31.1859 19.3194 30.0402 20.3153 29.8904 20.3153C29.7406 20.3153 15.0436 20.8632 15.0436 20.8632L14.6948 20.6635C14.6948 20.6635 15.6912 19.2695 15.741 18.1724C15.7956 16.9754 15.9305 15.7469 16.324 14.6327Z" fill="#F79785"/>
<path d="M20.3216 31.0078C20.3216 31.0078 20.3547 31.373 20.8863 31.4387C21.4177 31.5057 21.7833 31.2732 21.9824 30.8081C22.1816 30.343 22.5801 27.8847 22.4474 25.1938L20.4544 25.228C20.4544 25.228 20.8198 28.0174 20.7533 28.9147C20.6868 29.8121 20.3216 31.0078 20.3216 31.0078Z" fill="#F79785"/>
<path d="M20.4434 30.4875C20.4434 30.4875 20.7092 30.2878 20.9748 30.2878C21.2406 30.2878 22.2149 30.6636 22.2149 30.6636L22.3477 30.3982C22.3477 30.3982 21.3292 30.0001 20.9748 30.0001C20.9748 30.0001 20.7756 30.0001 20.5984 30.1328L20.4434 30.4875Z" fill="#F79785"/>
<path d="M26.6532 27.3158C26.6532 27.9622 26.1288 28.4865 25.482 28.4865C24.8358 28.4865 24.3115 27.9622 24.3115 27.3158C24.3115 26.6693 24.8358 26.1451 25.482 26.1451C26.1288 26.1451 26.6532 26.6693 26.6532 27.3158Z" fill="#F79785"/>
<path d="M20.5707 27.2422C20.6211 27.8453 20.267 28.3682 19.7802 28.4076C19.2934 28.4484 18.8583 27.9924 18.8081 27.3894C18.758 26.785 19.1119 26.2634 19.5989 26.2226C20.0855 26.1832 20.5205 26.6391 20.5707 27.2422Z" fill="#F79785"/>
<path d="M34.3048 31.427C33.0947 33.5358 30.8716 34.5317 29.3383 33.6527C27.8054 32.7724 27.5433 30.3509 28.7526 28.2421C29.9624 26.1333 32.1855 25.1374 33.7188 26.0164C35.2508 26.8967 35.5136 29.3182 34.3048 31.427Z" fill="#F79785"/>
<path d="M18.8277 29.3562C18.1356 27.2895 16.4048 25.8481 14.9533 26.124C15.0039 26.5892 15.0401 27.1121 15.0401 27.6521C15.0401 29.2445 15.8783 31.4124 17.4605 33.6461C18.9093 33.3452 19.5216 31.4282 18.8277 29.3562Z" fill="#F79785"/>
<path d="M15.193 24.4002C15.193 24.4002 14.6948 20.8632 15.9403 20.3154C17.1858 19.7675 18.7305 20.4152 18.7305 20.4152L19.5773 21.4611L19.6769 21.8106C19.6769 21.8106 20.1754 24.0021 20.0259 27.5391L18.5808 26.3934C18.5808 26.3934 17.3852 25.1978 17.136 25.1478C16.887 25.0979 15.8905 25.0979 15.8905 25.0979L15.193 24.4002Z" fill="#F79785"/>
<path d="M25.0588 27.2908C25.0588 27.2908 24.0622 22.1088 25.2577 20.5151C26.4537 18.92 28.3969 19.0698 28.3969 19.0698L30.4891 19.2695C30.4891 19.2695 32.4323 19.8174 32.8318 20.2654C32.8318 20.2654 32.8317 23.156 31.5363 25.7956L25.0588 27.2908Z" fill="#F79785"/>
<path d="M20.1997 31.3507C20.1742 31.4663 20.5662 31.7028 20.6408 31.7343C21.1644 31.9603 21.7623 31.6791 22.2591 31.5057C22.702 31.3507 23.4107 31.7488 23.4772 31.9932C23.4772 31.9932 23.4993 32.2809 23.322 32.3256C23.1449 32.3689 20.5099 32.3466 20.5099 32.3466L20.2219 32.1705L20.111 31.7488C20.111 31.7488 20.1994 31.352 20.1997 31.3507Z" fill="#F79785"/>
<path d="M20.1553 31.6713C20.1553 31.6713 20.3215 32.1364 21.0192 32.1036C21.7166 32.0707 22.1483 31.7383 22.3809 31.6713C22.6134 31.6056 23.4439 31.8382 23.4107 32.1036L23.3442 32.369C23.3442 32.369 22.9457 34.1296 22.1483 34.1624C21.3513 34.1966 21.4843 33.0338 20.9194 32.7684C20.9194 32.7684 20.1553 32.3033 20.1553 31.6713Z" fill="#F79785"/>
<path d="M22.714 37.7507C22.714 37.7507 23.7768 37.8163 24.0759 37.7507C24.0759 37.7507 23.9097 38.3156 23.5777 38.2815C23.2453 38.2486 22.714 37.7507 22.714 37.7507Z" fill="#F79785"/>
<path d="M19.6906 34.6617L19.4911 35.1268C19.4911 35.1268 19.0593 34.6617 19.6906 34.6617Z" fill="#F79785"/>
<path d="M28.9592 34.4619L29.324 35.0269C29.324 35.0269 29.7562 34.529 28.9592 34.4619Z" fill="#F79785"/>
<path d="M27.7492 21.7606C27.7492 21.7606 29.1938 21.1129 31.1371 22.1088C31.1371 22.1088 29.2937 20.4152 27.7492 21.7606Z" fill="#C85D4E"/>
<path d="M18.6459 22.2467C18.6459 22.2467 17.5392 21.7185 16.1703 22.7421C16.1703 22.7421 17.4213 21.076 18.6459 22.2467Z" fill="#C85D4E"/>
<path d="M37.9775 23.1678L37.7016 23.4319C37.4046 23.6106 36.7648 24.546 36.7648 24.546L36.3956 25.1229L36.3838 25.111C36.184 25.2937 35.7859 26.2239 35.7859 26.2239L35.8056 26.2896L35.7859 26.3067C35.8056 26.3329 35.8227 26.3592 35.8372 26.3855L35.9134 26.6207C35.9515 26.9597 35.7189 27.2711 35.7189 27.2711C35.7189 27.2711 36.2839 27.0713 36.3995 26.6732C36.4928 26.354 36.2892 26.0991 36.2038 26.0097C36.2616 25.8705 36.3207 25.7417 36.3667 25.6589C36.5165 25.3935 36.7648 25.4763 36.7648 25.4763L36.6242 25.3423L36.682 25.3607C36.5992 25.1938 36.9973 24.7957 36.9973 24.7957L36.9881 24.7865C37.1406 24.9034 37.314 25.0112 37.314 25.0112C37.314 25.0112 37.1471 24.5631 37.314 24.2977C37.4349 24.1033 37.7633 23.9075 37.9289 23.8182C38.0957 23.9955 38.2994 24.2412 38.4597 24.5303C38.4597 24.5303 38.2101 23.4174 37.9775 23.1678ZM36.7819 26.5734L36.8817 26.0084C36.8817 26.0084 36.6492 26.1411 36.7819 26.5734ZM37.1642 26.9387C37.5124 26.2738 37.3468 25.8258 37.3468 25.8258C37.2141 26.258 37.1642 26.9387 37.1642 26.9387ZM38.1273 24.9284C38.2928 25.3778 37.9617 26.6562 37.9617 26.6562C38.4925 25.743 38.4098 25.0283 38.4098 25.0283L38.1273 24.9284Z" fill="#F79785"/>
<path d="M20.7756 32.4136C20.7756 32.4136 21.4177 32.8117 21.7055 32.7894C21.9934 32.7684 22.1705 32.524 22.237 32.3466C22.237 32.3466 21.3513 32.5686 20.7756 32.4136Z" fill="#F79785"/>
<path d="M38.9852 23.6815C38.9313 23.3662 38.7947 23.0614 38.5634 22.8367C38.2126 22.4964 37.7015 22.4412 37.2561 22.6002C37.0288 22.6803 36.8357 22.8196 36.6648 22.9852C36.5821 23.0666 36.5505 23.1691 36.494 23.2664C36.4297 23.3794 36.3745 23.4963 36.3167 23.6132C36.0605 24.1217 35.8318 24.6512 35.4705 25.0979C35.4692 25.0992 35.4718 25.1005 35.4731 25.0992C35.7399 24.7786 35.9356 24.4081 36.1262 24.0389C36.2208 23.8576 36.314 23.675 36.4178 23.5002C36.519 23.3307 36.6373 23.1231 36.8041 23.0101C37.1786 22.7539 37.5557 22.5779 38.0221 22.6646C38.3703 22.7303 38.6567 22.9681 38.8065 23.2834C39.0903 23.8812 38.9786 24.6354 38.8328 25.2529C38.6777 25.9059 38.4189 26.5208 38.0799 27.099C37.6516 27.8269 36.9552 28.355 36.4546 29.0291C36.2129 29.3549 35.9961 29.6939 35.6321 29.8988C35.2524 30.1117 34.8464 30.0145 34.489 29.8095C34.4601 29.7924 34.4352 29.8358 34.4628 29.8542C34.7558 30.0407 35.0855 30.1354 35.4285 30.0421C35.7622 29.9527 36.0263 29.6768 36.2326 29.4127C36.3587 29.2498 36.4651 29.0711 36.59 28.9056C36.7489 28.694 36.9263 28.4982 37.105 28.3038C37.4072 27.9753 37.7278 27.6547 37.9971 27.2973C38.3755 26.7954 38.6212 26.1937 38.7999 25.5959C38.9825 24.9862 39.0942 24.3148 38.9852 23.6815ZM35.4206 27.9884C35.4206 27.9898 35.4232 27.9898 35.4245 27.9884C35.4626 27.6271 35.6847 27.3657 35.8581 27.0622C36.0132 26.7928 36.0184 26.5392 35.8791 26.2607C35.8397 26.1845 35.7241 26.2515 35.7635 26.3277C35.933 26.6549 35.9107 26.915 35.7188 27.2212C35.5651 27.4669 35.4403 27.6941 35.4206 27.9884ZM38.0103 23.2519C38.0681 23.2046 37.9892 23.1034 37.9301 23.1481C37.7186 23.3071 37.536 23.5199 37.3586 23.7157C37.151 23.9443 36.9644 24.1913 36.787 24.4436C36.4139 24.9744 36.0631 25.5394 35.8043 26.1346C35.7951 26.1569 35.8253 26.1766 35.8371 26.1543C35.9987 25.8468 36.1603 25.5433 36.3351 25.2464C36.3351 25.2635 36.3469 25.2819 36.3692 25.2832C36.7976 25.3121 36.9513 25.7759 36.8632 26.1438C36.8632 26.1477 36.8698 26.1503 36.8711 26.1451C36.9986 25.7824 36.8212 25.2267 36.3692 25.2122C36.3627 25.2122 36.3574 25.2135 36.3521 25.2161C36.4783 25.0007 36.611 24.7891 36.7542 24.5829C36.812 24.7458 36.8974 24.8299 37.0538 24.9219C37.1365 24.9718 37.2298 25.0164 37.3021 25.0808C37.3954 25.1636 37.3875 25.3252 37.3809 25.4382C37.3533 25.9467 37.13 26.4262 37.1654 26.9426H37.1667C37.1352 26.4144 37.377 25.9178 37.4124 25.3962C37.4243 25.2162 37.4308 25.0453 37.2771 24.9258C37.1221 24.8036 36.8751 24.7287 36.7883 24.5382C36.787 24.5382 36.787 24.5369 36.7857 24.5356C36.9657 24.2807 37.1654 24.0376 37.377 23.8077C37.5714 23.5948 37.7869 23.4306 38.0103 23.2519Z" fill="#F79785"/>
<path d="M20.6727 28.5863C20.7894 29.1368 20.7116 29.6585 20.5361 30.1866C20.3958 30.6071 20.1553 30.9986 20.0608 31.4348C19.9812 31.8001 20.0639 32.1443 20.3188 32.4216C20.5027 32.6213 20.7422 32.75 20.9932 32.8446C21.156 32.9051 21.3249 32.9274 21.4944 32.9602C21.6506 32.9905 21.8182 33.022 21.9767 32.9997C22.0054 32.9944 22.0046 32.9471 21.9767 32.9418C21.8239 32.9156 21.6693 32.9116 21.5161 32.8814C21.3394 32.8446 21.1669 32.7513 21.0063 32.6712C20.7747 32.5569 20.5501 32.4163 20.3831 32.2153C20.1398 31.9236 20.1941 31.5413 20.2732 31.1983C20.3695 30.7818 20.5379 30.3863 20.6413 29.9712C20.7558 29.5126 20.792 29.0475 20.6743 28.5863C20.674 28.585 20.6725 28.585 20.6727 28.5863Z" fill="#C85D4E"/>
<path d="M22.5322 32.5673C22.4504 32.365 22.604 32.3203 22.7743 32.3085C22.9428 32.298 23.098 32.2849 23.2615 32.3361C23.2779 32.34 23.2846 32.3151 23.2686 32.3098C23.0626 32.2428 22.8435 32.16 22.627 32.2231C22.4471 32.2757 22.4282 32.432 22.5047 32.5792C22.5123 32.5949 22.5389 32.5844 22.5322 32.5673Z" fill="#C85D4E"/>
<path d="M23.2186 32.5279C23.4825 32.3492 23.5599 31.9761 23.5299 31.6752C23.5278 31.6542 23.5011 31.6555 23.4987 31.6752C23.4607 32.005 23.4501 32.2625 23.2107 32.5174C23.2056 32.5227 23.2123 32.5319 23.2186 32.5279Z" fill="#C85D4E"/>
<path d="M22.5313 32.4281C22.5313 32.4281 22.5064 32.2612 22.9964 32.3112C22.9964 32.3112 22.7471 32.5017 22.5313 32.4281Z" fill="#69242A"/>
<path d="M20.0668 34.9166C20.0668 34.9166 20.7391 34.3385 21.2262 34.2491C21.536 34.1926 21.7822 34.4659 22.0773 34.4974C22.4248 34.5342 22.7214 34.3306 23.0649 34.3161C23.5743 34.2938 23.84 34.3661 24.8585 34.5645C25.8774 34.7642 28.3268 34.7826 28.5483 34.7615C28.5483 34.7615 27.1309 35.5578 26.7324 35.5578C26.3338 35.5578 23.6323 35.8245 23.5214 35.8455C23.4108 35.8678 22.1264 35.7798 21.8827 35.7798L20.0668 34.9166Z" fill="#F79785"/>
<path d="M19.9254 34.9902C19.9254 34.9902 20.1872 35.454 20.4778 35.8206C20.7686 36.1858 20.7493 36.7902 21.0014 37.0491C21.2921 37.3486 22.9783 37.6797 23.967 37.2146C24.9556 36.7495 27.9311 34.5684 27.9311 34.5684C27.9311 34.5684 27.5858 34.6722 27.214 34.7576C26.9502 34.8168 26.6774 34.9232 26.3513 34.9232C25.5663 34.9232 22.2806 34.9902 22.1935 35.023C22.1061 35.0559 20.6233 34.9902 20.5361 34.9902C20.4487 34.9902 19.9254 34.9902 19.9254 34.9902Z" fill="#EF276E"/>
<path d="M20.7882 35.9861C20.7882 35.9861 20.7493 36.7613 21.4471 36.961C22.1448 37.1594 23.0172 37.049 23.0172 37.049L23.8702 36.9387L24.1802 36.8493C24.1802 36.8493 25.1494 36.3619 25.3433 35.9414C25.5371 35.521 24.4322 35.5657 24.4322 35.5657C24.4322 35.5657 23.7585 35.5157 23.7151 35.5657C23.6571 35.6314 21.0788 35.6314 21.0788 35.6314L20.7882 35.9861Z" fill="black"/>
<path d="M20.7882 35.9861C20.7882 35.9861 20.7493 36.7613 21.4471 36.961C22.1448 37.1594 23.0172 37.049 23.0172 37.049L23.8702 36.9387L24.1802 36.8493C24.1802 36.8493 25.1494 36.3619 25.3433 35.9414C25.5371 35.521 24.4322 35.5657 24.4322 35.5657C24.4322 35.5657 23.7585 35.5157 23.7151 35.5657C23.6571 35.6314 21.0788 35.6314 21.0788 35.6314L20.7882 35.9861Z" fill="#EF276E"/>
<path d="M27.214 34.7576C26.9502 34.8167 26.6774 34.9231 26.3513 34.9231C25.5663 34.9231 22.2806 34.9901 22.1935 35.023C22.1061 35.0558 20.6233 34.9901 20.5361 34.9901C20.4487 34.9901 19.9254 34.9901 19.9254 34.9901C19.9254 34.9901 20.1872 35.4539 20.4778 35.8205C20.5593 35.923 20.6163 36.0439 20.6621 36.17L20.6814 36.1858C20.6814 36.1858 20.7104 35.9191 21.7572 35.9191C22.8041 35.9191 25.4208 35.8533 25.4789 36.2515C25.4809 36.2646 25.4828 36.2764 25.4853 36.2883C26.6467 35.5104 27.9311 34.5684 27.9311 34.5684C27.9311 34.5684 27.5858 34.6722 27.214 34.7576ZM21.0014 36.6837C21.0014 36.6837 21.3211 37.1817 22.0481 37.2145C22.775 37.2487 23.8799 37.049 24.2289 36.8493C24.2289 36.8493 21.7863 37.116 21.0014 36.6837Z" fill="#EF276E"/>
<path d="M20.1143 35.1229L20.5069 35.6209C20.5069 35.6209 20.7687 35.6038 21.074 35.6367C21.3792 35.6708 21.2775 35.8692 21.9753 35.8692C22.6732 35.8692 22.7169 35.7706 23.0803 35.7207C23.4436 35.6708 25.9153 35.4041 26.046 35.4882C26.177 35.5709 26.177 35.571 26.177 35.571C26.177 35.571 27.1221 35.073 27.3838 34.8063C27.3838 34.8063 26.2643 35.1387 26.0606 35.2214C25.8571 35.3055 23.2402 35.588 22.7751 35.5539L22.3388 35.6367C22.3388 35.6367 21.5102 35.8863 21.2631 35.3712C21.2631 35.3712 21.0015 35.4882 20.1143 35.1229Z" fill="#EF276E"/>
<path d="M27.9383 34.5592C27.9362 34.5606 27.934 34.5605 27.9319 34.5619L27.2816 34.6578C26.6711 34.7576 25.7988 34.8233 24.9268 34.7576C24.0542 34.6906 23.0366 34.391 22.5424 34.4909C22.0482 34.5908 21.7573 34.8562 21.7573 34.8562C21.7573 34.8562 21.2339 34.3911 21.0015 34.3911C20.7687 34.3911 20.3908 34.5908 20.129 34.7576C19.8868 34.9114 19.5356 34.6972 19.4846 34.6644C19.4825 34.663 19.4803 34.6617 19.4786 34.6604C19.4774 34.6591 19.4758 34.6604 19.4767 34.6617C19.5461 34.7287 19.6177 34.7892 19.6909 34.8443C19.6958 34.8483 19.7008 34.8522 19.706 34.8562C19.7373 34.8798 19.7688 34.9035 19.8006 34.9245C20.0947 35.1281 20.41 35.2582 20.7001 35.3318C20.8394 35.3738 20.9801 35.4132 21.1234 35.4514C21.1338 35.454 21.228 35.4553 21.235 35.4698C21.2596 35.517 21.2965 35.5644 21.3355 35.5972C21.4321 35.6813 21.5411 35.7207 21.6594 35.7457C21.7845 35.7706 21.9117 35.7746 22.0374 35.7522C22.1516 35.7312 22.3045 35.7391 22.4067 35.6708C22.4126 35.6668 22.4138 35.6603 22.4125 35.6537L22.7889 35.5578C22.7893 35.5604 22.7899 35.5617 22.7922 35.5617C23.6384 35.5893 24.4934 35.5039 25.3309 35.3725C25.7824 35.3003 26.2303 35.2043 26.672 35.0756C26.8829 35.0138 27.0917 34.9455 27.2978 34.8654C27.5176 34.78 27.7242 34.6643 27.9389 34.5619C27.9404 34.5619 27.9399 34.5592 27.9383 34.5592Z" fill="#C9154F"/>
<path d="M24.6221 21.4939C24.6302 21.4873 25.5206 21.0616 26.3925 20.4494C26.8453 20.1327 27.303 19.8055 28.2735 19.5782C29.2278 19.3838 30.6954 19.2905 32.791 20.2168C32.929 20.2115 33.0669 20.2102 33.2075 20.2129C33.2023 20.2207 31.9948 19.485 30.271 18.9909C28.5411 18.4943 26.9644 18.7439 25.7633 19.3904C24.5296 20.0578 24.0817 21.1168 24.6221 21.4939Z" fill="#050301"/>
<path d="M25.313 21.0814C25.0301 21.2443 24.8024 21.3665 24.6958 21.4203C24.5776 21.3087 24.5235 21.1549 24.5464 20.9592C24.5931 20.519 25.0671 19.9041 25.8411 19.4902C26.1304 19.3339 26.441 19.2038 26.7597 19.104C27.7982 18.7794 29.0117 18.7558 30.2513 19.1394C31.4522 19.506 32.4008 20.004 32.8528 20.2641C32.8291 20.2628 32.8055 20.2628 32.7818 20.2628C31.2012 19.4758 29.7783 19.3444 28.7135 19.4679C27.5454 19.6203 26.9642 20 26.4913 20.3206C26.4434 20.3548 26.3966 20.3876 26.3503 20.4205C26.0363 20.6478 25.6893 20.8633 25.313 21.0814Z" fill="#050301"/>
<path d="M19.7204 21.8842C19.7094 21.8776 19.1808 21.6976 18.6403 21.1707C18.3637 20.9106 18.0905 20.6255 17.5499 20.4612C17.0273 20.3167 16.2048 20.2825 15.1087 21.0354C15.0209 21.0078 14.9315 20.9828 14.8408 20.9592C14.8484 20.9671 15.4713 20.3719 16.4115 19.8779C17.2649 19.4338 18.1527 19.5691 18.8492 20.004C19.6043 20.4744 19.9753 21.3415 19.7204 21.8842Z" fill="#050301"/>
<path d="M19.2803 21.599C19.4524 21.7028 19.5923 21.7672 19.6583 21.7961C19.71 21.6424 19.7234 21.4702 19.6866 21.2771C19.6125 20.8606 19.2787 20.3784 18.8133 20.0893C18.6428 19.9829 18.4639 19.8949 18.2855 19.8331C17.7063 19.6268 17.0464 19.6505 16.4352 19.9974C15.7954 20.3587 15.3131 20.7791 15.0707 20.9985C15.0858 21.0025 15.1009 21.0064 15.1158 21.0117C15.9415 20.3836 16.7237 20.2536 17.3022 20.3442C17.9332 20.4493 18.2842 20.7607 18.5652 21.0261C18.5944 21.0551 18.6229 21.0826 18.6512 21.1102C18.845 21.2994 19.0526 21.461 19.2803 21.599Z" fill="#050301"/>
<path d="M28.2973 27.2908L29.2437 27.7888C29.2437 27.7888 30.5891 27.0911 31.4865 26.693L31.5864 25.4973L28.3473 27.0911L28.2973 27.2908Z" fill="#050301"/>
<path d="M31.4171 23.8944C31.4171 23.8944 32.6508 23.1612 33.0239 22.1535C33.0239 22.1535 32.9293 23.4556 31.4355 24.4738L31.4171 23.8944Z" fill="#050301"/>
<path d="M31.782 24.1979C31.782 24.1979 32.2471 23.8326 32.4468 23.3005C32.4468 23.3005 31.1185 22.1719 28.7595 22.4044C26.4125 22.6357 25.6038 25.3278 25.1722 27.0214L27.464 26.2239L31.782 24.1979Z" fill="#050301"/>
<path d="M25.4113 26.7626C25.633 25.9323 25.9264 25.0204 26.39 24.2505C27.0117 23.2164 27.7922 22.6659 28.7759 22.57C28.9828 22.549 29.1897 22.5385 29.3934 22.5385C30.9438 22.5385 31.9423 23.1442 32.2432 23.3557C32.0672 23.7289 31.761 23.9995 31.6927 24.056L27.401 26.0702L25.4113 26.7626Z" fill="#050301"/>
<path d="M28.5464 23.2045C26.6532 23.4542 25.5569 25.6957 25.0588 27.3407C25.0588 27.3407 25.605 27.204 26.0884 27.1922C26.8805 27.3985 27.7727 27.4642 28.357 27.4839C28.3705 27.4865 28.3839 27.4878 28.3969 27.4891C29.0951 27.589 28.995 27.4891 28.995 27.4891C29.7415 27.2907 30.4891 27.0411 31.037 26.4932C31.037 26.4932 31.7347 25.6957 31.7347 24.4501V24.1019C30.8886 23.4542 29.7415 23.0561 28.5464 23.2045Z" fill="white"/>
<path d="M31.1816 25.023C31.1816 24.4606 31.0134 23.9416 30.7283 23.5186C30.0661 23.24 29.3172 23.1086 28.5465 23.2045C27.6903 23.3175 26.9977 23.8378 26.4494 24.525C26.4198 24.6866 26.4042 24.8522 26.4042 25.023C26.4042 26.1726 27.107 27.1449 28.076 27.4721C28.1753 27.4773 28.2699 27.4813 28.357 27.4839C28.3705 27.4865 28.3839 27.4878 28.3969 27.4891C29.0951 27.589 28.995 27.4891 28.995 27.4891C29.4354 27.3722 29.8769 27.2369 30.2763 27.0332C30.8282 26.5628 31.1816 25.8376 31.1816 25.023Z" fill="#2E9743"/>
<path d="M28.7928 27.2527C29.9387 27.2527 30.8677 26.2541 30.8677 25.023C30.8677 24.3372 30.5799 23.7236 30.1266 23.315C29.626 23.1836 29.0913 23.1363 28.5465 23.2046C27.9361 23.2861 27.4086 23.5725 26.9574 23.9811C26.8043 24.2925 26.7173 24.6459 26.7173 25.023C26.7173 26.2541 27.6464 27.2527 28.7928 27.2527Z" fill="#2E9743"/>
<path d="M30.2606 25.023C30.2606 25.8941 29.6036 26.5997 28.7927 26.5997C27.9823 26.5997 27.3252 25.8941 27.3252 25.023C27.3252 24.1519 27.9823 23.445 28.7927 23.445C29.6036 23.445 30.2606 24.1519 30.2606 25.023Z" fill="#050301"/>
<path d="M30.0675 25.023C30.0675 25.7798 29.4972 26.3934 28.7927 26.3934C28.0882 26.3934 27.5173 25.7798 27.5173 25.023C27.5173 24.2662 28.0882 23.6526 28.7927 23.6526C29.4972 23.6526 30.0675 24.2662 30.0675 25.023Z" fill="#050301"/>
<path d="M30.0675 25.023C30.0675 25.7798 29.4972 26.3934 28.7927 26.3934C28.0882 26.3934 27.5173 25.7798 27.5173 25.023C27.5173 24.2662 28.0882 23.6526 28.7927 23.6526C29.4972 23.6526 30.0675 24.2662 30.0675 25.023Z" fill="#050301"/>
<path d="M28.2386 23.7722C28.2386 24.102 28.4865 24.3687 28.7929 24.3687C29.0993 24.3687 29.3463 24.102 29.3463 23.7722C29.3463 23.4608 29.1242 23.2059 28.8398 23.1796C28.784 23.1822 28.7282 23.1862 28.6724 23.1914C28.4243 23.2505 28.2386 23.4884 28.2386 23.7722Z" fill="white"/>
<path d="M31.7452 24.0914C30.5667 23.0141 28.5789 22.6882 27.2433 23.6539C26.6654 24.0717 26.2365 24.6551 25.8975 25.2739C25.5591 25.8915 25.2854 26.551 25.0874 27.2264C25.0763 27.2645 25.0658 27.3013 25.0554 27.3394C25.0543 27.3433 25.0606 27.346 25.0623 27.3407C25.4921 26.0518 26.1067 24.7037 27.2177 23.8576C27.8266 23.3938 28.5324 23.2308 29.2896 23.2703C30.1699 23.3162 30.9884 23.6579 31.7282 24.1138C31.7413 24.123 31.7571 24.1033 31.7452 24.0914ZM31.0344 26.4906C30.7427 26.7402 30.4287 26.9452 30.0792 27.1029C29.7284 27.2619 29.3566 27.3617 28.9941 27.4878C28.9905 27.4892 28.9919 27.4931 28.9954 27.4931C29.7218 27.3525 30.5352 27.0608 31.041 26.4972C31.0449 26.4919 31.0384 26.4867 31.0344 26.4906Z" fill="#050301"/>
<path d="M16.7374 26.5432V27.0411C16.7374 27.0411 17.4847 27.4406 18.2322 27.9385L18.9795 27.3906L16.7374 26.5432Z" fill="#050301"/>
<path d="M16.4683 25.4934C16.4683 25.4934 15.2261 24.9324 14.6948 23.9023C14.6948 23.9023 15.9369 25.0611 16.6345 25.1938L16.4683 25.4934Z" fill="#050301"/>
<path d="M16.4019 25.3607C16.4019 25.3607 16.0696 25.2937 15.6711 24.8628C15.6711 24.8628 15.6891 23.3964 16.9668 22.9024C17.9963 22.5043 18.8237 23.3124 19.2567 24.1769C19.501 24.6644 19.6044 25.1991 19.6931 25.7339C19.7318 25.9677 19.7364 27.0753 19.923 27.2212C19.9228 27.2212 18.7271 26.2909 18.5943 26.2581C18.4613 26.2239 16.4019 25.3607 16.4019 25.3607Z" fill="#050301"/>
<path d="M19.6144 26.7731C18.7692 26.1293 18.6702 26.1057 18.6346 26.0965C18.5239 26.0649 17.2457 25.5341 16.4665 25.207L16.4525 25.2017L16.4362 25.1978C16.4336 25.1978 16.1694 25.1347 15.8405 24.7997C15.8607 24.5211 16.0048 23.453 17.0264 23.0575C17.1867 22.9957 17.3474 22.9642 17.5042 22.9642C18.3943 22.9642 18.9571 23.9496 19.1083 24.2505C19.3431 24.7195 19.4416 25.2333 19.5291 25.7601C19.5382 25.8153 19.5467 25.948 19.5555 26.0873C19.573 26.3672 19.5909 26.5931 19.6144 26.7731Z" fill="#050301"/>
<path d="M16.339 25.3975L16.3888 25.5972C16.5881 26.2935 16.9866 26.7928 16.9866 26.7928C17.3163 27.2185 17.568 27.3722 18.0329 27.589C18.6449 27.8755 19.4717 27.162 19.976 27.5391C19.8266 26.4932 19.7768 25.3975 19.1289 24.4002C18.2979 23.1218 16.5383 23.106 16.339 25.3975Z" fill="white"/>
<path d="M17.6073 23.5423C17.2942 23.9811 17.1144 24.6341 17.1541 25.3541C17.2238 26.6194 17.9439 27.6088 18.7629 27.5641C19.2232 27.5378 19.6169 27.1909 19.8606 26.668C19.7537 25.8981 19.5984 25.1229 19.1289 24.4002C18.74 23.8024 18.1478 23.4805 17.6073 23.5423Z" fill="#2E9743"/>
<path d="M17.3483 25.3436C17.4087 26.4434 18.0346 27.3026 18.7461 27.2632C19.2132 27.2383 19.6009 26.831 19.7951 26.245C19.6861 25.6156 19.5124 24.9902 19.1289 24.4003C18.8171 23.922 18.3751 23.6198 17.9335 23.5502C17.546 23.9076 17.3065 24.5829 17.3483 25.3436Z" fill="#2E9743"/>
<path d="M18.5591 23.8655C18.056 23.8931 17.6828 24.5461 17.7257 25.3226C17.7686 26.1004 18.2111 26.7088 18.7141 26.6812C19.2087 26.6536 19.5774 26.0216 19.5493 25.2622C19.4461 24.9692 19.3112 24.6814 19.1289 24.4003C18.9889 24.1848 18.8223 24.0061 18.6412 23.8668C18.614 23.8642 18.5867 23.8642 18.5591 23.8655Z" fill="#050301"/>
<path d="M19.4283 25.2293C19.4654 25.9046 19.1414 26.4722 18.704 26.4959C18.2666 26.5195 17.8823 25.9927 17.8449 25.316C17.8078 24.6407 18.132 24.0744 18.5693 24.0494C19.0063 24.0258 19.391 24.5539 19.4283 25.2293Z" fill="#050301"/>
<path d="M19.4283 25.2293C19.4654 25.9046 19.1414 26.4722 18.704 26.4959C18.2666 26.5195 17.8823 25.9927 17.8449 25.316C17.8078 24.6407 18.132 24.0744 18.5693 24.0494C19.0063 24.0258 19.391 24.5539 19.4283 25.2293Z" fill="#050301"/>
<path d="M18.2312 24.1756C18.2474 24.4699 18.4144 24.6985 18.6043 24.6893C18.7943 24.6788 18.9354 24.4318 18.9191 24.1388C18.9189 24.1335 18.9183 24.1296 18.918 24.1243C18.7564 23.9443 18.574 23.8011 18.3829 23.7013C18.2822 23.7985 18.2202 23.9759 18.2312 24.1756Z" fill="white"/>
<path d="M19.8121 26.22C19.7349 25.7719 19.6209 25.3279 19.4408 24.9087C19.21 24.374 18.8442 23.8011 18.2781 23.5725C17.8631 23.4043 17.3781 23.4267 17.0184 23.7104C16.5344 24.0941 16.3784 24.7589 16.3395 25.3449C16.3385 25.362 16.3373 25.3804 16.3362 25.3975C16.336 25.4014 16.3412 25.4001 16.3416 25.3975C16.4136 24.8167 16.5958 24.1703 17.0966 23.8116C17.4592 23.5528 17.907 23.5607 18.301 23.7407C18.854 23.9956 19.1976 24.5014 19.4349 25.0454C19.6077 25.4421 19.7084 25.8613 19.7818 26.2857C19.8534 26.7022 19.8685 27.1331 19.9636 27.5431C19.9668 27.5575 19.9895 27.5549 19.989 27.5391C19.9654 27.1016 19.8867 26.6522 19.8121 26.22ZM18.0389 27.5785C17.8568 27.4708 17.6656 27.3775 17.4896 27.2593C17.2984 27.1305 17.141 26.961 16.9908 26.7889C16.9863 26.7836 16.9775 26.7902 16.9816 26.7955C17.2475 27.1726 17.5931 27.4458 18.0296 27.6009C18.043 27.6061 18.0504 27.5864 18.0389 27.5785Z" fill="#050301"/>
<path d="M34.6439 39.2537C34.7714 38.1763 35.2286 37.2014 35.8554 36.3277C36.9775 34.7602 38.5424 33.5817 39.7499 32.0851C41.1203 30.3863 41.8233 28.2985 42.1544 26.1608C42.182 25.9834 42.2083 25.8048 42.2319 25.6248C42.2398 25.5656 42.2464 25.5052 42.2542 25.4447C42.2687 25.3252 42.2845 25.2069 42.2976 25.0887C42.3068 25.0085 42.3134 24.9284 42.3226 24.8482C42.3318 24.7497 42.3423 24.6498 42.3515 24.5513C42.3594 24.4593 42.3673 24.3673 42.3738 24.2767C42.3804 24.1887 42.3883 24.1006 42.3948 24.0126C42.4014 23.9141 42.4067 23.8155 42.4119 23.717C42.4172 23.6355 42.4224 23.5554 42.4264 23.4739C42.4316 23.3714 42.4343 23.2676 42.4382 23.1651C42.4408 23.0876 42.4448 23.0114 42.4461 22.9352C42.45 22.8301 42.4514 22.725 42.4527 22.6199C42.454 22.545 42.4553 22.4701 42.4553 22.3939C42.4553 22.2901 42.4553 22.1863 42.454 22.0825C42.454 22.0286 42.454 21.9761 42.4527 21.9248C42.4527 21.8657 42.4527 21.8066 42.4513 21.7488C42.3764 18.0988 41.9652 14.4133 40.3333 11.0918C36.6306 3.55405 26.0274 2.07988 19.4334 6.56286C17.7677 7.69543 16.1978 9.09079 14.9486 10.6727C14.1342 11.7028 13.3894 12.8393 12.7449 13.9837C10.9544 17.1607 10.8329 20.7844 9.6392 24.1519C8.1103 28.4654 4.09386 31.1313 2.18353 35.2319C5.66415 42.9799 12.9754 48.6349 21.7068 49.7832C24.9952 47.4878 24.869 43.5606 24.5889 39.8831C24.2533 39.9067 23.926 39.9067 23.6107 39.8765C21.2958 39.6584 20.0896 37.0201 18.0965 34.4948C17.2268 33.3938 16.5343 32.2914 16.0298 31.2508C16.0274 31.2114 16.0251 31.1707 16.023 31.1299C16.022 31.1129 16.0215 31.0958 16.0207 31.0774C16.0198 31.0564 16.019 31.0353 16.0182 31.0143C16.0152 30.9447 16.0122 30.875 16.0104 30.8054C16.0096 30.7831 16.0094 30.7594 16.0088 30.7371C16.0084 30.7213 16.0082 30.7069 16.0077 30.6924C16.0063 30.6201 16.0047 30.5479 16.0042 30.4756C16.0039 30.452 16.0042 30.4283 16.0039 30.4047C16.0039 30.3915 16.0039 30.3797 16.0039 30.3679C16.0036 30.293 16.0036 30.2181 16.0046 30.1432C16.0047 30.1169 16.0056 30.0893 16.0061 30.0617C16.0063 30.0552 16.0063 30.0473 16.0065 30.0407C16.0077 29.9632 16.0093 29.8844 16.0118 29.8068C16.0126 29.7766 16.0143 29.7477 16.0152 29.7175C16.018 29.6453 16.0203 29.573 16.0239 29.4994C16.0298 29.3838 16.0368 29.2681 16.045 29.1512C16.5767 21.6437 24.6156 15.7982 25.4126 11.7448C25.4126 11.7448 26.7413 15.199 29.3317 17.1922C31.9228 19.1854 33.6506 19.7832 34.3811 22.0418C34.4022 22.1062 34.4219 22.1679 34.4403 22.2297C34.4468 22.2507 34.4534 22.2704 34.4587 22.2901C34.4718 22.3308 34.4836 22.3716 34.4955 22.411C34.502 22.432 34.5086 22.4543 34.5139 22.4754C34.5257 22.5148 34.5375 22.5542 34.548 22.5923C34.5533 22.6094 34.5572 22.6278 34.5625 22.6448C34.5769 22.6987 34.5914 22.75 34.6045 22.7999C34.6085 22.8157 34.6124 22.8314 34.6163 22.8459C34.6255 22.8827 34.6347 22.9181 34.6439 22.9523C34.6479 22.972 34.6531 22.993 34.6584 23.0127C34.6663 23.0416 34.6728 23.0705 34.6794 23.0981C34.6833 23.1178 34.6886 23.1376 34.6925 23.156C34.6991 23.1862 34.707 23.2164 34.7136 23.2453C34.7162 23.2597 34.7201 23.2755 34.7228 23.29C34.732 23.3307 34.7398 23.3714 34.749 23.4095C34.7517 23.4279 34.7556 23.445 34.7596 23.4621C34.7635 23.4844 34.7688 23.5081 34.7727 23.5304C34.7766 23.5475 34.7793 23.5659 34.7832 23.583C34.7872 23.604 34.7911 23.625 34.795 23.6447C34.7977 23.6605 34.8003 23.6776 34.8042 23.6947C34.8082 23.7183 34.8121 23.7406 34.8161 23.7643C34.82 23.7827 34.8226 23.8024 34.8253 23.8208C34.8292 23.8431 34.8331 23.8668 34.8371 23.8891C34.8397 23.9035 34.8423 23.918 34.845 23.9325C34.8476 23.9482 34.8502 23.9653 34.8529 23.9811C34.8555 23.9955 34.8568 24.0113 34.8594 24.0244C34.862 24.0415 34.8647 24.0586 34.8673 24.0744C34.8699 24.0954 34.8739 24.1151 34.8765 24.1335C34.8804 24.1585 34.8844 24.1821 34.887 24.2044C34.8896 24.2176 34.8923 24.232 34.8936 24.2438C34.8962 24.2557 34.8975 24.2675 34.9001 24.278C34.9015 24.2898 34.9028 24.3004 34.9054 24.3122C34.9067 24.3227 34.9094 24.3345 34.9107 24.345C34.912 24.3555 34.9146 24.3647 34.9172 24.3752C34.9186 24.3844 34.9199 24.3949 34.9225 24.4055C34.9251 24.4225 34.9291 24.4383 34.933 24.4541C34.9343 24.4633 34.9369 24.4711 34.9383 24.479C34.9409 24.4882 34.9422 24.4961 34.9448 24.504C34.9461 24.5132 34.9488 24.5211 34.9514 24.529C34.9527 24.5369 34.9553 24.5434 34.958 24.55C34.9593 24.5579 34.9619 24.5658 34.9645 24.5736C34.9672 24.5802 34.9698 24.5868 34.9724 24.5934C34.9764 24.6052 34.9803 24.6157 34.9856 24.6262C34.9882 24.6328 34.9908 24.6393 34.9934 24.6446C34.9961 24.6511 35 24.6577 35.004 24.663C35.0066 24.6682 35.0092 24.6722 35.0118 24.6774C35.0158 24.6827 35.0184 24.688 35.0224 24.6932C35.025 24.6985 35.0289 24.7024 35.0315 24.7063C35.0355 24.7116 35.0394 24.7155 35.0447 24.7221C35.1025 24.7852 35.184 24.818 35.3114 24.8325C35.9093 24.8995 35.9093 23.7038 36.9065 23.1047C37.6923 22.633 38.0654 22.658 38.5792 22.8525C38.7723 23.0469 38.8971 23.2992 38.9615 23.5646C38.9707 23.6027 38.9786 23.6421 38.9852 23.6815C39.0942 24.3148 38.9826 24.9862 38.7999 25.5958C38.6212 26.1937 38.3755 26.7954 37.9971 27.2973C37.7277 27.6547 37.4071 27.9753 37.1049 28.3038C36.9262 28.4982 36.7489 28.694 36.5899 28.9055C36.4651 29.0711 36.3586 29.2498 36.2325 29.4127C36.0262 29.6768 35.7621 29.9527 35.4284 30.042C35.2707 30.0854 35.1156 30.088 34.9645 30.0604C34.6728 31.1851 34.3325 32.3164 33.8424 33.3714C33.4837 34.1414 32.9792 34.8903 32.3721 35.5893C32.3682 35.9282 32.3656 36.4827 32.38 37.1541C32.4234 39.1972 32.631 42.3177 33.443 43.7301C33.4653 43.7669 33.4864 43.8037 33.5074 43.8405C33.5139 43.851 33.5192 43.8615 33.5258 43.872C33.5415 43.8983 33.556 43.9246 33.5718 43.9495C33.5783 43.9614 33.5849 43.9732 33.5915 43.9837C33.6059 44.01 33.6217 44.0349 33.6362 44.0599C33.6414 44.0691 33.648 44.0796 33.6532 44.0888C33.6703 44.1164 33.6861 44.144 33.7032 44.1716C33.7071 44.1782 33.711 44.1847 33.715 44.1913C33.8004 44.3319 33.8832 44.4659 33.9646 44.5933C34.7793 45.8665 35.4402 46.4591 36.7147 47.0884C37.461 46.6916 38.185 46.2594 38.8853 45.7916C38.2533 45.2358 37.4663 44.6814 36.6398 44.2977C34.7149 43.4043 34.4219 41.1418 34.6439 39.2537Z" fill="#9A1638"/>
</svg>
