<svg width="50" height="50" viewBox="0 0 50 50" fill="none" xmlns="http://www.w3.org/2000/svg">
<path d="M50.0001 25C50.0001 38.8067 38.8072 50 25.0001 50C11.1929 50 0 38.8067 0 25C0 11.1933 11.1929 0 25.0001 0C38.8072 0 50.0001 11.1933 50.0001 25Z" fill="#FDDB84"/>
<path d="M35.1009 47.8741C34.8095 47.5548 34.5337 47.1803 34.2373 46.7152C34.2073 46.6692 34.177 46.6206 34.1466 46.572C34.1319 46.5483 34.1172 46.5247 34.1025 46.4997C34.0789 46.4616 34.0549 46.4235 34.0311 46.3841C34.0134 46.3539 33.9958 46.325 33.9778 46.296C33.9548 46.2566 33.9314 46.2172 33.9076 46.1778C33.89 46.1476 33.8727 46.1187 33.855 46.0885C33.8142 46.0188 33.7731 45.9479 33.731 45.8756C32.9124 44.4539 32.7085 41.3005 32.6663 39.2587C32.6656 39.2166 32.6648 39.1759 32.6638 39.1339C32.6636 39.1115 32.6631 39.0879 32.6625 39.0655C32.6617 39.0209 32.6613 38.9762 32.6608 38.9328C32.6604 38.9013 32.6598 38.8698 32.6595 38.8382C32.6592 38.8067 32.6587 38.7738 32.6585 38.7423C32.6583 38.716 32.6581 38.6884 32.6578 38.6622C32.6577 38.6346 32.6575 38.6083 32.6574 38.5833C32.657 38.5413 32.6569 38.5019 32.6567 38.4625C32.6566 38.4349 32.6565 38.4086 32.6565 38.3823C32.6565 38.356 32.6565 38.3311 32.6565 38.3048C32.6565 38.2851 32.6565 38.2654 32.6565 38.2457C32.6566 38.2194 32.6566 38.1931 32.6567 38.1681C32.6567 38.1668 32.6567 38.1655 32.6567 38.1642C32.657 38.1037 32.6574 38.0472 32.6578 37.9934C32.6578 37.9789 32.6581 37.9645 32.6581 37.9513C32.6583 37.9277 32.6585 37.9053 32.6587 37.883C32.6587 37.8725 32.6587 37.8633 32.659 37.8528C32.6595 37.8134 32.6602 37.7753 32.6604 37.7411C32.6606 37.7306 32.6608 37.7188 32.6608 37.7083C32.6612 37.6899 32.6615 37.6715 32.6617 37.6544C32.6617 37.6465 32.662 37.6386 32.662 37.632C32.6625 37.5979 32.6633 37.5677 32.6638 37.5401C32.6638 37.5361 32.6641 37.5322 32.6641 37.5282C32.6644 37.5151 32.6648 37.502 32.665 37.4915C32.6652 37.4836 32.6653 37.4757 32.6656 37.4691C32.6658 37.4612 32.6658 37.4534 32.6659 37.4468C32.6662 37.4323 32.6665 37.4205 32.6669 37.4113C32.6669 37.4061 32.6671 37.4008 32.6671 37.3968C32.6674 37.3929 32.6674 37.3877 32.6674 37.385C32.6677 37.3824 32.6677 37.3798 32.6677 37.3771C32.6679 37.3745 32.6679 37.3706 32.6679 37.3706L24.8287 41.4897C24.8443 41.6434 24.8578 41.7932 24.8695 41.9404C24.8736 41.989 24.8764 42.035 24.8798 42.0836C24.8871 42.1822 24.894 42.2794 24.8996 42.3766C24.9029 42.4318 24.9051 42.4857 24.9078 42.5395C24.9121 42.6263 24.9159 42.713 24.9188 42.7984C24.9208 42.8536 24.922 42.9088 24.9235 42.9639C24.9254 43.0454 24.9266 43.1269 24.9273 43.207C24.9279 43.2609 24.9283 43.3148 24.9283 43.3686C24.9279 43.4475 24.9268 43.5263 24.9256 43.6051C24.9247 43.6551 24.9241 43.7063 24.9225 43.7549C24.9202 43.8377 24.9167 43.9192 24.9131 43.9993C24.911 44.0427 24.9096 44.0847 24.9072 44.1268C24.9015 44.2345 24.8938 44.3396 24.8854 44.4434C24.8842 44.4566 24.8838 44.471 24.8825 44.4841C24.8725 44.6011 24.861 44.7141 24.8482 44.8271C24.8438 44.8626 24.8388 44.898 24.8343 44.9348C24.825 45.0097 24.8153 45.0846 24.8045 45.1569C24.7984 45.1989 24.7915 45.241 24.7848 45.2817C24.7744 45.3474 24.7639 45.4118 24.7523 45.4762C24.7446 45.5182 24.7364 45.5603 24.7285 45.6023C24.7166 45.6627 24.7042 45.7232 24.6912 45.7836C24.6826 45.8244 24.6736 45.8651 24.6642 45.9045C24.6506 45.9649 24.6362 46.0241 24.6215 46.0819C24.6121 46.1187 24.6025 46.1568 24.5927 46.1936C24.5763 46.2553 24.5585 46.3158 24.541 46.3762C24.5318 46.4077 24.5232 46.4393 24.5137 46.4695C24.4897 46.5483 24.4646 46.6245 24.439 46.6994C24.4349 46.7099 24.4312 46.7218 24.4275 46.7336C23.8888 48.2774 22.9734 49.213 21.9658 49.8161C22.9605 49.9369 23.9729 50 25.0001 50C28.595 50 32.0119 49.2392 35.1009 47.8741Z" fill="#F47357"/>
<path d="M38.749 24.9513C38.62 24.858 38.1201 24.7188 37.9828 24.682C38.315 22.0909 39.1422 17.2688 35.5592 13.4466C31.5279 9.14748 26.018 9.14748 22.9943 9.8859C19.9707 10.6256 16.4094 13.649 15.6703 16.9417C14.9315 20.233 15.3945 21.2277 15.0625 22.2906C14.7304 23.3536 14.1325 24.8147 14.9294 26.4098C14.9294 26.4098 15.3283 28.0036 15.3283 29.7971C15.3283 31.5906 16.3911 34.1159 18.3841 36.64C20.3775 39.1653 21.5835 41.8037 23.8985 42.0218C27.4194 42.3542 32.4236 39.1811 34.1296 35.5166C34.6242 34.4536 34.9661 33.3144 35.2592 32.1805C35.8175 32.283 36.2672 31.9125 36.6566 31.3291C37.1549 30.5815 37.8026 30.0835 38.3008 29.3858C39.0479 28.3399 39.8453 25.7489 38.749 24.9513Z" fill="#F57760"/>
<path d="M16.6123 16.7775C16.9506 15.8197 17.48 14.9459 18.3138 14.2495C19.8465 12.9671 22.0563 12.3745 24.0318 12.5033C25.0741 12.5716 26.3298 12.8318 27.2609 13.3272C28.9658 14.2324 29.9258 15.2034 30.2265 17.1599C30.3533 17.9824 30.3504 18.8233 30.5031 19.6432C30.5307 19.793 31.193 21.7086 31.4747 21.4643C31.4746 21.4643 30.3287 22.4602 30.1793 22.4602C30.0301 22.4602 15.3316 23.0081 15.3316 23.0081L14.9828 22.8097C14.9828 22.8097 15.9794 21.4143 16.0292 20.3172C16.0839 19.1202 16.2185 17.8917 16.6123 16.7775Z" fill="#F57760"/>
<path d="M20.6099 33.1528C20.6099 33.1528 20.6434 33.5181 21.1746 33.5838C21.7061 33.6508 22.0713 33.4183 22.2707 32.9531C22.4702 32.488 22.8687 30.0297 22.7359 27.3401L20.7428 27.3729C20.7428 27.3729 21.1082 30.1624 21.0417 31.0598C20.9752 31.9559 20.6099 33.1528 20.6099 33.1528Z" fill="#F57760"/>
<path d="M20.7318 32.6326C20.7318 32.6326 20.9976 32.4329 21.2632 32.4329C21.5292 32.4329 22.5036 32.8087 22.5036 32.8087L22.6362 32.5433C22.6362 32.5433 21.6177 32.1451 21.2632 32.1451C21.2632 32.1451 21.064 32.1451 20.8867 32.2778L20.7318 32.6326Z" fill="#F57760"/>
<path d="M26.9407 29.4607C26.9407 30.1072 26.4163 30.6315 25.7699 30.6315C25.1231 30.6315 24.5991 30.1072 24.5991 29.4607C24.5991 28.8143 25.1231 28.29 25.7699 28.29C26.4163 28.29 26.9407 28.8143 26.9407 29.4607Z" fill="#F57760"/>
<path d="M20.8591 29.3872C20.9091 29.9903 20.5552 30.5119 20.0685 30.5526C19.5816 30.5934 19.1467 30.1374 19.0964 29.5344C19.0464 28.93 19.4003 28.4083 19.8871 28.3676C20.3738 28.3282 20.8092 28.7841 20.8591 29.3872Z" fill="#F57760"/>
<path d="M34.592 33.572C33.3823 35.6809 31.1592 36.6769 29.6262 35.7965C28.0929 34.9175 27.8307 32.4959 29.0402 30.3871C30.2498 28.2783 32.4731 27.2823 34.0063 28.1613C35.5392 29.0417 35.8016 31.4632 34.592 33.572Z" fill="#F57760"/>
<path d="M19.1162 31.5012C18.4236 29.4344 16.6933 27.9931 15.2414 28.269C15.2921 28.7341 15.3284 29.2571 15.3284 29.7971C15.3284 31.3896 16.1667 33.5575 17.749 35.7912C19.1977 35.4916 19.8099 33.5733 19.1162 31.5012Z" fill="#F57760"/>
<path d="M15.4812 26.5465C15.4812 26.5465 14.9829 23.0081 16.2285 22.4602C17.474 21.9123 19.0185 22.5601 19.0185 22.5601L19.866 23.606L19.9653 23.9555C19.9653 23.9555 20.4637 26.1471 20.3143 29.6855L18.8691 28.5384C18.8691 28.5384 17.6734 27.3427 17.4243 27.2928C17.1753 27.2429 16.1787 27.2429 16.1787 27.2429L15.4812 26.5465Z" fill="#F57760"/>
<path d="M25.3463 29.4359C25.3463 29.4359 24.35 24.2537 25.5457 22.6599C26.7416 21.0648 28.6846 21.2146 28.6846 21.2146L30.7773 21.4144C30.7773 21.4144 32.7203 21.9622 33.1188 22.4103C33.1188 22.4103 33.1188 25.3009 31.8236 27.9406L25.3463 29.4359Z" fill="#F57760"/>
<path d="M20.4881 33.4958C20.4625 33.6114 20.8545 33.8479 20.9292 33.8795C21.4525 34.1055 22.0506 33.8243 22.5477 33.6508C22.9906 33.4958 23.6992 33.8939 23.7657 34.1383C23.7657 34.1383 23.7879 34.4261 23.6106 34.4707C23.4335 34.5141 20.7982 34.4917 20.7982 34.4917L20.5103 34.3157L20.3995 33.8939C20.3995 33.8939 20.4878 33.4971 20.4881 33.4958Z" fill="#F57760"/>
<path d="M20.4438 33.8164C20.4438 33.8164 20.6099 34.2816 21.3075 34.2487C22.0052 34.2159 22.4369 33.8834 22.6695 33.8164C22.9017 33.7507 23.7325 33.9833 23.6992 34.2487L23.6326 34.5141C23.6326 34.5141 23.2341 36.2748 22.4369 36.3089C21.6398 36.3418 21.7726 35.179 21.2078 34.9135C21.2078 34.9135 20.4438 34.4484 20.4438 33.8164Z" fill="#F57760"/>
<path d="M23.0016 39.896C23.0016 39.896 24.0647 39.9617 24.3634 39.896C24.3634 39.896 24.1974 40.461 23.8652 40.4268C23.533 40.3939 23.0016 39.896 23.0016 39.896Z" fill="#F57760"/>
<path d="M19.9786 36.8069L19.7794 37.272C19.7794 37.272 19.3478 36.8069 19.9786 36.8069Z" fill="#F57760"/>
<path d="M29.2463 36.6071L29.612 37.1721C29.612 37.1721 30.0438 36.6741 29.2463 36.6071Z" fill="#F57760"/>
<path d="M28.0369 23.9055C28.0369 23.9055 29.4818 23.2578 31.4249 24.2537C31.4249 24.2537 29.5815 22.5601 28.0369 23.9055Z" fill="#CF3E21"/>
<path d="M18.9343 24.3916C18.9343 24.3916 17.8279 23.8634 16.4585 24.887C16.4585 24.887 17.7096 23.2209 18.9343 24.3916Z" fill="#CF3E21"/>
<path d="M38.2652 25.3127L37.9885 25.5768C37.692 25.7555 37.0528 26.6923 37.0528 26.6923L36.6823 27.2678L36.6709 27.256C36.4715 27.4386 36.0726 28.3689 36.0726 28.3689L36.0935 28.4346L36.0726 28.4517C36.0927 28.4779 36.1097 28.5042 36.1247 28.5305L36.2002 28.7657C36.2388 29.1047 36.0065 29.4161 36.0065 29.4161C36.0065 29.4161 36.5711 29.2163 36.6874 28.8169C36.7802 28.4989 36.5761 28.2441 36.4903 28.1547C36.5494 28.0154 36.6079 27.8867 36.6543 27.8039C36.8034 27.5385 37.0528 27.6212 37.0528 27.6212L36.912 27.4872L36.9695 27.5056C36.8867 27.3401 37.2852 26.9406 37.2852 26.9406L37.276 26.9314C37.4278 27.0484 37.6008 27.1574 37.6008 27.1574C37.6008 27.1574 37.4346 26.7081 37.6008 26.4427C37.7229 26.2469 38.0502 26.0524 38.216 25.9631C38.383 26.1405 38.5862 26.3862 38.7467 26.6752C38.7467 26.6752 38.4977 25.5623 38.2652 25.3127ZM37.0695 28.7184L37.169 28.1534C37.169 28.1534 36.9365 28.2861 37.0695 28.7184ZM37.4512 29.0836C37.7999 28.4188 37.634 27.9708 37.634 27.9708C37.5011 28.4017 37.4512 29.0836 37.4512 29.0836ZM38.4146 27.0733C38.5808 27.5214 38.2485 28.8012 38.2485 28.8012C38.7798 27.888 38.6968 27.1732 38.6968 27.1732L38.4146 27.0733Z" fill="#F57760"/>
<path d="M21.064 34.5587C21.064 34.5587 21.7061 34.9569 21.9941 34.9358C22.2817 34.9135 22.4592 34.6691 22.5254 34.4917C22.5254 34.4917 21.6397 34.7138 21.064 34.5587Z" fill="#F57760"/>
<path d="M39.2728 25.8265C39.2182 25.5111 39.0826 25.2063 38.8512 24.9816C38.5 24.64 37.9895 24.5861 37.5428 24.7451C37.3161 24.8253 37.1233 24.9645 36.9527 25.1301C36.8691 25.2115 36.8388 25.314 36.7823 25.4113C36.7175 25.5243 36.6621 25.6425 36.6037 25.7581C36.3482 26.2666 36.1186 26.7961 35.7586 27.2429C35.7574 27.2442 35.7595 27.2468 35.7607 27.2442C36.0273 26.9236 36.2239 26.5544 36.4143 26.1839C36.5078 26.0025 36.6007 25.8199 36.7058 25.6452C36.8069 25.4757 36.9253 25.2681 37.0908 25.1537C37.4659 24.8988 37.8428 24.7228 38.3097 24.8095C38.6573 24.8752 38.9448 25.113 39.0943 25.4284C39.3783 26.0262 39.2663 26.7804 39.1204 27.3979C38.9655 28.0522 38.7067 28.6658 38.3674 29.244C37.9396 29.9719 37.243 30.5001 36.7424 31.1741C36.5001 31.5 36.2833 31.839 35.9193 32.044C35.5395 32.2568 35.1345 32.1596 34.7761 31.9546C34.7472 31.9375 34.7225 31.9809 34.7501 31.9993C35.0428 32.1859 35.3738 32.2805 35.7157 32.1885C36.0502 32.0978 36.314 31.8219 36.5195 31.5578C36.6467 31.3949 36.7527 31.2162 36.8774 31.0506C37.0356 30.8404 37.2133 30.6433 37.3918 30.4502C37.6947 30.1204 38.0157 29.7998 38.2846 29.4424C38.6624 28.9405 38.9082 28.3387 39.088 27.7409C39.2706 27.1312 39.3816 26.4598 39.2728 25.8265ZM35.7082 30.1335C35.7082 30.1348 35.7112 30.1348 35.7112 30.1335C35.7503 29.7722 35.9723 29.5107 36.1457 29.2072C36.3004 28.9392 36.3053 28.6843 36.1657 28.4057C36.1277 28.3295 36.0114 28.3965 36.051 28.4727C36.2205 28.7999 36.1979 29.06 36.006 29.3662C35.8528 29.6106 35.7276 29.8392 35.7082 30.1335ZM38.2976 25.3968C38.356 25.3495 38.2774 25.2483 38.2176 25.293C38.0069 25.452 37.8229 25.6635 37.6458 25.8606C37.4387 26.0892 37.2512 26.3363 37.0741 26.5885C36.7018 27.1194 36.3504 27.6844 36.092 28.2796C36.0825 28.3019 36.1131 28.3216 36.1249 28.2993C36.2863 27.9918 36.4484 27.6883 36.6219 27.3913C36.622 27.4084 36.6336 27.4268 36.6566 27.4281C37.0852 27.457 37.2394 27.9209 37.1514 28.2888C37.1502 28.2927 37.1566 28.2953 37.1582 28.2914C37.2866 27.9274 37.1087 27.3716 36.6566 27.3572C36.65 27.3572 36.6445 27.3585 36.6399 27.3611C36.7659 27.1456 36.8984 26.9341 37.0414 26.7278C37.1 26.8907 37.1845 26.9748 37.3407 27.0668C37.4235 27.1167 37.5176 27.1614 37.5894 27.2258C37.6823 27.3086 37.6746 27.4702 37.6684 27.5832C37.6412 28.0917 37.4177 28.5712 37.4532 29.0863C37.4532 29.0876 37.4544 29.0876 37.4541 29.0863C37.4222 28.5594 37.6641 28.0628 37.6997 27.5411C37.7123 27.3611 37.7179 27.1903 37.565 27.0708C37.4097 26.9486 37.1622 26.8737 37.0752 26.6832C37.0749 26.6832 37.0741 26.6818 37.0736 26.6805C37.2536 26.4256 37.4525 26.1825 37.6641 25.9526C37.8591 25.7397 38.0749 25.5755 38.2976 25.3968Z" fill="#F57760"/>
<path d="M20.961 30.7313C21.0777 31.2819 21.0001 31.8035 20.8244 32.3317C20.6841 32.7521 20.4437 33.145 20.3491 33.5799C20.2695 33.9452 20.3523 34.2894 20.6071 34.5667C20.7913 34.7664 21.0308 34.8951 21.282 34.9898C21.4444 35.0502 21.6131 35.0725 21.7826 35.1054C21.939 35.1356 22.1065 35.1671 22.2651 35.1448C22.2939 35.1395 22.2931 35.0922 22.2651 35.087C22.1124 35.0607 21.9574 35.0568 21.8047 35.0266C21.6277 34.9898 21.4553 34.8965 21.2948 34.8163C21.0631 34.702 20.8383 34.5614 20.6716 34.3604C20.428 34.0687 20.4825 33.6863 20.5617 33.3434C20.6579 32.9269 20.8266 32.5314 20.9302 32.1162C21.0439 31.6577 21.0805 31.1925 20.9627 30.7313C20.9625 30.73 20.9609 30.73 20.961 30.7313Z" fill="#CF3E21"/>
<path d="M22.8201 34.7125C22.7381 34.5102 22.8915 34.4655 23.062 34.4537C23.2304 34.4432 23.3857 34.4287 23.5493 34.4813C23.5656 34.4866 23.5723 34.4603 23.5561 34.455C23.3505 34.388 23.1313 34.3052 22.9149 34.3683C22.7348 34.4208 22.716 34.5772 22.7922 34.7244C22.8001 34.7401 22.8265 34.7296 22.8201 34.7125Z" fill="#CF3E21"/>
<path d="M23.5064 34.6731C23.7705 34.4931 23.8472 34.1213 23.8175 33.8204C23.8157 33.7994 23.7886 33.8007 23.7864 33.8204C23.7484 34.1502 23.7378 34.4077 23.4984 34.6626C23.4932 34.6679 23.4998 34.6771 23.5064 34.6731Z" fill="#CF3E21"/>
<path d="M22.8188 34.5732C22.8188 34.5732 22.794 34.4064 23.2841 34.4563C23.2841 34.4563 23.0348 34.6468 22.8188 34.5732Z" fill="#6F1417"/>
<path d="M20.355 37.0617C20.355 37.0617 21.0274 36.4836 21.5147 36.3943C21.8244 36.3378 22.0706 36.6111 22.3656 36.6426C22.7134 36.6794 23.0098 36.4757 23.3534 36.4613C23.8628 36.4389 24.1284 36.5112 25.147 36.7096C26.1659 36.9093 28.6153 36.9277 28.8371 36.9067C28.8371 36.9067 27.4195 37.7029 27.0211 37.7029C26.6224 37.7029 23.9206 37.9697 23.81 37.992C23.6992 38.013 22.4146 37.925 22.1711 37.925L20.355 37.0617Z" fill="#F57760"/>
<path d="M27.3578 37.0303C27.1016 37.0894 26.8372 37.1932 26.5211 37.1932C25.7593 37.1932 22.5723 37.2576 22.4877 37.2904C22.4031 37.3233 20.9648 37.2576 20.8801 37.2576C20.7955 37.2576 20.288 37.2576 20.288 37.2576C20.288 37.2576 20.5417 37.7135 20.8237 38.0709C20.8426 38.0946 20.8599 38.1195 20.8762 38.1458C20.8819 38.155 20.8867 38.1642 20.8921 38.1734C20.9022 38.1905 20.9122 38.2076 20.9215 38.2246C20.9275 38.2365 20.9331 38.2483 20.9385 38.2601C20.946 38.2759 20.9539 38.293 20.961 38.3087C20.9666 38.3219 20.9719 38.335 20.9772 38.3481C20.9833 38.3639 20.9893 38.3797 20.9952 38.3954C21.1142 38.72 21.1521 39.0879 21.3315 39.2745C21.6134 39.5675 23.2494 39.892 24.2081 39.4374C24.5369 39.281 25.0925 38.9263 25.681 38.5295C26.7435 37.8108 27.9115 36.9501 28.0408 36.8555C28.0484 36.849 28.0531 36.8463 28.0531 36.8463C28.0531 36.8463 27.7183 36.9475 27.3578 37.0303Z" fill="#EF2A4C"/>
<path d="M28.0602 36.8371C28.0581 36.8371 28.056 36.8384 28.0539 36.8398L27.4235 36.933C26.8312 37.0303 25.985 37.0947 25.1389 37.0303C24.2928 36.9646 23.3059 36.6729 22.8262 36.7701C22.3466 36.8673 22.0647 37.1275 22.0647 37.1275C22.0647 37.1275 21.5572 36.6729 21.3315 36.6729C21.1059 36.6729 20.7393 36.8673 20.4855 37.0303C20.2505 37.1801 19.9097 36.9725 19.8602 36.9396C19.8582 36.9383 19.8561 36.937 19.8541 36.9343C19.8531 36.9343 19.8519 36.9356 19.8529 36.937C19.9194 37.0027 19.9885 37.0605 20.0586 37.1143C20.0648 37.1196 20.0708 37.1236 20.0771 37.1288C20.1063 37.1512 20.1361 37.1735 20.1659 37.1932C20.4517 37.3942 20.7581 37.5203 21.0398 37.5926C21.1748 37.6347 21.3113 37.6728 21.4498 37.7096C21.4597 37.7122 21.5513 37.7135 21.5582 37.728C21.5821 37.7753 21.6178 37.8199 21.6557 37.8528C21.7493 37.9342 21.855 37.9737 21.9697 37.9973C22.0911 38.0223 22.2146 38.0262 22.3363 38.0039C22.4473 37.9842 22.5956 37.9907 22.6947 37.925C22.7003 37.9211 22.7015 37.9145 22.7001 37.908L23.0652 37.8147C23.0655 37.816 23.0665 37.8186 23.0685 37.8186C23.8892 37.8449 24.7187 37.7621 25.5312 37.632C25.969 37.5624 26.4032 37.4678 26.8318 37.3417C27.0363 37.2825 27.239 37.2155 27.4389 37.1367C27.6521 37.0526 27.8525 36.9383 28.0608 36.8398C28.0622 36.8384 28.0615 36.8358 28.0602 36.8371Z" fill="#D41C2D"/>
<path d="M24.9099 23.6388C24.918 23.6322 25.8082 23.2065 26.6804 22.5955C27.133 22.2776 27.5908 21.9504 28.5614 21.7231C29.5157 21.53 30.9827 21.4354 33.079 22.3617C33.2165 22.3564 33.3551 22.3551 33.4948 22.3577C33.4907 22.3656 32.2821 21.6298 30.5591 21.1358C28.8289 20.6391 27.2523 20.8888 26.0511 21.5352C24.8172 22.2027 24.3692 23.2617 24.9099 23.6388Z" fill="#050301"/>
<path d="M25.601 23.2262C25.3178 23.3891 25.09 23.5113 24.9834 23.5652C24.8653 23.4535 24.8111 23.2998 24.8339 23.104C24.8808 22.6638 25.3548 22.0489 26.1291 21.635C26.4181 21.4787 26.7289 21.3486 27.0476 21.2487C28.0861 20.9242 29.2997 20.9006 30.5395 21.2842C31.7396 21.6508 32.6884 22.1488 33.1401 22.4089C33.117 22.4076 33.0936 22.4076 33.0701 22.4076C31.4895 21.6206 30.0667 21.4892 29.0013 21.6127C27.8332 21.7651 27.2521 22.1448 26.7792 22.4654C26.7311 22.4996 26.6843 22.5324 26.6378 22.5653C26.324 22.7926 25.9772 23.0081 25.601 23.2262Z" fill="#050301"/>
<path d="M20.0088 24.029C19.9975 24.0224 19.4691 23.8424 18.9285 23.3155C18.6522 23.0554 18.3788 22.7716 17.8383 22.606C17.3161 22.4615 16.493 22.4273 15.3968 23.1802C15.3089 23.1526 15.2197 23.1276 15.1289 23.104C15.1364 23.1119 15.7596 22.5167 16.7 22.0226C17.5534 21.5785 18.441 21.7138 19.1376 22.1487C19.8928 22.6191 20.2637 23.4863 20.0088 24.029Z" fill="#050301"/>
<path d="M19.5683 23.7439C19.7407 23.8477 19.8806 23.9121 19.9468 23.941C19.9985 23.7873 20.0119 23.6151 19.9751 23.422C19.9006 23.0055 19.5667 22.5233 19.1017 22.2342C18.9313 22.1278 18.7525 22.041 18.5738 21.978C17.9945 21.7717 17.3349 21.7967 16.7235 22.1422C16.0836 22.5035 15.6013 22.924 15.3589 23.1434C15.3741 23.1474 15.3894 23.1513 15.4041 23.1553C16.2296 22.5285 17.0121 22.3984 17.5906 22.4891C18.2214 22.5942 18.5726 22.9056 18.8535 23.171C18.8828 23.1986 18.9113 23.2275 18.9396 23.2551C19.1331 23.4443 19.341 23.6059 19.5683 23.7439Z" fill="#050301"/>
<path d="M28.585 29.4358L29.5317 29.9338C29.5317 29.9338 30.8769 29.2361 31.7736 28.838L31.8732 27.6423L28.635 29.2361L28.585 29.4358Z" fill="#050301"/>
<path d="M31.7044 26.0393C31.7044 26.0393 32.9378 25.3062 33.3117 24.2971C33.3117 24.2971 33.2171 25.6005 31.7228 26.6188L31.7044 26.0393Z" fill="#050301"/>
<path d="M32.0703 26.3428C32.0703 26.3428 32.5353 25.9775 32.7344 25.4454C32.7344 25.4454 31.4055 24.3168 29.0473 24.5493C26.7 24.7806 25.8915 27.4728 25.4597 29.1664L27.7518 28.3689L32.0703 26.3428Z" fill="#050301"/>
<path d="M25.6989 28.9077C25.921 28.0773 26.2142 27.1654 26.6777 26.3954C27.2994 25.3614 28.0799 24.8108 29.0635 24.7149C29.2704 24.6939 29.478 24.6834 29.6806 24.6834C31.2321 24.6834 32.2298 25.2891 32.5309 25.5007C32.3547 25.8738 32.0487 26.1445 31.9809 26.201L27.6886 28.2152L25.6989 28.9077Z" fill="#050301"/>
<path d="M28.8343 25.3495C26.9408 25.5992 25.8447 27.842 25.3463 29.4857C25.3463 29.4857 25.8925 29.3491 26.376 29.3373C27.1681 29.5436 28.0602 29.6092 28.645 29.629C28.6581 29.6316 28.6716 29.6329 28.6846 29.6355C29.3823 29.7341 29.2824 29.6355 29.2824 29.6355C30.03 29.4358 30.7773 29.1862 31.3253 28.6383C31.3253 28.6383 32.0229 27.842 32.0229 26.5951V26.2469C31.1758 25.5991 30.0301 25.201 28.8343 25.3495Z" fill="white"/>
<path d="M31.469 27.168C31.469 26.6056 31.3007 26.0866 31.0154 25.6635C30.3532 25.385 29.604 25.2536 28.8343 25.3495C27.9783 25.4625 27.2852 25.9828 26.7369 26.67C26.7075 26.8316 26.6918 26.9972 26.6918 27.168C26.6918 28.3176 27.3947 29.29 28.3637 29.6171C28.4631 29.6224 28.5576 29.6263 28.6451 29.629C28.6581 29.6316 28.6717 29.6329 28.6847 29.6355C29.3824 29.7341 29.2825 29.6355 29.2825 29.6355C29.7237 29.5173 30.1645 29.3819 30.5646 29.1783C31.1153 28.7079 31.469 27.9826 31.469 27.168Z" fill="#5FBB7E"/>
<path d="M29.0801 29.3977C30.2268 29.3977 31.1561 28.3991 31.1561 27.168C31.1561 26.4821 30.8676 25.8685 30.4141 25.4586C29.9138 25.3285 29.379 25.2825 28.8343 25.3495C28.2238 25.431 27.6966 25.7174 27.245 26.126C27.0916 26.4361 27.0046 26.7909 27.0046 27.168C27.0046 28.3991 27.934 29.3977 29.0801 29.3977Z" fill="#5FBB7E"/>
<path d="M30.5479 27.1679C30.5479 28.0391 29.891 28.7446 29.0801 28.7446C28.2699 28.7446 27.6124 28.0391 27.6124 27.1679C27.6124 26.2968 28.2699 25.5899 29.0801 25.5899C29.891 25.5899 30.5479 26.2968 30.5479 27.1679Z" fill="#050301"/>
<path d="M30.3558 27.168C30.3558 27.9248 29.7846 28.5384 29.0801 28.5384C28.3757 28.5384 27.8048 27.9248 27.8048 27.168C27.8048 26.4111 28.3757 25.7976 29.0801 25.7976C29.7846 25.7976 30.3558 26.4111 30.3558 27.168Z" fill="#050301"/>
<path d="M30.3558 27.168C30.3558 27.9248 29.7846 28.5384 29.0801 28.5384C28.3757 28.5384 27.8048 27.9248 27.8048 27.168C27.8048 26.4111 28.3757 25.7976 29.0801 25.7976C29.7846 25.7976 30.3558 26.4111 30.3558 27.168Z" fill="#050301"/>
<path d="M28.526 25.9171C28.526 26.2469 28.7743 26.5137 29.0801 26.5137C29.3865 26.5137 29.6346 26.2469 29.6346 25.9171C29.6346 25.6057 29.4113 25.3509 29.1274 25.3246C29.0717 25.3272 29.0158 25.3311 28.9596 25.3364C28.7119 25.3955 28.526 25.6333 28.526 25.9171Z" fill="white"/>
<path d="M32.0328 26.2364C30.8548 25.159 28.8666 24.8344 27.5309 25.7989C26.9533 26.2167 26.5243 26.8001 26.1852 27.4189C25.847 28.0365 25.5729 28.6961 25.3749 29.3714C25.3638 29.4095 25.3536 29.4463 25.3431 29.4844C25.3418 29.4883 25.3485 29.491 25.3496 29.4857C25.7797 28.1968 26.3943 26.8487 27.5054 26.0025C28.1143 25.5387 28.82 25.3758 29.5776 25.4152C30.4571 25.4612 31.2758 25.8028 32.0158 26.2587C32.0292 26.2666 32.0446 26.2482 32.0328 26.2364ZM31.3219 28.6356C31.0308 28.8853 30.7167 29.0902 30.3671 29.2479C30.0163 29.4069 29.6446 29.5068 29.2818 29.6329C29.2784 29.6329 29.2798 29.6381 29.2833 29.6381C30.0089 29.4988 30.8232 29.2059 31.3286 28.6422C31.3327 28.6369 31.3263 28.6317 31.3219 28.6356Z" fill="#050301"/>
<path d="M17.0258 28.6882V29.1862C17.0258 29.1862 17.7732 29.5856 18.5207 30.0836L19.2678 29.5357L17.0258 28.6882Z" fill="#050301"/>
<path d="M16.7566 27.6384C16.7566 27.6384 15.5145 27.0773 14.9828 26.0472C14.9828 26.0472 16.2252 27.2061 16.9228 27.3401L16.7566 27.6384Z" fill="#050301"/>
<path d="M16.6902 27.5056C16.6902 27.5056 16.3581 27.4386 15.9593 27.0077C15.9593 27.0077 15.9777 25.5413 17.2548 25.0473C18.2845 24.6492 19.1118 25.4572 19.5452 26.3218C19.7892 26.8093 19.8928 27.344 19.9815 27.8788C20.0202 28.1127 20.0247 29.2203 20.2111 29.3661C20.2111 29.3648 19.0153 28.4359 18.8828 28.4017C18.7497 28.3689 16.6902 27.5056 16.6902 27.5056Z" fill="#050301"/>
<path d="M19.9026 28.9181C19.0575 28.2743 18.9587 28.2506 18.9227 28.2414C18.8121 28.2099 17.5339 27.679 16.7543 27.3519L16.7408 27.3466L16.7245 27.3427C16.7219 27.3427 16.4576 27.2796 16.1289 26.9446C16.149 26.666 16.2931 25.5978 17.3147 25.2023C17.4749 25.1406 17.6356 25.109 17.7923 25.109C18.6825 25.109 19.2453 26.0932 19.3965 26.3954C19.6314 26.8644 19.7297 27.3769 19.8175 27.9051C19.8267 27.9602 19.8351 28.0929 19.8438 28.2322C19.8616 28.5121 19.8792 28.7381 19.9026 28.9181Z" fill="#050301"/>
<path d="M16.6271 27.5424L16.6769 27.7421C16.8764 28.4398 17.2748 28.9378 17.2748 28.9378C17.6044 29.3635 17.8564 29.5173 18.3212 29.734C18.9331 30.0205 19.7601 29.307 20.2642 29.6854C20.1148 28.6382 20.065 27.5424 19.4171 26.5452C18.5861 25.2667 16.8265 25.2509 16.6271 27.5424Z" fill="white"/>
<path d="M17.8959 25.6871C17.5825 26.126 17.4026 26.779 17.4422 27.499C17.5118 28.7644 18.2322 29.7537 19.0512 29.7091C19.5115 29.6828 19.9051 29.3359 20.1489 28.813C20.042 28.043 19.8867 27.2678 19.4171 26.5451C19.0283 25.9473 18.4362 25.6254 17.8959 25.6871Z" fill="#5FBB7E"/>
<path d="M17.6366 27.4885C17.697 28.5883 18.3233 29.4476 19.0345 29.4082C19.5016 29.3832 19.8895 28.9759 20.0838 28.3886C19.9747 27.7605 19.8005 27.1351 19.4171 26.5452C19.1054 26.0669 18.6632 25.7634 18.2218 25.695C17.8344 26.0524 17.5948 26.7278 17.6366 27.4885Z" fill="#5FBB7E"/>
<path d="M18.8476 26.0104C18.3445 26.038 17.9713 26.691 18.014 27.4675C18.0567 28.2454 18.4992 28.8537 19.0023 28.8261C19.4972 28.7985 19.866 28.1665 19.8372 27.4071C19.7343 27.1141 19.5994 26.8263 19.4171 26.5452C19.277 26.3297 19.1106 26.151 18.9294 26.0117C18.9025 26.0091 18.8748 26.0091 18.8476 26.0104Z" fill="#050301"/>
<path d="M19.7166 27.3743C19.7537 28.0496 19.4295 28.6172 18.9922 28.6409C18.5552 28.6645 18.1705 28.1377 18.1333 27.461C18.0961 26.7856 18.4204 26.2193 18.8578 26.1944C19.2947 26.1707 19.6792 26.6989 19.7166 27.3743Z" fill="#050301"/>
<path d="M19.7166 27.3743C19.7537 28.0496 19.4295 28.6172 18.9922 28.6409C18.5552 28.6645 18.1705 28.1377 18.1333 27.461C18.0961 26.7856 18.4204 26.2193 18.8578 26.1944C19.2947 26.1707 19.6792 26.6989 19.7166 27.3743Z" fill="#050301"/>
<path d="M18.5195 26.3205C18.5355 26.6148 18.7027 26.8448 18.8926 26.8342C19.0827 26.8237 19.2237 26.5767 19.2074 26.2837C19.2072 26.2785 19.2066 26.2745 19.2064 26.2693C19.0448 26.0893 18.8625 25.946 18.6715 25.8462C18.5704 25.9434 18.5084 26.1208 18.5195 26.3205Z" fill="white"/>
<path d="M20.1002 28.365C20.023 27.9169 19.9094 27.4728 19.729 27.0537C19.4985 26.5189 19.1324 25.946 18.5665 25.7174C18.1516 25.5492 17.6662 25.5716 17.3066 25.8554C16.8225 26.239 16.6667 26.9039 16.6277 27.4899C16.6266 27.5083 16.6256 27.5253 16.6246 27.5424C16.6244 27.5464 16.6294 27.5464 16.6296 27.5424C16.7018 26.9617 16.8843 26.3152 17.3846 25.9565C17.7475 25.6977 18.1952 25.7056 18.5892 25.8869C19.1425 26.1405 19.486 26.6463 19.7229 27.1903C19.896 27.5871 19.9967 28.0063 20.0701 28.432C20.1419 28.8472 20.1567 29.2768 20.2519 29.6881C20.255 29.7025 20.278 29.6986 20.2772 29.6854C20.2541 29.2466 20.1751 28.7986 20.1002 28.365ZM18.3274 29.7249C18.145 29.6158 17.9539 29.5225 17.7779 29.4043C17.5866 29.2755 17.4296 29.106 17.2788 28.9326C17.2745 28.9286 17.2661 28.9352 17.2699 28.9404C17.5357 29.3175 17.8813 29.5908 18.3179 29.7459C18.3314 29.7511 18.3387 29.7314 18.3274 29.7249Z" fill="#050301"/>
<path d="M22.549 49.4469C22.5042 49.4009 22.4615 49.3549 22.421 49.3089C22.4158 49.3036 22.4109 49.2984 22.4059 49.2918C22.3682 49.2485 22.3323 49.2064 22.2988 49.1644C22.2936 49.1578 22.2882 49.1512 22.283 49.1447C22.2499 49.1026 22.2191 49.0619 22.1908 49.0212C22.1875 49.0172 22.1837 49.012 22.1802 49.0067C22.1497 48.962 22.1216 48.92 22.0978 48.8792C21.2768 47.4996 22.9564 47.518 23.7939 46.9084C24.1513 46.6482 24.4017 46.3105 24.5731 45.9348C24.5991 45.944 24.6252 45.9532 24.6511 45.9637C24.6557 45.9453 24.6599 45.9269 24.6641 45.9085C24.6691 45.8861 24.6745 45.8625 24.6796 45.8401C24.6902 45.7928 24.7004 45.7455 24.7101 45.6982C24.7128 45.6851 24.7154 45.6733 24.7176 45.6601C24.7192 45.6523 24.7209 45.6431 24.7229 45.6352C24.7288 45.605 24.7347 45.5761 24.7402 45.5458C24.7445 45.5222 24.7489 45.4972 24.7534 45.4736C24.7581 45.446 24.7633 45.4184 24.7679 45.3895C24.7715 45.3698 24.7746 45.3501 24.7782 45.329C24.8123 45.1858 24.8376 45.04 24.8579 44.8928C24.859 44.8836 24.8595 44.8731 24.8607 44.8639C24.872 44.7746 24.8817 44.6839 24.8883 44.5946L24.8728 44.5906C24.8758 44.5551 24.8794 44.521 24.8822 44.4855C24.8838 44.4697 24.885 44.4513 24.8863 44.4356C24.8896 44.3935 24.8932 44.3515 24.896 44.3094C24.8978 44.2845 24.8991 44.2608 24.9006 44.2359C24.903 44.2004 24.9054 44.1649 24.9073 44.1281C24.9088 44.1031 24.9101 44.0756 24.9113 44.0493C24.9133 44.0151 24.9148 43.9796 24.9164 43.9442C24.9175 43.9166 24.9185 43.8903 24.9194 43.8627C24.9207 43.8272 24.9217 43.7917 24.923 43.755C24.9238 43.7274 24.9244 43.7011 24.9251 43.6735C24.9257 43.6367 24.9265 43.5986 24.9271 43.5605C24.9276 43.5342 24.9278 43.5079 24.9282 43.4803C24.9286 43.4383 24.9286 43.3963 24.9286 43.3542C24.9286 43.3306 24.9288 43.3082 24.9288 43.2859C24.9286 43.2202 24.9278 43.1545 24.9268 43.0875C24.9265 43.0783 24.9263 43.0691 24.926 43.0586C24.9252 43.0021 24.9239 42.943 24.9219 42.8851C24.9215 42.8602 24.9206 42.8365 24.9196 42.8116C24.9182 42.7669 24.9167 42.7222 24.9148 42.6775C24.9136 42.6499 24.9122 42.6224 24.911 42.5935C24.9093 42.5514 24.9072 42.5094 24.9048 42.466C24.9034 42.4371 24.9018 42.4082 24.9001 42.378C24.8981 42.3464 24.8962 42.3136 24.8939 42.2821C24.8933 42.2715 24.8929 42.2597 24.8922 42.2492C24.8904 42.2203 24.8883 42.1901 24.8863 42.1612C24.8833 42.1178 24.8798 42.0731 24.8766 42.0285C24.541 42.0534 24.2137 42.0508 23.8985 42.0219C23.8432 42.0166 23.7889 42.0101 23.7351 42.0022C21.9297 41.7368 20.8008 39.9709 19.3868 37.9881C19.3764 37.9737 19.3657 37.9593 19.3552 37.9448C19.2606 37.8121 19.165 37.6794 19.0675 37.5454C19.0564 37.5296 19.0453 37.5151 19.0342 37.4994C18.9356 37.364 18.8353 37.2287 18.7331 37.0934C18.7257 37.0829 18.718 37.0737 18.7105 37.0632C18.6038 36.9226 18.4954 36.782 18.3841 36.6401C18.2879 36.5179 18.1945 36.397 18.1029 36.2748C18.0834 36.2485 18.0642 36.2236 18.0449 36.1973C17.9537 36.0751 17.8639 35.9529 17.7772 35.8307C17.7183 35.7479 17.6601 35.6651 17.6018 35.581C17.5073 35.4431 17.4156 35.3064 17.3269 35.1698C17.3219 35.1619 17.3173 35.1553 17.3125 35.1475C17.2368 35.0305 17.1639 34.9149 17.0923 34.7993C17.0687 34.7612 17.046 34.7231 17.023 34.685C16.8723 34.4366 16.73 34.1896 16.5988 33.9452C16.5952 33.9386 16.5917 33.9321 16.5881 33.9255C16.5557 33.8651 16.524 33.8046 16.493 33.7455C16.4881 33.7363 16.4834 33.7271 16.4784 33.7166C16.448 33.6588 16.4181 33.5996 16.3889 33.5405C16.3847 33.5326 16.3806 33.5234 16.3763 33.5142C16.3465 33.4551 16.317 33.3947 16.2887 33.3355C16.2871 33.3316 16.2858 33.329 16.2843 33.3264C16.1635 33.0728 16.0539 32.8244 15.9553 32.5787C15.9515 32.5695 15.9472 32.559 15.9432 32.5485C15.9239 32.5012 15.9053 32.4526 15.887 32.4053C15.8794 32.3856 15.872 32.3659 15.8645 32.3462C15.8482 32.3028 15.8322 32.2581 15.8166 32.2148C15.8083 32.1925 15.7996 32.1688 15.7913 32.1451C15.7766 32.1044 15.7626 32.0637 15.7485 32.0229C15.7401 31.998 15.7317 31.973 15.7237 31.9481C15.7103 31.9086 15.6977 31.8692 15.6852 31.8298C15.6769 31.8035 15.6688 31.7772 15.6606 31.7523C15.6492 31.7142 15.6375 31.6761 15.6263 31.6393C15.6186 31.6117 15.6108 31.5841 15.6029 31.5565C15.5929 31.521 15.5824 31.4855 15.5728 31.4501C15.5646 31.4198 15.5571 31.3896 15.5489 31.3594C15.5351 31.3055 15.5217 31.2517 15.5089 31.1978C15.4999 31.161 15.4909 31.1229 15.4824 31.0861C15.4764 31.0585 15.471 31.0309 15.4651 31.0033C15.4601 30.9784 15.455 30.9547 15.45 30.9298C15.448 30.9206 15.4461 30.9114 15.4439 30.9022C15.4388 30.8746 15.4337 30.847 15.4288 30.8194C15.4227 30.7865 15.4168 30.7537 15.4111 30.7208C15.4065 30.6933 15.4024 30.667 15.3985 30.6407C15.3931 30.6079 15.3882 30.575 15.3836 30.5422C15.3801 30.5159 15.3764 30.4909 15.3733 30.4646C15.3689 30.4318 15.3652 30.3989 15.3614 30.3661C15.3587 30.3411 15.356 30.3175 15.3538 30.2925C15.3505 30.2583 15.3475 30.2242 15.3449 30.1913C15.3433 30.169 15.3408 30.1467 15.3398 30.1243C15.3374 30.0862 15.3354 30.0508 15.3337 30.014C15.3331 29.9956 15.3316 29.9772 15.3311 29.9588C15.3292 29.9049 15.3283 29.851 15.3283 29.7972C15.3283 29.7328 15.3278 29.6671 15.3265 29.6027C15.3265 29.5974 15.3262 29.5922 15.3262 29.5869C15.3253 29.5252 15.324 29.4634 15.322 29.4017C15.322 29.399 15.3216 29.3964 15.3216 29.3925C15.3198 29.3294 15.3173 29.265 15.3143 29.202C15.314 29.1993 15.3137 29.1967 15.3137 29.1941C15.311 29.1323 15.3077 29.0706 15.3041 29.0101C15.3039 29.0075 15.3039 29.0035 15.3036 29.0009C15.2959 28.8748 15.2868 28.7513 15.2764 28.6304C15.2762 28.6291 15.2762 28.6265 15.276 28.6251C15.2741 28.6002 15.2713 28.5752 15.2687 28.5503C15.2603 28.4543 15.2513 28.3597 15.2413 28.2691C15.1244 27.1877 14.9294 26.4099 14.9294 26.4099C14.8935 26.3376 14.8606 26.2653 14.8303 26.1944C14.8269 26.1865 14.8244 26.1799 14.8213 26.1721C14.7971 26.1142 14.775 26.0577 14.7544 25.9999C14.748 25.9829 14.7417 25.9658 14.7357 25.9474C14.7139 25.8843 14.6934 25.8225 14.6758 25.7608C14.6744 25.7555 14.6736 25.7516 14.6723 25.7463C14.6553 25.6872 14.6404 25.6268 14.6268 25.5677C14.6234 25.5532 14.6204 25.5387 14.6172 25.5243C14.558 25.2484 14.5329 24.979 14.5338 24.7162C14.5339 24.665 14.535 24.6137 14.5371 24.5625C14.5371 24.5612 14.5371 24.5599 14.5371 24.5572C14.5393 24.5034 14.5427 24.4495 14.5471 24.3956C14.5477 24.3851 14.5488 24.3759 14.5497 24.3654C14.5532 24.3234 14.5576 24.28 14.5622 24.2379C14.5636 24.2248 14.5653 24.2117 14.567 24.1972C14.572 24.1565 14.5774 24.1158 14.5833 24.075C14.5848 24.0645 14.5864 24.054 14.5879 24.0435C14.6037 23.9397 14.6224 23.8385 14.643 23.7387C14.6453 23.7281 14.6476 23.7177 14.6501 23.7071C14.6585 23.6677 14.6672 23.6283 14.6761 23.5902C14.6789 23.5784 14.6819 23.5665 14.6845 23.5534C14.6944 23.5127 14.7046 23.4706 14.7151 23.4299C14.7168 23.4233 14.7183 23.4168 14.7201 23.4115C14.7329 23.3616 14.746 23.313 14.7593 23.2643C14.7599 23.263 14.7607 23.2604 14.7612 23.2578C14.7736 23.2131 14.7863 23.1697 14.7991 23.1264C14.802 23.1159 14.8053 23.1053 14.8083 23.0948C14.819 23.058 14.8303 23.0213 14.8413 22.9858C14.8443 22.9753 14.8473 22.9661 14.8503 22.9556C14.8955 22.8084 14.9416 22.6678 14.9855 22.5312C14.9935 22.5075 15.0014 22.4826 15.0092 22.4589C15.0146 22.4418 15.0199 22.4247 15.0252 22.409C15.0377 22.3682 15.0506 22.3288 15.0625 22.2907C15.081 22.2316 15.0964 22.1725 15.1103 22.1133C15.1152 22.0936 15.119 22.0726 15.1232 22.0516C15.1314 22.0135 15.1392 21.9741 15.1461 21.9347C15.15 21.911 15.1533 21.886 15.1567 21.8624C15.1622 21.8256 15.1671 21.7875 15.1712 21.7494C15.1738 21.7244 15.1766 21.6995 15.1789 21.6745C15.1825 21.6351 15.1852 21.5957 15.1879 21.5562C15.1896 21.5313 15.1913 21.5063 15.1927 21.4827C15.1952 21.4354 15.1971 21.3881 15.1985 21.3394C15.1993 21.3197 15.2002 21.3013 15.2009 21.2816C15.2027 21.2159 15.2039 21.1489 15.2049 21.078C15.2072 20.9164 15.2084 20.7442 15.2119 20.5537C16.2063 20.4907 17.3139 20.2594 17.9867 19.6406C18.014 19.8574 18.0539 20.0439 18.1086 20.1793C18.4367 20.9913 20.0164 21.2856 20.8237 21.5497C22.1368 21.9806 22.4464 21.4143 23.4802 20.4801C22.8834 18.8785 21.7684 19.1097 20.7174 20.1017C20.8982 20.2844 21.1079 20.4907 21.3842 20.5603C21.2947 20.4828 21.1847 20.2725 21.0911 20.1766C22.5008 18.3963 23.15 21.0596 21.5218 21.1502C20.0699 21.2317 19.0984 19.9427 19.3845 18.7589C19.9176 16.5554 21.5429 17.4896 23.2756 16.9654C24.0847 16.721 24.3812 16.0509 24.4017 15.2849C25.1312 15.9445 26.2511 16.5752 26.3881 17.2807C26.5271 17.9994 26.3008 19.0177 25.4807 18.9862C24.5511 18.9494 24.3732 17.6171 25.3956 18.0441C25.0249 17.1586 24.2989 18.1676 24.0039 18.6039C24.6032 19.8363 26.1662 19.68 27.158 19.2043C28.0015 18.7996 28.632 18.525 29.0371 18.0757C29.0855 18.1755 29.14 18.2714 29.1998 18.3634C29.2007 18.3647 29.2016 18.366 29.2024 18.3674C29.2312 18.412 29.2613 18.4554 29.2926 18.4974C29.2945 18.5014 29.297 18.504 29.299 18.5066C29.3292 18.5474 29.3601 18.5868 29.3927 18.6262C29.399 18.6341 29.4061 18.6407 29.4128 18.6485C29.4412 18.6827 29.4698 18.7156 29.4999 18.7471C29.5112 18.7589 29.523 18.7707 29.5341 18.7826C29.5606 18.8088 29.5869 18.8364 29.6141 18.8627C29.6313 18.8785 29.6494 18.8942 29.6669 18.9087C29.6895 18.9297 29.7118 18.9507 29.7352 18.9705C29.7601 18.9915 29.7858 19.0112 29.8117 19.0309C29.8284 19.044 29.8448 19.0585 29.8621 19.0716C29.8958 19.0966 29.9305 19.1202 29.965 19.1439C29.9754 19.1504 29.9851 19.1583 29.9954 19.1649C30.0398 19.1938 30.0851 19.2214 30.1336 19.2503C30.4165 19.4132 30.7301 19.5276 31.062 19.5814C32.441 19.8061 33.4552 19.722 33.7454 21.35C33.709 21.3736 33.67 21.3986 33.6305 21.4248C33.5976 21.4459 33.5636 21.4682 33.5288 21.4905C33.525 21.4919 33.5214 21.4945 33.5177 21.4971C33.4819 21.5194 33.445 21.5418 33.4076 21.5641C33.3996 21.5694 33.3917 21.5733 33.3837 21.5786C33.3505 21.5983 33.3167 21.618 33.2824 21.6364C33.2768 21.639 33.271 21.643 33.2651 21.6456C33.2262 21.6666 33.1869 21.6863 33.1472 21.7047C33.1406 21.7073 33.1337 21.7113 33.127 21.7139C33.0926 21.7297 33.0579 21.7441 33.0232 21.7573C33.0161 21.7599 33.009 21.7625 33.0018 21.7652C32.962 21.7796 32.922 21.7914 32.8823 21.802C32.8776 21.8033 32.8727 21.8033 32.8679 21.8046C32.8333 21.8125 32.7989 21.819 32.7646 21.823C32.6318 21.8374 32.5042 21.819 32.3904 21.7454C31.8539 21.3999 32.0594 20.7915 32.554 20.6969C31.6342 20.4144 31.3571 21.4827 31.6403 22.0976C31.8857 22.6284 32.5512 22.9345 32.9608 22.9897C33.5832 23.0738 34.1727 22.9516 34.6661 22.6718C34.5518 23.0856 34.4661 23.4982 34.5828 23.9423C34.7544 24.5914 35.4432 25.0841 35.5541 25.7555C35.6447 26.3034 35.3409 27.5543 34.9757 27.9774C34.5957 28.4162 33.8675 28.3111 33.5342 28.9221C33.0421 29.8234 33.7352 30.8273 33.8528 31.7733C33.8202 31.7602 33.7885 31.7496 33.7582 31.7378L33.8671 32.1083C33.8553 32.3554 33.7885 32.5958 33.6334 32.8284C33.2998 33.3277 32.1224 33.8611 31.7822 33.0333C31.4015 32.1057 32.5762 32.4473 32.8436 32.9204C32.5519 30.9784 29.8719 33.8519 32.5619 33.7337C34.8009 33.6338 33.9721 31.7523 34.0574 30.441C34.1178 29.5107 34.5322 29.5961 35.0286 28.9273C35.4003 28.4254 35.5669 27.6909 35.8484 27.1509C36.1215 26.6267 36.3977 25.9342 36.7729 25.4612C37.0297 25.1367 37.2976 24.9698 37.5988 24.87C37.6548 24.8516 37.7123 24.8345 37.7706 24.82C37.7772 24.8187 37.7835 24.8174 37.7897 24.8148C37.8466 24.8016 37.9041 24.7898 37.9634 24.778C37.9714 24.7767 37.9796 24.7754 37.988 24.774C38.0474 24.7622 38.1082 24.753 38.1709 24.7438C38.1774 24.7425 38.184 24.7412 38.1907 24.7399C38.2548 24.7307 38.3204 24.7215 38.3879 24.711C38.4287 24.7241 38.469 24.7386 38.5083 24.7556C38.5317 24.7648 38.5539 24.7767 38.5765 24.7885C38.592 24.7964 38.6079 24.8029 38.6232 24.8121C38.6486 24.8266 38.6732 24.8437 38.6976 24.8594C38.7093 24.8673 38.7213 24.8752 38.7326 24.8831C38.7565 24.9002 38.7788 24.9199 38.8015 24.9396C38.818 24.954 38.8354 24.9672 38.8512 24.9816C39.0826 25.2063 39.2182 25.5111 39.2729 25.8265C39.3271 26.1418 39.3266 26.4664 39.2901 26.7896C39.2531 27.1141 39.1796 27.4347 39.088 27.7409C38.9082 28.3387 38.6624 28.9405 38.2846 29.4424C38.0157 29.7998 37.6947 30.1204 37.3918 30.4502C37.2133 30.6433 37.0356 30.8404 36.8774 31.0506C36.7527 31.2162 36.6467 31.3949 36.5195 31.5578C36.314 31.8219 36.0502 32.0978 35.7157 32.1885C35.5581 32.2306 35.4027 32.2332 35.2525 32.2056C35.2344 32.2752 35.2157 32.3449 35.1972 32.4145C35.1549 32.5748 35.1118 32.7338 35.067 32.8941C35.0584 32.9243 35.0495 32.9545 35.0407 32.9847C35.0068 33.103 34.9719 33.2212 34.9362 33.3408C34.7795 33.8624 34.6049 34.3788 34.4017 34.8834C34.3682 34.9675 34.335 35.0502 34.2997 35.1343C34.245 35.2618 34.1885 35.3905 34.1296 35.5167C33.7708 36.2866 33.2661 37.0356 32.6605 37.7346C32.6601 37.77 32.6595 37.8068 32.659 37.8463C32.6587 37.8765 32.6584 37.908 32.6583 37.9408C32.658 37.95 32.658 37.9593 32.658 37.9698C32.6576 38.0066 32.6574 38.0433 32.6571 38.0841C32.6571 38.0893 32.6571 38.0946 32.657 38.0998C32.6562 38.2733 32.6563 38.4717 32.6583 38.6924C32.6583 38.7043 32.6583 38.7174 32.6584 38.7292C32.6587 38.7778 32.6592 38.8278 32.6601 38.8777C32.6601 38.8816 32.6603 38.8856 32.6603 38.8895C32.6617 39.0209 32.6641 39.1562 32.6671 39.2994C32.6896 40.3335 32.7536 41.6435 32.9168 42.8681C32.9173 42.872 32.9178 42.8759 32.9183 42.8786C32.9363 43.0126 32.9555 43.1466 32.9757 43.278C32.9776 43.2898 32.9797 43.3017 32.9814 43.3122C33.0012 43.4396 33.0224 43.5657 33.0449 43.6893C33.0474 43.7024 33.0497 43.7155 33.0522 43.7287C33.0747 43.8509 33.0983 43.9717 33.1234 44.09C33.1262 44.1031 33.1292 44.1163 33.1321 44.1294C33.1575 44.2464 33.184 44.362 33.2121 44.475C33.2136 44.4802 33.2149 44.4868 33.2166 44.4921C33.3186 44.8968 33.4379 45.2633 33.5786 45.5747C33.8515 45.5195 34.1206 45.4696 34.3713 45.4591C35.4292 45.4144 36.7467 46.0517 37.7454 45.6418C39.0806 45.0925 37.5626 43.8154 36.7023 44.1294C37.2757 44.2805 38.0332 45.0636 36.946 44.9953C36.3094 44.9559 35.5728 44.1991 35.6954 43.5421C36.1223 43.4068 36.6312 43.5014 37.0807 43.4147C37.6126 43.3122 37.9763 43.006 38.456 42.7853C38.0288 42.7038 37.8312 42.4069 37.7755 42.0271C37.772 42.0009 37.7688 41.9746 37.7663 41.9483C37.7654 41.9391 37.7642 41.9299 37.7637 41.9207C37.7612 41.8892 37.7596 41.8563 37.7588 41.8248C37.7588 41.8209 37.7586 41.8169 37.7586 41.813C37.7579 41.7749 37.7583 41.7355 37.7599 41.6947C37.7616 41.6579 37.7642 41.6198 37.7675 41.5817C37.7683 41.5738 37.7691 41.566 37.7699 41.5581C37.7731 41.5266 37.7767 41.495 37.7812 41.4622C37.7821 41.4543 37.7833 41.4464 37.7846 41.4372C37.7896 41.403 37.7948 41.3702 37.8009 41.336C37.8018 41.3308 37.8028 41.3255 37.804 41.3189C37.8186 41.2388 37.8369 41.1573 37.858 41.0759C37.8591 41.0719 37.8601 41.068 37.8612 41.0641C37.8705 41.0286 37.8802 40.9931 37.8907 40.9589C37.8928 40.9511 37.8949 40.9432 37.8974 40.9366C37.9072 40.9037 37.9174 40.8709 37.9282 40.8394C37.9302 40.8315 37.9324 40.8249 37.9347 40.8183C37.9472 40.7815 37.9601 40.7434 37.9742 40.7053C37.9885 40.6659 38.0035 40.6278 38.0199 40.5871C38.0338 40.5529 38.0481 40.5188 38.0629 40.4846C38.0664 40.4767 38.0701 40.4688 38.0736 40.4597C38.0853 40.4334 38.0972 40.4084 38.1088 40.3821C38.1134 40.3729 38.1178 40.3637 38.1224 40.3545C38.1342 40.3296 38.146 40.3059 38.158 40.2823C38.1625 40.2744 38.1665 40.2652 38.1706 40.2573C38.1868 40.2271 38.2028 40.1969 38.2192 40.1679C38.4785 40.2665 38.6737 40.4794 38.7416 40.8748C38.8901 41.7381 38.5113 42.4804 39.3396 43.1335C39.3719 43.1597 39.4061 43.1847 39.442 43.2084C39.45 43.2149 39.4585 43.2202 39.4664 43.2254C39.4956 43.2438 39.5249 43.2636 39.5571 43.2833C40.0839 43.6025 40.8622 43.8036 41.4006 43.5986C42.1401 43.3187 41.995 42.625 41.329 42.3491C41.9497 42.6224 41.3182 43.5132 40.6832 43.3844C39.8218 43.211 39.6439 42.1572 40.2808 41.6395C40.962 41.0864 41.6108 41.043 41.8806 40.0812C41.948 39.8421 41.9883 39.5517 41.9748 39.2706C41.9744 39.2653 41.9745 39.26 41.9743 39.2561C42.4244 39.4282 42.9451 39.511 43.525 39.4808C44.3533 39.4361 45.8117 39.1221 46.0365 38.0854C46.0426 38.0565 46.0469 38.0276 46.0502 37.9987C46.0515 37.9882 46.052 37.9776 46.053 37.9671C46.0544 37.9487 46.0556 37.9303 46.0558 37.912C46.0562 37.8988 46.0564 37.8857 46.0561 37.8725C46.0558 37.8555 46.0551 37.8384 46.054 37.8213C46.053 37.8081 46.0524 37.7963 46.0512 37.7832C46.051 37.7805 46.051 37.7792 46.0505 37.7779C45.9514 36.824 44.6091 35.7742 43.9322 36.6782C45.6908 36.2577 45.6304 38.6162 43.9073 38.1012C42.4033 37.6518 42.3091 35.8649 43.8453 35.4168C43.7929 34.5877 43.3715 33.8966 42.7839 33.3264C42.7794 33.3211 42.775 33.3185 42.7709 33.3132C42.7105 33.2554 42.6487 33.1989 42.5854 33.1437C42.5808 33.1398 42.577 33.1358 42.572 33.1319C42.5646 33.1253 42.5575 33.1188 42.5502 33.1122C42.5625 33.1148 42.575 33.1174 42.5871 33.1201C42.6584 33.1358 42.7306 33.1503 42.803 33.166C42.8083 33.1674 42.8136 33.1687 42.819 33.1687C42.8487 33.1753 42.8779 33.1818 42.9073 33.1884C42.9216 33.191 42.9359 33.195 42.95 33.1989C42.9725 33.2028 42.9945 33.2081 43.0169 33.2134C43.0342 33.2186 43.0514 33.2226 43.0688 33.2265C43.088 33.2318 43.1073 33.237 43.1262 33.2423C43.145 33.2475 43.1634 33.2528 43.1818 33.258C43.1994 33.2633 43.2169 33.2685 43.2342 33.2738C43.2534 33.2791 43.272 33.2856 43.2911 33.2922C43.3071 33.2975 43.3234 33.304 43.3392 33.3093C43.3586 33.3158 43.3774 33.3237 43.3963 33.3316C43.411 33.3382 43.4264 33.3434 43.4409 33.35C43.4601 33.3579 43.4783 33.3671 43.4968 33.3763C43.5108 33.3828 43.5247 33.3894 43.5382 33.396C43.5569 33.4065 43.5748 33.417 43.5926 33.4275C43.6052 33.4354 43.6183 33.442 43.6306 33.4499C43.6485 33.4617 43.6652 33.4735 43.6822 33.4867C43.6939 33.4945 43.7059 33.5024 43.7172 33.5103C43.7341 33.5248 43.7498 33.5392 43.7655 33.5523C43.7761 33.5629 43.787 33.5707 43.7972 33.5799C43.8127 33.5957 43.8273 33.6128 43.842 33.6286C43.8512 33.6391 43.8612 33.6483 43.8699 33.6588C43.8846 33.6772 43.8976 33.6969 43.9111 33.7166C43.9189 33.7271 43.9273 33.7376 43.9343 33.7481C43.9484 33.7705 43.9608 33.7941 43.973 33.8178C43.9787 33.8283 43.985 33.8375 43.9902 33.8493C44.0074 33.8848 44.0229 33.9216 44.0367 33.961C44.0049 33.8703 45.2783 31.8364 45.4898 31.6853C45.9474 31.3594 46.5182 31.412 46.8069 31.7641C46.928 31.9113 46.9994 32.1123 46.9917 32.3606C47.2832 31.408 47.7252 30.4003 47.9672 29.4569C48.0555 29.1126 47.4804 26.7029 46.9438 27.1575C47.346 26.8172 47.6332 26.3534 47.7107 25.7976C47.7275 25.6754 47.7323 25.5519 47.7261 25.427C48.0811 24.4653 47.9418 23.4115 46.6196 23.062C45.7841 22.8399 45.0269 23.4417 45.1147 24.2682C45.1994 25.0684 46.3449 25.3784 46.1934 24.4705C46.0979 24.6151 45.9707 24.6413 45.8175 24.7714C45.1009 24.2445 45.7111 23.6401 46.4123 24.0882C46.6358 24.2314 46.7928 24.4298 46.873 24.6505C46.7112 25.1616 46.0487 25.5164 45.1733 25.0171C43.9449 24.3168 43.9981 21.9846 45.6475 22.1606C45.0804 21.8873 44.5413 21.8768 43.9986 22.1619C44.7088 21.4472 45.393 20.3895 44.6708 19.3502C44.4836 19.0808 44.2832 18.8745 44.0687 18.7129C44.5577 18.8496 45.057 19.0269 45.6175 19.0585C46.5622 19.111 47.432 18.1085 48.0194 17.286C47.5196 16.3111 46.2613 16.0982 45.6304 17.0653C45.8577 17.1546 46.0247 17.2124 46.2856 17.194C46.1864 17.0994 46.1003 16.9917 46.0298 16.9076C46.5495 16.4582 47.4481 16.8156 47.2394 17.5133C47.0595 18.1125 45.9474 18.2911 45.5129 18.0888C44.8656 17.7866 44.603 16.8445 43.8993 16.5108C43.4564 16.3019 43.0328 16.2914 42.6159 16.4017C42.7381 16.0089 42.8546 15.6068 42.9518 15.1942C43.1713 14.26 42.992 14.6568 42.6529 13.8724C41.9661 12.2852 43.8127 11.958 44.7304 13.1997C44.4523 13.5558 43.996 13.5676 43.6399 13.314C43.9822 14.0327 45.0887 13.8593 45.0298 13.0013C45.0094 12.7057 44.0127 11.6795 43.724 11.6059C42.7517 11.3563 41.432 13.1734 40.453 13.5163C40.614 14.0091 40.4149 14.5675 40.0663 15.0589C39.7573 15.1955 39.4225 15.3072 39.1604 15.4373C40.7824 14.532 39.4693 12.573 38.2304 12.1722C39.111 12.1867 40.1791 12.1118 40.8188 12.8239C40.7983 11.7715 39.3676 10.4773 38.2243 10.7072C38.2887 10.5548 38.3346 10.384 38.343 10.1764C38.3657 9.61269 38.2375 8.91894 37.9627 8.44067C37.8805 8.29746 37.7809 8.16738 37.6688 8.05307C37.6368 7.9992 37.6038 7.94531 37.5699 7.89275C37.1549 7.25419 36.7891 7.13595 37.6423 6.64717C38.3038 6.26745 38.9475 6.42117 38.9977 7.30018C38.7093 7.49201 38.3385 7.471 38.0341 7.25814C38.5364 8.59572 40.4254 6.7457 38.6193 6.24378C37.7165 5.99282 35.9786 6.95332 35.3407 7.51962C35.8337 8.19366 36.1959 8.18709 36.0515 9.08319C35.4279 8.68113 34.7255 8.32768 34.0338 8.24359C34.347 7.97949 34.6297 7.65495 34.8738 7.25814C35.7112 5.89955 35.1612 4.77484 33.8289 4.13627C33.0576 3.76575 31.245 3.33347 30.5872 4.14941C29.8192 5.10201 31.1326 5.99809 32.005 5.05994C31.1512 5.71165 29.9335 4.24926 31.3674 4.20328C32.0507 4.18094 33.3293 4.95615 33.0847 5.79443C32.7734 6.86002 31.0005 6.4225 30.3045 6.21227C30.1255 6.1584 29.5535 5.87721 29.1549 5.59077C29.1559 5.34507 29.2932 5.1309 29.659 5.00608C29.2481 4.46474 27.2154 3.9129 27.8023 3.23885C27.434 3.33739 27.0346 3.56733 26.8713 3.83142C27.4391 4.61847 26.8673 5.40288 26.1165 5.90742C26.0097 5.63413 25.8214 5.35164 25.5357 5.0652C24.5439 4.06794 23.2548 3.68689 22.0461 3.9891C21.8157 3.9326 21.5726 3.87873 21.3149 3.81698C21.1724 3.13637 21.7935 2.17195 22.4983 2.46233C23.4649 2.85913 22.7788 3.56339 21.9832 3.27301C23.1766 4.84052 24.2479 1.45322 22.0948 2.01295C21.097 2.27311 20.0494 3.98254 20.6481 4.81951C19.6314 4.43322 18.6284 4.47787 17.6835 4.88387C17.49 4.96665 17.2593 5.07966 17.0183 5.2163C17.0517 4.95352 17.1891 4.65657 17.398 4.45423C16.5197 3.51872 14.9532 3.37025 14.3137 4.62899C14.5779 4.78403 14.6312 4.85762 14.9863 4.73411C14.9238 4.696 14.787 4.65263 14.7396 4.6119C14.6368 3.76442 15.8601 3.75259 16.2273 4.33072C15.8461 5.36871 13.8768 5.72874 15.3132 6.81667C15.3086 6.8285 15.3041 6.84162 15.2999 6.85345C15.322 6.83505 15.3449 6.81798 15.368 6.79958L16.2787 6.38174C16.5193 6.33576 16.7668 6.33841 17.0025 6.40936C17.5433 6.57491 17.7529 7.01376 17.2163 7.3764C16.4569 7.89014 14.7632 7.39215 13.8328 6.82191C13.6904 6.53941 13.5124 6.30029 13.2935 6.14262C12.4788 5.5553 10.5062 6.71023 12.081 6.99798C11.1489 6.60774 12.4732 5.94291 12.8315 6.35023C13.6895 7.32647 10.3879 8.37497 9.81939 8.30533C9.45206 8.25934 8.61201 8.11745 8.66909 7.58662C8.71497 7.16223 9.23176 7.05317 9.55917 7.19245C9.30932 6.46979 8.11883 6.34496 7.95228 7.22792C7.75669 8.26591 8.94717 9.08582 9.73624 9.45109C9.52232 9.70861 9.33052 9.98715 9.21555 10.3038C8.53837 12.1788 10.7357 12.8016 11.6976 11.5008C10.2888 12.2313 9.19656 10.786 11.0567 10.4313C12.0214 10.2486 13.8021 10.6087 14.0487 11.7833C14.0855 11.958 14.0917 12.1157 14.0709 12.2576C13.2172 12.979 11.669 13.1195 10.7362 12.9225C9.60439 12.6846 8.33819 12.3667 7.1605 12.5664C6.71124 12.5979 6.26625 12.6689 5.85207 12.6071C5.39271 12.5388 4.39803 12.0185 4.92565 11.376C5.49351 10.6849 6.28052 11.7531 5.53888 12.004C6.41628 12.23 6.47751 11.2341 5.82969 10.9306C4.89891 10.4957 4.5732 11.4443 4.53429 12.004C4.45977 13.0749 4.70654 14.1391 4.67385 15.2376C4.24256 15.5345 3.46627 16.3295 3.08349 15.545C2.8049 14.9748 3.27108 14.7002 3.7194 15.0957C2.76537 14.2548 2.20279 15.2534 2.10322 16.3597C1.97928 17.7393 2.75065 18.1098 3.80367 18.8154C3.11505 19.2096 2.39239 19.5657 2.36447 20.4762C2.33517 21.4196 4.10162 22.501 4.0601 21.4025C3.89062 21.869 2.91165 21.4643 3.14779 20.9939C3.15077 20.9886 3.1538 20.9834 3.15698 20.9781C3.16524 20.9623 3.17484 20.9479 3.18567 20.9334C3.18875 20.9282 3.19189 20.9242 3.19537 20.9203C3.20754 20.9045 3.22186 20.8888 3.23726 20.873C3.24238 20.8664 3.24757 20.8612 3.25296 20.8559C3.27056 20.8389 3.28966 20.8231 3.31101 20.806C3.31639 20.8007 3.3225 20.7968 3.32815 20.7929C3.34837 20.7771 3.36992 20.7626 3.39359 20.7469C3.39888 20.7429 3.40349 20.7403 3.40879 20.7363C3.43645 20.7193 3.46679 20.7022 3.49875 20.6851C3.50691 20.6812 3.51512 20.6772 3.52349 20.672C3.55712 20.6549 3.59269 20.6378 3.63143 20.6207C3.63661 20.6194 3.64242 20.6168 3.6477 20.6142C3.6844 20.5984 3.72366 20.5839 3.76498 20.5682C3.7734 20.5655 3.7813 20.5616 3.79008 20.559C3.83529 20.5419 3.88348 20.5261 3.9342 20.5104C3.94462 20.5077 3.95571 20.5038 3.96659 20.5012C4.02031 20.4854 4.07601 20.4683 4.13581 20.4538C4.36543 20.3947 4.57668 20.3396 4.77064 20.2791C4.591 21.1148 4.60255 22.0647 4.79117 22.8176C4.97255 23.5416 5.47893 25.0828 6.38758 25.1998C6.4133 25.2024 6.43978 25.205 6.46735 25.205C6.48439 25.2063 6.5026 25.205 6.52072 25.205C6.53104 25.2037 6.5411 25.205 6.55157 25.2037C6.57056 25.2024 6.59016 25.2011 6.60967 25.1984C6.62024 25.1971 6.63015 25.1971 6.64072 25.1958C6.65997 25.1932 6.67989 25.1906 6.69939 25.1866C6.71099 25.1853 6.72223 25.184 6.73388 25.1814C6.75251 25.1787 6.7716 25.1748 6.79075 25.1708C6.80429 25.1682 6.81748 25.1656 6.83078 25.163C6.84782 25.159 6.86527 25.1538 6.88237 25.1498C6.89884 25.1472 6.9149 25.1433 6.93143 25.1393C6.94549 25.1354 6.95986 25.1314 6.97388 25.1275C6.99435 25.1222 7.01463 25.117 7.03516 25.1117C7.04435 25.1091 7.05337 25.1065 7.06231 25.1038C7.28958 25.0394 7.53013 24.9593 7.7631 24.8976C7.76639 24.8962 7.76972 24.8949 7.7729 24.8949C7.80082 24.887 7.82807 24.8805 7.85559 24.8739C7.86401 24.8713 7.87268 24.8686 7.88095 24.8673C7.90475 24.8621 7.92796 24.8568 7.95125 24.8516C8.52539 24.7294 9.00912 24.7977 9.04504 25.6609C9.06953 26.2601 8.68239 27.0116 8.04852 26.9381C7.56494 26.8816 7.00636 26.289 7.65002 25.9868C7.89049 26.1156 8.11606 26.2522 8.31741 26.4361C8.46066 25.159 7.27654 25.7884 6.86266 26.3757C7.33844 26.85 7.92796 27.1746 8.42232 27.5937C7.08196 27.1614 5.14958 26.9026 5.20408 28.4438C4.4861 28.1101 3.69179 27.9091 2.99962 27.9866C1.9921 28.0996 1.12466 29.3242 1.60444 30.3122C2.06402 31.2569 3.54018 30.2032 3.38645 29.3938C3.11839 29.2742 2.85581 29.3807 2.62761 29.5883C3.1538 29.2624 3.19434 29.8221 2.78374 30.0967C2.55335 30.2505 1.8833 30.3805 1.71736 30.0626C1.279 29.2177 3.36824 28.7854 3.87758 29.0311C5.38844 29.7617 4.61467 32.0505 6.14708 32.9006C5.42467 33.2042 4.76685 33.8178 5.14172 34.4839C5.56341 35.2342 7.06231 35.5167 6.52072 34.4208C6.64863 35.2657 5.20332 34.3026 6.00209 33.6509C6.52842 33.2212 7.4976 34.0477 7.73456 34.5496C8.34276 35.8359 6.78012 36.6335 5.56131 36.4732C5.46096 36.3497 5.3594 36.2262 5.25644 36.1027C4.80123 35.56 3.73609 34.1226 2.86627 34.2947C2.58978 34.3499 2.29688 34.5812 2.02855 34.8768C2.16821 35.2013 2.3135 35.5232 2.4664 35.8412C2.91565 35.4431 3.46216 35.2092 3.65206 35.7781C3.75379 36.083 3.41709 36.5744 3.06896 37.008C4.14575 38.971 5.47868 40.7737 7.02227 42.3701C7.24672 42.5317 7.44981 42.7354 7.63628 42.9837C8.15862 43.4882 8.70307 43.9704 9.26779 44.4277C9.2831 44.1885 9.33052 43.9442 9.4401 43.6945C9.63903 43.2425 10.1662 42.8326 10.7414 42.5553C11.7645 42.4634 12.878 42.3543 13.6956 43.0665C14.715 43.9534 13.8025 45.2699 12.6323 45.3146C12.2897 45.3277 11.3329 45.107 11.1857 44.7141C10.9646 44.1228 11.9019 44.4448 12.2105 44.5341C11.7422 44.1649 9.78022 43.257 10.5551 44.6616C10.9441 45.3671 12.0475 45.7324 12.8252 45.8756C12.6809 45.9663 12.5455 46.0622 12.4248 46.1634C12.3082 46.2606 12.2165 46.3526 12.1413 46.4432C13.0432 46.9846 13.9821 47.4707 14.9532 47.8978C14.9544 47.8951 14.9556 47.8938 14.9566 47.8912C14.9653 47.878 14.9725 47.8649 14.9817 47.8531C14.9939 47.836 15.008 47.8202 15.0214 47.8045C15.0319 47.7926 15.0416 47.7795 15.0533 47.7677C15.0676 47.7519 15.0846 47.7374 15.1008 47.723C15.1136 47.7112 15.1257 47.6994 15.1398 47.6875C15.157 47.6731 15.1767 47.6599 15.196 47.6468C15.2114 47.635 15.2257 47.6245 15.2419 47.6139C15.2624 47.6008 15.2852 47.5877 15.3072 47.5758C15.3252 47.5653 15.3417 47.5548 15.3605 47.5456C15.3844 47.5338 15.4111 47.522 15.4367 47.5115C15.4567 47.5023 15.4751 47.4931 15.4957 47.4839C15.5258 47.472 15.5589 47.4615 15.5911 47.451C15.6104 47.4445 15.6283 47.4366 15.6484 47.4313C15.7023 47.4142 15.759 47.3985 15.8189 47.3853C16.2527 47.2855 16.7137 47.3209 17.1731 47.3709C18.0245 47.5916 18.9269 47.7138 19.6888 47.5548C19.6425 48.3221 19.8127 49.0435 20.2831 49.5533C21.2054 49.7294 22.1452 49.8568 23.1004 49.9291C22.9027 49.7859 22.7134 49.6177 22.549 49.4469ZM22.2976 4.76957C22.3596 4.84972 22.4156 4.94695 22.465 5.06651C22.5843 5.35426 22.6144 5.83121 22.5655 6.26349C22.1929 5.63281 21.455 5.15718 20.8037 4.88126C20.7848 4.87337 20.7659 4.86681 20.7471 4.85893C21.241 4.58563 21.7945 4.58694 22.2976 4.76957Z" fill="#943831"/>
</svg>
