<svg width="50" height="50" viewBox="0 0 50 50" fill="none" xmlns="http://www.w3.org/2000/svg">
<path d="M49.9997 25.0001C49.9997 38.8072 38.8069 50 24.9999 50C11.1928 50 0 38.8072 0 25.0001C0 11.1931 11.1928 2.67029e-05 24.9999 2.67029e-05C38.8069 2.67029e-05 49.9997 11.1931 49.9997 25.0001Z" fill="#FCD845"/>
<path d="M33.7684 43.917C33.7408 43.8735 33.713 43.8295 33.6849 43.7844C33.6722 43.764 33.6595 43.7433 33.6466 43.7224C33.6189 43.6776 33.5909 43.6317 33.5627 43.5852C33.5498 43.5637 33.5368 43.5423 33.5235 43.5203C33.494 43.4709 33.4639 43.4202 33.4335 43.3687C33.4218 43.349 33.4104 43.3298 33.3987 43.3098C33.3566 43.2385 33.3142 43.1654 33.2711 43.0904C32.4565 41.6758 32.2506 38.5469 32.207 36.5044C32.2057 36.4429 32.2046 36.3825 32.2034 36.3228C32.2033 36.3156 32.2032 36.3083 32.203 36.3012C32.2009 36.1702 32.1994 36.0443 32.1983 35.9249C32.1982 35.9216 32.1982 35.9183 32.1982 35.9151C32.1945 35.4842 32.1976 35.1327 32.2013 34.8999C32.2028 34.8017 32.2046 34.725 32.2057 34.6719C32.2058 34.6698 32.2058 34.6673 32.2058 34.6655C32.2067 34.6337 32.2072 34.6119 32.2076 34.5993C32.2076 34.597 32.2078 34.5944 32.2078 34.5928C32.2079 34.5902 32.208 34.5868 32.208 34.5868L24.3686 38.7057C24.3843 38.8587 24.3979 39.0082 24.4097 39.156C24.4136 39.2041 24.4164 39.2509 24.4199 39.2985C24.4272 39.3971 24.4343 39.4953 24.4395 39.5917C24.4428 39.6468 24.4452 39.7008 24.4478 39.755C24.4521 39.842 24.456 39.9283 24.459 40.0134C24.4608 40.0692 24.4621 40.1242 24.4636 40.1793C24.4654 40.2613 24.4669 40.3422 24.4674 40.4225C24.468 40.4762 24.4684 40.53 24.468 40.5829C24.468 40.6635 24.4671 40.7426 24.4655 40.821C24.4649 40.8711 24.4641 40.921 24.4627 40.9701C24.4603 41.0534 24.4569 41.1353 24.4531 41.2164C24.4511 41.2583 24.4496 41.3007 24.4474 41.3421C24.4414 41.4506 24.4339 41.5572 24.4253 41.6618C24.4243 41.6743 24.4236 41.6871 24.4226 41.6994C24.4127 41.8159 24.401 41.9297 24.3882 42.0419C24.3841 42.0786 24.379 42.114 24.3744 42.1504C24.3649 42.2251 24.3553 42.2996 24.3448 42.3725C24.3384 42.4148 24.3315 42.4563 24.325 42.4981C24.3144 42.5631 24.3038 42.6276 24.2924 42.691C24.2847 42.7339 24.2766 42.7759 24.2685 42.8179C24.2566 42.8787 24.2444 42.9389 24.2317 42.998C24.2227 43.0394 24.2135 43.0805 24.2042 43.1213C24.1905 43.1801 24.1765 43.238 24.1619 43.2954C24.1522 43.3337 24.1426 43.3725 24.1325 43.4103C24.1164 43.4704 24.0995 43.529 24.0823 43.5875C24.0727 43.6204 24.0634 43.6539 24.0534 43.6865C24.0309 43.7592 24.0076 43.83 23.9836 43.9003C23.978 43.917 23.9727 43.9342 23.967 43.9506C23.3942 45.5914 22.3953 46.5456 21.3127 47.143C20.5129 47.5842 19.3589 48.3457 18.2819 49.0859C20.4197 49.6809 22.6723 50 24.9999 50C29.4585 50 33.6437 48.8315 37.2682 46.786C35.4794 45.9986 34.7359 45.4385 33.7684 43.917Z" fill="#B55740"/>
<path d="M38.2892 22.1668C38.1602 22.0731 37.6602 21.934 37.5228 21.8976C37.8551 19.3064 38.6825 14.485 35.0993 10.6627C31.0678 6.36244 25.5581 6.36245 22.5345 7.10165C19.511 7.84073 15.9498 10.8643 15.2107 14.1568C14.4715 17.4491 14.935 18.4429 14.6027 19.5059C14.2706 20.5686 13.6725 22.0303 14.4697 23.6247C14.4697 23.6247 14.8685 25.2192 14.8685 27.0131C14.8685 28.8067 15.9314 31.3314 17.9245 33.8558C19.9176 36.3802 21.1237 39.0185 23.4385 39.237C26.9596 39.5693 31.9636 36.3969 33.6695 32.732C34.1644 31.6694 34.5061 30.5296 34.7991 29.3962C35.3572 29.4991 35.8074 29.1283 36.1965 28.5444C36.6948 27.7972 37.3425 27.2988 37.8408 26.6013C38.5881 25.555 39.3853 22.9642 38.2892 22.1668Z" fill="#C25F4B"/>
<path d="M16.1525 13.9929C16.4909 13.0349 17.0203 12.1615 17.8541 11.4647C19.3869 10.1834 21.5966 9.59013 23.5718 9.71889C24.6144 9.78669 25.87 10.0471 26.8009 10.5422C28.5057 11.4488 29.4659 12.4195 29.7668 14.3749C29.8933 15.1983 29.8904 16.0392 30.0431 16.8589C30.0708 17.0082 30.7331 18.9244 31.0149 18.6792C31.0149 18.6792 29.869 19.6758 29.7195 19.6758C29.5701 19.6758 14.8719 20.2239 14.8719 20.2239L14.5231 20.0247C14.5231 20.0247 15.5197 18.6296 15.5696 17.5334C15.6239 16.3356 15.7589 15.1072 16.1525 13.9929Z" fill="#C25F4B"/>
<path d="M20.15 30.3681C20.15 30.3681 20.1834 30.7333 20.7147 30.7997C21.2462 30.8663 21.6116 30.6337 21.8109 30.1688C22.0102 29.7035 22.409 27.2457 22.2759 24.5549L20.283 24.5882C20.283 24.5882 20.6482 27.3784 20.5817 28.2754C20.5154 29.1723 20.15 30.3681 20.15 30.3681Z" fill="#C25F4B"/>
<path d="M20.2719 29.8476C20.2719 29.8476 20.5376 29.6483 20.8033 29.6483C21.0691 29.6483 22.0435 30.0247 22.0435 30.0247L22.1765 29.7592C22.1765 29.7592 21.1578 29.3605 20.8033 29.3605C20.8033 29.3605 20.6041 29.3605 20.427 29.4934L20.2719 29.8476Z" fill="#C25F4B"/>
<path d="M26.4808 26.6761C26.4808 27.3225 25.9567 27.8469 25.3103 27.8469C24.6633 27.8469 24.1392 27.3225 24.1392 26.6761C24.1392 26.0294 24.6633 25.5053 25.3103 25.5053C25.9567 25.5053 26.4808 26.0294 26.4808 26.6761Z" fill="#C25F4B"/>
<path d="M20.3994 26.6029C20.4495 27.2061 20.0954 27.7282 19.6088 27.7684C19.1219 27.809 18.6869 27.3525 18.6366 26.7492C18.5865 26.1461 18.9407 25.6242 19.4271 25.5837C19.9141 25.5433 20.3492 25.9994 20.3994 26.6029Z" fill="#C25F4B"/>
<path d="M34.132 30.7875C32.9226 32.8959 30.699 33.8924 29.1661 33.0127C27.633 32.1336 27.3708 29.7113 28.5804 27.6027C29.7899 25.4944 32.0132 24.4977 33.5461 25.3773C35.0792 26.2569 35.3415 28.6789 34.132 30.7875Z" fill="#C25F4B"/>
<path d="M18.6562 28.717C17.9641 26.6504 16.2335 25.2087 14.7818 25.4837C14.8322 25.9502 14.8685 26.4726 14.8685 27.0131C14.8685 28.6053 15.7068 30.7735 17.2891 33.0064C18.7378 32.7064 19.3501 30.7892 18.6562 28.717Z" fill="#C25F4B"/>
<path d="M15.0216 23.7613C15.0216 23.7613 14.5232 20.2239 15.7688 19.6759C17.0144 19.1277 18.5589 19.7756 18.5589 19.7756L19.4061 20.8219L19.5055 21.1704C19.5055 21.1704 20.0036 23.3627 19.8544 26.9003L18.4093 25.7544C18.4093 25.7544 17.2138 24.5585 16.9646 24.5087C16.7154 24.459 15.7188 24.459 15.7188 24.459L15.0216 23.7613Z" fill="#C25F4B"/>
<path d="M24.8867 26.651C24.8867 26.651 23.8901 21.4695 25.0859 19.875C26.2817 18.2806 28.2248 18.4303 28.2248 18.4303L30.3173 18.6294C30.3173 18.6294 32.2605 19.1775 32.6591 19.626C32.6591 19.626 32.6591 22.5157 31.3637 25.1564L24.8867 26.651Z" fill="#C25F4B"/>
<path d="M20.0285 30.7113C20.0027 30.8264 20.3947 31.0627 20.4696 31.0952C20.9928 31.3213 21.591 31.0401 22.0876 30.8663C22.5307 30.7113 23.2393 31.11 23.3058 31.3535C23.3058 31.3535 23.3278 31.6414 23.1507 31.6858C22.9736 31.7301 20.3383 31.7077 20.3383 31.7077L20.0503 31.5308L19.9397 31.11C19.9397 31.11 20.0282 30.7122 20.0285 30.7113Z" fill="#C25F4B"/>
<path d="M19.984 31.0323C19.984 31.0323 20.15 31.4975 20.8476 31.4642C21.5452 31.431 21.977 31.0988 22.2096 31.0323C22.4422 30.9659 23.2727 31.1986 23.2392 31.4642L23.173 31.73C23.173 31.73 22.7743 33.4905 21.977 33.5237C21.1798 33.5569 21.3127 32.3942 20.748 32.1287C20.748 32.1287 19.984 31.6635 19.984 31.0323Z" fill="#C25F4B"/>
<path d="M22.5419 37.1112C22.5419 37.1112 23.6047 37.1775 23.9036 37.1112C23.9036 37.1112 23.7375 37.6759 23.4054 37.6426C23.0732 37.6094 22.5419 37.1112 22.5419 37.1112Z" fill="#C25F4B"/>
<path d="M19.519 34.0221L19.3196 34.4871C19.3196 34.4871 18.8879 34.0221 19.519 34.0221Z" fill="#C25F4B"/>
<path d="M28.7866 33.8227L29.1519 34.3871C29.1519 34.3871 29.5838 33.889 28.7866 33.8227Z" fill="#C25F4B"/>
<path d="M27.577 21.1209C27.577 21.1209 29.0218 20.4731 30.9651 21.4695C30.9651 21.4695 29.1217 19.7756 27.577 21.1209Z" fill="#7C2B19"/>
<path d="M18.4745 21.6069C18.4745 21.6069 17.368 21.0787 15.9987 22.1022C15.9987 22.1022 17.2497 20.4362 18.4745 21.6069Z" fill="#7C2B19"/>
<path d="M37.8052 22.5286L37.5287 22.7927C37.2323 22.9714 36.5927 23.9073 36.5927 23.9073L36.2226 24.483L36.2107 24.4718C36.0116 24.6546 35.6129 25.5847 35.6129 25.5847L35.6338 25.6496L35.6129 25.6678C35.6328 25.6936 35.6498 25.7198 35.6648 25.7463L35.7405 25.9815C35.7789 26.3205 35.5464 26.6309 35.5464 26.6309C35.5464 26.6309 36.1112 26.4317 36.2274 26.0333C36.3203 25.7144 36.1161 25.4595 36.0306 25.3703C36.0896 25.2308 36.1481 25.1017 36.1941 25.0199C36.3436 24.7542 36.5927 24.8374 36.5927 24.8374L36.452 24.7026L36.5098 24.7211C36.4266 24.5549 36.8253 24.1564 36.8253 24.1564L36.8161 24.1465C36.9677 24.264 37.1407 24.3722 37.1407 24.3722C37.1407 24.3722 36.9748 23.9237 37.1407 23.6581C37.2628 23.4629 37.5902 23.2679 37.756 23.178C37.9233 23.3554 38.1263 23.6015 38.2869 23.8906C38.2869 23.8906 38.0377 22.7778 37.8052 22.5286ZM36.6094 25.9336L36.7091 25.3687C36.7091 25.3687 36.4766 25.5016 36.6094 25.9336ZM36.9915 26.2988C37.3401 25.6344 37.1741 25.1861 37.1741 25.1861C37.0411 25.6178 36.9915 26.2988 36.9915 26.2988ZM37.9547 24.2892C38.1208 24.7376 37.7888 26.0165 37.7888 26.0165C38.3201 25.103 38.2371 24.3889 38.2371 24.3889L37.9547 24.2892Z" fill="#C25F4B"/>
<path d="M20.6041 31.7744C20.6041 31.7744 21.2462 32.1727 21.5341 32.1507C21.822 32.1287 21.9993 31.8849 22.0658 31.7077C22.0658 31.7077 21.1799 31.9294 20.6041 31.7744Z" fill="#C25F4B"/>
<path d="M38.8127 23.042C38.7584 22.7266 38.6226 22.4223 38.3915 22.1978C38.0398 21.8562 37.5298 21.8019 37.0831 21.9602C36.8564 22.0404 36.6633 22.1803 36.4927 22.346C36.4092 22.4273 36.3784 22.5291 36.3222 22.6272C36.2574 22.7398 36.2021 22.8572 36.1439 22.9734C35.8885 23.4822 35.6588 24.011 35.2988 24.4577C35.2973 24.4594 35.2994 24.4615 35.3009 24.4599C35.5673 24.1385 35.7638 23.7692 35.9541 23.3995C36.0477 23.2183 36.141 23.0356 36.246 22.8604C36.3471 22.6913 36.4649 22.4835 36.6311 22.37C37.0061 22.1137 37.3829 21.9378 37.8496 22.0253C38.1973 22.0904 38.4847 22.3289 38.6344 22.6437C38.9185 23.241 38.8064 23.9957 38.6603 24.6131C38.5056 25.2672 38.2472 25.8817 37.9073 26.4594C37.4796 27.1868 36.7832 27.7157 36.2826 28.3891C36.0401 28.7152 35.8234 29.0547 35.4592 29.2589C35.0796 29.472 34.6745 29.3749 34.3161 29.1699C34.2873 29.1535 34.2626 29.1966 34.2905 29.2143C34.5829 29.4017 34.9137 29.4954 35.2558 29.4029C35.5903 29.3127 35.8543 29.0372 36.0595 28.7732C36.1866 28.6099 36.293 28.4315 36.4174 28.2662C36.576 28.0552 36.7535 27.8592 36.9318 27.665C37.2346 27.336 37.5558 27.0154 37.8248 26.6577C38.2025 26.1557 38.4483 25.5547 38.6278 24.9563C38.8107 24.3468 38.9219 23.6753 38.8127 23.042ZM35.2483 27.3487C35.2482 27.3507 35.2513 27.3507 35.2516 27.3487C35.2905 26.988 35.5123 26.7256 35.6861 26.4232C35.8402 26.154 35.8454 25.9 35.7059 25.6212C35.6677 25.5444 35.5514 25.612 35.591 25.6883C35.7607 26.0147 35.7381 26.2755 35.5463 26.5818C35.3928 26.8268 35.2678 27.0549 35.2483 27.3487ZM37.8376 22.6124C37.8962 22.5657 37.8175 22.4634 37.7576 22.5085C37.5466 22.6671 37.3628 22.8798 37.1859 23.0756C36.9789 23.305 36.7915 23.5519 36.614 23.8044C36.2418 24.3346 35.8907 24.9002 35.632 25.4956C35.6225 25.5176 35.6533 25.5371 35.6648 25.5149C35.8262 25.2078 35.9886 24.904 36.162 24.6068C36.1621 24.6243 36.1738 24.6427 36.1966 24.644C36.625 24.6724 36.7792 25.1365 36.6915 25.5044C36.6903 25.5088 36.6966 25.5104 36.6981 25.5061C36.8267 25.1428 36.6487 24.5872 36.1966 24.5725C36.1901 24.5723 36.1846 24.574 36.18 24.5761C36.3061 24.3613 36.4385 24.1496 36.5815 23.9428C36.64 24.1068 36.7245 24.1904 36.8808 24.2827C36.9636 24.3316 37.0577 24.3766 37.1296 24.4411C37.2225 24.5246 37.2146 24.6857 37.2085 24.7988C37.1813 25.3073 36.9578 25.7869 36.9933 26.3024C36.9933 26.303 36.9942 26.303 36.9941 26.3024C36.9623 25.7748 37.2041 25.2786 37.2399 24.7571C37.2524 24.5773 37.2581 24.4051 37.1051 24.2858C36.9498 24.1647 36.7023 24.0891 36.6153 23.899C36.6149 23.898 36.6143 23.8974 36.6136 23.8965C36.7937 23.641 36.9925 23.3979 37.2043 23.1678C37.3993 22.9555 37.6151 22.7907 37.8376 22.6124Z" fill="#C25F4B"/>
<path d="M20.5014 27.9469C20.6179 28.4978 20.5403 29.019 20.3646 29.5466C20.2244 29.9677 19.9837 30.3596 19.8893 30.7951C19.8097 31.1608 19.8924 31.505 20.1474 31.7819C20.3313 31.9819 20.5707 32.1101 20.8218 32.2046C20.9844 32.2656 21.1535 32.2874 21.3228 32.3206C21.4792 32.3511 21.6467 32.3828 21.8053 32.3595C21.8341 32.3555 21.8331 32.3074 21.8053 32.3025C21.6526 32.2757 21.4977 32.2727 21.3445 32.2413C21.1679 32.2054 20.9954 32.1113 20.8348 32.0317C20.6033 31.9169 20.3785 31.7761 20.2118 31.5763C19.9683 31.284 20.0228 30.9012 20.1017 30.5595C20.1981 30.1424 20.3663 29.7467 20.47 29.3317C20.5843 28.8735 20.6205 28.4082 20.5029 27.9464C20.5024 27.9454 20.5011 27.9458 20.5014 27.9469Z" fill="#7C2B19"/>
<path d="M22.3601 31.9285C22.2782 31.7254 22.432 31.6804 22.6022 31.6693C22.7707 31.6582 22.9258 31.6449 23.0894 31.6962C23.1058 31.7013 23.1125 31.6758 23.0965 31.6706C22.8906 31.6037 22.6714 31.5214 22.455 31.584C22.2749 31.6363 22.2562 31.7933 22.3324 31.94C22.3403 31.9553 22.3667 31.9448 22.3601 31.9285Z" fill="#7C2B19"/>
<path d="M23.0463 31.8884C23.3105 31.7091 23.3875 31.3362 23.3575 31.0358C23.3556 31.0154 23.3286 31.0158 23.3267 31.0358C23.2884 31.3658 23.2779 31.6229 23.0384 31.8778C23.0334 31.8834 23.04 31.8927 23.0463 31.8884Z" fill="#7C2B19"/>
<path d="M22.3591 31.7881C22.3591 31.7881 22.3341 31.6219 22.8241 31.6718C22.8241 31.6718 22.5748 31.8627 22.3591 31.7881Z" fill="#380D0F"/>
<path d="M19.8953 34.2767C19.8953 34.2767 20.5674 33.6991 21.0547 33.6099C21.3644 33.5532 21.6108 33.8261 21.9058 33.8579C22.2533 33.8954 22.5497 33.6912 22.8936 33.6762C23.403 33.6541 23.6686 33.7262 24.6873 33.9255C25.7059 34.1248 28.1555 34.1438 28.3769 34.1218C28.3769 34.1218 26.9596 34.9188 26.5611 34.9188C26.1624 34.9188 23.4606 35.1846 23.35 35.2067C23.2391 35.2287 21.9549 35.1403 21.7113 35.1403L19.8953 34.2767Z" fill="#C25F4B"/>
<path d="M20.053 34.5129C20.053 34.5129 20.3102 34.9482 20.5956 35.2905C20.8812 35.6325 20.8621 36.1987 21.1096 36.4415C21.3949 36.7214 23.051 37.0324 24.0216 36.5971C24.9924 36.1615 27.9142 34.1189 27.9142 34.1189C27.9142 34.1189 27.5747 34.2157 27.2098 34.2952C26.9508 34.3515 26.6829 34.4505 26.3627 34.4505C25.592 34.4505 22.3658 34.5129 22.2801 34.5441C22.1946 34.5751 20.7382 34.5129 20.6528 34.5129C20.5672 34.5129 20.053 34.5129 20.053 34.5129Z" fill="#BC2423"/>
<path d="M20.9001 35.446C20.9001 35.446 20.8622 36.1717 21.5474 36.3584C22.2326 36.5451 23.089 36.4415 23.089 36.4415L23.9266 36.3378L24.2312 36.2547C24.2312 36.2547 25.1828 35.7984 25.3732 35.4048C25.5635 35.0106 24.4786 35.052 24.4786 35.052C24.4786 35.052 23.8167 35.0055 23.7743 35.052C23.717 35.114 21.1856 35.114 21.1856 35.114L20.9001 35.446Z" fill="black"/>
<path d="M20.9001 35.446C20.9001 35.446 20.8622 36.1717 21.5474 36.3584C22.2326 36.5451 23.089 36.4415 23.089 36.4415L23.9266 36.3378L24.2312 36.2547C24.2312 36.2547 25.1828 35.7984 25.3732 35.4048C25.5635 35.0106 24.4786 35.052 24.4786 35.052C24.4786 35.052 23.8167 35.0055 23.7743 35.052C23.717 35.114 21.1856 35.114 21.1856 35.114L20.9001 35.446Z" fill="#BC2423"/>
<path d="M27.2098 34.2952C26.9508 34.3514 26.6829 34.4505 26.3627 34.4505C25.592 34.4505 22.3658 34.5129 22.2801 34.544C22.1946 34.575 20.7382 34.5129 20.6528 34.5129C20.5672 34.5129 20.053 34.5129 20.053 34.5129C20.053 34.5129 20.3102 34.9482 20.5956 35.2905C20.6756 35.3864 20.7317 35.4998 20.7765 35.6187L20.7955 35.6325C20.7955 35.6325 20.824 35.3837 21.8518 35.3837C22.8797 35.3837 25.4491 35.3215 25.5063 35.6949C25.508 35.7063 25.5101 35.7177 25.5123 35.7288C26.6528 35.0006 27.9142 34.1188 27.9142 34.1188C27.9142 34.1188 27.5747 34.2157 27.2098 34.2952ZM21.1096 36.0992C21.1096 36.0992 21.4236 36.5657 22.1374 36.597C22.8511 36.628 23.9359 36.4414 24.2787 36.2547C24.2787 36.2547 21.8804 36.5037 21.1096 36.0992Z" fill="#BC2423"/>
<path d="M27.2765 34.2017C26.677 34.2952 25.8203 34.3575 24.9638 34.2952C24.1072 34.2328 23.1082 33.9529 22.6227 34.0462C22.1374 34.1396 21.8518 34.3884 21.8518 34.3884C21.8518 34.3884 21.3379 33.9529 21.1096 33.9529C20.8812 33.9529 20.5099 34.1396 20.253 34.2952C19.996 34.4505 19.6134 34.2047 19.6134 34.2047C20.1701 34.718 20.8982 34.9047 21.3692 34.9047C21.5405 35.2312 22.0971 35.1846 22.4825 35.1378L22.8681 35.0445C24.4094 35.0445 26.3367 34.8113 27.9211 34.1115L27.2765 34.2017Z" fill="#AB1C22"/>
<path d="M20.2387 34.6372L20.6243 35.1039C20.6243 35.1039 20.8812 35.0882 21.1809 35.1194C21.4809 35.1506 21.3808 35.3372 22.0661 35.3372C22.7513 35.3372 22.794 35.2439 23.151 35.1972C23.5079 35.1506 25.9346 34.9016 26.063 34.9796C26.1915 35.057 26.1915 35.057 26.1915 35.057C26.1915 35.057 27.1195 34.5906 27.3764 34.3416C27.3764 34.3416 26.2772 34.6529 26.0773 34.7307C25.8776 34.8083 23.308 35.0729 22.8512 35.0417L22.4228 35.1194C22.4228 35.1194 21.6091 35.3528 21.3664 34.8705C21.3664 34.8705 21.1096 34.9796 20.2387 34.6372Z" fill="#BC2423"/>
<path d="M20.668 34.7903C20.5086 34.739 20.3532 34.6798 20.2027 34.6065C20.3526 34.6836 20.5086 34.7467 20.668 34.7903ZM19.6128 34.2053C19.7969 34.3773 19.9949 34.5053 20.2027 34.6065C19.9907 34.4972 19.7913 34.3591 19.6141 34.204C19.6132 34.203 19.6117 34.2045 19.6128 34.2053ZM22.4862 35.1234C22.4176 35.0996 22.337 35.1113 22.2657 35.1143C22.1627 35.1185 22.061 35.1035 21.9582 35.0973C21.7706 35.0859 21.5307 35.0611 21.4147 34.8756C21.4049 34.8603 21.3879 34.8452 21.3692 34.8474C21.1353 34.8769 20.8984 34.8534 20.668 34.7903C20.851 34.8492 21.0388 34.8976 21.2294 34.9449C21.2393 34.9477 21.332 34.949 21.3391 34.9619C21.3632 35.0075 21.3993 35.051 21.4375 35.0824C21.5324 35.1603 21.6395 35.1976 21.7556 35.2205C21.8785 35.2446 22.0033 35.2479 22.1268 35.227C22.2389 35.2078 22.3893 35.2145 22.4897 35.1508C22.5001 35.1441 22.4975 35.1272 22.4862 35.1234ZM27.9209 34.1099C27.5316 34.2759 27.1106 34.388 26.7063 34.5045C26.2747 34.6288 25.8362 34.7283 25.3961 34.8093C24.5582 34.9631 23.7159 35.0119 22.8681 35.0402C22.8629 35.0405 22.8629 35.0489 22.8681 35.0489C23.6989 35.0741 24.5385 34.9949 25.3607 34.871C25.8042 34.8042 26.2438 34.7138 26.6775 34.5935C26.8845 34.536 27.0897 34.4722 27.2921 34.3968C27.5081 34.3164 27.7109 34.2078 27.9216 34.1127C27.9231 34.1122 27.9226 34.1093 27.9209 34.1099Z" fill="#AB1C22"/>
<path d="M24.4501 20.8536C24.4579 20.8475 25.3485 20.4218 26.2206 19.8102C26.6732 19.4934 27.131 19.1661 28.1016 18.9386C29.0557 18.7447 30.5227 18.6507 32.6192 19.5767C32.7566 19.5723 32.8951 19.5709 33.0348 19.5726C33.0306 19.5811 31.8222 18.8449 30.0991 18.3508C28.3688 17.8543 26.7922 18.1047 25.5912 18.7509C24.3576 19.4177 23.9095 20.4769 24.4501 20.8536Z" fill="#050301"/>
<path d="M25.141 20.4414C24.8579 20.6046 24.6302 20.7264 24.5235 20.7813C24.4054 20.6694 24.3512 20.5156 24.3742 20.3196C24.421 19.8793 24.8951 19.2644 25.6691 18.8504C25.9581 18.6946 26.269 18.5638 26.5876 18.4646C27.6262 18.1401 28.8397 18.1162 30.0795 18.4994C31.28 18.8665 32.2285 19.3647 32.6804 19.6239C32.6571 19.6236 32.6336 19.6236 32.6103 19.6234C31.0297 18.8357 29.6067 18.7047 28.5414 18.8284C27.3734 18.9809 26.7919 19.3606 26.3192 19.6809C26.2711 19.7144 26.2243 19.7481 26.1781 19.7814C25.8643 20.0077 25.5173 20.2241 25.141 20.4414Z" fill="#050301"/>
<path d="M19.549 21.2444C19.538 21.2374 19.0092 21.0577 18.4689 20.5309C18.1923 20.2716 17.9191 19.9864 17.3783 19.8221C16.8559 19.6766 16.0331 19.6427 14.9372 20.3952C14.8493 20.3677 14.7598 20.3426 14.6693 20.3197C14.6768 20.3269 15.2996 19.7326 16.2401 19.238C17.0933 18.7943 17.9814 18.9291 18.6779 19.3647C19.4328 19.8342 19.8037 20.7023 19.549 21.2444Z" fill="#050301"/>
<path d="M19.1085 20.9589C19.2808 21.0636 19.4208 21.1278 19.4867 21.1558C19.5385 21.0033 19.5519 20.8306 19.5151 20.6371C19.4411 20.2206 19.107 19.7392 18.6419 19.4497C18.4712 19.3429 18.2924 19.2559 18.1141 19.193C17.5348 18.9868 16.8748 19.0115 16.2634 19.3581C15.6237 19.7189 15.1416 20.1394 14.8991 20.3595C14.9143 20.3633 14.9292 20.3672 14.9441 20.3714C15.7699 19.7447 16.5522 19.6139 17.1306 19.7042C17.7614 19.8101 18.1129 20.1209 18.3937 20.3868C18.423 20.4149 18.4515 20.4426 18.4796 20.4705C18.6734 20.6605 18.8811 20.8208 19.1085 20.9589Z" fill="#050301"/>
<path d="M28.1252 26.651L29.0717 27.1494C29.0717 27.1494 30.4171 26.4518 31.3138 26.0532L31.4135 24.8575L28.175 26.4518L28.1252 26.651Z" fill="#050301"/>
<path d="M31.2448 23.255C31.2448 23.255 32.4778 22.5218 32.8519 21.5133C32.8519 21.5133 32.7574 22.8159 31.2627 23.8348L31.2448 23.255Z" fill="#050301"/>
<path d="M31.6101 23.5584C31.6101 23.5584 32.0751 23.193 32.2744 22.6616C32.2744 22.6616 30.9459 21.5321 28.5874 21.7647C26.2402 21.9962 25.4317 24.6877 24.9999 26.3819L27.2918 25.5847L31.6101 23.5584Z" fill="#050301"/>
<path d="M25.2388 26.123C25.4608 25.2925 25.7544 24.3807 26.2178 23.6105C26.8394 22.5765 27.6199 22.0269 28.6037 21.93C28.8105 21.9093 29.0181 21.8992 29.2207 21.8992C30.7722 21.8992 31.7697 22.5048 32.071 22.7165C31.8947 23.0896 31.5885 23.3599 31.521 23.4168L27.2288 25.4307L25.2388 26.123Z" fill="#050301"/>
<path d="M28.3742 22.5657C26.4808 22.8146 25.3849 25.0567 24.8867 26.7009C24.8867 26.7009 25.4327 26.5644 25.9162 26.5525C26.7083 26.7593 27.6004 26.8251 28.1848 26.8447C28.1982 26.8466 28.2116 26.8486 28.2248 26.8505C28.9222 26.95 28.8225 26.8505 28.8225 26.8505C29.5701 26.651 30.3173 26.402 30.8654 25.8541C30.8654 25.8541 31.5629 25.0567 31.5629 23.8111V23.4624C30.716 22.8146 29.5701 22.4163 28.3742 22.5657Z" fill="white"/>
<path d="M31.0091 24.3832C31.0091 23.8214 30.8405 23.3016 30.5556 22.879C29.8934 22.6005 29.1442 22.4692 28.3742 22.5657C27.5185 22.6783 26.8254 23.198 26.2769 23.886C26.2476 24.0467 26.2319 24.213 26.2319 24.3832C26.2319 25.5326 26.9347 26.5052 27.9037 26.8323C28.0032 26.8376 28.0978 26.8418 28.1849 26.8447C28.1983 26.8466 28.2117 26.8486 28.2248 26.8505C28.9222 26.95 28.8225 26.8505 28.8225 26.8505C29.2637 26.7327 29.7047 26.5973 30.1045 26.3936C30.6555 25.9235 31.0091 25.1979 31.0091 24.3832Z" fill="#755AB3"/>
<path d="M28.6204 26.6137C29.7668 26.6137 30.6961 25.615 30.6961 24.3832C30.6961 23.6972 30.4078 23.084 29.9545 22.6746C29.4538 22.5435 28.9193 22.4975 28.3742 22.5657C27.7638 22.646 27.2364 22.9334 26.7851 23.3414C26.632 23.6523 26.5448 24.0066 26.5448 24.3832C26.5448 25.615 27.4741 26.6137 28.6204 26.6137Z" fill="#755AB3"/>
<path d="M30.0882 24.3832C30.0882 25.2543 29.431 25.9605 28.6204 25.9603C27.8099 25.9603 27.1526 25.2543 27.1526 24.3832C27.1526 23.5122 27.8099 22.806 28.6204 22.806C29.431 22.806 30.0882 23.5122 30.0882 24.3832Z" fill="#050301"/>
<path d="M29.8958 24.3832C29.8958 25.1401 29.3249 25.7538 28.6204 25.7538C27.9161 25.7538 27.3451 25.1401 27.3451 24.3832C27.3451 23.6264 27.9161 23.0126 28.6204 23.0126C29.3249 23.0126 29.8958 23.6264 29.8958 24.3832Z" fill="#050301"/>
<path d="M29.8958 24.3832C29.8958 25.1401 29.3249 25.7538 28.6204 25.7538C27.9161 25.7538 27.3451 25.1401 27.3451 24.3832C27.3451 23.6264 27.9161 23.0126 28.6204 23.0126C29.3249 23.0126 29.8958 23.6264 29.8958 24.3832Z" fill="#050301"/>
<path d="M28.0662 23.1331C28.0662 23.462 28.3143 23.7287 28.6204 23.7287C28.9267 23.7287 29.1745 23.462 29.1745 23.1331C29.1745 22.8212 28.9515 22.5656 28.6676 22.5399C28.6117 22.5429 28.556 22.5467 28.5001 22.552C28.2519 22.6112 28.0662 22.8486 28.0662 23.1331Z" fill="white"/>
<path d="M31.5727 23.4525C30.3947 22.374 28.4067 22.0492 27.071 23.0144C26.4933 23.4317 26.0644 24.0151 25.7252 24.6346C25.3869 25.2524 25.1132 25.9112 24.915 26.5871C24.904 26.6245 24.8935 26.6622 24.8832 26.7001C24.8819 26.7044 24.8885 26.706 24.8899 26.7019C25.3197 25.4119 25.9344 24.0646 27.0453 23.2182C27.6543 22.7544 28.3602 22.5911 29.1176 22.6309C29.9972 22.6769 30.8158 23.018 31.5559 23.4744C31.5693 23.4828 31.5847 23.4633 31.5727 23.4525ZM30.8622 25.8506C30.571 26.1005 30.2567 26.3051 29.9072 26.4634C29.5564 26.6226 29.1847 26.7216 28.8219 26.8479C28.8185 26.8491 28.82 26.8537 28.8234 26.853C29.5489 26.7136 30.3634 26.4209 30.8688 25.8571C30.8727 25.8527 30.8668 25.8467 30.8622 25.8506Z" fill="#050301"/>
<path d="M16.566 25.9039V26.402C16.566 26.402 17.3134 26.8005 18.0606 27.2989L18.808 26.7509L16.566 25.9039Z" fill="#050301"/>
<path d="M16.297 24.8541C16.297 24.8541 15.0547 24.2928 14.5231 23.2632C14.5231 23.2632 15.7654 24.4221 16.4628 24.5549L16.297 24.8541Z" fill="#050301"/>
<path d="M16.2304 24.7211C16.2304 24.7211 15.8982 24.6546 15.4997 24.2227C15.4997 24.2227 15.518 22.7576 16.7952 22.2629C17.8249 21.8644 18.6522 22.6722 19.0854 23.5367C19.3296 24.0243 19.4328 24.5601 19.5215 25.094C19.5605 25.3278 19.5648 26.4361 19.7514 26.5812C19.7514 26.5809 18.5555 25.6509 18.4228 25.6178C18.2901 25.5847 16.2304 24.7211 16.2304 24.7211Z" fill="#050301"/>
<path d="M19.4428 26.134C18.5979 25.4904 18.4987 25.4657 18.4631 25.4568C18.3524 25.4251 17.074 24.8948 16.2947 24.5678L16.281 24.5623L16.2648 24.5585C16.262 24.5579 15.9978 24.4957 15.6688 24.1598C15.6891 23.8814 15.8333 22.8133 16.8551 22.4181C17.0153 22.3558 17.1758 22.3243 17.3324 22.3243C18.2227 22.3243 18.7855 23.3096 18.9367 23.6113C19.1718 24.0801 19.2699 24.593 19.3577 25.1212C19.367 25.176 19.3752 25.308 19.384 25.4478C19.4016 25.7272 19.4192 25.9533 19.4428 26.134Z" fill="#050301"/>
<path d="M16.1673 24.7579L16.2172 24.9572C16.4164 25.6545 16.815 26.1527 16.815 26.1527C17.1447 26.5791 17.3967 26.733 17.8614 26.95C18.4733 27.2359 19.3003 26.5229 19.8045 26.9002C19.6551 25.8541 19.6053 24.7579 18.9575 23.7613C18.1263 22.4827 16.3666 22.4659 16.1673 24.7579Z" fill="white"/>
<path d="M17.4356 22.9025C17.1226 23.341 16.9427 23.9951 16.9826 24.7151C17.0522 25.9803 17.7725 26.9694 18.5913 26.9244C19.0517 26.8988 19.4452 26.5521 19.6892 26.0282C19.5823 25.2583 19.4268 24.4836 18.9575 23.7613C18.5686 23.163 17.9764 22.8409 17.4356 22.9025Z" fill="#755AB3"/>
<path d="M17.1767 24.7043C17.2373 25.8037 17.8631 26.6633 18.5747 26.6241C19.0418 26.5983 19.4296 26.1917 19.6239 25.6048C19.5148 24.976 19.3409 24.3512 18.9575 23.7613C18.6457 23.2819 18.2036 22.9797 17.7618 22.9105C17.3746 23.2678 17.135 23.9436 17.1767 24.7043Z" fill="#755AB3"/>
<path d="M18.3876 23.2258C17.8845 23.2535 17.5114 23.9061 17.5541 24.6837C17.597 25.4609 18.0395 26.0688 18.5429 26.0409C19.0374 26.014 19.4061 25.3824 19.3776 24.6223C19.2746 24.3296 19.1398 24.0416 18.9575 23.7613C18.8173 23.5456 18.6506 23.3661 18.4697 23.2272C18.4425 23.225 18.4153 23.2244 18.3876 23.2258Z" fill="#050301"/>
<path d="M19.2567 24.5898C19.2939 25.2654 18.9697 25.8325 18.5325 25.8564C18.0955 25.8807 17.7106 25.3526 17.6734 24.677C17.6362 24.0015 17.9605 23.4344 18.3978 23.4103C18.8351 23.3863 19.2195 23.9144 19.2567 24.5898Z" fill="#050301"/>
<path d="M19.2567 24.5898C19.2939 25.2654 18.9697 25.8325 18.5325 25.8564C18.0955 25.8807 17.7106 25.3526 17.6734 24.677C17.6362 24.0015 17.9605 23.4344 18.3978 23.4103C18.8351 23.3863 19.2195 23.9144 19.2567 24.5898Z" fill="#050301"/>
<path d="M18.0597 23.5366C18.0759 23.8303 18.2431 24.0597 18.433 24.0492C18.623 24.0386 18.7638 23.7923 18.7477 23.4988C18.7474 23.494 18.7467 23.4894 18.7465 23.4848C18.5849 23.3042 18.4026 23.1617 18.2115 23.0619C18.1108 23.1585 18.0487 23.3366 18.0597 23.5366Z" fill="white"/>
<path d="M19.6406 25.5809C19.5635 25.1327 19.4494 24.6877 19.2694 24.2694C19.0386 23.7338 18.6725 23.1611 18.1068 22.9325C17.6916 22.7648 17.2066 22.787 16.847 23.0712C16.3628 23.4542 16.207 24.1192 16.1679 24.7057C16.167 24.7231 16.1658 24.7403 16.1647 24.7579C16.1644 24.7616 16.1697 24.7613 16.17 24.7579C16.2422 24.1769 16.4244 23.5307 16.9249 23.1724C17.2877 22.9126 17.7354 22.9208 18.1294 23.1016C18.6826 23.3558 19.026 23.8621 19.2633 24.4062C19.4363 24.8027 19.5369 25.222 19.6104 25.6468C19.682 26.0623 19.697 26.493 19.7921 26.9036C19.7954 26.9177 19.8181 26.9148 19.8173 26.9002C19.7942 26.4618 19.7152 26.0135 19.6406 25.5809ZM17.8676 26.9396C17.6854 26.8307 17.4941 26.7378 17.3179 26.619C17.1268 26.4904 16.9698 26.3213 16.8191 26.1487C16.8149 26.1438 16.8061 26.1502 16.8101 26.1559C17.076 26.5333 17.4217 26.8071 17.8582 26.9617C17.8716 26.9663 17.8789 26.9465 17.8676 26.9396Z" fill="#050301"/>
<path d="M22.8008 0.6651C22.7952 0.67141 22.7896 0.678242 22.784 0.684681C22.7551 0.718975 22.7259 0.753792 22.6961 0.789268C22.6852 0.802406 22.6742 0.815811 22.663 0.829212C22.6313 0.867313 22.5993 0.906208 22.5669 0.945759C22.5573 0.957451 22.5476 0.969276 22.538 0.981102C22.5037 1.02315 22.4691 1.06598 22.4344 1.10973C22.427 1.11867 22.4197 1.12813 22.4124 1.13733C22.3754 1.18384 22.3381 1.23101 22.3007 1.27923C22.2959 1.28527 22.291 1.29158 22.2864 1.29788C22.247 1.34873 22.2077 1.4001 22.1686 1.45227C22.1667 1.45463 22.1649 1.457 22.1632 1.45949C22.1232 1.51244 22.0837 1.56618 22.0441 1.62058C22.0408 1.62518 22.0373 1.62964 22.034 1.63437C21.9951 1.68785 21.9566 1.74199 21.9185 1.79664C21.9142 1.80308 21.9095 1.80952 21.905 1.81609C21.8675 1.86996 21.8306 1.92435 21.7941 1.97901C21.7892 1.98624 21.7844 1.99321 21.7796 2.00043C21.7434 2.05496 21.7079 2.10962 21.6732 2.1648C21.6685 2.17242 21.6638 2.17965 21.659 2.18714C21.6242 2.24245 21.5902 2.2979 21.5571 2.35335C21.5527 2.36058 21.5487 2.36781 21.5443 2.37516C21.5111 2.43127 21.4786 2.48776 21.4472 2.54426C21.4439 2.55043 21.4407 2.55674 21.437 2.56292C21.4053 2.62047 21.3746 2.67815 21.3453 2.73596C21.343 2.74043 21.3408 2.74503 21.3387 2.74936C21.3083 2.80875 21.2794 2.86827 21.2522 2.92766C21.2515 2.9295 21.2507 2.93134 21.2499 2.93305C21.1935 3.05629 21.1437 3.17888 21.1017 3.30042C21.1014 3.3016 21.1009 3.30278 21.1005 3.30397C21.0804 3.3627 21.0624 3.4209 21.0461 3.47871C21.0454 3.48134 21.0444 3.4841 21.0435 3.4866H21.0437C20.8335 4.24512 20.9786 4.9252 21.8583 5.29861C18.8737 7.02917 16.4988 9.29632 15.5994 11.0685C13.3405 15.5198 13.0084 18.7085 11.6133 21.8312C11.4129 22.2793 11.2224 22.6647 11.0412 23.0094C11.0189 23.0517 10.9968 23.094 10.9748 23.135C10.964 23.1555 10.9533 23.1749 10.9425 23.1951C10.8546 23.3578 10.7691 23.5119 10.6861 23.6583C10.6824 23.6649 10.6786 23.6717 10.6749 23.6783C10.6461 23.7291 10.6175 23.7789 10.5892 23.8279C10.5862 23.8334 10.5829 23.839 10.5798 23.8442C10.3912 24.1718 10.2153 24.4666 10.0521 24.7582C10.0481 24.7651 10.0443 24.772 10.0405 24.7791C10.0155 24.8235 9.99105 24.868 9.96683 24.9124C9.95903 24.9265 9.95153 24.9405 9.94388 24.955C9.92335 24.9927 9.90324 25.0307 9.88327 25.0685C9.87424 25.0856 9.86541 25.1027 9.85653 25.1196C9.8379 25.1555 9.81942 25.1915 9.8012 25.2276C9.79196 25.2456 9.78303 25.2636 9.774 25.2815C9.75527 25.3193 9.73679 25.3574 9.71857 25.3955C9.71082 25.4117 9.70292 25.4277 9.69527 25.444C9.67156 25.4943 9.64825 25.5448 9.62531 25.5962C9.62342 25.6005 9.62137 25.6046 9.61946 25.6091C9.59436 25.6649 9.56989 25.7221 9.54566 25.7799C9.53919 25.7951 9.53303 25.811 9.52682 25.8266C9.50947 25.8686 9.49227 25.9113 9.47544 25.9545C9.46702 25.9763 9.45861 25.9982 9.45035 26.0202C9.43582 26.0588 9.4214 26.0973 9.40718 26.1366C9.39836 26.161 9.38974 26.1856 9.38105 26.2104C9.36736 26.2492 9.35406 26.2885 9.34077 26.3283C9.33225 26.3539 9.32383 26.3794 9.31541 26.4055C9.30186 26.4471 9.28877 26.4898 9.27564 26.5326C9.26799 26.5577 9.26008 26.5827 9.25239 26.6083C9.23765 26.6587 9.22318 26.7104 9.20886 26.7624C9.20342 26.7817 9.19788 26.8005 9.19254 26.8201C9.17303 26.8926 9.1538 26.9669 9.13506 27.0431C9.1309 27.0596 9.12705 27.0774 9.12295 27.0943C9.10841 27.1545 9.09411 27.2158 9.08003 27.2786C9.07357 27.3073 9.06736 27.3371 9.06105 27.3664C9.04955 27.4195 9.03836 27.473 9.02718 27.5282C9.02045 27.5614 9.01388 27.5957 9.00726 27.6296C8.99684 27.6833 8.98663 27.7379 8.97642 27.7934C8.96994 27.8292 8.96348 27.8654 8.95707 27.9022C8.94711 27.9595 8.93715 28.0184 8.92761 28.0779C8.92166 28.1143 8.91555 28.1504 8.90974 28.188C8.89942 28.2538 8.88957 28.322 8.87947 28.3906C8.87474 28.4235 8.86981 28.4555 8.86504 28.489C8.85052 28.5922 8.8365 28.6977 8.8229 28.8067C8.3579 32.5271 9.88588 33.5901 10.816 34.9188C11.7461 36.2475 12.6098 37.3104 13.0748 38.905C13.0748 38.905 13.739 44.0202 17.2601 44.6848C17.2601 44.6848 14.0712 43.0904 13.8719 39.3034C13.6725 35.5169 15.0014 32.9258 15.3335 30.9991L15.566 29.8366C15.101 28.8401 14.935 27.3784 14.935 26.4483C14.935 26.3576 14.9323 26.265 14.9289 26.1714C14.9283 26.1564 14.9277 26.1415 14.9272 26.1261C14.9233 26.0366 14.9176 25.9458 14.9108 25.8548C14.9095 25.8375 14.908 25.8202 14.9066 25.803C14.8992 25.71 14.8905 25.6167 14.8803 25.5227C14.8795 25.5139 14.8785 25.505 14.8774 25.4958C14.8668 25.4009 14.8552 25.3062 14.8423 25.2115C14.8415 25.2048 14.8407 25.1982 14.84 25.1915C14.8263 25.0937 14.812 24.9964 14.7965 24.8997C14.7948 24.8885 14.7931 24.8776 14.7912 24.8664C14.7754 24.7689 14.7588 24.6724 14.7414 24.577C14.7406 24.5726 14.74 24.5686 14.7391 24.5642C14.6773 24.2276 14.6069 23.9073 14.5363 23.6248C14.337 22.8276 14.204 22.5618 14.1377 21.8644C14.0712 21.1667 14.5363 19.8382 14.5363 19.8382C19.2533 17.3799 26.0237 12.3887 26.0237 12.3887C26.0237 12.3887 28.9141 16.3754 30.4088 17.97C31.9039 19.5647 32.5017 21.0596 32.5017 21.0596C32.5017 21.0596 31.4542 27.3443 30.9116 31.6632C30.9113 31.6645 30.9111 31.6661 30.9109 31.6674C30.8927 31.8133 30.8748 31.957 30.8579 32.0981C30.8576 32.0995 30.8573 32.101 30.8573 32.1024C30.84 32.2447 30.8233 32.3842 30.8075 32.5208C30.3093 36.8063 28.017 44.5801 22.9342 48.2675C22.9342 48.2675 28.0169 45.2776 30.8075 37.3046C30.8075 37.3046 33.0383 31.9298 33.9353 27.5443C33.9353 27.5443 34.6021 25.2062 35.1504 24.9073C35.1504 24.9073 36.1469 23.1635 36.4955 22.4163C36.4955 22.4163 37.1431 21.6688 38.1395 22.0176C38.1395 22.0176 43.5719 10.7427 36.9561 4.9926C37.48 4.641 37.9013 4.22317 38.2395 3.79195C34.4 1.39012 29.8626 3.8147e-06 24.9999 3.8147e-06C24.4411 3.8147e-06 23.8872 0.0205002 23.3375 0.0564995C23.2478 0.154385 23.1577 0.25201 23.0706 0.351868C22.9875 0.446995 22.8965 0.552105 22.8008 0.6651ZM14.1345 23.9521C14.1356 23.9789 14.1366 24.0063 14.1377 24.0349C14.1386 24.0628 14.1395 24.0917 14.1403 24.1213C14.141 24.1514 14.1416 24.182 14.1423 24.2135C14.1429 24.2447 14.1433 24.2766 14.1437 24.3091C14.1442 24.3421 14.1448 24.3754 14.1449 24.4096C14.1452 24.4436 14.1453 24.4784 14.1456 24.5138C14.1456 24.5491 14.1456 24.5854 14.1456 24.622C14.1454 24.6592 14.1453 24.6971 14.1449 24.7357C14.1448 24.7733 14.1442 24.8116 14.144 24.8504C14.1436 24.8903 14.1431 24.9307 14.1425 24.9718C14.1419 25.0119 14.1412 25.0526 14.1404 25.0939C14.1398 25.1359 14.139 25.1785 14.1379 25.222C14.137 25.2642 14.1361 25.3071 14.1349 25.3501C14.1339 25.395 14.1327 25.4401 14.1314 25.4859C14.1301 25.53 14.1285 25.5745 14.1273 25.6194C14.1257 25.6662 14.1243 25.7134 14.1226 25.7612C14.121 25.8067 14.1194 25.853 14.1176 25.8997C14.1157 25.949 14.1138 25.9988 14.1117 26.0491C14.11 26.0947 14.1078 26.1412 14.1059 26.1874C14.1035 26.2403 14.1013 26.2933 14.0987 26.3469C14.0967 26.3936 14.0943 26.4412 14.0918 26.4885C14.0892 26.5425 14.0866 26.5962 14.0837 26.651C14.0812 26.6996 14.0785 26.7486 14.0759 26.7979C14.0728 26.8533 14.0699 26.9089 14.0666 26.9651C14.0638 27.0135 14.0608 27.0626 14.0579 27.1116C14.0544 27.1697 14.0511 27.2275 14.0473 27.2859C14.0441 27.3357 14.0408 27.3856 14.0376 27.4358C14.0337 27.4935 14.0299 27.5513 14.026 27.6096C14.0226 27.6614 14.0188 27.7135 14.0151 27.7657C14.011 27.824 14.0067 27.8824 14.0023 27.9412C13.9985 27.9924 13.9947 28.044 13.9906 28.0956C13.986 28.1557 13.9814 28.2157 13.9766 28.276C13.9725 28.3275 13.9682 28.3793 13.9641 28.4312C13.959 28.4913 13.9541 28.5514 13.9489 28.6117C13.9443 28.6651 13.9394 28.7186 13.9348 28.7722C13.9296 28.8314 13.9244 28.8908 13.919 28.9502C13.914 29.0033 13.9089 29.0565 13.9038 29.1096C13.8983 29.1696 13.8925 29.2299 13.8866 29.2901C13.8816 29.3427 13.8761 29.3956 13.8707 29.4483C13.8645 29.5084 13.8586 29.5687 13.8523 29.6284C13.8466 29.6819 13.8407 29.7354 13.8351 29.789C13.8286 29.8476 13.8225 29.9066 13.8158 29.9651C13.8097 30.0193 13.8034 30.0732 13.7972 30.1271C13.7904 30.1847 13.784 30.2423 13.777 30.2997C13.7706 30.3533 13.7639 30.4064 13.7573 30.46C13.7503 30.5172 13.7434 30.5747 13.736 30.6314C13.7293 30.684 13.7223 30.7363 13.7153 30.7885C13.7078 30.8451 13.7005 30.902 13.6927 30.9581C13.6856 31.0111 13.6779 31.0632 13.6706 31.1157C13.6628 31.1701 13.6552 31.2247 13.6473 31.2786C13.6397 31.3314 13.6317 31.3832 13.6237 31.4353C13.6157 31.4882 13.6079 31.5411 13.5996 31.5934C13.5915 31.6449 13.5831 31.6951 13.5751 31.7461C13.5666 31.7974 13.5584 31.8495 13.5497 31.8999C13.5409 31.952 13.5318 32.0025 13.5229 32.0538C13.5145 32.1016 13.5061 32.1505 13.4977 32.1977C13.4878 32.2511 13.4778 32.303 13.4678 32.3556C13.4596 32.399 13.4514 32.4432 13.4431 32.4859C13.4312 32.5462 13.419 32.605 13.4067 32.664C13.3999 32.6968 13.3933 32.7306 13.3865 32.763C13.3671 32.8534 13.3475 32.9423 13.3275 33.0285C12.6796 35.8188 12.9786 37.8116 12.9786 37.8116C12.281 36.0181 10.587 34.3241 9.93932 32.8792C9.29171 31.4343 9.39138 29.8896 10.1884 26.95C10.2115 26.865 10.2367 26.7792 10.2635 26.693C10.2723 26.6646 10.2819 26.6359 10.291 26.6074C10.3096 26.5489 10.3289 26.4903 10.3491 26.4313C10.3603 26.3983 10.3722 26.3652 10.384 26.3322C10.4037 26.2765 10.424 26.2209 10.4452 26.1651C10.4577 26.1312 10.4705 26.0976 10.4835 26.0639C10.5061 26.0055 10.5294 25.9471 10.5533 25.8887C10.5655 25.8583 10.5775 25.8282 10.5901 25.7977C10.6236 25.7176 10.6578 25.6372 10.6933 25.5566C10.7002 25.541 10.7072 25.5251 10.7142 25.5093C10.7497 25.4298 10.7859 25.3505 10.823 25.271C10.8386 25.2376 10.8546 25.2042 10.8706 25.1709C10.8969 25.1155 10.9234 25.0605 10.9504 25.0054C10.9686 24.9683 10.9871 24.9309 11.0057 24.8936C11.0314 24.8423 11.0573 24.7907 11.0837 24.7395C11.1031 24.7015 11.1225 24.6636 11.1423 24.6256C11.169 24.5742 11.1964 24.523 11.2234 24.4719C11.2428 24.4353 11.2619 24.3991 11.2816 24.3625C11.3148 24.3011 11.3487 24.2401 11.3825 24.1789C11.4094 24.1302 11.4366 24.0819 11.4637 24.0334C11.496 23.9763 11.5283 23.9191 11.5609 23.8626C11.584 23.8223 11.6074 23.7826 11.6306 23.7428C11.6561 23.6992 11.6813 23.6557 11.707 23.6126C11.7319 23.5705 11.757 23.5286 11.782 23.4868C11.8062 23.4468 11.8303 23.4067 11.8544 23.367C11.8801 23.3248 11.9056 23.2828 11.9313 23.241C12.9441 21.5957 13.9751 20.3236 13.9751 20.3236C13.8754 21.1704 14.0249 22.3165 14.1245 23.7613C14.1269 23.7966 14.129 23.8358 14.131 23.8752C14.1324 23.8998 14.1335 23.9258 14.1345 23.9521Z" fill="#492B66"/>
</svg>
