<svg width="50" height="50" viewBox="0 0 50 50" fill="none" xmlns="http://www.w3.org/2000/svg">
<path d="M49.9999 25.0001C49.9999 38.8073 38.8066 50 24.9999 50C11.1933 50 0 38.8073 0 25.0001C0 11.1929 11.1933 0 24.9999 0C38.8066 0 49.9999 11.1929 49.9999 25.0001Z" fill="#5C57AB"/>
<path d="M32.8453 44.3149C32.819 44.2732 32.7927 44.231 32.7652 44.1879C32.7507 44.1632 32.7349 44.1386 32.7192 44.1135C32.6955 44.0754 32.6719 44.036 32.6482 43.9968C32.6311 43.9681 32.6141 43.9394 32.5957 43.91C32.572 43.8708 32.5484 43.8304 32.5247 43.7899C32.5076 43.7609 32.4906 43.732 32.4735 43.7025C32.4314 43.6329 32.3907 43.5619 32.3487 43.4887C31.5301 42.0675 31.3264 38.9153 31.2844 36.8737C31.2831 36.831 31.2817 36.7888 31.2817 36.7473C31.2804 36.7247 31.2804 36.7021 31.2804 36.6799C31.2791 36.6339 31.2791 36.5888 31.2791 36.5446C31.2778 36.5135 31.2778 36.4832 31.2778 36.453C31.2765 36.4204 31.2765 36.3881 31.2765 36.3565C31.2765 36.3292 31.2752 36.3024 31.2752 36.2757C31.2752 36.2488 31.2752 36.2222 31.2752 36.196C31.2752 36.1554 31.2752 36.1156 31.2739 36.0765C31.2739 36.0497 31.2739 36.0228 31.2739 35.9967C31.2739 35.9702 31.2739 35.9444 31.2739 35.9187C31.2739 35.8988 31.2739 35.8789 31.2739 35.8593C31.2739 35.8335 31.2739 35.8071 31.2739 35.7821C31.2739 35.7817 31.2739 35.7816 31.2739 35.7812C31.2752 35.7198 31.2752 35.6621 31.2752 35.6069C31.2752 35.593 31.2752 35.579 31.2752 35.5653C31.2765 35.5419 31.2765 35.5186 31.2765 35.4964C31.2765 35.4867 31.2765 35.4771 31.2765 35.4678C31.2778 35.4276 31.2778 35.3897 31.2778 35.354C31.2778 35.3435 31.2791 35.333 31.2791 35.3229C31.2791 35.3036 31.2791 35.2853 31.2791 35.2673C31.2791 35.2602 31.2791 35.2532 31.2804 35.2463C31.2804 35.212 31.2804 35.1812 31.2817 35.1534C31.2817 35.1497 31.2817 35.1454 31.2817 35.1417C31.2817 35.1283 31.2817 35.1163 31.283 35.1045C31.283 35.0971 31.283 35.09 31.283 35.0833C31.283 35.0755 31.283 35.0671 31.283 35.0602C31.2844 35.0467 31.2844 35.0347 31.2844 35.0249C31.2844 35.0192 31.2844 35.0151 31.2844 35.0108C31.2844 35.0065 31.2844 35.0019 31.2857 34.9987C31.2857 34.996 31.2857 34.9929 31.2857 34.9912C31.2857 34.9885 31.2857 34.9853 31.2857 34.9853L23.4455 39.1039C23.4613 39.2569 23.4758 39.4063 23.4876 39.5538C23.4915 39.6032 23.4941 39.6511 23.4981 39.7001C23.5046 39.7973 23.5112 39.8941 23.5165 39.9891C23.5204 40.0452 23.5231 40.1004 23.5257 40.156C23.5296 40.2415 23.5336 40.3265 23.5362 40.4104C23.5388 40.4674 23.5401 40.5238 23.5414 40.5801C23.5428 40.6603 23.5441 40.7399 23.5454 40.8186C23.5454 40.8739 23.5454 40.9288 23.5454 40.9832C23.5454 41.0621 23.5441 41.1396 23.5428 41.2167C23.5428 41.268 23.5415 41.3196 23.5401 41.3699C23.5375 41.4516 23.5349 41.5315 23.5309 41.6109C23.5283 41.6543 23.527 41.6984 23.5244 41.7412C23.5191 41.8467 23.5112 41.9504 23.5033 42.0525C23.502 42.0676 23.502 42.0835 23.4994 42.0985C23.4902 42.2148 23.4784 42.3283 23.4666 42.4401C23.4613 42.477 23.456 42.5126 23.4521 42.549C23.4429 42.6238 23.4324 42.6983 23.4219 42.7708C23.4166 42.8134 23.4087 42.8545 23.4022 42.8963C23.3917 42.9613 23.3812 43.026 23.3693 43.0894C23.3628 43.1324 23.3549 43.1743 23.3457 43.2164C23.3338 43.2772 23.322 43.3375 23.3089 43.3969C23.2997 43.4379 23.2905 43.4789 23.2813 43.5194C23.2681 43.5789 23.2537 43.6368 23.2392 43.6948C23.23 43.7327 23.2195 43.7708 23.2104 43.8082C23.1933 43.8691 23.1762 43.9285 23.1591 43.9876C23.1499 44.02 23.1407 44.0527 23.1315 44.0843C23.1079 44.1586 23.0842 44.231 23.0606 44.3027C23.0553 44.3177 23.05 44.3335 23.0448 44.3486C22.4719 45.9899 21.4733 46.9441 20.3907 47.5414C19.7587 47.8898 18.9059 48.4385 18.044 49.0184C20.2527 49.6569 22.5862 50 24.9999 50C29.1256 50 33.0174 49 36.4481 47.23C36.4323 47.2232 36.4165 47.2159 36.4008 47.2091C34.5705 46.4083 33.8229 45.8529 32.8453 44.3149Z" fill="#D86F57"/>
<path d="M37.3665 22.5655C37.2378 22.4713 36.7385 22.3322 36.6005 22.2959C36.933 19.705 37.7607 14.8832 34.1777 11.0611C30.1453 6.76078 24.636 6.76078 21.6127 7.49986C18.588 8.23907 15.0273 11.2625 14.2876 14.5552C13.5491 17.8475 14.013 18.8411 13.6805 19.9042C13.3481 20.967 12.7503 22.4287 13.5478 24.0232C13.5478 24.0232 13.9459 25.6175 13.9459 27.4114C13.9459 29.2051 15.0089 31.7296 17.0021 34.2543C18.9953 36.7787 20.2015 39.4171 22.5166 39.6354C26.0366 39.9677 31.0413 36.7955 32.7468 33.1305C33.2422 32.0678 33.5838 30.9281 33.8768 29.7944C34.4352 29.8976 34.8846 29.5268 35.2735 28.9428C35.7728 28.1957 36.4205 27.6973 36.9185 26.9997C37.6661 25.9532 38.4624 23.3625 37.3665 22.5655Z" fill="#DD7560"/>
<path d="M15.2297 14.3911C15.5687 13.4331 16.0982 12.5597 16.9312 11.863C18.4645 10.5818 20.6745 9.98812 22.6494 10.117C23.6926 10.1851 24.9474 10.4452 25.879 10.9405C27.5831 11.8469 28.5436 12.8178 28.8445 14.773C28.9706 15.5965 28.968 16.4374 29.1204 17.2572C29.148 17.4065 29.8102 19.3227 30.0927 19.0777C30.0927 19.0777 28.947 20.0742 28.7972 20.0742C28.6474 20.0742 13.9499 20.6222 13.9499 20.6222L13.6004 20.4229C13.6004 20.4229 14.5977 19.0279 14.6476 17.9317C14.7015 16.7339 14.8368 15.5055 15.2297 14.3911Z" fill="#DD7560"/>
<path d="M19.2278 30.7663C19.2278 30.7663 19.2607 31.1319 19.7928 31.1981C20.3237 31.2646 20.6889 31.032 20.8886 30.5671C21.0884 30.1021 21.4865 27.6438 21.3538 24.9534L19.3606 24.9865C19.3606 24.9865 19.7258 27.7768 19.6601 28.6736C19.5931 29.5707 19.2278 30.7663 19.2278 30.7663Z" fill="#DD7560"/>
<path d="M19.3487 30.2459C19.3487 30.2459 19.6154 30.0467 19.8809 30.0467C20.1463 30.0467 21.1212 30.4232 21.1212 30.4232L21.2539 30.1575C21.2539 30.1575 20.2356 29.759 19.8809 29.759C19.8809 29.759 19.6811 29.759 19.5038 29.8917L19.3487 30.2459Z" fill="#DD7560"/>
<path d="M25.5584 27.0746C25.5584 27.7211 25.0341 28.2453 24.3877 28.2453C23.7412 28.2453 23.217 27.7211 23.217 27.0746C23.217 26.4279 23.7412 25.9037 24.3877 25.9037C25.0341 25.9037 25.5584 26.4279 25.5584 27.0746Z" fill="black"/>
<path d="M19.4762 27.001C19.5274 27.6045 19.1727 28.1263 18.6865 28.1669C18.199 28.2073 17.7641 27.7509 17.7142 27.1475C17.6643 26.5442 18.0177 26.0227 18.5052 25.9821C18.9913 25.9416 19.4262 26.3977 19.4762 27.001Z" fill="black"/>
<path d="M33.2093 31.1856C32.0005 33.2945 29.7774 34.2907 28.244 33.4113C26.7107 32.532 26.4479 30.1096 27.658 28.0009C28.8668 25.8926 31.0913 24.8961 32.6233 25.7757C34.1567 26.6552 34.4195 29.0773 33.2093 31.1856Z" fill="#DD7560"/>
<path d="M17.734 29.1154C17.0415 27.0485 15.3111 25.6071 13.8592 25.8823C13.9105 26.3484 13.9459 26.8709 13.9459 27.4114C13.9459 29.0037 14.7842 31.1718 16.3662 33.4048C17.8154 33.1049 18.4277 31.1875 17.734 29.1154Z" fill="#DD7560"/>
<path d="M14.0983 24.1599C14.0983 24.1599 13.6004 20.6223 14.8459 20.0742C16.0915 19.5261 17.6367 20.1738 17.6367 20.1738L18.4829 21.2201L18.5827 21.5688C18.5827 21.5688 19.082 23.7612 18.9322 27.2986L17.4869 26.1527C17.4869 26.1527 16.2913 24.957 16.0416 24.9072C15.7933 24.8573 14.796 24.8573 14.796 24.8573L14.0983 24.1599Z" fill="#DD7560"/>
<path d="M23.9646 27.0495C23.9646 27.0495 22.9673 21.8678 24.163 20.2735C25.3587 18.6789 27.3019 18.8284 27.3019 18.8284L29.395 19.0279C29.395 19.0279 31.3383 19.5757 31.7364 20.0244C31.7364 20.0244 31.7364 22.9142 30.4409 25.5547L23.9646 27.0495Z" fill="#DD7560"/>
<path d="M19.1057 31.1098C19.0807 31.2248 19.4722 31.4612 19.5471 31.4935C20.0701 31.7196 20.6679 31.4386 21.1646 31.2646C21.6087 31.1098 22.3169 31.5085 22.3839 31.7517C22.3839 31.7517 22.4049 32.0397 22.2288 32.0842C22.0515 32.1284 19.4157 32.1063 19.4157 32.1063L19.128 31.9291L19.0176 31.5085C19.0176 31.5085 19.1057 31.1106 19.1057 31.1098Z" fill="#DD7560"/>
<path d="M19.061 31.4308C19.061 31.4308 19.2279 31.8961 19.9255 31.8627C20.6232 31.8294 21.0542 31.4972 21.2868 31.4308C21.5193 31.3643 22.3497 31.5969 22.3169 31.8627L22.2498 32.1284C22.2498 32.1284 21.8517 33.8891 21.0542 33.9223C20.2566 33.9552 20.3906 32.7927 19.8257 32.527C19.8257 32.527 19.061 32.062 19.061 31.4308Z" fill="#DD7560"/>
<path d="M21.6192 37.5095C21.6192 37.5095 22.6822 37.576 22.9818 37.5095C22.9818 37.5095 22.8149 38.0744 22.4825 38.041C22.1514 38.0079 21.6192 37.5095 21.6192 37.5095Z" fill="#DD7560"/>
<path d="M18.5959 34.4202L18.3975 34.8853C18.3975 34.8853 17.9652 34.4202 18.5959 34.4202Z" fill="#DD7560"/>
<path d="M27.8643 34.2212L28.2295 34.7858C28.2295 34.7858 28.6618 34.2875 27.8643 34.2212Z" fill="#DD7560"/>
<path d="M26.6541 21.519C26.6541 21.519 28.0995 20.8714 30.0427 21.8678C30.0427 21.8678 28.1993 20.1738 26.6541 21.519Z" fill="#AF422F"/>
<path d="M17.5526 22.0053C17.5526 22.0053 16.445 21.4772 15.0759 22.5007C15.0759 22.5007 16.3267 20.8346 17.5526 22.0053Z" fill="#AF422F"/>
<path d="M36.8831 22.927L36.6058 23.1911C36.3102 23.3696 35.6703 24.3055 35.6703 24.3055L35.2998 24.8815L35.2879 24.8702C35.0895 25.0529 34.6901 25.9829 34.6901 25.9829L34.7111 26.0478L34.6901 26.0662C34.7098 26.0921 34.7282 26.1182 34.7427 26.1446L34.8176 26.3799C34.857 26.7188 34.6244 27.0295 34.6244 27.0295C34.6244 27.0295 35.1881 26.8302 35.305 26.4317C35.3983 26.1126 35.1934 25.8578 35.108 25.7686C35.1671 25.6292 35.2262 25.5001 35.2722 25.4183C35.4207 25.1525 35.6703 25.2357 35.6703 25.2357L35.5297 25.101L35.5875 25.1194C35.5048 24.9534 35.9029 24.5548 35.9029 24.5548L35.8937 24.5449C36.0448 24.6624 36.2182 24.7704 36.2182 24.7704C36.2182 24.7704 36.0527 24.3221 36.2182 24.0565C36.3404 23.8614 36.6676 23.6663 36.8331 23.5763C37 23.7538 37.2036 23.9998 37.3639 24.289C37.3639 24.289 37.1156 23.1761 36.8831 22.927ZM35.6874 26.3317L35.7859 25.7671C35.7859 25.7671 35.5547 25.9 35.6874 26.3317ZM36.0684 26.6971C36.4179 26.0328 36.2511 25.5845 36.2511 25.5845C36.1184 26.0164 36.0684 26.6971 36.0684 26.6971ZM37.0328 24.6875C37.1984 25.1361 36.866 26.4148 36.866 26.4148C37.3981 25.5015 37.314 24.7873 37.314 24.7873L37.0328 24.6875Z" fill="#DD7560"/>
<path d="M19.6812 32.1726C19.6812 32.1726 20.3237 32.5711 20.6115 32.5491C20.8992 32.527 21.0766 32.2834 21.1436 32.1063C21.1436 32.1063 20.2567 32.3278 19.6812 32.1726Z" fill="#DD7560"/>
<path d="M37.8908 23.4403C37.8356 23.1251 37.7003 22.8206 37.469 22.5959C37.1182 22.2544 36.6071 22.2004 36.1604 22.3587C35.9344 22.4389 35.7412 22.5787 35.5704 22.7442C35.4863 22.8255 35.4561 22.9276 35.3996 23.0255C35.3352 23.1384 35.2801 23.2556 35.2222 23.3716C34.966 23.8808 34.7361 24.4093 34.3761 24.8561C34.3748 24.8577 34.3774 24.8599 34.3787 24.8584C34.6454 24.5369 34.8412 24.1675 35.0317 23.798C35.125 23.6167 35.2183 23.4338 35.3234 23.2587C35.4246 23.0895 35.5428 22.8817 35.7084 22.7685C36.0842 22.512 36.46 22.336 36.9277 22.4236C37.2746 22.4887 37.5623 22.7273 37.7121 23.042C37.9959 23.6394 37.8842 24.3942 37.7384 25.0116C37.5834 25.6654 37.3245 26.2801 36.9842 26.8578C36.5572 27.5852 35.8608 28.1139 35.3602 28.7876C35.1171 29.1136 34.9003 29.4533 34.5364 29.6574C34.1567 29.8704 33.752 29.7734 33.3933 29.5683C33.3644 29.5518 33.3394 29.5949 33.3683 29.6127C33.66 29.8001 33.9911 29.8938 34.334 29.8013C34.6678 29.711 34.9319 29.4355 35.1368 29.1714C35.2643 29.0083 35.3707 28.83 35.4955 28.6645C35.6532 28.4536 35.8306 28.2574 36.0093 28.0634C36.3128 27.7343 36.6334 27.4138 36.9028 27.0561C37.2798 26.5541 37.5255 25.9529 37.7056 25.3546C37.8882 24.7451 37.9985 24.0736 37.8908 23.4403ZM34.3262 27.7471C34.3262 27.7491 34.3288 27.7491 34.3288 27.7471C34.3682 27.3863 34.5902 27.1242 34.7637 26.8217C34.9174 26.5522 34.9227 26.2984 34.7834 26.0196C34.7453 25.9428 34.6297 26.0104 34.6691 26.0868C34.8386 26.4131 34.8162 26.6739 34.6244 26.9802C34.4707 27.2249 34.3459 27.4532 34.3262 27.7471ZM36.9159 23.0105C36.9737 22.964 36.8949 22.8615 36.8357 22.9069C36.6242 23.0655 36.4403 23.2782 36.2642 23.474C36.0566 23.7031 35.8687 23.9503 35.6913 24.2028C35.3195 24.7327 34.9687 25.2985 34.7098 25.8939C34.7006 25.9158 34.7308 25.9353 34.7427 25.913C34.9043 25.6063 35.0659 25.3024 35.2393 25.0049C35.2393 25.0227 35.2512 25.0411 35.2735 25.0425C35.7031 25.0708 35.8569 25.5349 35.7688 25.9027C35.7675 25.9072 35.7741 25.9088 35.7754 25.9045C35.9042 25.5412 35.7255 24.9855 35.2735 24.9709C35.2669 24.9706 35.263 24.9721 35.2577 24.9745C35.3838 24.7594 35.5166 24.5477 35.6585 24.3413C35.7176 24.5051 35.8017 24.589 35.958 24.6811C36.0408 24.7299 36.1354 24.7749 36.2077 24.8397C36.2997 24.923 36.2918 25.0842 36.2865 25.1972C36.2589 25.7054 36.0356 26.1852 36.071 26.7008C36.071 26.7011 36.071 26.7011 36.071 26.7008C36.0395 26.1729 36.2813 25.677 36.3181 25.1553C36.3299 24.9754 36.3351 24.8038 36.1827 24.6841C36.0277 24.5629 35.7794 24.4873 35.6926 24.2973C35.6926 24.2965 35.6913 24.2958 35.6913 24.2948C35.8713 24.0392 36.0697 23.7963 36.2826 23.5663C36.477 23.3537 36.6925 23.189 36.9159 23.0105Z" fill="#DD7560"/>
<path d="M19.5787 28.3452C19.6957 28.8962 19.6181 29.4175 19.4421 29.9449C19.3015 30.366 19.061 30.7581 18.9664 31.1935C18.8876 31.5594 18.9704 31.9035 19.2253 32.1803C19.4092 32.3801 19.6484 32.5086 19.8993 32.6029C20.0622 32.6642 20.2304 32.6858 20.3999 32.719C20.5563 32.7496 20.7244 32.7811 20.8834 32.7579C20.911 32.7539 20.911 32.706 20.8834 32.701C20.7297 32.6742 20.5747 32.671 20.4222 32.6397C20.2449 32.6039 20.0728 32.5097 19.9125 32.4299C19.6812 32.3152 19.4565 32.1746 19.2897 31.9745C19.0453 31.6823 19.1004 31.2997 19.1793 30.9578C19.2752 30.5409 19.4434 30.1451 19.5472 29.7302C19.6615 29.2718 19.6983 28.8065 19.58 28.3448C19.58 28.3437 19.5787 28.3443 19.5787 28.3452Z" fill="#AF422F"/>
<path d="M21.4379 32.327C21.3564 32.1234 21.5102 32.0788 21.6797 32.0675C21.8479 32.0566 22.0029 32.0433 22.1671 32.0946C22.1829 32.0997 22.1895 32.0741 22.1737 32.0688C21.9674 32.0021 21.7493 31.9197 21.5325 31.9824C21.3525 32.0344 21.3341 32.1917 21.4103 32.3384C21.4182 32.3534 21.4445 32.3429 21.4379 32.327Z" fill="#AF422F"/>
<path d="M22.1238 32.2867C22.3879 32.1075 22.4654 31.7347 22.4352 31.434C22.4326 31.414 22.4063 31.4143 22.4037 31.434C22.3669 31.7643 22.3551 32.0214 22.1159 32.2764C22.1107 32.2816 22.1172 32.2909 22.1238 32.2867Z" fill="#AF422F"/>
<path d="M21.4366 32.1864C21.4366 32.1864 21.4116 32.0203 21.9017 32.07C21.9017 32.07 21.6521 32.2612 21.4366 32.1864Z" fill="#511316"/>
<path d="M18.973 34.675C18.973 34.675 19.6444 34.0975 20.1318 34.0084C20.4419 33.9517 20.6876 34.2246 20.9833 34.2564C21.3314 34.2936 21.6271 34.0895 21.9713 34.0747C22.4811 34.0526 22.7465 34.1246 23.7648 34.3236C24.7831 34.5231 27.2323 34.542 27.4543 34.5201C27.4543 34.5201 26.0366 35.3171 25.6385 35.3171C25.2403 35.3171 22.5389 35.5828 22.4272 35.6052C22.3169 35.6272 21.0319 35.5386 20.7888 35.5386L18.973 34.675Z" fill="#DD7560"/>
<path d="M26.5661 34.6197C26.2967 34.68 26.0169 34.7858 25.6831 34.7858C24.8803 34.7858 21.5193 34.8523 21.43 34.8854C21.3407 34.9185 19.8244 34.8523 19.735 34.8523C19.6457 34.8523 19.1109 34.8523 19.1109 34.8523C19.1109 34.8523 19.3777 35.3171 19.6759 35.6826C19.6956 35.7071 19.714 35.7326 19.7311 35.759C19.7363 35.7683 19.7416 35.7778 19.7482 35.7871C19.7587 35.8047 19.7692 35.8221 19.7784 35.8402C19.785 35.852 19.7915 35.8641 19.7968 35.8761C19.8047 35.8926 19.8126 35.909 19.8204 35.9257C19.8257 35.939 19.8309 35.9524 19.8375 35.9657C19.8441 35.982 19.8507 35.9984 19.8572 36.0147C19.982 36.3456 20.0228 36.7214 20.2107 36.9118C20.5089 37.2107 22.2341 37.5429 23.2445 37.0776C23.598 36.9154 24.1984 36.5435 24.8317 36.1286C24.8685 36.1042 24.9053 36.0797 24.9434 36.055C24.9618 36.0432 24.9802 36.031 24.9973 36.019C25.0433 35.9892 25.0879 35.9591 25.1339 35.9291C25.1484 35.919 25.1628 35.9094 25.1773 35.8994C25.2128 35.8762 25.2469 35.8529 25.2824 35.8297C25.3008 35.8167 25.3205 35.8041 25.3402 35.7909C25.3836 35.7616 25.4269 35.7323 25.4703 35.7029C25.4887 35.6907 25.5058 35.6788 25.5242 35.6666C25.5557 35.6453 25.5872 35.6242 25.6174 35.603C25.6372 35.59 25.6556 35.5771 25.6753 35.5641C25.7173 35.5351 25.7607 35.5062 25.8014 35.4775C25.8185 35.4657 25.8356 35.4543 25.8526 35.4427C25.8842 35.4213 25.9144 35.4003 25.9459 35.3791C25.963 35.3676 25.9801 35.3559 25.9959 35.3441C26.0379 35.3159 26.0786 35.2878 26.118 35.2602C26.1351 35.2489 26.1509 35.2379 26.1667 35.2266C26.1956 35.2073 26.2232 35.188 26.2507 35.1688C26.2678 35.1568 26.2849 35.1453 26.302 35.1337C26.3388 35.1073 26.3769 35.0815 26.4124 35.0564C26.4281 35.0458 26.4413 35.0359 26.457 35.0257C26.482 35.0074 26.5083 34.9896 26.5332 34.9719C26.5477 34.9618 26.5622 34.9518 26.5766 34.942C26.6108 34.9182 26.6436 34.8952 26.6752 34.8729C26.6896 34.8632 26.7027 34.8536 26.7159 34.844C26.7408 34.8268 26.7645 34.8099 26.7881 34.7937C26.7973 34.7872 26.8065 34.7808 26.8157 34.7745C26.846 34.7528 26.8762 34.7322 26.9038 34.7121C26.9156 34.7043 26.9261 34.6969 26.9353 34.6897C26.955 34.6755 26.9747 34.6624 26.9931 34.6494C27.001 34.6435 27.0102 34.6373 27.0181 34.6316C27.0417 34.615 27.0641 34.5991 27.0851 34.5843C27.0943 34.5772 27.1035 34.5705 27.114 34.5637C27.1258 34.5557 27.1363 34.5478 27.1469 34.5406C27.1574 34.5326 27.1679 34.525 27.1784 34.5179C27.1942 34.5063 27.2086 34.4962 27.2217 34.4867C27.2231 34.4859 27.2244 34.4851 27.2257 34.4842C27.2401 34.474 27.252 34.4652 27.2625 34.4578C27.2638 34.457 27.2651 34.4561 27.2664 34.4556C27.2743 34.4493 27.2809 34.4448 27.2861 34.4411C27.294 34.4352 27.2993 34.4314 27.2993 34.4314C27.2993 34.4314 26.9458 34.5348 26.5661 34.6197Z" fill="#EC264F"/>
<path d="M27.3072 34.4235C27.3072 34.4227 27.3072 34.4217 27.3072 34.4221C27.3045 34.423 27.3032 34.4235 27.3006 34.4243L26.6358 34.5201C26.0103 34.6197 25.1182 34.6862 24.226 34.6197C23.3339 34.5532 22.2933 34.2543 21.7874 34.3541C21.2815 34.4536 20.9846 34.7194 20.9846 34.7194C20.9846 34.7194 20.4485 34.2543 20.2107 34.2543C19.9729 34.2543 19.5866 34.4536 19.3185 34.6197C19.0702 34.7737 18.7102 34.5594 18.659 34.5274C18.6577 34.5256 18.655 34.524 18.6537 34.5224C18.6524 34.5214 18.6511 34.5228 18.6524 34.524C18.7234 34.5922 18.7969 34.6521 18.8718 34.7081C18.8758 34.7113 18.8797 34.7143 18.885 34.7174C18.9178 34.7419 18.9507 34.7655 18.9835 34.7877C19.2844 34.9913 19.6063 35.1212 19.9032 35.1941C20.0451 35.2368 20.1897 35.2762 20.3355 35.3138C20.346 35.3163 20.4433 35.3179 20.4498 35.3316C20.4748 35.3806 20.5129 35.4268 20.5523 35.4606C20.6522 35.5438 20.7639 35.5834 20.8848 35.6077C21.0122 35.6336 21.1423 35.6372 21.271 35.6151C21.388 35.5945 21.5443 35.6014 21.6481 35.5335C21.6547 35.5294 21.656 35.5226 21.6547 35.5164L22.0397 35.4208C22.0397 35.4226 22.041 35.4246 22.0423 35.4246C22.9082 35.4517 23.7832 35.3668 24.6399 35.2346C25.1011 35.1632 25.5597 35.0668 26.0117 34.9383C26.2271 34.8771 26.4413 34.8085 26.6515 34.7282C26.8762 34.6424 27.0878 34.5265 27.3072 34.4251C27.3085 34.4246 27.3072 34.4243 27.3072 34.4235Z" fill="#C81E25"/>
<path d="M23.527 21.2521C23.5362 21.2458 24.4257 20.8201 25.2982 20.2086C25.7502 19.8918 26.2087 19.5645 27.1784 19.337C28.1336 19.1432 29.5999 19.0492 31.697 19.9751C31.8336 19.9705 31.9729 19.9692 32.1122 19.9711C32.1082 19.9795 30.8994 19.2432 29.1769 18.7493C27.4465 18.2527 25.8698 18.5032 24.6688 19.1493C23.4351 19.816 22.987 20.8752 23.527 21.2521Z" fill="#050301"/>
<path d="M24.2182 20.8397C23.9357 21.003 23.707 21.1248 23.6006 21.1796C23.4837 21.0678 23.4285 20.9141 23.4521 20.718C23.4981 20.2777 23.9724 19.6628 24.7463 19.2487C25.0354 19.0931 25.3468 18.9622 25.6648 18.8632C26.7041 18.5385 27.9168 18.5147 29.1572 18.8978C30.3568 19.2648 31.3054 19.7631 31.7587 20.0222C31.7351 20.022 31.7114 20.0219 31.6878 20.0218C30.1071 19.2341 28.6842 19.1029 27.6186 19.227C26.4505 19.379 25.8697 19.759 25.3967 20.0796C25.3481 20.113 25.3021 20.1463 25.2561 20.1798C24.9421 20.406 24.5952 20.6225 24.2182 20.8397Z" fill="#050301"/>
<path d="M18.6261 21.6428C18.6156 21.6358 18.086 21.4559 17.546 20.9293C17.2701 20.6698 16.9968 20.3849 16.4555 20.2203C15.9338 20.0749 15.1114 20.0408 14.0142 20.7936C13.9262 20.7661 13.8368 20.7409 13.7462 20.718C13.7541 20.7251 14.3769 20.1308 15.3176 19.6364C16.1704 19.1927 17.0586 19.3274 17.7549 19.7631C18.5104 20.2324 18.881 21.1006 18.6261 21.6428Z" fill="#050301"/>
<path d="M18.186 21.3572C18.3581 21.4619 18.4987 21.5262 18.5644 21.554C18.6156 21.4016 18.6301 21.229 18.5933 21.0354C18.5184 20.6188 18.1847 20.1376 17.7195 19.8481C17.5487 19.7411 17.37 19.6542 17.1913 19.5912C16.6119 19.3852 15.9523 19.4099 15.3413 19.7563C14.7015 20.1173 14.2192 20.5376 13.9762 20.7578C13.9919 20.7616 14.0064 20.7654 14.0222 20.7698C14.8473 20.1429 15.6291 20.0123 16.2085 20.1026C16.8392 20.2083 17.19 20.5191 17.4712 20.785C17.5001 20.8131 17.529 20.8408 17.5579 20.869C17.751 21.0586 17.9587 21.2189 18.186 21.3572Z" fill="#050301"/>
<path d="M27.2034 27.0496L28.1494 27.5478C28.1494 27.5478 29.4949 26.8502 30.391 26.4516L30.4908 25.2561L27.252 26.8502L27.2034 27.0496Z" fill="#050301"/>
<path d="M30.3226 23.6533C30.3226 23.6533 31.5551 22.9204 31.9295 21.9117C31.9295 21.9117 31.8349 23.2143 30.341 24.2333L30.3226 23.6533Z" fill="#050301"/>
<path d="M30.6879 23.957C30.6879 23.957 31.153 23.5914 31.3514 23.0598C31.3514 23.0598 30.023 21.9305 27.6645 22.1631C25.3179 22.3943 24.5098 25.0861 24.0775 26.7802L26.369 25.9829L30.6879 23.957Z" fill="#050301"/>
<path d="M24.3167 26.5215C24.5388 25.6907 24.8318 24.7791 25.2956 24.0087C25.9171 22.9748 26.6975 22.4254 27.6817 22.3283C27.8879 22.3077 28.0955 22.2976 28.2979 22.2976C29.8496 22.2976 30.8469 22.9032 31.1491 23.1147C30.9717 23.488 30.6656 23.758 30.5986 23.8152L26.306 25.8292L24.3167 26.5215Z" fill="#050301"/>
<path d="M27.4517 22.964C25.5584 23.2132 24.4625 25.4551 23.9646 27.0993C23.9646 27.0993 24.5099 26.963 24.9934 26.9509C25.7857 27.1578 26.6778 27.2235 27.2625 27.2431C27.2756 27.2449 27.2888 27.2469 27.3019 27.2487C27.9996 27.3483 27.8998 27.2487 27.8998 27.2487C28.6474 27.0495 29.395 26.8004 29.9429 26.2523C29.9429 26.2523 30.6406 25.4551 30.6406 24.2095V23.8609C29.7931 23.2132 28.6474 22.8145 27.4517 22.964Z" fill="white"/>
<path d="M30.0861 24.7817C30.0861 24.2195 29.9179 23.7 29.6328 23.2773C28.9706 22.999 28.2216 22.8677 27.4517 22.964C26.5963 23.0766 25.9026 23.5964 25.3547 24.2841C25.3258 24.4451 25.31 24.6113 25.31 24.7817C25.31 25.9309 26.0116 26.9034 26.9813 27.2307C27.0812 27.236 27.1758 27.2401 27.2625 27.2431C27.2756 27.2449 27.2888 27.2469 27.3019 27.2487C27.9996 27.3483 27.8997 27.2487 27.8997 27.2487C28.3412 27.131 28.7827 26.9955 29.1821 26.792C29.7327 26.3218 30.0861 25.5962 30.0861 24.7817Z" fill="#65CBC2"/>
<path d="M27.6974 27.0121C28.8445 27.0121 29.7734 26.0135 29.7734 24.7817C29.7734 24.0956 29.4857 23.4824 29.0324 23.0731C28.5318 22.9417 27.997 22.8958 27.4517 22.964C26.8407 23.0442 26.3138 23.3318 25.8632 23.7396C25.7094 24.0508 25.6227 24.405 25.6227 24.7817C25.6227 26.0135 26.5517 27.0121 27.6974 27.0121Z" fill="#65CBC2"/>
<path d="M29.1651 24.7817C29.1651 25.6527 28.5081 26.3587 27.6974 26.3587C26.8881 26.3587 26.2298 25.6526 26.2298 24.7813C26.2298 23.9103 26.8881 23.2042 27.6974 23.2042C28.5081 23.2042 29.1651 23.9103 29.1651 24.7817Z" fill="#050301"/>
<path d="M28.9733 24.7817C28.9733 25.5387 28.4017 26.1521 27.6974 26.1521C26.9932 26.1521 26.4229 25.5387 26.4229 24.7813C26.4229 24.0245 26.9932 23.4112 27.6974 23.4112C28.4017 23.4112 28.9733 24.0245 28.9733 24.7817Z" fill="#050301"/>
<path d="M28.9733 24.7817C28.9733 25.5387 28.4017 26.1521 27.6974 26.1521C26.9932 26.1521 26.4229 25.5387 26.4229 24.7813C26.4229 24.0245 26.9932 23.4112 27.6974 23.4112C28.4017 23.4112 28.9733 24.0245 28.9733 24.7817Z" fill="#050301"/>
<path d="M27.1443 23.5313C27.1443 23.8603 27.3926 24.1269 27.6974 24.1269C28.0036 24.1269 28.2519 23.8603 28.2519 23.5313C28.2519 23.2195 28.0285 22.9643 27.7447 22.9384C27.6895 22.9412 27.633 22.9451 27.5778 22.9504C27.3295 23.0094 27.1443 23.2469 27.1443 23.5313Z" fill="white"/>
<path d="M30.6498 23.8509C29.4725 22.7722 27.4846 22.4475 26.1483 23.4127C25.5702 23.83 25.1418 24.4136 24.8028 25.0329C24.4638 25.6507 24.1906 26.3095 23.9922 26.9854C23.9816 27.023 23.9711 27.0607 23.9606 27.0984C23.9593 27.1026 23.9659 27.1045 23.9672 27.1002C24.3968 25.8102 25.0118 24.463 26.1233 23.6167C26.7317 23.1528 27.4372 22.9895 28.1954 23.0292C29.0744 23.0753 29.893 23.4164 30.634 23.8725C30.6472 23.8813 30.6616 23.8616 30.6498 23.8509ZM29.9403 26.2488C29.6486 26.499 29.3346 26.7033 28.9851 26.8618C28.6342 27.021 28.2624 27.1201 27.8997 27.2462C27.8958 27.2474 27.8971 27.252 27.9011 27.2512C28.6264 27.1121 29.441 26.8193 29.9468 26.2555C29.9508 26.2509 29.9442 26.2452 29.9403 26.2488Z" fill="#050301"/>
<path d="M15.6436 26.3021V26.8004C15.6436 26.8004 16.3912 27.1991 17.1375 27.6973L17.8851 27.1494L15.6436 26.3021Z" fill="#050301"/>
<path d="M15.3742 25.2522C15.3742 25.2522 14.1325 24.6912 13.6004 23.6616C13.6004 23.6616 14.8434 24.8203 15.5411 24.9534L15.3742 25.2522Z" fill="#050301"/>
<path d="M15.3085 25.1194C15.3085 25.1194 14.9761 25.0529 14.5766 24.6212C14.5766 24.6212 14.595 23.1557 15.8735 22.6612C16.9023 22.2627 17.73 23.0706 18.1623 23.935C18.4067 24.4226 18.5105 24.9586 18.5999 25.4923C18.638 25.7262 18.6419 26.8343 18.8285 26.9796C18.8285 26.9794 17.6328 26.0494 17.5001 26.0164C17.3674 25.9829 15.3085 25.1194 15.3085 25.1194Z" fill="#050301"/>
<path d="M18.5197 26.5324C17.6748 25.8888 17.5763 25.8641 17.5408 25.8552C17.4291 25.8235 16.152 25.2932 15.3728 24.9663L15.3584 24.9605L15.3426 24.957C15.34 24.9562 15.0759 24.8941 14.7461 24.5583C14.7671 24.2798 14.9103 23.2117 15.9326 22.8165C16.0929 22.7542 16.2532 22.7228 16.4095 22.7228C17.3003 22.7228 17.8627 23.7077 18.0138 24.0098C18.249 24.4787 18.3476 24.9914 18.4356 25.5196C18.4448 25.5744 18.4527 25.7066 18.4619 25.8462C18.4789 26.1256 18.4973 26.3518 18.5197 26.5324Z" fill="#050301"/>
<path d="M15.2454 25.1563L15.294 25.3555C15.4937 26.0529 15.8919 26.5513 15.8919 26.5513C16.2216 26.9775 16.4739 27.1313 16.939 27.3483C17.5513 27.6344 18.3778 26.921 18.8823 27.2985C18.7325 26.2522 18.6826 25.1563 18.0349 24.1598C17.2045 22.881 15.4438 22.8643 15.2454 25.1563Z" fill="white"/>
<path d="M16.5133 23.3009C16.2006 23.7394 16.0206 24.3934 16.06 25.1135C16.1297 26.3782 16.8497 27.3676 17.6696 27.3227C18.1295 27.2972 18.5236 26.9503 18.7667 26.4266C18.6603 25.6566 18.5039 24.8818 18.0349 24.1598C17.6459 23.5613 17.0547 23.2392 16.5133 23.3009Z" fill="#65CBC2"/>
<path d="M16.2545 25.1025C16.315 26.2023 16.9404 27.0617 17.6526 27.0224C18.119 26.9967 18.5066 26.5903 18.701 26.003C18.592 25.3743 18.4186 24.7496 18.0349 24.1598C17.7235 23.6801 17.2807 23.3782 16.8392 23.3087C16.4529 23.6663 16.2125 24.3421 16.2545 25.1025Z" fill="#65CBC2"/>
<path d="M17.4645 23.6241C16.9613 23.6519 16.5881 24.3045 16.6315 25.0818C16.6749 25.8593 17.1164 26.4672 17.6196 26.4396C18.1149 26.4122 18.4828 25.7806 18.4552 25.0207C18.3528 24.728 18.2174 24.44 18.0348 24.1598C17.8942 23.9438 17.7286 23.7645 17.5473 23.6256C17.5197 23.6234 17.4921 23.6227 17.4645 23.6241Z" fill="#050301"/>
<path d="M18.3344 24.9881C18.3712 25.6637 18.0467 26.2308 17.6105 26.2547C17.1729 26.2791 16.7879 25.7509 16.7511 25.0752C16.7144 24.3998 17.0376 23.8325 17.4751 23.8086C17.9127 23.7844 18.2976 24.3126 18.3344 24.9881Z" fill="#050301"/>
<path d="M18.3344 24.9881C18.3712 25.6637 18.0467 26.2308 17.6105 26.2547C17.1729 26.2791 16.7879 25.7509 16.7511 25.0752C16.7144 24.3998 17.0376 23.8325 17.4751 23.8086C17.9127 23.7844 18.2976 24.3126 18.3344 24.9881Z" fill="#050301"/>
<path d="M17.1374 23.935C17.1532 24.2287 17.3201 24.4581 17.5106 24.4475C17.6998 24.4371 17.8417 24.1909 17.8246 23.8972C17.8246 23.8923 17.8246 23.8877 17.8246 23.8833C17.663 23.7026 17.4804 23.5599 17.2885 23.4603C17.1887 23.5568 17.1269 23.7349 17.1374 23.935Z" fill="white"/>
<path d="M18.7181 25.9792C18.6406 25.5313 18.5276 25.0862 18.3463 24.6677C18.1163 24.1323 17.7497 23.5595 17.1848 23.3308C16.7696 23.1632 16.2834 23.1855 15.9247 23.4695C15.4399 23.8524 15.2848 24.5174 15.2454 25.1043C15.2441 25.1215 15.2428 25.139 15.2428 25.1563C15.2415 25.1596 15.2467 25.1595 15.2481 25.1563C15.319 24.5753 15.5016 23.929 16.0022 23.5708C16.3649 23.3111 16.8129 23.3192 17.2071 23.4999C17.7603 23.7542 18.1032 24.2605 18.341 24.8046C18.5144 25.2013 18.6143 25.6203 18.6879 26.0453C18.7588 26.4608 18.7746 26.8915 18.8692 27.3021C18.8732 27.3162 18.8955 27.3131 18.8955 27.2985C18.8718 26.8602 18.793 26.4119 18.7181 25.9792ZM16.9456 27.3382C16.763 27.2293 16.5712 27.1361 16.3951 27.0175C16.2046 26.8886 16.0469 26.7199 15.8971 26.547C15.8919 26.5422 15.884 26.5487 15.8879 26.5543C16.1533 26.9317 16.4989 27.2053 16.9364 27.3599C16.9496 27.3648 16.9561 27.3448 16.9456 27.3382Z" fill="#050301"/>
<path d="M35.5454 44.057C33.6205 43.1633 33.3275 40.9013 33.5496 39.0132C33.677 37.9359 34.1343 36.961 34.7597 36.0868C35.8831 34.5189 37.448 33.3403 38.6542 31.844C40.0259 30.1449 40.7289 28.0577 41.06 25.9201C41.0876 25.7419 41.1125 25.5628 41.1375 25.3835C41.144 25.3271 41.1506 25.2706 41.1572 25.2144C41.1729 25.0918 41.1887 24.9692 41.2032 24.8462C41.211 24.7687 41.2176 24.6909 41.2268 24.6134C41.2373 24.512 41.2478 24.4105 41.257 24.3091C41.2649 24.2182 41.2715 24.1271 41.2794 24.0362C41.2859 23.948 41.2938 23.8599 41.3004 23.7714C41.307 23.672 41.3122 23.5723 41.3175 23.4727C41.3227 23.393 41.328 23.3134 41.3306 23.2337C41.3372 23.1285 41.3398 23.0234 41.3438 22.9181C41.3464 22.8438 41.3503 22.7694 41.3516 22.6949C41.3543 22.5872 41.3556 22.4795 41.3582 22.3717C41.3582 22.2999 41.3608 22.228 41.3608 22.156C41.3608 22.0482 41.3608 21.9404 41.3595 21.8326C41.3595 21.7827 41.3595 21.7325 41.3582 21.6832C41.3569 21.6246 41.3582 21.566 41.3569 21.5077C41.282 17.8576 40.8694 14.1718 39.2388 10.8504C35.5362 3.31227 24.9329 1.83767 18.3383 6.32168C16.6736 7.45441 15.1035 8.84953 13.8539 10.4308C11.3181 13.6401 10.1132 17.5512 8.69287 21.322C7.72714 23.8871 6.12022 26.8137 4.50935 29.0224C3.37413 30.5775 2.12328 31.7101 1.41113 33.2933C3.46085 39.1252 7.70349 44.0774 13.1418 47.0134C14.7658 47.8903 20.2961 50.7815 21.8321 49.1515C24.6885 46.1194 23.8056 39.6195 23.4942 39.6421C23.1591 39.6664 22.8306 39.6654 22.5166 39.6354C20.2015 39.4171 18.9953 36.7787 17.0021 34.2543C16.1323 33.1527 15.4398 32.051 14.9353 31.0101C14.9327 30.9711 14.93 30.932 14.9287 30.8925C14.9261 30.8486 14.9248 30.8046 14.9235 30.7606C14.9208 30.6963 14.9182 30.6319 14.9156 30.5672C14.9143 30.5242 14.9143 30.481 14.913 30.4377C14.9117 30.3715 14.9103 30.3048 14.909 30.2379C14.909 30.1964 14.909 30.1542 14.909 30.1128C14.909 30.0434 14.909 29.9743 14.9103 29.9049C14.9103 29.8646 14.9116 29.8241 14.9116 29.7839C14.9143 29.7122 14.9143 29.6405 14.9169 29.5657C14.9208 29.464 14.9248 29.3619 14.93 29.259C14.9353 29.1433 14.9419 29.0267 14.9511 28.9098C15.4819 21.4027 23.5204 15.5563 24.318 11.5036C24.318 11.5036 25.6464 14.9583 28.2374 16.9513C30.8285 18.9444 32.5563 19.5425 33.2868 21.8013C33.3078 21.8652 33.3275 21.9274 33.3459 21.9887C33.3525 22.0087 33.3577 22.0283 33.3643 22.0482C33.3775 22.0898 33.3893 22.131 33.4011 22.1714C33.4077 22.1921 33.4129 22.2125 33.4195 22.2327C33.4313 22.2734 33.4419 22.3135 33.4537 22.3528C33.4589 22.3698 33.4629 22.3867 33.4681 22.4033C33.4826 22.4567 33.497 22.5093 33.5102 22.5605C33.5141 22.5735 33.5167 22.5858 33.5207 22.5986C33.5299 22.637 33.5404 22.6752 33.5496 22.7123C33.5535 22.7313 33.5588 22.75 33.5627 22.7689C33.5706 22.7993 33.5785 22.8294 33.5851 22.8589C33.589 22.8773 33.5943 22.896 33.5982 22.9142C33.6048 22.9454 33.6113 22.9759 33.6192 23.0061C33.6219 23.0203 33.6245 23.0349 33.6284 23.0489C33.6376 23.09 33.6455 23.13 33.6534 23.1691C33.6573 23.1863 33.6613 23.203 33.6639 23.2199C33.6692 23.243 33.6731 23.266 33.6784 23.2884C33.681 23.3068 33.6849 23.3251 33.6889 23.3435C33.6928 23.3628 33.6954 23.3823 33.6994 23.4009C33.7033 23.4189 33.7059 23.4373 33.7099 23.4547C33.7125 23.472 33.7151 23.4887 33.7178 23.5058C33.7257 23.5437 33.7309 23.5811 33.7375 23.6167C33.7388 23.6245 33.7401 23.6328 33.7414 23.641C33.7454 23.6649 33.7493 23.6883 33.7532 23.7113C33.7532 23.7156 33.7546 23.7195 33.7546 23.7237C33.7782 23.8663 33.7953 23.9861 33.8137 24.0869C33.8137 24.0893 33.8137 24.0916 33.8137 24.0939C33.8176 24.1163 33.8229 24.1376 33.8268 24.1585C33.8308 24.1792 33.8347 24.1986 33.8386 24.2171C33.8386 24.2203 33.84 24.2229 33.84 24.2261C33.8439 24.2405 33.8478 24.2547 33.8505 24.2678C33.8518 24.2728 33.8531 24.2774 33.8544 24.2823C33.8584 24.2939 33.861 24.3049 33.8649 24.3157C33.8662 24.3201 33.8676 24.3247 33.8689 24.3293C33.8728 24.3417 33.8768 24.3538 33.882 24.3652C33.882 24.3668 33.8833 24.3687 33.8833 24.3702C33.8886 24.3828 33.8938 24.3945 33.9004 24.4059C33.9017 24.41 33.9044 24.4138 33.907 24.4178C33.9096 24.4249 33.9136 24.4316 33.9188 24.4384C33.9214 24.4425 33.9241 24.4465 33.9267 24.4506C33.9306 24.4567 33.9346 24.4623 33.9398 24.4678C33.9425 24.4715 33.9451 24.4753 33.9503 24.4803C34.0068 24.5445 34.0896 24.5773 34.2171 24.5913C34.8149 24.6578 34.8149 23.4619 35.8109 22.864C36.5979 22.3924 36.971 22.4169 37.4835 22.6115C37.6779 22.806 37.8027 23.0576 37.8658 23.3233C37.875 23.362 37.8829 23.4012 37.8908 23.4403C37.9985 24.0736 37.8881 24.7451 37.7055 25.3546C37.5255 25.9529 37.2798 26.5541 36.9027 27.0561C36.6334 27.4138 36.3128 27.7344 36.0092 28.0634C35.8306 28.2574 35.6532 28.4536 35.4955 28.6645C35.3707 28.83 35.2643 29.0083 35.1368 29.1714C34.9318 29.4355 34.6677 29.711 34.334 29.8013C34.175 29.8437 34.02 29.8467 33.8702 29.8191C33.5785 30.9446 33.2382 32.0754 32.7468 33.1305C32.3881 33.9008 31.8835 34.6495 31.2778 35.3481C31.2726 35.6878 31.2699 36.2425 31.2844 36.9137C31.3291 38.9563 31.5354 42.0767 32.3487 43.4888C32.3697 43.5263 32.392 43.5633 32.413 43.5998C32.4183 43.6104 32.4249 43.6209 32.4314 43.6313C32.4459 43.6575 32.4617 43.6838 32.4761 43.7094C32.484 43.7209 32.4906 43.732 32.4971 43.7433C32.5116 43.7686 32.526 43.794 32.5418 43.8192C32.5471 43.8288 32.5536 43.8387 32.5589 43.8483C32.576 43.8764 32.5917 43.9037 32.6088 43.9312C32.6128 43.9372 32.6154 43.9438 32.6193 43.9502C32.7047 44.0913 32.7875 44.2255 32.869 44.3527C33.836 45.8626 34.5849 46.4149 36.4008 47.2091C36.4165 47.2158 36.4323 47.2233 36.4481 47.23C37.1103 46.888 37.7554 46.5171 38.3822 46.1191C37.6963 45.3972 36.657 44.573 35.5454 44.057Z" fill="#F6F8A7"/>
</svg>
