<svg width="50" height="50" viewBox="0 0 50 50" fill="none" xmlns="http://www.w3.org/2000/svg">
<path d="M50.0001 25C50.0001 38.808 38.8072 50 25.0003 50C11.193 50 0 38.808 0 25C0 11.1933 11.193 0 25.0003 0C38.8072 0 50.0001 11.1933 50.0001 25Z" fill="#7FD5EC"/>
<path d="M34.615 44.8153C33.5651 42.2807 34.7105 35.4601 34.7105 35.4601L17.4343 34.2908C17.4343 34.2908 17.6251 43.2556 16.9572 45.0097C16.6555 45.8007 15.3235 46.6915 13.9524 47.4313C17.284 49.075 21.0338 50 25.0003 50C29.2346 50 33.2223 48.9462 36.7174 47.0883C35.7911 46.4458 34.9717 45.6746 34.615 44.8153Z" fill="#964539"/>
<path d="M17.6964 35.9791C17.2429 36.6138 16.6536 37.2484 15.8374 37.1577C15.8827 36.8857 15.8827 36.6138 15.792 36.3418C15.7467 36.7044 15.4294 36.9304 15.2931 37.2024C15.1573 36.5231 15.021 35.5258 14.3864 35.0712C13.797 34.6639 13.0262 34.7545 12.4367 34.3012C12.5728 33.6206 12.3915 32.986 11.938 32.488C11.3939 31.9428 10.9405 31.6261 10.6231 30.9455C10.4416 30.6288 10.3964 30.3568 10.1696 30.0836C10.5777 28.9956 11.1218 27.3178 9.76166 26.6385C9.76166 26.3665 9.80672 26.0485 9.89764 25.7765C9.89764 25.7765 13.1622 26.1392 13.5249 26.2298C13.8876 26.3205 16.5175 27.7724 16.5175 27.7724L17.6964 35.9791Z" fill="#050301"/>
<path d="M9.88214 25.7726C9.80291 26.0052 9.75442 26.2417 9.72867 26.4861C9.70594 26.6976 9.76887 26.7121 9.93298 26.8251C10.2707 27.059 10.4605 27.4137 10.526 27.8132C10.6499 28.5674 10.381 29.3715 10.1252 30.0718C10.1196 30.0875 10.1268 30.1046 10.1372 30.1165C10.411 30.4265 10.5248 30.8707 10.7337 31.2241C10.9188 31.5394 11.1744 31.8009 11.4362 32.0519C11.7335 32.3357 12.0342 32.5945 12.2318 32.9624C12.4474 33.3631 12.4997 33.8493 12.3924 34.2895C12.387 34.3105 12.3962 34.3276 12.4135 34.3407C13.0495 34.8085 13.9609 34.6902 14.5342 35.2513C15.0374 35.7453 15.1265 36.5573 15.2558 37.2129C15.2623 37.2471 15.3115 37.2511 15.3269 37.2222C15.4914 36.9213 15.7675 36.7045 15.8287 36.351C15.8044 36.351 15.7798 36.351 15.7551 36.351C15.8353 36.6177 15.8417 36.8739 15.801 37.1472C15.7973 37.1735 15.8109 37.1932 15.8374 37.1959C16.6724 37.2668 17.2903 36.6348 17.7172 35.991C17.732 35.9687 17.6962 35.9398 17.6793 35.9621C17.2155 36.556 16.6658 37.1919 15.8374 37.1197C15.8494 37.1354 15.8617 37.1512 15.8736 37.167C15.9165 36.8818 15.9124 36.6085 15.8287 36.3313C15.8187 36.2971 15.7619 36.2919 15.7551 36.3313C15.6945 36.6769 15.4202 36.8884 15.2598 37.1827C15.2833 37.1867 15.3071 37.1893 15.3308 37.1919C15.1481 36.2722 14.9942 35.2368 14.0253 34.8374C13.7671 34.731 13.4889 34.6784 13.2204 34.6048C13.0659 34.5641 12.9149 34.5115 12.7688 34.4458C12.7035 34.4169 12.6419 34.3815 12.5805 34.3447C12.4783 34.2842 12.4989 34.187 12.5093 34.0845C12.5616 33.576 12.4092 33.0334 12.0968 32.63C11.7266 32.1517 11.2112 31.8141 10.8652 31.3095C10.6973 31.0651 10.5748 30.7839 10.4593 30.5119C10.4018 30.3766 10.3374 30.2479 10.2548 30.1257C10.1937 30.0363 10.3047 29.855 10.3378 29.7643C10.6198 28.9826 10.9075 28.0694 10.5257 27.2705C10.4205 27.0498 10.2503 26.8724 10.0564 26.7278C9.93969 26.6411 9.80002 26.6411 9.80369 26.4861C9.80921 26.247 9.84692 26.0104 9.91327 25.7818C9.91919 25.7608 9.88858 25.7529 9.88214 25.7726Z" fill="#050301"/>
<path d="M38.4627 25.2786L37.6742 25.611L38.2814 19.0663C38.2211 18.8246 37.5559 16.5278 37.1932 16.2848C36.8304 16.043 33.8077 14.7133 32.5381 14.4716C31.2686 14.2298 27.7621 14.1089 26.7345 13.988C25.7067 13.8671 21.8981 13.8067 20.3867 14.3507C18.8753 14.8946 16.8198 16.4661 16.2152 17.374C15.6107 18.2806 14.2807 21.7862 14.2807 21.7862L11.4392 26.7291C11.4392 26.7291 11.5752 28.7697 11.8474 29.9483C12.1193 31.1268 13.1169 32.76 13.1169 32.76C13.6155 33.3487 14.7945 33.576 15.5654 33.4393C15.5654 33.4393 15.9735 33.8926 16.1548 34.6639C16.3362 35.4352 16.7441 38.0197 17.2428 38.9709C17.7416 39.9235 22.0945 43.278 23.9534 44.5932C23.9534 44.5932 25.3589 45.9085 28.8958 45.8625C32.4323 45.8178 33.5206 43.4146 33.5206 43.4146C33.5206 43.4146 34.6994 41.1481 35.3342 40.1955C35.9691 39.2429 36.513 38.0197 36.6944 36.7044C36.8609 35.4969 37.2156 34.3236 37.3627 33.1135C37.3917 32.8757 37.4114 32.6339 37.425 32.3921C37.696 32.1662 38.01 31.8508 38.1454 31.5355C38.4627 30.6735 38.3268 29.5396 38.3719 28.633L38.4174 28.5424C38.4627 28.2704 38.5533 28.0444 38.6893 27.8171C38.9161 26.9104 38.7801 26.1392 38.4627 25.2786Z" fill="#AB5348"/>
<path d="M37.5559 31.5355C37.5559 31.5355 37.9639 30.9008 38.0092 30.0389C38.0546 29.177 38.0546 28.4977 38.0546 28.4977L38.508 27.4097L38.4627 26.5925C38.4627 26.5925 37.6919 27.8171 37.6013 29.2676C37.6013 29.2676 37.6919 30.0389 37.4198 30.3109L37.5559 31.5355Z" fill="#AB5348"/>
<path d="M17.2429 38.9709C17.7416 39.9235 22.0945 43.278 23.9535 44.5932C23.9535 44.5932 25.359 45.9085 28.8958 45.8625C32.4323 45.8178 33.5207 43.4146 33.5207 43.4146C33.5207 43.4146 34.6994 41.1481 35.3343 40.1955C35.9692 39.2429 36.513 38.0197 36.6944 36.7044C36.8609 35.4969 37.2157 34.3236 37.3627 33.1135C37.3917 32.8757 37.4115 32.6339 37.425 32.3921C37.4318 32.3869 37.4388 32.3803 37.4456 32.3751L37.3744 32.245C37.1932 33.212 36.1656 34.7243 35.8028 35.8123C35.44 36.9002 34.6541 39.1983 34.6541 39.1983C34.7144 38.1708 34.7751 36.9606 34.7751 36.9606L34.1705 36.5376C34.1705 36.5376 33.8078 36.7793 33.6867 36.598C33.566 36.4167 33.2034 36.2354 32.7799 36.1145C32.3569 35.9936 31.2686 35.5101 30.9058 35.5101C30.5432 35.5101 29.8782 36.1749 29.455 36.2958C29.0318 36.4167 28.6086 35.7518 28.0042 35.631C27.3995 35.5101 26.7951 35.7518 26.1297 35.9332C25.4647 36.1145 24.7999 36.1749 24.3766 36.2354C23.9535 36.2958 23.9535 36.7189 23.5305 36.5376C23.1072 36.3563 22.9257 36.598 22.5631 37.142C22.2003 37.6859 21.7771 39.3191 21.7771 39.3191C21.7771 39.3191 20.6889 37.9277 20.2657 37.3233C19.8426 36.7189 16.8198 33.0925 16.8198 33.0925L15.792 32.4881C16.0338 33.0925 16.1548 34.4826 16.1548 34.4826C16.1548 34.4826 16.1442 34.5062 16.1247 34.5483C16.1352 34.5864 16.1454 34.6245 16.1548 34.6639C16.3363 35.4352 16.7441 38.0197 17.2429 38.9709ZM23.2281 39.0616C23.2281 39.0616 23.5 38.3363 24.1801 38.201C24.8603 38.0643 26.266 37.565 26.6741 37.4297C27.0821 37.2931 28.3061 37.4297 28.7598 37.4297C29.2131 37.4297 29.3944 36.9764 29.3944 36.9764C29.3944 36.9764 29.7119 37.3837 29.984 37.4297C30.256 37.4744 30.8906 37.3837 31.2082 37.5204C31.5255 37.6557 33.3847 37.6557 33.6112 37.7924C33.838 37.9277 34.0194 38.381 33.7925 38.9263C33.7925 38.9263 33.0218 39.7422 32.9764 40.0589C32.9311 40.3769 33.0218 42.0547 31.3895 42.0994C31.3895 42.0994 30.2106 42.734 29.4399 42.734C28.6689 42.734 26.9914 42.3267 26.9914 42.3267C26.9914 42.3267 25.4044 42.5527 24.7695 41.5108C24.1349 40.4675 24.5429 40.5122 23.7721 39.9235C23.7721 39.9235 23.1826 39.6056 23.2281 39.0616Z" fill="#5C4545"/>
<path d="M14.8851 31.9428C14.8851 31.9428 13.6611 32.0794 13.2075 31.3988C12.7541 30.7195 12.5274 29.9036 12.3915 29.2676C12.2553 28.633 11.9834 27.9077 11.9834 27.9077H11.6204C11.6204 27.9077 11.2578 26.9551 11.6659 26.6831C12.074 26.4112 13.2075 26.4112 13.2075 26.4112L13.8876 27.9984C13.8876 27.9984 14.2505 29.177 14.4772 29.4043C14.7038 29.6303 14.7945 29.9482 14.7038 30.2202C14.6132 30.4922 14.5224 31.0821 14.8851 31.9428Z" fill="#AB5348"/>
<path d="M11.5299 27.3638C11.5299 27.3638 12.4823 27.5227 12.5501 27.6134C12.618 27.7041 12.3915 28.8603 12.7088 29.5633C12.7088 29.5633 12.686 28.4517 12.7768 28.202C12.7768 28.202 13.3209 28.1574 13.4798 28.792C13.4798 28.792 12.9354 30.0389 13.2756 30.6972C13.2756 30.6972 13.3435 29.5856 13.593 29.495C13.8422 29.4043 14.1825 30.1296 14.1825 30.1296C14.1825 30.1296 13.933 30.9008 14.6585 31.2635C14.6585 31.2635 14.4772 30.6972 14.5678 30.5829C14.6585 30.4699 14.8626 30.0166 14.7718 29.8576C14.6811 29.6986 14.4319 29.2453 14.4319 29.2453C14.4319 29.2453 13.9102 28.135 13.8876 27.863C13.865 27.5911 13.2983 27.0918 13.2983 27.0918L11.5299 26.8198V27.3638Z" fill="#AB5348"/>
<path d="M15.8374 26.7738C15.8374 26.7738 16.2 24.8699 17.0161 24.2353C17.8324 23.6007 19.1471 23.1014 19.6008 21.1975C20.054 19.2937 20.6889 16.7998 22.548 16.2099C24.4068 15.6199 27.6715 16.0732 27.6715 16.0732C27.6715 16.0732 29.5757 16.4359 30.5278 16.1639C31.4801 15.8919 33.6565 16.3452 33.6565 16.3452C33.6565 16.3452 36.1503 17.0258 35.7876 23.1014L36.6038 24.1447C36.6038 24.1447 37.5106 24.8253 37.4199 25.7766L37.828 24.552L37.556 22.2855C37.556 22.2855 37.4198 17.7971 37.1479 17.6158C36.8756 17.4344 35.7422 16.1639 35.1981 15.8919C34.654 15.6199 32.9311 14.578 32.1602 14.532C31.3895 14.4873 28.0342 14.4413 26.9007 14.4413C25.7671 14.4413 22.9559 14.532 22.0491 14.85C21.1423 15.1666 18.7392 16.7998 18.7392 16.7998C18.7392 16.7998 17.1977 19.383 16.8802 19.9729C16.5628 20.5629 15.6107 23.6007 15.5199 23.9174C15.4294 24.2353 15.3839 25.0053 15.3839 25.0053L15.8374 26.7738Z" fill="#AB5348"/>
<path d="M18.2859 27.1364C18.2859 27.1364 16.2907 26.0485 17.2882 24.6886C17.2882 24.6886 19.3286 23.6453 20.2809 23.736C21.233 23.8266 25.5859 25.0972 25.5859 25.0972L26.3114 25.0052L26.8101 24.6439C26.8101 24.6439 26.9914 27.0011 24.9963 27.6804L23.1826 27.4097L19.9633 27.4544L18.2859 27.1364Z" fill="#AB5348"/>
<path d="M30.7094 27.7264C30.7094 27.7264 30.4826 25.6412 30.9362 24.7346C30.9362 24.7346 31.5255 25.2785 32.0695 25.0512C32.6138 24.8252 34.1101 24.1893 34.1101 24.1893L35.4249 23.782L36.3769 24.0986L37.1024 24.6886C37.1024 24.6886 37.2839 26.5925 36.3769 27.1364L35.1981 27.4991L33.5658 27.5911L31.9789 27.4991L31.2532 27.5911L30.7094 27.7264Z" fill="#AB5348"/>
<path d="M25.9788 32.3054C26.6009 31.4304 27.1026 30.37 27.2187 29.3136C27.2693 28.8538 27.3655 28.2402 27.1861 27.8026C26.9392 27.1982 26.1486 27.7764 25.7889 28.0444C25.4368 28.3059 25.1179 28.5989 24.8029 28.9037C24.5111 29.1849 24.1498 29.4135 23.9 29.7367C23.691 30.0074 23.5439 30.3004 23.4765 30.6368C23.4043 30.9994 23.4094 31.4028 23.5538 31.7405C23.6755 32.0243 23.9258 32.2792 24.1114 32.517C24.4936 33.0071 24.9662 33.4512 25.3674 33.936C25.2414 33.7836 25.4184 33.1713 25.5025 33.0215C25.6358 32.7863 25.8334 32.5485 25.9788 32.3054Z" fill="#AB5348"/>
<path d="M32.2661 32.4881C32.1622 32.1675 31.6975 31.9336 31.503 31.6472C31.2668 31.3003 31.3016 30.9508 31.2382 30.5527C31.1208 29.8142 30.9663 29.1323 30.8131 28.206C31.4399 28.9654 32.4765 29.403 32.9856 30.2505C33.4371 31.002 33.515 32.6365 32.5685 33.0925L32.2661 32.4881Z" fill="#AB5348"/>
<path d="M21.2634 28.7697C21.2634 28.7697 23.8025 28.3466 24.3466 27.8933L24.8603 28.0444C24.8603 28.0444 23.1676 28.951 21.2634 28.7697Z" fill="#AB5348"/>
<path d="M33.7775 28.7697C33.7775 28.7697 31.8145 28.3466 31.3939 27.8933L30.9965 28.0444C30.9965 28.0444 32.3053 28.951 33.7775 28.7697Z" fill="#AB5348"/>
<path d="M27.7259 32.2424C27.747 32.4026 27.7772 32.5616 27.8185 32.7206C28.0239 33.509 28.5548 34.522 29.5153 34.4826C30.9663 34.4221 31.2686 33.6364 31.1779 32.1543C31.0871 30.6735 30.5734 29.0416 30.4826 28.407C30.3919 27.7724 30.4524 26.2903 30.4524 26.2903L27.8831 26.4414C27.8831 26.4414 27.7017 27.8933 27.7621 29.1323C27.8125 30.1637 27.5888 31.2162 27.7259 32.2424Z" fill="#AB5348"/>
<path d="M27.5808 31.6406C27.5808 31.6406 29.4852 30.8246 31.2686 31.4895L31.2382 31.1268C31.2382 31.1268 29.3643 30.6131 27.4901 31.3384L27.5808 31.6406Z" fill="#AB5348"/>
<path d="M25.3439 33.6667C25.6698 34.5969 27.1861 32.9046 26.5228 32.245C26.1828 31.9073 25.9104 32.3842 25.7442 32.6457C25.5369 32.9729 25.4791 33.2396 25.3741 33.6062L25.3439 33.6667Z" fill="#AB5348"/>
<path d="M32.3264 32.6694C32.5047 32.9664 32.5716 33.262 32.5684 33.6062C32.5655 33.8992 32.4715 34.2948 32.1527 33.9623C31.9381 33.739 31.888 33.3185 31.8731 33.0308C31.8598 32.7745 32.0456 32.1557 32.3264 32.609V32.6694Z" fill="#AB5348"/>
<path d="M16.1548 30.0389L15.7014 31.2175C15.792 33.9386 14.8852 33.212 14.8852 33.212C14.8852 33.212 14.8787 33.3066 14.8687 33.4695C15.1165 33.4853 15.3562 33.4761 15.5654 33.4393C15.5654 33.4393 15.9735 33.8926 16.1548 34.6639C16.1453 34.6245 16.1352 34.5864 16.1247 34.5483C16.1442 34.5062 16.1548 34.4826 16.1548 34.4826C16.1548 34.4826 16.0338 33.0924 15.792 32.488L16.8198 33.0924C16.8198 33.0924 19.8426 36.7189 20.2657 37.3233C20.38 37.4875 20.5427 37.7069 20.7191 37.9421C20.1208 36.439 19.4715 35.0055 18.9658 34.3919C17.6964 32.8494 16.1548 30.0389 16.1548 30.0389ZM37.4199 31.4671C37.2387 32.555 35.5609 35.2078 35.5609 35.2078C35.4306 36.4245 35.0711 37.7858 34.6625 39.055C34.6597 39.1023 34.6568 39.1509 34.654 39.1982C34.654 39.1982 35.44 36.9002 35.8028 35.8122C36.1656 34.7243 37.1932 33.212 37.3744 32.245L37.4456 32.375C37.5992 32.245 37.7636 32.0873 37.9015 31.9191C37.5452 31.9467 37.4199 31.4671 37.4199 31.4671Z" fill="#AB5348"/>
<path d="M22.4118 42.6433C22.4118 42.6433 21.6236 40.2139 20.7191 37.9421C20.5427 37.7069 20.38 37.4875 20.2657 37.3232C19.8426 36.7188 16.8198 33.0924 16.8198 33.0924L15.792 32.488C16.0338 33.0924 16.1548 34.4826 16.1548 34.4826C16.1548 34.4826 16.1442 34.5062 16.1247 34.5482C16.1352 34.5864 16.1454 34.6244 16.1548 34.6639C16.3363 35.4351 16.7441 38.0196 17.2429 38.9709C17.7416 39.9235 22.0945 43.2779 23.9535 44.5932C23.9535 44.5932 24.6548 45.2475 26.31 45.618C26.2573 45.5931 26.199 45.5681 26.1297 45.5458C24.7695 45.0925 22.4118 42.6433 22.4118 42.6433ZM37.3744 32.2449C37.1932 33.212 36.1656 34.7243 35.8028 35.8122C35.44 36.9002 34.6541 39.1982 34.6541 39.1982C34.6568 39.1509 34.6597 39.1023 34.6625 39.055C34.2181 40.4333 33.7153 41.7025 33.3847 42.5527C32.8582 43.906 32.2077 44.7601 32.0006 45.0136C33.1153 44.3054 33.5207 43.4146 33.5207 43.4146C33.5207 43.4146 34.6994 41.1481 35.3343 40.1955C35.9692 39.2429 36.513 38.0196 36.6944 36.7044C36.8609 35.4969 37.2157 34.3236 37.3627 33.1134C37.3917 32.8756 37.4115 32.6339 37.425 32.3921C37.4318 32.3869 37.4388 32.3803 37.4456 32.375L37.3744 32.2449Z" fill="#4D3A39"/>
<path d="M28.0041 35.631C28.6085 35.7518 29.0317 36.4167 29.455 36.2958C29.8782 36.1749 30.5431 35.5101 30.9058 35.5101C30.9976 35.5101 31.1357 35.5416 31.2979 35.5889C31.5507 35.3287 31.6916 35.1172 31.6916 35.1172C32.0543 35.0265 32.2964 34.5128 32.2964 34.5128C31.9635 33.9991 31.1175 33.9991 31.1175 33.9991C30.5431 35.0265 29.5456 34.815 28.9713 34.7244C28.3969 34.6337 27.9738 34.0293 27.2482 33.9689C26.5228 33.9084 25.6159 34.3919 25.6159 34.3919C25.6762 34.7546 26.0089 34.9359 26.0089 34.9359C26.1632 35.2236 26.4295 35.5048 26.7696 35.7492C27.193 35.6323 27.5985 35.5495 28.0041 35.631Z" fill="#AB5348"/>
<path d="M26.7345 34.4222C27.2483 35.087 27.8527 34.6337 27.8527 34.6337C27.3088 34.3013 26.7345 34.4222 26.7345 34.4222ZM30.815 34.5733L30.6943 34.7546C31.3895 35.0568 31.6917 34.6035 31.6917 34.6035C31.2079 34.3617 30.815 34.5733 30.815 34.5733Z" fill="#050301"/>
<path d="M25.4439 33.9597C25.2654 33.3448 25.6558 32.739 26.0025 32.266C26.0091 32.2568 25.9942 32.245 25.9867 32.2542C25.5713 32.7207 25.2323 33.3408 25.3536 33.9847C25.4765 34.639 26.1119 34.9859 26.6704 35.2211C26.684 35.2263 26.694 35.2027 26.6806 35.1961C26.1545 34.9451 25.6137 34.5444 25.4439 33.9597ZM28.1452 34.7796C27.717 34.3512 26.7035 34.0871 26.2556 34.6075C26.2433 34.6219 26.262 34.6416 26.2762 34.6285C26.7763 34.1778 27.6234 34.5418 28.1103 34.8243C28.1387 34.8413 28.1684 34.8032 28.1452 34.7796ZM31.8483 34.7034C31.5976 34.4761 31.242 34.3788 30.9244 34.4918C31.1135 34.2343 31.2632 33.9558 31.3548 33.6864C31.5286 33.1753 31.5013 32.5998 31.4467 32.0716C31.3894 31.5158 31.3114 30.9548 31.2214 30.4029C31.1271 29.8222 31.0096 29.2453 30.9042 28.6659C30.7891 28.0352 30.7201 27.4137 30.6836 26.7738C30.682 26.7489 30.6456 26.7489 30.6445 26.7738C30.6004 27.7724 30.8647 28.7881 31.0438 29.763C31.1394 30.282 31.1949 30.805 31.2691 31.3279C31.3475 31.8811 31.4291 32.4342 31.3965 32.9953C31.3478 33.8322 30.8694 34.5838 30.2111 35.087C29.9231 35.3065 29.5779 35.4615 29.212 35.4707C28.7877 35.4799 28.4431 35.2381 28.1862 34.9202C28.1701 34.9005 28.1353 34.9268 28.1506 34.9478C28.9668 36.0436 30.1249 35.4904 30.8314 34.6127C30.8421 34.618 30.8546 34.618 30.8674 34.6114C31.1979 34.4406 31.5415 34.5155 31.8389 34.7152C31.8464 34.7204 31.855 34.7099 31.8483 34.7034ZM32.1246 31.8049C32.1224 31.793 32.1047 31.7957 32.105 31.8075C32.1126 32.425 32.5638 32.9296 32.5641 33.5563C32.5642 34.1686 32.1721 34.8348 31.6559 35.1527C31.644 35.1606 31.6545 35.179 31.6671 35.1724C32.2122 34.89 32.5647 34.3526 32.6553 33.7495C32.7613 33.0439 32.2527 32.4684 32.1246 31.8049Z" fill="#461C0F"/>
<path d="M38.3465 28.633C38.2606 29.2834 38.3333 29.9482 38.2768 30.6013C38.2625 30.7707 38.2351 30.9376 38.2014 31.1032C38.1726 31.2451 38.0977 31.3935 38.0827 31.5354C38.0642 31.7089 37.8917 31.8836 37.7855 32.0071C37.685 32.1241 37.5737 32.2292 37.4586 32.3317C37.4694 32.1306 37.4761 31.9296 37.478 31.7273C37.4897 30.4896 37.2741 29.2558 37.4614 28.022C37.469 27.9708 37.4771 27.9195 37.4879 27.8683C37.4938 27.8394 37.4487 27.8262 37.4427 27.8565C37.2493 28.7893 37.3487 29.7393 37.3942 30.6801C37.4297 31.4054 37.4259 32.1333 37.3578 32.8572C37.2876 33.6036 37.1224 34.338 36.9643 35.0712C36.8137 35.7689 36.7161 36.4732 36.5759 37.1722C36.4424 37.8383 36.2098 38.4835 35.9184 39.0944C35.6872 39.5806 35.3919 40.0221 35.1094 40.4767C34.867 40.8682 34.6409 41.269 34.4171 41.671C34.1001 42.24 33.7913 42.8142 33.4903 43.3923C33.3672 43.6275 33.2197 43.8456 33.0493 44.0506C32.6059 44.5853 32.0339 45.0005 31.4075 45.2948C30.3695 45.7823 29.2178 45.8625 28.0874 45.8112C27.0941 45.7665 26.0945 45.5957 25.1661 45.2318C24.7647 45.0754 24.3554 44.8757 24.0195 44.6011C23.5618 44.2266 23.0566 43.8995 22.5826 43.5434C21.7955 42.9534 21.0176 42.349 20.2511 41.7315C19.5571 41.1718 18.8694 40.6015 18.2158 39.9958C17.7931 39.6029 17.361 39.2087 17.143 38.6648C16.796 37.7976 16.6289 36.8503 16.4469 35.9384C16.2847 35.129 16.1911 34.2776 15.7128 33.5799C15.6742 33.5234 15.6332 33.4682 15.588 33.417C15.5594 33.3841 15.4189 33.4288 15.4022 33.4301C15.2856 33.4446 15.1679 33.4459 15.0503 33.4459C14.5402 33.4433 14.0135 33.3237 13.565 33.078C13.2973 32.9321 13.1458 32.7534 13.0007 32.5025C12.8038 32.1596 12.6195 31.8101 12.448 31.4553C12.2297 31.0033 12.0329 30.5369 11.9015 30.0534C11.7777 29.5961 11.7156 29.1191 11.6536 28.6514C11.5689 28.0141 11.5051 27.3716 11.4608 26.7291C11.4591 26.7015 11.4157 26.7015 11.4178 26.7291C11.4638 27.4334 11.5341 28.139 11.6282 28.8393C11.6914 29.3097 11.7625 29.784 11.8968 30.2399C12.0405 30.7274 12.2542 31.1951 12.4782 31.6511C12.6475 31.9953 12.8307 32.3317 13.0245 32.6628C13.1756 32.9216 13.4268 33.0846 13.6934 33.2133C14.1294 33.4236 14.6302 33.5063 15.1109 33.509C15.1914 33.5103 15.5254 33.4406 15.5642 33.4879C15.6803 33.6272 15.773 33.7875 15.8569 33.9478C16.0643 34.3433 16.1489 34.7743 16.2343 35.2079C16.3209 35.6467 16.4051 36.0869 16.4968 36.5244C16.6687 37.3443 16.8194 38.2588 17.2212 39.0051C17.4787 39.4834 17.9756 39.8749 18.3698 40.2336C19.049 40.8498 19.7605 41.4332 20.4767 42.0061C21.6346 42.9324 22.8453 43.7865 24.0164 44.6944C25.1361 45.5603 26.7181 45.8165 28.0874 45.8861C29.8771 45.9794 31.7212 45.6128 32.9782 44.2463C33.5405 43.634 33.8684 42.8273 34.2617 42.1086C34.489 41.6921 34.7212 41.2769 34.9619 40.8682C35.2011 40.4609 35.4713 40.0733 35.7054 39.6634C36.0125 39.126 36.2581 38.5557 36.4463 37.9671C36.6583 37.3049 36.7308 36.6216 36.859 35.9423C36.9933 35.2302 37.1652 34.5246 37.2921 33.8112C37.3755 33.3408 37.4278 32.8691 37.4553 32.3948C37.7073 32.1845 37.9379 31.9598 38.1138 31.68C38.2782 31.4198 38.3321 31.1347 38.371 30.8272C38.4622 30.1085 38.4283 29.3556 38.3976 28.633C38.3961 28.6001 38.3507 28.6015 38.3465 28.633ZM38.4944 25.2602C38.4746 25.2207 38.4187 25.2483 38.4277 25.2877C38.4884 25.5545 38.5892 25.812 38.6482 26.08C38.715 26.3836 38.7394 26.691 38.7369 26.9998C38.7345 27.277 38.6419 27.5451 38.6311 27.817C38.6271 27.9182 38.5498 28.0299 38.5106 28.1245C38.4559 28.2572 38.4237 28.3965 38.3987 28.5371C38.3942 28.562 38.4313 28.5725 38.4361 28.5476C38.4589 28.4293 38.489 28.315 38.5283 28.202C38.5582 28.1153 38.5988 28.0338 38.6407 27.9537C38.6799 27.8775 38.7119 27.8946 38.7398 27.8473C38.8649 27.6331 38.8577 27.2402 38.8657 26.9998C38.8845 26.4335 38.7523 25.7647 38.4944 25.2602Z" fill="#AB5348"/>
<path d="M38.4485 26.5847C38.1001 27.1378 37.9018 27.7895 37.737 28.4176C37.6952 28.5766 37.6588 28.7382 37.627 28.8998C37.6128 28.972 37.6008 29.043 37.5892 29.1153C37.5799 29.1757 37.5393 29.2309 37.537 29.29C37.5246 29.6513 37.6575 29.9746 37.3841 30.2754C37.3409 30.3227 37.4104 30.3937 37.4554 30.3464C37.6582 30.1349 37.709 29.9312 37.678 29.6435C37.6608 29.4897 37.6193 29.2834 37.6406 29.1297C37.6644 28.9576 37.699 28.7868 37.7357 28.616C37.8848 27.9275 38.1007 27.2035 38.4771 26.6017C38.4884 26.5833 38.4597 26.5663 38.4485 26.5847Z" fill="#AB5348"/>
<path d="M14.8169 30.1677C14.9523 29.7801 14.5987 29.5488 14.4271 29.244C14.1864 28.817 14.077 28.3072 13.885 27.8565C13.7285 27.4886 13.5391 27.1444 13.2719 26.854C13.2673 26.6818 13.2407 26.4979 13.1483 26.3796C13.1232 26.3481 13.0726 26.3757 13.0724 26.4112C13.0713 26.5018 13.1018 26.5912 13.1177 26.6805C13.119 26.6871 13.1197 26.695 13.1208 26.7029C13.1088 26.6924 13.0979 26.6805 13.0856 26.67C13.0665 26.6529 13.0399 26.6792 13.0576 26.6976C13.0833 26.7252 13.1072 26.7541 13.1316 26.7817C13.1434 26.8973 13.1428 27.0143 13.1379 27.1299C13.1252 27.4229 13.0483 27.7212 12.8829 27.9655C12.8596 27.9997 12.7394 28.0838 12.7461 28.135C12.7686 28.3085 12.7093 28.5174 12.6979 28.6921C12.6728 29.0797 12.6997 29.47 12.7054 29.8576C12.7054 29.8615 12.7122 29.8615 12.7122 29.8576C12.7154 29.4687 12.703 29.0797 12.7331 28.6921C12.7484 28.495 12.754 28.252 12.9108 28.1114C13.004 28.0273 13.0662 27.9064 13.1166 27.7947C13.2186 27.5687 13.2563 27.3151 13.2688 27.0694C13.2706 27.034 13.2717 26.9959 13.2725 26.9551C13.6431 27.4479 13.8522 28.0076 14.0649 28.5778C13.8997 28.591 13.7502 28.6554 13.5919 28.7C13.4706 28.7342 13.4538 28.7486 13.4061 28.8643C13.2936 29.1402 13.2253 29.4292 13.185 29.7236C13.1187 30.2058 13.126 30.8654 13.5669 31.1781C13.5732 31.1833 13.5809 31.1728 13.5751 31.1676C13.1505 30.8194 13.1724 30.1769 13.2421 29.6828C13.2752 29.449 13.3342 29.219 13.4131 28.997C13.4488 28.8958 13.4542 28.8301 13.5552 28.8143C13.7304 28.7867 13.8913 28.704 14.069 28.6895C14.0828 28.6882 14.0931 28.6829 14.1016 28.6751C14.1787 28.8814 14.2574 29.0876 14.3458 29.2913C14.4187 29.4608 14.563 29.6053 14.6602 29.7604C14.8099 29.9995 14.6605 30.2439 14.5708 30.4764C14.4905 30.6867 14.5445 30.8089 14.5729 31.0191C14.6106 31.295 14.7232 31.5565 14.8392 31.8075C14.8396 31.8088 14.8408 31.8075 14.8405 31.8075C14.7309 31.5223 14.6311 31.2359 14.5928 30.9324C14.5613 30.6801 14.7371 30.3963 14.8169 30.1677Z" fill="#AB5348"/>
<path d="M24.7695 38.699C24.7695 38.699 26.81 40.4675 28.1703 40.8748C28.1703 40.8748 29.6665 41.1928 31.072 40.7395C31.072 40.7395 31.5708 40.2402 31.8429 39.6516C32.115 39.0616 33.294 38.201 33.294 38.201C33.294 38.201 32.1602 38.427 31.7974 38.427C31.4349 38.427 29.4398 38.3363 29.3036 38.381C29.1679 38.427 26.9913 38.473 26.9913 38.473L24.7695 38.699Z" fill="#882824"/>
<path d="M31.7974 38.427C31.4349 38.427 29.4398 38.3363 29.3036 38.381C29.1679 38.427 26.9913 38.473 26.9913 38.473L24.7695 38.699C24.7695 38.699 24.983 38.8842 25.3167 39.147C25.843 39.1181 28.4765 38.9802 29.5757 39.0616C30.7766 39.151 31.1493 38.6727 32.4896 38.8685C32.8822 38.5006 33.294 38.201 33.294 38.201C33.294 38.201 32.1602 38.427 31.7974 38.427ZM29.621 40.7395C28.4878 40.8302 27.0368 40.3309 27.0368 40.3309L27.0306 40.3427C27.4247 40.5753 27.82 40.771 28.1703 40.8748C28.1703 40.8748 29.6665 41.1928 31.072 40.7395C31.072 40.7395 31.3014 40.5096 31.534 40.1785L31.5254 40.1495C31.5254 40.1495 30.7547 40.6488 29.621 40.7395Z" fill="#721D1E"/>
<path d="M33.7017 37.7923C33.7017 37.7923 32.7952 38.2916 32.1602 38.2456C31.5254 38.201 31.1715 37.6412 30.7547 37.611C30.1198 37.565 29.5757 37.9736 29.5757 37.9736C29.5757 37.9736 28.805 37.4744 28.1703 37.611C27.5355 37.7463 26.5833 38.381 25.5404 38.4729C24.4977 38.5636 23.6815 38.2916 23.6815 38.2916C25.2503 39.3217 27.3063 38.36 28.9739 38.7318L29.0771 38.8356C29.3036 38.8356 29.5305 38.8356 29.7572 38.8802C29.9512 38.8566 30.1067 38.7673 30.2505 38.6543H30.2559C31.6162 38.3363 32.6138 38.8803 33.7017 37.7923Z" fill="#721D1E"/>
<path d="M29.0389 38.7187C28.6635 38.5755 28.2111 38.5886 27.8161 38.6057C27.3649 38.6254 26.9148 38.6806 26.4657 38.7266C25.5169 38.8212 24.5184 38.8028 23.6827 38.289C23.6799 38.2877 23.6775 38.2917 23.6802 38.293C24.4493 38.8028 25.3579 38.8343 26.251 38.7765C26.7258 38.7463 27.2003 38.7016 27.6761 38.6859C28.1376 38.6701 28.5747 38.7292 29.0318 38.7713C29.0638 38.7739 29.0647 38.7292 29.0389 38.7187ZM33.6894 37.7714C33.4199 37.9763 33.184 38.1984 32.8576 38.3153C32.7301 38.36 32.5984 38.3915 32.4649 38.4152C32.3385 38.4362 32.1861 38.4165 32.0643 38.452C31.7859 38.5321 31.4708 38.5072 31.1838 38.5177C30.9147 38.5282 30.6481 38.5571 30.3847 38.6096C30.4729 38.5282 30.555 38.4388 30.6323 38.3495C30.6458 38.3337 30.6286 38.3075 30.6091 38.3193C30.4145 38.4402 30.2492 38.6018 30.0507 38.7174C29.7548 38.8895 29.4028 38.8133 29.0771 38.8146C29.0502 38.8146 29.0502 38.8554 29.0771 38.8567C29.2641 38.8567 29.5675 38.8225 29.7281 38.9303C29.7845 38.9684 29.9403 38.9026 29.9907 38.8803C30.1156 38.8264 30.2282 38.7476 30.3322 38.6569C30.6546 38.5939 30.9797 38.5663 31.3084 38.5571C31.5994 38.5492 31.9091 38.5991 32.1953 38.5624C32.7491 38.4888 33.3598 38.2588 33.7193 37.8095C33.7356 37.7898 33.7137 37.753 33.6894 37.7714Z" fill="#721D1E"/>
<path d="M19.0155 14.578C18.9665 14.3231 18.4709 13.7713 18.297 13.5702C18.0482 13.2825 17.8063 13.3114 17.5125 13.1169C17.2659 12.954 16.8335 12.5362 16.7092 12.255C16.5751 11.9515 16.6583 11.6545 16.473 11.4062C16.2022 11.0422 15.7288 10.8386 15.3309 10.5916C15.7404 10.9463 16.1878 11.3812 16.3823 11.7662C16.5395 12.0776 16.547 12.3562 16.7996 12.6623C17.0083 12.9172 17.2293 13.2115 17.4697 13.4441C17.6798 13.6464 17.9662 13.7607 18.1043 14.0327C18.222 14.2666 18.1968 14.5149 18.2383 14.7685C18.3478 15.4413 18.894 15.7894 19.1019 16.3912L19.3286 16.5279C19.3374 16.16 19.0958 15.9458 18.9759 15.6213C18.8247 15.21 19.0801 14.9131 19.0155 14.578ZM15.3309 10.5916C15.1543 10.4378 14.9848 10.2999 14.8455 10.1869C14.9705 10.3459 15.1423 10.4733 15.3309 10.5916ZM31.1946 15.1574C31.1816 15.2021 31.1705 15.2468 31.1632 15.2888C31.1736 15.2442 31.184 15.2008 31.1946 15.1574ZM36.2288 13.5242C36.2501 13.1984 36.6056 12.8515 36.7047 12.5362C36.7972 12.2405 36.7841 11.9449 36.8759 11.6414C37.0001 11.2314 37.5689 10.5889 37.5477 10.1869C37.5371 9.98191 37.2508 9.68233 37.1806 9.434C37.1588 9.35779 37.1409 9.28289 37.1245 9.20668C36.8973 9.0293 36.6333 8.90974 36.2863 8.90974C36.2863 8.69294 36.2852 8.44855 36.2624 8.21993C36.2017 8.576 36.0879 8.95311 36.1959 9.22772C36.2732 9.4235 36.4457 9.53122 36.5143 9.72437C36.579 9.90832 36.6096 10.2552 36.6389 10.4536C36.7427 11.1579 36.5073 11.9239 36.275 12.5835C36.1668 12.8922 36.1343 13.1498 36.0618 13.4533C35.9345 13.9854 35.5128 14.306 35.3343 14.804L34.7447 15.8013C35.231 15.5477 36.0806 14.7304 36.2884 14.2154C36.4236 13.8803 36.2082 13.8383 36.2288 13.5242ZM39.5961 22.9661C39.5961 22.9661 39.4642 22.6337 39.492 22.2947C39.4039 22.296 39.2918 22.2894 39.1985 22.3407C39.0235 22.4392 38.8966 22.6954 38.7472 22.8281C38.5023 23.0449 37.8316 23.74 37.5267 23.7347C37.7872 23.8701 39.1402 23.2105 38.7687 23.9515C38.584 24.3194 37.8577 24.6479 37.3264 24.753C37.3283 24.778 37.3292 24.8016 37.3292 24.8253C37.3292 24.8568 37.3285 24.8897 37.3275 24.9238C37.611 24.8568 37.9194 24.7819 38.1454 24.6571C38.4136 24.5086 38.7933 24.033 39.0623 24.5034C39.2251 24.4298 39.3148 24.2445 39.3981 24.0987C39.3423 24.0842 39.3005 24.0593 39.2415 24.0461C39.1934 23.669 39.6538 23.5179 39.9459 23.3852C39.8766 23.2381 39.7669 23.0725 39.5961 22.9661ZM14.1598 17.3885C15.1335 17.5685 16.0653 17.5186 16.9572 18.0533C16.2536 17.286 15.1728 17.5383 14.3082 17.106C13.5053 16.7052 12.7733 15.9721 11.937 15.6607C11.3516 15.4439 10.6555 15.6173 10.0788 15.7566V16.0286C10.3393 16.3741 11.1473 16.5555 11.6159 16.7341C11.3365 16.4017 10.7625 16.3492 10.5358 15.9905C11.7452 15.8394 12.9745 17.1704 14.1598 17.3885ZM37.615 25.5965C38.1709 25.6084 38.6965 25.3416 39.2427 25.2878C39.3093 25.2812 39.3748 25.2773 39.4394 25.2746C39.4692 25.2484 39.4923 25.2208 39.5057 25.1879C39.5763 25.0105 39.5102 24.8897 39.5625 24.6939C38.802 24.753 38.3466 25.3981 37.615 25.5965ZM36.7071 20.1582C37.4649 19.9138 38.4911 19.5118 38.9729 18.8864C39.2838 18.483 39.5985 18.3923 40.0032 18.1033C40.1309 18.0113 40.2554 17.8904 40.3732 17.7537C40.3161 17.6499 40.1855 17.4791 39.9137 17.3885C39.6878 17.3136 39.5458 16.9602 39.5249 16.5069C39.3458 16.5752 39.1398 16.6067 38.906 16.7512C38.2344 17.1691 38.2352 18.0244 37.9298 18.6485C37.6703 19.1794 37.364 19.1163 36.8407 19.065C36.5281 19.0348 36.383 19.069 36.2951 19.1583C36.3118 19.3331 36.3273 19.5131 36.3413 19.697C36.8402 19.5367 37.4422 19.4763 37.7913 19.1689C38.0679 18.9271 38.0904 18.5815 38.3154 18.2951C38.6207 17.9062 38.8619 18.0468 39.2831 17.9495C38.7859 19.1123 37.741 19.6011 36.7071 20.1582ZM38.8719 15.2218C38.86 14.8684 38.6313 14.7265 38.5435 14.4072C38.4713 14.1444 38.4674 13.7542 38.5614 13.4966C38.8351 13.5137 39.0649 13.4375 39.2628 13.2995C39.1854 13.2943 39.1 13.2838 39.0069 13.2628C38.5988 13.1721 38.2814 12.8541 38.4627 12.4468C38.6442 12.0382 38.6894 11.7215 38.5534 11.4942C38.5058 11.4154 38.4254 11.3642 38.3407 11.33C38.4793 11.6913 38.425 12.2668 38.2937 12.573C38.2359 12.707 38.0846 13.0144 37.9992 13.1169C37.8711 13.2693 37.7168 13.268 37.6116 13.4533C37.5021 13.6451 37.5406 14.1221 37.5005 14.3507C37.4253 14.7803 37.3251 15.2376 37.1831 15.6541C37.0269 16.1127 36.7122 16.6277 36.4171 17.0101C36.8057 16.5095 37.1845 16.2703 37.3758 15.6673C37.4837 15.3256 37.9001 13.7529 38.1454 14.804C38.3863 15.8367 37.5966 16.5108 37.0673 17.2518C36.8678 17.5317 36.5125 18.0402 36.1341 18.2714C36.1559 18.3503 36.1764 18.4291 36.1945 18.5092C36.8533 17.8681 37.3398 17.1756 37.9527 16.4701C38.2911 16.0798 38.8926 15.842 38.8719 15.2218ZM40.4206 18.2268C40.3039 18.3739 40.193 18.5447 40.1403 18.7142C39.9338 19.3791 39.7924 19.86 39.2435 20.3724C38.9033 20.6904 38.3455 21.1555 37.9084 21.2895C37.5125 21.4091 37.0891 21.2856 36.7557 21.6075C37.4333 21.459 37.9637 21.3828 38.5988 21.0937C38.9081 20.9532 39.2593 20.7403 39.5157 20.5301C39.7978 20.2988 39.9368 19.8429 40.2347 19.6721C40.7433 20.3014 38.4828 21.6482 38.0708 21.8795C38.3919 21.8926 38.6944 21.6653 39.0069 21.6035C39.1315 21.5786 39.3701 21.5089 39.4968 21.5694C39.5842 21.6101 39.6282 21.7402 39.668 21.84C39.9636 21.4235 40.0498 20.6983 40.0498 20.6983C40.0498 20.6983 40.9112 19.7916 41.002 18.9757C41.002 18.9757 40.7948 18.3976 40.4206 18.2268ZM27.1242 14.9249C27.1964 14.7659 27.2108 14.5833 27.1906 14.3927C27.1886 14.5583 27.1688 14.7344 27.1242 14.9249ZM19.2358 11.9121C19.164 11.5008 19.2762 11.0869 18.9999 10.7348C18.7083 10.3629 18.1955 10.2473 17.8776 9.90832C17.564 9.57327 17.466 9.07268 17.0717 8.80727C16.3912 8.34871 15.3491 8.49717 14.7015 7.92299C14.6894 7.91116 14.6785 7.89935 14.6668 7.88752C14.583 8.0176 14.4472 8.07803 14.2051 8.00313C14.2829 8.04124 14.3608 8.14766 14.4386 8.23438C14.9436 8.49585 15.5717 9.0477 15.8261 9.40903C16.0935 9.78875 16.2465 10.1737 16.6975 10.3735C17.1681 10.5811 17.5435 10.5219 17.8211 11.0304C18.067 11.4824 18 11.9672 18.3312 12.3916C18.669 12.8226 19.1048 12.9553 19.5542 13.2168C20.2419 13.6162 20.4019 14.2535 20.6446 14.9722C20.6383 14.1286 20.45 13.5453 19.8603 12.9579C19.5535 12.6518 19.3114 12.347 19.2358 11.9121ZM11.6114 14.8447C11.4773 14.1865 12.7715 14.603 13.0714 14.7015C13.5716 14.8644 13.8727 15.0931 14.2935 15.3598C14.7702 15.6607 15.3793 15.5319 15.8827 15.8472C16.3895 16.1652 16.591 16.7434 17.0558 17.0863C16.6623 16.5226 16.4444 15.6239 15.7442 15.2231C15.1859 14.9025 14.486 15.0497 13.8876 14.8395C13.2014 14.599 12.53 14.4847 11.8474 14.2955C11.3061 14.1444 10.6705 13.7463 10.336 13.2483C10.2263 13.3416 10.2339 13.494 10.4871 13.8514C10.1326 13.8383 9.96493 14.0958 9.87401 14.4663C9.93248 14.4098 9.99817 14.3651 10.0779 14.3481C10.5466 14.2548 11.1892 14.6936 11.6114 14.8447ZM26.437 11.9121C26.2367 11.6966 25.7597 11.5139 25.4998 11.3471C25.1463 11.1198 24.7044 10.9634 24.6325 10.497C24.5721 10.1041 24.8067 9.74671 24.7718 9.36304C24.7046 8.62462 24.5781 7.63918 23.8626 7.31332C23.3776 7.09127 22.9276 7.07289 22.8189 6.46192C22.7231 5.9219 22.7338 5.688 22.2734 5.31747C21.9236 5.03629 21.4268 4.74199 21.2205 4.32153C21.1984 4.27555 21.1783 4.23219 21.1589 4.18883C21.0845 4.17832 21.017 4.16518 20.9609 4.14941C20.2355 3.87743 20.3261 3.74077 19.4646 3.96808C19.51 4.01276 19.6008 4.14939 19.6462 4.19407C19.5776 4.17173 19.4863 4.1599 19.3947 4.14808C19.85 4.59744 20.9342 5.26756 21.1887 5.50932C21.5507 5.85357 22.0118 6.06642 22.3676 6.4041C22.6988 6.71813 22.6905 7.0663 23.135 7.33434C23.5927 7.61026 23.9122 7.69437 24.0456 8.26461C24.1336 8.64302 24.2165 8.98989 24.3074 9.36304C24.4127 9.79664 24.2184 10.108 24.2256 10.4996C24.2329 10.8885 24.6098 11.0869 24.951 11.3129C25.6884 11.8004 26.2277 12.2445 26.6615 13.0263C26.8545 13.3731 27.1387 13.9092 27.1906 14.3927C27.1964 13.8554 27.0087 13.4125 26.8211 12.8449C26.7264 12.5572 26.6419 12.1328 26.437 11.9121ZM23.2642 8.37891C23.035 8.03992 22.4953 7.97817 22.1841 7.76663C21.7632 7.48282 21.5475 7.01244 21.2227 6.64322C20.9184 6.29635 20.5325 6.21882 20.1448 5.97443C19.5641 5.60916 19.7851 5.21498 19.5664 4.68022C19.5016 4.52255 19.3406 4.30709 19.1479 4.10343C19.1477 4.10343 19.1474 4.10343 19.1471 4.10343C19.1019 4.4214 18.9206 4.82871 18.6033 4.96535C18.5564 5.00083 18.4911 5.01398 18.4188 5.0166C18.6737 5.22552 18.9104 5.44625 19.1043 5.74845C19.4353 6.26482 19.6606 6.26087 20.1811 6.55256C20.5699 6.76935 20.7638 7.16223 21.1086 7.42239C21.6282 7.81394 22.3682 7.9808 22.8561 8.40914C23.1629 8.67849 23.139 9.06215 23.3643 9.36435C23.6009 9.68232 23.9127 9.7914 23.8629 10.2723C23.8262 10.6244 23.5472 10.8333 23.456 11.1763C23.3454 11.5901 23.454 11.9423 23.5465 12.3417C23.5433 11.9344 23.5121 11.5534 23.6473 11.1763C23.7827 10.7992 23.9709 10.5837 23.9636 10.179C23.9556 9.73093 23.8075 9.60481 23.602 9.26188C23.4371 8.98464 23.4343 8.62987 23.2642 8.37891ZM21.3691 11.5389C21.3501 11.0567 21.3424 10.8622 21.1309 10.451C20.8731 9.95037 20.9131 9.50494 20.8149 8.9636C20.5848 7.6983 19.4388 8.01627 18.5569 7.49201C18.1567 7.25419 17.7309 6.83639 17.4715 6.38308C17.0998 6.25169 16.7625 6.08482 16.4269 5.91795C16.3963 5.96656 16.3623 6.00861 16.3271 6.04803C16.4196 6.34366 16.2753 6.67214 16.2884 6.99537C16.3101 7.53013 16.7068 7.67466 17.1523 7.877C17.7737 8.15949 18.4173 8.38549 18.9556 8.82172C19.4155 9.19356 19.3634 9.50101 19.6336 9.953C19.8588 10.3288 20.3514 10.4129 20.6336 10.7689C20.9296 11.1421 20.9154 11.4588 20.9609 11.9029C21.0434 12.703 21.8654 13.1485 22.0036 13.9749C22.0044 13.5453 22.0508 13.0144 21.8562 12.6268C21.632 12.1801 21.3911 12.1013 21.3691 11.5389ZM17.9219 14.9406C17.8594 14.4795 17.9281 14.2206 17.516 13.8974C17.1706 13.6267 16.7155 13.5203 16.3825 13.2628C15.9962 12.9632 15.8676 12.4665 15.5211 12.1275C14.8669 11.4903 13.8439 11.5678 13.2984 10.8136C12.7816 10.1002 12.3101 9.94905 11.5466 10.0923C11.3737 10.5114 11.5338 11.0895 11.1853 11.3418C11.4338 11.3405 11.7178 11.3221 12.0387 11.3576C12.5185 11.4101 12.6183 11.6322 12.9445 11.9449C13.2522 12.2405 13.5636 12.2721 13.9307 12.4008C14.7506 12.6912 14.9983 13.4966 15.7024 13.9434C16.3632 14.3638 17.1558 14.0353 17.5137 14.8947C17.7564 15.4767 18.2755 15.867 18.6532 16.4175C18.6083 16.2756 18.5321 16.1245 18.456 15.9852C18.2574 15.6239 17.9771 15.348 17.9219 14.9406ZM30.6844 12.8055C31.0824 12.0421 31.866 11.5731 32.1614 10.7689C32.2939 10.4089 32.4779 10.3064 32.6575 10.0003C32.7521 9.84 32.7397 9.63504 32.8494 9.46423C32.865 9.43926 32.8829 9.41691 32.9011 9.39589C33.0776 9.99898 32.8249 10.6441 32.795 11.2682C32.7545 12.1065 32.4147 12.7648 31.9394 13.4375C32.6003 12.9619 33.0442 12.2156 33.1588 11.3917C33.2315 10.8714 33.4625 10.5259 33.6023 10.0424C33.7291 9.60219 33.4543 9.13967 33.3407 8.67454C33.4272 8.28956 33.4225 7.8586 33.3744 7.50384C33.3276 7.15828 33.3658 6.72207 33.2936 6.36994C33.2334 6.07694 33.0318 5.8667 32.8763 5.62362C32.7796 5.58815 32.6641 5.55137 32.523 5.50932C32.523 5.59999 32.523 5.69064 32.5685 5.7813C32.494 5.7445 32.4267 5.70115 32.3643 5.65516C32.3686 5.66699 32.3715 5.68011 32.3757 5.69194C32.5643 6.17809 32.7966 6.29241 32.7952 6.91915C32.7939 7.43946 32.8407 8.00708 32.8427 8.49981C32.8447 8.95968 32.6512 8.97282 32.4879 9.32758C32.3406 9.64817 32.4251 10.2237 31.8871 9.80716C31.586 9.57459 31.5644 8.97019 31.5143 8.63777C31.3777 7.7259 31.9051 6.88499 31.4246 6.04408C31.1992 5.6499 30.9299 5.35427 30.6541 5.01265C30.3728 4.66446 30.4149 4.54885 30.529 4.37935C30.3086 4.3465 30.0837 4.33466 29.8803 4.33203C29.9323 4.51992 29.9961 4.70256 30.0858 4.86286C30.2939 5.23601 30.6725 5.52509 30.8577 5.91795C31.0195 6.2622 31.6939 8.44068 31.2118 8.67588C30.6227 8.96362 30.2997 6.94279 30.1325 6.72337C30.0162 6.57095 29.8137 6.54073 29.6655 6.42773C29.4719 6.28057 29.2741 6.02568 29.1214 5.82728C28.7687 5.36872 28.9763 5.04023 28.7961 4.61452C28.6984 4.38459 28.3935 4.13495 28.1576 3.91026C27.9804 3.89975 27.8034 3.89713 27.6263 3.87742C27.7169 3.96808 27.7621 4.10341 27.8076 4.19407C27.2671 4.36356 27.0286 3.85245 26.5859 3.80646C26.7293 4.07319 27.6963 4.48183 27.9038 4.6119C28.3153 4.87075 28.4613 5.2163 28.6112 5.64464C28.8511 6.33182 29.1001 6.85476 28.71 7.54983C29.5495 8.20942 29.3022 9.90174 29.3944 10.8688C29.4948 11.9186 28.6885 12.9501 28.8028 14.0564C29.1143 13.4901 29.9422 12.8081 29.9839 12.1748C30.0104 11.7688 29.756 11.3195 29.7572 10.8701C29.7598 9.82424 29.5392 8.84273 29.3063 7.8586C29.1821 7.33303 29.3307 6.52892 29.9033 7.21873C30.1679 7.5367 30.2566 7.90327 30.3909 8.28563C30.523 8.66141 30.8345 9.07529 30.8916 9.45502C30.9555 9.8781 30.8144 10.2355 30.9022 10.6783C31.0127 11.2367 30.9159 11.8582 30.8125 12.4376C30.7909 12.5572 30.7143 12.682 30.6844 12.8055ZM16.6536 21.1174C16.1472 21.2737 15.2239 20.8546 14.7653 20.6509C15.3737 20.5879 15.8851 20.2463 16.4585 20.0623C16.0035 20.0124 15.568 20.3422 15.1118 20.3382C14.709 20.3356 14.2834 20.2029 13.8551 20.2003C12.7892 20.1911 11.8413 20.0124 10.8952 19.5538C10.5291 19.3764 10.1566 19.3397 9.77178 19.2017C9.63487 19.1531 9.211 18.9179 8.92588 18.7839C8.79278 19.0046 8.63025 18.8627 8.67335 19.3384C8.67335 19.4711 8.74916 19.6248 8.84757 19.7693C9.19957 19.9664 9.70556 19.9125 10.069 19.9703C10.306 20.0084 10.5812 20.082 10.7884 20.2016C10.2523 20.1937 9.67403 20.2541 9.15082 20.1648C8.76532 20.3514 8.77176 20.7469 9.17211 20.8796C9.08566 21.0241 9.01733 21.2225 8.90933 21.3841C9.31362 21.2041 9.71226 20.9729 10.1344 20.8218C10.6614 20.6339 10.9698 20.8507 11.4981 20.8336C12.0957 20.8165 12.6389 20.601 13.2553 20.6076C13.7997 20.6142 14.4497 20.7061 14.9417 20.9689C15.5428 21.2908 16.1756 21.7862 16.9155 21.3237C17.2567 21.1108 17.3567 20.8507 17.7871 20.7443C17.9005 20.7167 17.9935 20.6982 18.0714 20.6825C18.1479 20.492 18.2122 20.329 18.2576 20.2108C18.006 20.3106 17.7478 20.4539 17.5151 20.5734C17.2207 20.7245 16.9551 21.0254 16.6536 21.1174ZM14.2381 24.3812C13.8947 24.0961 13.8941 24.0317 13.4343 23.9187C13.0625 23.828 12.8314 23.5994 12.4808 23.4522C11.7536 23.1474 10.9931 23.288 10.3495 22.7506C9.85509 22.338 9.419 21.7836 8.7623 21.6653C9.08053 21.8874 9.32347 22.1804 9.48955 22.5128C9.43384 22.5469 9.38576 22.5798 9.34266 22.6113C9.73697 22.7191 10.0151 23.1513 10.4416 23.3287C11.102 23.6033 12.0027 23.489 12.5682 24.0093C12.2937 24.6611 11.0668 23.9936 10.6708 23.8267C10.2628 23.6559 9.80542 23.715 9.39653 23.5455C9.34371 23.5232 9.29102 23.4982 9.2386 23.4719C9.27893 23.5626 9.31993 23.6651 9.35357 23.782C9.47931 24.1591 9.37274 24.6137 9.3918 24.9672C9.69216 25.1143 9.9937 25.4165 10.3058 25.4599C10.9234 25.544 11.1632 25.7582 11.709 26.0591C12.2835 26.3757 12.806 26.2496 13.4341 26.3205C14.062 26.3902 14.4484 26.917 14.7491 27.4544L15.2479 27.8171C14.9842 27.3454 14.6472 26.5202 14.1963 26.1957C13.5384 25.7227 12.6468 26.2627 11.9346 25.9579C11.6377 25.8304 11.4381 25.5295 11.1572 25.3784C10.7383 25.1551 10.5315 25.0802 10.2604 24.644C10.1438 24.4548 10.0133 24.2945 9.87453 24.1499C10.117 24.1342 10.3811 24.0671 10.6229 24.1C10.9508 24.1433 11.2867 24.2997 11.6205 24.3693C12.0633 24.4626 12.4063 24.4508 12.8471 24.3365C13.1528 24.2577 13.4014 24.1276 13.7063 24.2445C14.1984 24.4337 14.9448 24.9317 15.2479 25.3693L15.3839 25.6412C15.2808 25.4271 15.2137 24.9882 15.011 24.7898C14.7895 24.5717 14.4882 24.5888 14.2381 24.3812ZM35.563 11.6848C35.7242 12.008 35.4558 12.6387 35.3511 12.933C35.8288 12.2708 36.5366 10.405 35.935 9.63766C35.8103 10.1146 35.2698 11.1684 35.0623 10.179C34.9791 9.78218 35.1074 9.28289 35.1075 8.86506C35.1076 8.40519 35.2389 8.09773 35.3295 7.69436C35.2698 7.68911 35.2104 7.68517 35.1528 7.68517C34.79 6.91521 34.7447 6.18992 33.7017 6.59724C33.7016 6.59724 33.7013 6.59593 33.7011 6.59593C33.7354 6.71812 33.772 6.839 33.8371 6.95069C33.9447 7.13726 34.1649 7.26208 34.2595 7.45655C34.3528 7.64838 34.3771 7.84153 34.474 8.01496C34.5926 8.22519 34.7489 8.35659 34.8251 8.60361C35.0593 9.36043 34.7985 10.0805 34.6202 10.8176C34.5062 11.2893 34.5311 11.4837 34.1123 11.7544C33.7327 12.0014 33.7428 12.0513 33.5308 12.4928C33.3139 12.9435 33.0325 13.0539 32.5784 13.2509C31.6621 13.6491 31.411 14.264 31.1946 15.1574C31.347 14.6253 31.8629 13.9552 32.3416 13.7594C32.593 13.6556 32.9563 13.7542 33.1931 13.5715C33.4075 13.4073 33.5441 12.9527 33.668 12.7188C33.9645 12.1564 34.2612 12.0172 34.7308 11.8069C34.6803 11.9396 34.6311 12.0855 34.5623 12.234C34.381 12.6216 34.1624 12.703 33.9401 13.0013C33.7017 13.3219 33.6781 13.6451 33.3291 13.9316C32.9887 14.2101 32.5675 14.373 32.3416 14.7593L32.0244 15.3939C32.6678 14.942 33.5259 14.4427 33.9696 13.724C33.9427 13.7187 33.9155 13.7135 33.8884 13.7082C33.9286 13.1366 34.2839 13.2772 34.5757 12.9921C34.8584 12.7175 35.1629 11.9975 35.3063 11.5021C35.3941 11.4627 35.4641 11.4864 35.563 11.6848ZM8.97805 18.6971C9.44041 18.9113 10.5114 19.0322 10.8057 19.0559C11.1664 19.0861 11.3467 18.9323 11.6661 18.8837C12.0125 18.8312 12.3937 18.9586 12.7201 19.0545C13.4004 19.2556 13.9472 19.4303 14.6585 19.429C15.2361 19.4277 15.9183 19.45 16.4097 19.7851C15.7677 19.1373 14.9133 19.3357 14.104 19.2043C13.6548 19.1321 13.1455 19.0033 12.7541 18.7615C12.433 18.5618 11.9203 18.349 11.6707 18.123C12.2606 17.9495 12.9595 18.0954 13.5703 17.9679C14.2256 17.8313 14.6425 17.7498 15.3247 17.8444C14.1347 17.3832 13.1522 17.9942 11.938 17.9338C11.2829 17.9009 10.5978 17.9508 10.0329 17.5685C9.75602 17.3819 9.47064 17.1152 9.15924 16.9181C9.10773 16.9299 9.05254 16.9378 8.99092 16.9352C8.99092 17.1756 9.04308 17.4424 9.12757 17.6762C9.67863 18.0179 10.4812 18.1703 10.9379 18.215C10.4699 18.2846 10.0054 18.4935 9.47931 18.3871C9.42675 18.3766 9.35107 18.3608 9.26212 18.3411C9.37472 18.5631 9.11325 18.5224 8.97805 18.6971ZM28.5342 10.451C28.6154 9.94512 28.8137 9.59562 28.5682 9.09107C28.3171 8.57601 27.9437 8.90843 27.7624 8.50111C27.5816 8.09643 27.7765 7.59582 27.5468 7.1412C27.3448 6.74177 27.1259 6.3581 26.9119 5.97312C26.7432 5.66829 26.664 5.36347 26.5267 5.05733C26.416 4.809 26.3606 4.35044 26.2214 4.15729C26.1873 4.11131 26.1318 4.07846 26.0705 4.05087C26.0885 4.11394 26.0984 4.17699 26.1297 4.24006C25.8579 4.37539 25.6311 4.33074 25.4044 4.14941L25.1325 4.10343C24.9903 3.97203 24.7982 3.89713 24.5771 3.85771C24.8494 4.0837 25.0924 4.35307 25.2808 4.63688C25.6005 5.12171 26.0663 5.29645 26.4045 5.73662C26.831 6.28978 27.8055 7.68516 27.2996 8.40519C27.0056 8.23438 26.9342 7.88094 26.7197 7.6405C26.4854 7.37771 26.3578 7.46313 25.9939 7.36852C25.7262 7.29757 25.4081 7.13857 25.2799 6.86659C25.1575 6.60775 25.2744 6.33447 25.0528 6.13344C24.8556 5.95343 24.5014 5.90743 24.2708 5.69063C23.9941 5.42916 23.7603 5.12695 23.4978 4.86417C23.2801 4.64606 23.0088 4.40037 22.8201 4.14941C22.7623 4.07189 22.72 4.00094 22.6882 3.93393C22.5346 3.94444 22.391 3.94838 22.2626 3.9405C22.4807 4.29 22.9085 4.78667 23.0138 5.01003C23.2032 5.41472 23.1857 5.90743 23.5443 6.18992C23.9196 6.48687 24.4084 6.47898 24.6233 6.95856C24.8362 7.4342 24.7836 7.57875 25.359 7.82183C25.7897 8.00315 26.176 8.00708 26.5278 8.36315C26.7339 8.57207 26.839 8.86244 27.0479 9.0477C27.2447 9.22245 27.5045 9.30523 27.7183 9.45502C28.2566 9.83474 28.2676 10.4181 28.261 11.0409C28.2574 11.3786 28.253 11.6467 28.0695 11.941C27.9234 12.1749 27.7941 12.0303 27.7621 12.3562C27.7288 12.6952 28.0212 13.2628 28.0896 13.6241C28.1735 14.0669 28.2584 14.5149 28.1319 14.9328C28.1471 14.9301 28.2374 14.9301 28.2533 14.9328C28.3747 14.5793 28.4312 14.1733 28.3627 13.8067C28.2901 13.4165 28.0517 13.0775 28.1591 12.6728C28.25 12.3312 28.6949 12.0014 28.7151 11.6309C28.7364 11.2485 28.4611 10.9095 28.5342 10.451Z" fill="black"/>
<path d="M18.5504 14.2298C18.4115 13.9789 18.3204 13.7516 18.0967 13.5571C17.8521 13.3442 17.534 13.2614 17.2837 13.0617C17.5744 13.3179 18.0239 13.4756 18.2345 13.8133C18.3726 14.0354 18.3848 14.3441 18.4732 14.5977C18.5751 14.8907 18.6982 15.1864 18.8147 15.4689L18.9359 15.6502C18.9193 15.4123 18.9188 15.1115 18.8753 14.8644C18.8289 14.6017 18.6919 14.486 18.5504 14.2298ZM16.4872 11.69C16.4767 11.5034 16.3163 11.3077 16.1345 11.2656C16.2288 11.3865 16.4159 11.6847 16.4269 11.7215L16.4872 11.69ZM12.2175 20.283C11.6611 20.1792 11.1543 19.8245 10.5935 19.6773C9.93143 19.5039 9.23137 19.4684 8.66678 19.1754C8.6656 19.2201 8.66744 19.2727 8.67335 19.3384C8.67335 19.429 8.70856 19.5289 8.76164 19.6287C8.82077 19.6327 8.87175 19.6379 8.90828 19.6419C9.61267 19.7365 10.2581 19.6484 10.9472 19.9046C11.1175 19.9677 11.569 20.1149 11.38 20.3356C11.2536 20.4841 10.703 20.4552 10.5307 20.4565C10.1283 20.4604 9.72134 20.4092 9.32401 20.425C9.17461 20.4315 9.02601 20.4434 8.87727 20.4578C8.83378 20.6247 8.93141 20.7994 9.17212 20.8796C9.14571 20.9242 9.12061 20.9742 9.09564 21.0267C9.4772 20.9085 9.98005 20.6864 10.1987 20.668C10.6572 20.6299 11.1065 20.5984 11.5684 20.5774C11.9973 20.559 12.3804 20.4368 12.7913 20.3961C13.4351 20.3304 14.0816 20.4578 14.7096 20.5485C14.3664 20.4342 13.8753 20.2949 13.4646 20.2752C13.0544 20.2555 12.6097 20.3566 12.2175 20.283ZM16.8197 21.1818L15.7921 21.2422C16.181 21.48 16.4616 21.3237 16.8197 21.1818ZM23.0164 8.33556L23.4094 9.0004C23.424 8.71003 23.2655 8.4617 23.0164 8.33556ZM16.4148 16.1994C16.3022 15.9944 16.1572 15.7027 15.9962 15.5359C15.7805 15.3125 15.6281 15.4031 15.3386 15.348C15.1032 15.3033 14.9804 15.143 14.7342 15.0826C14.4902 15.0234 14.1973 14.9498 13.9482 14.9249L14.0085 14.9551C14.2473 15.0865 14.4122 15.2231 14.6805 15.2639C14.9058 15.2993 15.1536 15.2994 15.369 15.3703C15.7981 15.5109 16.1588 15.842 16.4148 16.1994ZM21.7098 5.34244C21.2304 5.01659 20.9085 4.55278 20.5075 4.16386L20.054 4.19407C20.1053 4.45291 20.5073 4.82212 20.6974 5.00213C20.9401 5.23338 21.2729 5.40815 21.5737 5.55662C22.0263 5.77999 22.3481 6.02962 22.6869 6.42116C22.5867 6.1886 22.4735 5.87589 22.291 5.6972C22.1342 5.54347 21.8943 5.46726 21.7098 5.34244ZM20.3876 6.3016C20.131 6.17941 19.9086 5.93503 19.7208 5.70641C19.47 5.40289 19.4451 4.91804 19.2077 4.64737L18.8147 5.10067C19.0829 5.43572 19.355 5.82597 19.6613 6.12817C19.8852 6.35023 20.1673 6.36861 20.4406 6.49212C20.9865 6.73782 21.4276 7.31726 21.9174 7.67465C21.6695 7.39084 21.4177 7.10967 21.1741 6.82455C20.9287 6.5368 20.7133 6.45796 20.3876 6.3016ZM22.7141 4.3754L22.9257 4.64737C22.9764 4.49758 22.8943 4.33992 22.7141 4.3754ZM21.2397 11.4496C21.2126 11.196 21.1088 10.9568 20.9677 10.7466C20.8298 10.5403 20.7074 10.4102 20.6595 10.1501C20.6005 9.83212 20.7283 9.49708 20.6587 9.1883C20.5758 8.82172 20.0988 8.40914 19.7861 8.21731C19.9384 8.52608 20.4487 9.26055 20.1388 9.60085C19.8447 9.53385 19.7922 8.87953 19.6529 8.63777C19.4718 8.32374 19.1864 8.09379 18.8753 7.91116C18.494 7.68779 17.9667 7.59318 17.6359 7.30149C17.3917 7.08601 17.4578 6.65767 17.3035 6.49212L16.6989 6.36994C16.8027 6.62484 16.7442 6.87972 16.8123 7.13725C16.8826 7.40266 16.9218 7.3777 17.1752 7.46573C17.8615 7.70355 18.474 8.02678 19.0573 8.46431C19.4495 8.75863 19.6388 9.03851 19.7284 9.49182C19.8014 9.86234 19.9892 9.95037 20.2657 10.1567C20.8143 10.5666 20.9979 11.0948 21.0887 11.7439C21.1563 12.23 21.4891 12.8554 21.7783 13.2522C21.6759 12.8108 21.3599 12.4718 21.2389 12.054C21.1839 11.8634 21.2595 11.6348 21.2397 11.4496ZM19.0264 16.1035L19.1471 16.3768C19.3545 16.2427 19.2169 15.9734 19.0264 16.1035ZM19.4723 12.7858C19.2629 12.6005 19.1971 12.4586 19.0801 12.2353C18.9389 11.9659 18.6023 11.891 18.4573 11.6309C18.2763 11.305 18.6585 11.2275 18.6645 10.966C18.6703 10.7124 18.2689 10.518 18.0885 10.3932C17.8429 10.221 17.5551 10.0568 17.3338 9.84788C17.0848 9.61269 16.9379 9.321 16.6399 9.14363C16.3105 8.94654 15.9771 8.72448 15.6407 8.5471L14.976 8.33556C15.4248 8.63251 15.8206 9.02667 16.2385 9.37092C16.449 9.54567 16.5344 9.81372 16.7282 9.95957C16.9884 10.1553 17.4308 10.0949 17.7205 10.2631C18.0762 10.4707 18.0938 10.8465 18.2172 11.2157C18.3162 11.5126 18.3698 11.8766 18.52 12.1446C18.6728 12.4179 18.9942 12.5743 19.2456 12.749C19.6814 13.0525 20.0745 13.4467 20.3592 13.8882C20.1985 13.3955 19.84 13.1117 19.4723 12.7858ZM14.7342 24.7491L15.0969 25.0513C15.0728 24.8778 14.9071 24.6952 14.7342 24.7491ZM34.7226 7.97293C34.8149 8.12928 34.7736 8.37103 34.926 8.45643L34.9563 8.48667C34.9745 8.30534 35.1338 7.96898 35.041 7.79686C34.9825 7.6878 34.7728 7.64313 34.6919 7.51962C34.4811 7.20165 34.5981 6.76411 34.082 6.79958C34.275 7.07551 34.3789 7.33172 34.5047 7.64049C34.5623 7.7824 34.6375 7.8284 34.7226 7.97293ZM33.1177 11.2656C33.1536 11.0055 33.1956 10.6809 33.2923 10.4207C33.3881 10.1632 33.6585 9.65999 33.5362 9.36173C33.4421 9.13311 33.1625 9.16332 33.1407 8.82564C33.1237 8.56943 33.2579 8.28695 33.2634 8.02548C33.2712 7.67992 33.214 7.312 33.1796 6.96644C33.1601 6.77329 33.1658 6.66162 33.0829 6.49212C33.0088 6.33971 32.8669 6.23723 32.8403 6.06905L32.9009 6.64322C32.8767 7.019 33.0209 7.41319 33.0519 7.7916C33.0896 8.24884 33.0065 8.7547 32.8435 9.17778C33.1658 9.1699 33.2165 9.70072 33.1805 9.91358C33.1273 10.2302 33.1541 10.4799 33.1126 10.79C33.0724 11.0895 32.8707 11.2853 32.8167 11.5704C32.7506 11.9199 32.6635 12.2708 32.5965 12.6189C32.7306 12.3903 32.9094 12.2511 32.9908 11.9935C33.0661 11.7544 33.0833 11.5153 33.1177 11.2656ZM27.0065 6.36994C27.2321 6.78383 27.6506 7.50517 27.6109 7.99394C27.6993 7.38954 27.364 6.79564 27.0453 6.28058C26.8788 6.01123 26.6713 5.77736 26.4851 5.52377C26.2468 5.20055 26.2496 4.87732 26.1548 4.50022C26.0124 4.54095 25.6695 4.74066 25.5725 4.5935L25.737 4.94957C26.2084 5.32404 26.7094 5.82729 27.0065 6.36994ZM11.6704 14.4322C11.2854 14.3152 10.8867 14.1733 10.5619 13.9066C10.5335 13.8829 10.5046 13.8593 10.4755 13.8356C10.4795 13.8409 10.483 13.8461 10.4871 13.8514C10.2745 13.8448 10.1301 13.9342 10.028 14.0866C10.5478 14.2456 11.0572 14.4558 11.4929 14.6411C11.5515 14.5859 11.6219 14.5071 11.6704 14.4322ZM36.4979 12.3562L36.1352 13.2023C36.2603 13.0302 36.6554 12.5756 36.4979 12.3562ZM13.6155 26.1694L12.9809 26.1392C13.7651 26.1563 14.2291 26.5965 14.7068 27.1562C14.411 26.6451 14.2998 26.1839 13.6155 26.1694ZM36.77 10.6257C36.724 11.1014 36.6019 11.598 36.587 12.0737C36.7145 11.7991 36.7009 11.4863 36.8314 11.2065C36.9444 10.9647 37.1723 10.7558 37.1711 10.5114C37.1709 10.405 37.0704 10.2985 37.0709 10.179C37.0711 10.0765 37.1748 9.95168 37.1654 9.84788C37.1362 9.52203 36.7523 9.50494 36.5585 9.27238L36.6188 9.45371C36.6532 9.85971 36.8103 10.2105 36.77 10.6257ZM12.5879 24.2353L13.4646 24.0842C13.2423 23.9463 12.9532 23.8806 12.7088 23.7216C12.4195 23.5324 12.084 23.4338 11.7439 23.4247C11.793 23.4614 13.2045 24.0553 12.5879 24.2353ZM9.86061 22.4287C9.68573 22.2881 9.47261 22.2014 9.24937 22.1291C9.34187 22.2487 9.42215 22.3774 9.48956 22.5128C9.48601 22.5141 9.48312 22.5167 9.47957 22.518C9.66589 22.6021 9.8413 22.7007 9.99529 22.8137C10.3899 23.1067 10.7944 23.2683 11.2881 23.2985L10.8647 23.2079C10.4188 23.0081 10.2141 22.7112 9.86061 22.4287ZM10.3812 16.0128L10.6231 15.8617C11.3448 15.9786 11.9367 16.0785 12.5561 16.4595C12.8954 16.6684 13.3651 17.0101 13.7644 17.0587C13.1491 16.6382 12.6509 16.1876 11.9229 15.9589C11.6993 15.888 10.3454 15.57 10.3812 16.0128ZM10.2301 17.9416C10.468 18.0165 11.2421 18.0205 11.2283 18.37C11.2141 18.7287 10.0921 18.5933 9.27395 18.4869C9.24583 18.5277 9.18394 18.5513 9.11851 18.5868C9.65814 18.6157 10.2106 18.7392 10.7349 18.7642C11.0711 18.7799 11.3358 18.6209 11.6508 18.6131C11.9796 18.6052 12.3505 18.7904 12.6484 18.9153L13.1925 19.0966C12.9804 18.9389 11.3607 18.324 11.5797 18.0678C11.0674 17.9863 10.6617 18.0073 10.1691 17.7892C9.77231 17.6132 9.38904 17.4161 9.01129 17.2058C9.02758 17.3215 9.05255 17.4371 9.08566 17.5488C9.4642 17.6697 9.83223 17.8142 10.2301 17.9416ZM9.66194 24.0908C9.75195 23.941 10.2215 24.0041 10.3737 23.9568C10.0469 23.8661 9.68454 23.8254 9.34555 23.7557C9.34818 23.7636 9.35107 23.7728 9.35357 23.782C9.4575 24.0934 9.40284 24.4587 9.39127 24.7753C9.45434 24.8043 9.51584 24.8345 9.57391 24.8634C9.75471 24.9527 9.90318 25.0933 10.0799 25.1735C10.2459 25.2484 10.4696 25.23 10.6533 25.3141C10.8256 25.3929 10.9886 25.5046 11.1557 25.5913C10.7822 25.3338 10.3144 25.0907 9.98911 24.7806C9.884 24.6807 9.57706 24.2314 9.66194 24.0908ZM17.6275 14.4781C17.3007 13.9066 16.8989 13.9013 16.3347 13.7463C16.0099 13.6582 15.9246 13.4047 15.7921 13.1104C15.5848 12.6479 15.4046 12.3194 14.9531 12.0776C14.5621 11.8674 14.2033 11.891 13.7955 11.7793C13.473 11.6913 13.3374 11.3996 13.1335 11.1408C12.8416 10.7703 12.4957 10.4641 12.052 10.3012C11.8772 10.2368 11.6959 10.2079 11.5127 10.1895C11.4373 10.451 11.4553 10.7545 11.3947 11.0002C12.0217 10.9187 12.6039 10.9384 13.0965 11.5468C13.3524 11.8621 13.4731 11.9265 13.8863 12.0159C14.262 12.0973 14.7098 12.2484 15.0068 12.5046C15.3139 12.7713 15.3933 13.1997 15.6407 13.5124C15.884 13.8186 16.123 13.837 16.4872 13.9197C16.7741 13.9841 17.1552 14.0774 17.3705 14.2889C17.6095 14.5241 17.5863 14.9301 17.8475 15.1364L17.7568 14.7738C17.728 14.6687 17.6819 14.5728 17.6275 14.4781ZM36.9814 21.5142L37.3744 21.484C37.2544 21.3749 37.0612 21.3329 36.9814 21.5142ZM38.2208 14.7133C38.3659 15.0904 38.2827 15.9721 38.0198 16.2835C38.1961 16.0365 38.4229 15.8328 38.5835 15.5595C38.7678 15.2468 38.5937 15.2337 38.4939 14.9236C38.3525 14.4847 37.9479 13.4769 38.635 13.293C38.4925 13.2286 38.3732 13.1274 38.2578 13.0315C38.173 13.2562 38.0249 13.6583 37.7117 13.5072C37.6984 13.7594 37.7129 14.0104 37.7373 14.26L37.6106 14.6148C37.7414 14.3257 38.1151 14.4374 38.2208 14.7133ZM36.3769 19.3384L36.4072 19.5801C36.7172 19.3988 37.1066 19.4356 37.4259 19.2464C37.1121 19.2135 36.3775 18.9902 36.3769 19.3384ZM35.1075 15.3782C35.2456 15.122 35.5595 14.9511 35.7413 14.712C35.8976 14.507 36.0012 14.1851 36.1632 14.0248C36.0921 13.9854 36.0254 13.9237 35.9538 13.8974L35.1075 15.3782ZM35.6522 11.531C35.7227 11.1447 35.7588 10.7033 35.8881 10.3327C35.5697 10.7965 34.7995 11.2078 34.8975 10.2486C34.735 10.8977 34.7953 11.4496 34.1729 11.8897C34.5182 11.7794 35.1067 11.4167 34.8295 12.075C34.6324 12.5441 34.1443 12.8292 33.9891 13.2628L34.2308 13.1721C34.4474 12.9553 34.6024 12.9842 34.7522 12.6649C34.8831 12.3851 34.9861 12.075 35.1355 11.8175C34.7893 11.7544 35.4457 10.6691 35.6522 11.531ZM33.1407 14.2837C32.8732 14.4729 32.5861 14.4059 32.508 14.804L32.4473 14.9551C32.6943 14.9906 33.0336 14.5333 33.235 14.3586C33.4484 14.1733 33.8152 13.9407 33.7406 13.628C33.582 13.8895 33.406 14.0958 33.1407 14.2837ZM39.7927 20.0334L38.8557 20.8796C39.3423 20.8572 39.5638 20.3514 39.7927 20.0334ZM40.3975 18.8548V18.6131C40.2499 18.9153 40.0808 19.245 40.0091 19.5788C40.1887 19.3383 40.3837 19.726 40.3732 19.9099C40.4881 19.7693 40.8911 18.6643 40.3975 18.8548ZM39.6417 17.6105C39.384 17.4253 39.4963 17.2282 39.4065 16.9812C39.3219 16.7473 39.2199 16.8038 38.9758 17.0324C38.7711 17.2243 38.5919 17.5961 38.5534 17.7971L38.4627 17.8878C38.638 17.8497 38.7539 17.8103 38.9685 17.8273C39.0636 17.8339 39.5002 17.7735 39.5449 17.8326C39.694 18.031 39.0657 18.5631 39.0123 18.7392C39.2609 18.4659 39.867 18.1637 40.0845 17.8024C39.9628 17.7432 39.7317 17.6749 39.6417 17.6105ZM33.135 13.406C33.3144 13.2838 33.4682 12.8515 33.5243 12.661C33.3922 12.8265 33.2495 13.0473 33.0822 13.1721C32.8934 13.3114 32.7293 13.2549 32.5375 13.3219C32.2387 13.427 32.0533 13.8409 31.8429 13.988L32.2661 13.6858C32.4251 13.5518 32.4932 13.498 32.6951 13.4677C32.8745 13.4401 32.988 13.5059 33.135 13.406ZM39.0372 21.4538L39.0673 21.5142C39.2633 21.4511 39.4919 21.4906 39.6973 21.48C39.7171 21.2843 39.7806 21.0872 39.7564 20.8874C39.5861 21.1174 39.2494 21.2619 39.0372 21.4538ZM39.1559 23.0278C39.0939 22.9004 39.2523 22.7335 39.0437 22.7296C39.0569 22.7309 38.7729 22.9635 38.7651 22.9713C38.5874 23.1422 38.4149 23.2946 38.2211 23.4496L37.9186 23.6914C38.1777 23.6914 38.5197 23.3931 38.7649 23.5179C39.1129 23.694 38.674 24.0763 38.9766 24.2379C39.1947 23.9752 39.3323 23.5639 39.609 23.3038C39.4419 23.3116 39.2268 23.1724 39.1559 23.0278ZM30.5833 5.14799C30.5019 5.02711 30.4169 4.91148 30.3278 4.80899C30.4006 4.91805 30.4884 5.03106 30.5833 5.14799ZM31.2691 8.95046C31.0471 9.18828 30.8647 8.88872 30.7245 8.6982L30.815 8.97017C30.9452 9.25135 31.0757 9.33282 31.0872 9.66524C31.0969 9.94511 31.1736 10.2237 31.1477 10.5022C31.1982 9.92804 31.5495 10.313 31.4423 10.7295C31.3415 11.1198 31.2306 11.5836 31.0916 11.9541C31.2623 11.6532 31.5131 11.5192 31.722 11.2682C31.9838 10.9516 31.9609 10.5416 32.2251 10.2118C31.5792 10.7742 31.354 9.28814 31.2691 8.95046ZM28.2835 9.27238C28.0325 8.9163 27.564 8.94258 27.4903 8.40519C27.4815 8.53001 27.4723 8.64826 27.422 8.75338C27.0076 8.63381 26.7285 8.13848 26.4708 7.82183C26.2615 7.5643 26.2231 7.67202 25.9183 7.61026C25.6596 7.55771 25.5935 7.41844 25.4042 7.24763C25.2309 7.08996 24.9605 6.952 24.8665 6.72732C24.7602 6.47373 24.8397 6.42248 24.6495 6.24378C24.4631 6.06903 24.2563 5.91268 24.0683 5.73005C23.7798 5.45018 23.268 5.10593 23.107 4.73804L23.1675 4.9798C23.2421 5.4042 23.6906 5.5737 23.717 6.06248C24.3233 6.20964 24.592 6.55126 24.9207 7.06763C25.0785 7.31465 25.1209 7.48545 25.4044 7.60238C25.6833 7.71801 25.9782 7.7627 26.2439 7.92037C26.7013 8.19235 26.9596 8.68374 27.3693 8.97674C27.7987 9.28551 28.4066 9.79401 28.427 10.3813C28.427 10.045 28.4858 9.56012 28.2835 9.27238ZM28.427 10.9043C28.4596 11.1789 28.3648 11.5862 28.2835 11.8424C28.2223 12.0329 28.0354 12.1236 27.9714 12.2563C27.9118 12.3824 27.9548 12.5493 27.9671 12.6886C28.0214 13.3022 28.1551 13.9066 28.3379 14.4939C28.2627 14.2206 28.2508 13.904 28.1927 13.6254C28.1424 13.3836 28.0978 13.1366 28.0653 12.9001C28.0145 12.5296 28.1189 12.3181 28.3977 12.054C28.6867 11.778 28.667 11.623 28.5479 11.2367L28.427 10.9043ZM25.4345 11.5402L25.0719 11.1763C24.9783 11.3602 25.255 11.5179 25.4345 11.5402ZM25.6763 11.6611V11.69C25.837 11.8726 26.0656 12.0159 26.2493 12.2038C26.4766 12.435 26.6268 12.7319 26.8438 12.9645C26.6561 12.7319 26.5769 12.3706 26.4085 12.1157C26.2306 11.845 26.0246 11.7268 25.6763 11.6611ZM29.5685 6.63665C29.2959 6.50789 29.0767 6.07168 28.9176 5.82597C28.7242 5.52903 28.6928 5.25442 28.6387 4.91937C28.5869 4.59877 28.3848 4.41745 28.209 4.13627C28.1377 4.23088 28.152 4.41877 27.9768 4.4122C28.1705 4.67235 28.4065 4.71309 28.4883 5.06916C28.5593 5.37793 28.5843 5.58683 28.7522 5.88641C28.9223 6.18992 29.082 6.46454 29.0318 6.83112C28.997 7.0834 28.7994 7.62734 29.0318 7.76136L29.1527 7.64049C28.9905 7.47494 29.1138 6.90995 29.3416 6.79958C29.5806 6.68527 29.9476 6.9717 30.1469 7.11623C30.1028 7.02689 30.0666 6.80222 29.9929 6.73915C29.8669 6.63141 29.7132 6.70498 29.5685 6.63665ZM24.8204 10.924C24.7899 10.9017 24.7623 10.8806 24.7362 10.8596C24.7609 10.8833 24.7887 10.9043 24.8204 10.924ZM31.3229 6.64322C31.3769 6.92966 31.2548 7.29361 31.4197 7.54983L31.4801 7.33829C31.8148 6.53286 31.0958 5.77999 30.5833 5.14799C30.7771 5.43574 30.9483 5.75632 31.0879 6.03882C31.1786 6.22145 31.2833 6.43562 31.3229 6.64322ZM29.4616 10.7558C29.4176 11.2958 29.517 11.8569 29.3273 12.3798C29.24 12.6202 29.0531 12.9461 29.0619 13.1419V13.5347C29.1368 13.2431 29.3557 13.046 29.4856 12.7858C29.5792 12.5979 29.5449 12.4245 29.6053 12.234C29.6841 11.9856 29.7441 11.9961 29.6901 11.7228C29.6295 11.4154 29.5559 11.0291 29.4616 10.7558ZM29.4549 9.09107L29.5455 10.6323C29.8627 10.1816 29.527 9.55094 29.4549 9.09107ZM24.6721 9.18961C24.5966 8.72317 24.2855 7.48546 23.7115 7.42896L23.2886 7.18719C23.8321 7.61947 24.2467 8.18971 24.4893 8.84404C24.6253 9.21063 24.57 9.67707 24.4977 10.066C24.4246 10.4589 24.4509 10.6297 24.7362 10.8596C24.3764 10.5075 24.7441 9.63503 24.6721 9.18961ZM39.2742 25.0329C39.1257 25.067 38.9368 25.0066 38.7951 25.0578C38.5878 25.134 38.5512 25.389 38.3417 25.4441L39.2789 25.2326C39.272 25.2523 39.2774 25.0841 39.2742 25.0329Z" fill="black"/>
<path d="M14.3462 27.9879C14.0586 27.9353 13.7683 27.9012 13.5094 27.7553C13.3156 27.6463 13.1684 27.4676 12.995 27.3309C12.4698 26.9183 11.8383 26.9827 11.2283 26.804C10.8496 26.6924 10.5151 26.4125 10.2299 26.151C9.96532 25.9093 9.71765 25.6438 9.49441 25.364C9.48955 25.3574 9.4793 25.3666 9.48377 25.3719C9.86415 25.9027 10.2723 26.3928 10.8263 26.7515C11.4159 27.1325 12.1656 26.9893 12.755 27.3559C12.9374 27.4689 13.0859 27.6226 13.2553 27.7527C13.4475 27.8998 13.6623 27.9774 13.8978 28.0273C14.121 28.0759 14.3516 28.0799 14.5734 28.135C14.8502 28.2021 14.9707 28.4596 15.0857 28.6935C15.1007 28.725 15.1541 28.7026 15.1414 28.6711C14.9852 28.2769 14.7606 28.0641 14.3462 27.9879ZM41.0268 18.9691C40.9329 18.7103 40.7809 18.4593 40.5672 18.2859C40.5247 18.2504 40.4733 18.2176 40.4219 18.1978C40.3747 18.1795 40.4055 18.1046 40.4132 18.0441C40.4234 17.9614 40.4548 17.872 40.4216 17.7931C40.375 17.6828 40.2942 17.5921 40.2035 17.5146C40.0418 17.378 39.838 17.3675 39.7166 17.1782C39.4362 16.7433 39.5342 16.0653 39.6592 15.5989C39.7303 15.3348 39.8418 15.0944 39.8831 14.8198C39.921 14.5701 39.9125 14.3152 39.887 14.0643C39.8594 13.7923 39.8037 13.5137 39.712 13.2562C39.7073 13.2431 39.6943 13.2338 39.6801 13.2378C39.3814 13.3311 39.0084 13.2772 38.7372 13.1314C38.5271 13.0197 38.4087 12.8095 38.4477 12.573C38.4788 12.3824 38.5942 12.1985 38.6366 12.0067C38.7388 11.5442 38.4635 11.2525 38.0093 11.2472C37.9837 11.2472 37.9837 11.2866 38.0093 11.2879C38.1444 11.2892 38.2793 11.3221 38.3995 11.3825C38.6982 11.5336 38.6094 11.9554 38.5305 12.2051C38.4647 12.4127 38.3588 12.5703 38.3982 12.7924C38.4251 12.9422 38.545 13.0604 38.662 13.1458C38.9306 13.3416 39.3551 13.3718 39.6706 13.293C39.6715 13.2969 39.6721 13.2982 39.6731 13.3022C39.6906 13.3547 39.7054 13.4073 39.72 13.4612C39.7748 13.6582 39.8109 13.8606 39.8352 14.0643C39.8619 14.2902 39.8622 14.5176 39.841 14.7422C39.813 15.0405 39.6927 15.3033 39.609 15.5858C39.4825 16.0141 39.4518 16.4924 39.5597 16.9286C39.5941 17.0666 39.6552 17.1993 39.7491 17.3083C39.8664 17.445 40.0685 17.4686 40.206 17.5856C40.4324 17.7774 40.3738 17.9429 40.3411 18.2044C40.3395 18.2162 40.3502 18.2254 40.3603 18.2294C40.6009 18.3227 40.7537 18.5382 40.8734 18.7563C40.909 18.8206 40.9396 18.889 40.9672 18.9573C41.0035 19.048 40.9249 19.2293 40.8953 19.3212C40.7476 19.7811 40.4445 20.2003 40.1338 20.5655C40.1068 20.5971 40.029 20.6536 40.0235 20.6983C40.0059 20.8428 39.9746 20.986 39.9394 21.1279C39.8793 21.371 39.7908 21.6101 39.6521 21.819C39.5203 22.0187 39.4593 22.1948 39.4624 22.4366C39.4645 22.6021 39.5028 22.769 39.5538 22.924C39.5592 22.9411 39.5646 22.9713 39.5777 22.9845C39.6908 23.0975 39.7952 23.171 39.8798 23.3143C39.9318 23.401 39.9678 23.4969 39.9982 23.5941C40.0057 23.6178 40.0172 23.7006 40.0254 23.6822C39.943 23.8622 39.8563 24.0408 39.7667 24.2182C39.6689 24.4114 39.5426 24.5888 39.5161 24.8082C39.5028 24.9172 39.5212 25.021 39.4976 25.1301C39.4714 25.2483 39.3651 25.3009 39.2666 25.3508C38.8064 25.5834 38.3903 25.812 38.1018 26.2588C37.8013 26.7252 37.7201 27.3152 37.7117 27.8591C37.7051 28.2967 37.5716 28.7329 37.4023 29.1376C37.4074 28.6264 37.33 28.1272 37.2037 27.6305C37.1705 27.5004 37.1242 27.3677 37.1228 27.2324C37.1208 27.0589 37.1468 26.8842 37.1663 26.7121C37.2615 25.883 37.4677 25.0263 37.246 24.2051C37.0648 23.5324 36.7867 22.8793 36.4976 22.246C36.4448 22.1304 36.4783 21.798 36.4724 21.639C36.4523 21.1082 36.4255 20.5774 36.3907 20.0479C36.3126 18.8719 36.1743 17.6736 35.3737 16.7433C35.0775 16.4004 34.6894 16.2808 34.2555 16.1862C34.0912 16.1508 33.9246 16.1245 33.7576 16.1034C33.7788 16.0851 33.7997 16.068 33.8208 16.0509C33.8774 16.0036 33.934 15.9563 33.9905 15.909C34.0084 15.8946 33.9893 15.8617 33.9677 15.8696C33.4332 16.0535 32.8866 16.0548 32.348 15.8906C32.2154 15.8499 32.0877 15.796 31.96 15.7421C31.8045 15.6777 31.6249 15.6764 31.4593 15.6764C31.4045 15.6764 31.238 15.6541 31.1919 15.6948C30.9827 15.8801 30.7173 15.8617 30.468 15.7802C30.4474 15.7737 30.4269 15.7658 30.4067 15.7579C30.3955 15.754 30.388 15.75 30.382 15.7474C30.4114 15.7106 30.4403 15.6725 30.4693 15.6357L30.6801 15.3637C30.6957 15.344 30.6768 15.3164 30.6526 15.3282C30.5555 15.3769 30.4587 15.4255 30.3616 15.4741C30.2269 15.5411 30.1285 15.6607 29.9979 15.7408C29.8225 15.8486 29.6265 15.9235 29.4319 15.9878C29.3783 16.0049 29.3239 16.0207 29.2696 16.0351C29.2251 16.0483 29.2156 16.047 29.219 16.0496C28.9678 15.8551 28.6908 15.6699 28.3964 15.549C28.0307 15.3992 27.6092 15.3664 27.2179 15.3256C27.1968 15.3243 27.1916 15.3506 27.2023 15.3637C27.3201 15.5083 27.4381 15.6515 27.5557 15.796C27.498 15.7737 27.4406 15.7513 27.3829 15.729C26.8126 15.5096 26.2315 15.2875 25.6341 15.1548C24.8787 14.9879 24.1101 15.3926 23.4039 15.6002C22.8688 15.7579 22.2874 15.8012 21.7316 15.8275C21.7147 15.8275 21.705 15.8485 21.7176 15.8617C21.7793 15.9234 21.8412 15.9852 21.903 16.047C21.9131 16.0562 21.9198 16.0627 21.9246 16.0667C21.9069 16.0732 21.8894 16.0811 21.872 16.089C21.6098 16.1994 21.3503 16.3163 21.0937 16.4385C20.5126 16.7157 19.9816 17.1178 19.3691 17.3254C19.3546 17.3307 19.3498 17.3517 19.3646 17.3596C19.48 17.4226 19.5952 17.4844 19.7103 17.5475C19.7525 17.5711 19.7945 17.5935 19.8367 17.6171C19.8352 17.6171 19.8345 17.6184 19.8333 17.6184C19.7964 17.6421 19.7598 17.6657 19.723 17.6894C19.6049 17.7643 19.4867 17.8391 19.3687 17.9154C19.3285 17.9403 19.3147 18.0428 19.2996 18.0835C19.2515 18.2149 19.2023 18.3476 19.1528 18.4777C19.0655 18.7077 19.0412 18.9376 19.0039 19.182C18.9452 19.5656 18.5646 19.7614 18.3192 20.0071C18.2656 20.0597 18.2412 20.2068 18.2148 20.2752C18.0918 20.5931 17.9642 20.9072 17.8319 21.2199C17.7139 21.4997 17.6045 21.7665 17.5528 22.0673C17.5043 22.3472 17.5074 22.6336 17.4655 22.9148C17.3852 23.4548 17.0007 23.8963 16.6366 24.2787C16.5583 24.3602 16.4766 24.4258 16.4214 24.5257C16.2697 24.7977 16.1556 25.088 16.0644 25.3863C15.7551 26.3928 15.8173 27.4728 15.9949 28.4977C16.1929 29.6408 16.3963 30.7878 16.6278 31.9244C16.714 32.3475 16.8069 32.7692 16.903 33.1897C16.9236 33.279 16.9281 33.2528 16.8516 33.2041C16.7149 33.1187 16.578 33.0333 16.4411 32.9479C16.2999 32.8599 16.1585 32.7719 16.0172 32.6838C15.8806 32.5984 15.8316 32.5682 15.7595 32.4145C15.506 31.8771 15.4971 31.2372 15.4617 30.6551C15.4353 30.2202 15.4106 29.7801 15.2951 29.3583C15.2942 29.3557 15.291 29.357 15.2916 29.3596C15.5629 30.3582 15.3347 31.454 15.7509 32.4197C15.8514 32.6523 16.0745 32.7324 16.2842 32.8638C16.4968 32.9965 16.7097 33.1306 16.9224 33.2633C16.9274 33.2672 16.9328 33.262 16.9319 33.2567C16.735 32.3987 16.567 31.5381 16.4141 30.6722C16.2195 29.5698 15.9417 28.4609 15.8803 27.3414C15.8472 26.7344 15.8969 26.1247 16.0484 25.5374C16.1313 25.2155 16.2553 24.9054 16.4068 24.6098C16.4865 24.4534 16.6027 24.3549 16.7216 24.2287C17.0408 23.8884 17.3551 23.5048 17.4698 23.0449C17.5268 22.8176 17.53 22.5771 17.5495 22.3446C17.5834 21.9451 17.7021 21.6035 17.8594 21.237C17.9793 20.9558 18.0938 20.6733 18.2059 20.3895C18.235 20.3146 18.2993 20.0584 18.3492 20.0268C18.607 19.8652 18.9851 19.5288 19.0336 19.2161C19.0755 18.9468 19.1065 18.6998 19.203 18.4449C19.2784 18.2478 19.3088 17.9955 19.4907 17.8799C19.6213 17.7971 19.7517 17.7143 19.8822 17.6316C19.8933 17.6237 19.8945 17.6066 19.8822 17.6C19.8056 17.558 19.729 17.5159 19.6522 17.4739C19.5911 17.441 19.53 17.4069 19.4689 17.374C19.452 17.3648 19.4353 17.3556 19.4185 17.3464C19.6514 17.2636 19.8749 17.148 20.0911 17.0298C20.7085 16.6947 21.3114 16.3597 21.9638 16.093C21.9771 16.0877 21.984 16.0706 21.9726 16.0601C21.9198 16.0062 21.8667 15.9537 21.814 15.9011C21.8019 15.8893 21.7896 15.8762 21.7776 15.8643H21.7883C22.0287 15.8512 22.269 15.8301 22.5083 15.8026C22.8134 15.7684 23.1186 15.7211 23.4149 15.641C23.7766 15.5411 24.1259 15.3992 24.4861 15.2954C24.8539 15.189 25.2426 15.118 25.6227 15.1968C25.9028 15.2547 26.1769 15.3466 26.4481 15.4373C26.8428 15.5687 27.2339 15.7145 27.6201 15.8683C27.6432 15.8775 27.6543 15.8459 27.6418 15.8315C27.5384 15.7053 27.4348 15.5779 27.3314 15.4517C27.3109 15.4268 27.2903 15.4018 27.2698 15.3769C27.416 15.3926 27.562 15.4123 27.7077 15.4347C28.0939 15.4912 28.417 15.5858 28.7539 15.7868C28.8686 15.8551 28.9792 15.9313 29.0877 16.0089C29.1209 16.0325 29.1674 16.0851 29.2072 16.0956C29.2963 16.1205 29.4932 16.0154 29.5736 15.9865C29.8149 15.8998 30.0502 15.7855 30.2457 15.6186C30.3277 15.5477 30.3962 15.5082 30.4942 15.4583C30.5244 15.4439 30.5546 15.4281 30.5848 15.4136C30.5 15.5227 30.4153 15.6318 30.3303 15.7395C30.3221 15.7513 30.3205 15.7684 30.3352 15.7763C30.5452 15.8788 30.8537 15.9484 31.072 15.8328C31.1057 15.8157 31.1927 15.7356 31.2275 15.7329C31.3045 15.7264 31.3817 15.7237 31.4593 15.7224C31.6578 15.7198 31.8413 15.7421 32.0244 15.8196C32.3752 15.9668 32.7405 16.0548 33.122 16.064C33.3747 16.0693 33.6245 16.0233 33.8657 15.9523C33.8511 15.9642 33.8361 15.9773 33.8213 15.9891C33.7761 16.0273 33.7306 16.0654 33.6853 16.1021C33.6678 16.1166 33.6841 16.1402 33.7017 16.1429C34.0783 16.1849 34.4589 16.2611 34.8142 16.3938C35.2297 16.5476 35.4997 16.9417 35.7124 17.3123C36.3318 18.387 36.329 19.6721 36.3901 20.8769C36.4108 21.2856 36.4268 21.6955 36.4394 22.1041C36.4436 22.2434 36.4713 22.3052 36.529 22.4352C36.8455 23.1487 37.2205 23.9371 37.2994 24.7228C37.3346 25.0723 37.2682 25.4454 37.2284 25.7936C37.1823 26.1931 37.1237 26.5912 37.0861 26.9919C37.0622 27.2468 37.1035 27.4426 37.1665 27.6909C37.2981 28.2086 37.3694 28.7329 37.3489 29.2676C37.3483 29.2926 37.3864 29.3044 37.3967 29.2808C37.5402 28.9562 37.6543 28.6133 37.7244 28.2651C37.7657 28.0614 37.76 27.8565 37.7703 27.6489C37.7842 27.3664 37.831 27.0878 37.9107 26.8159C38.0951 26.1878 38.5423 25.7542 39.122 25.477C39.2507 25.4152 39.3998 25.3653 39.4961 25.2549C39.5966 25.1393 39.5617 24.9461 39.5686 24.8082C39.5814 24.5454 39.8091 24.2537 39.9235 24.0198C39.9574 23.9502 40.0908 23.7662 40.075 23.6848C40.0544 23.5784 40.0154 23.4759 39.9715 23.3787C39.9351 23.2959 39.8873 23.2144 39.8301 23.1448C39.7849 23.0909 39.6382 23.0029 39.6167 22.9464C39.5554 22.7834 39.524 22.61 39.5146 22.4366C39.4968 22.1081 39.6769 21.9163 39.8133 21.6443C39.9082 21.4538 39.9661 21.2462 40.0142 21.0412C40.0327 20.961 40.0474 20.8809 40.061 20.8007C40.0654 20.7744 40.0873 20.6969 40.0696 20.7153C40.246 20.5287 40.4026 20.3211 40.5467 20.1083C40.6742 19.9217 40.7845 19.7233 40.8761 19.5157C40.928 19.3975 41.0753 19.1005 41.0268 18.9691ZM36.2279 8.90973C36.2266 8.94257 36.2552 8.96622 36.2863 8.96885C36.788 8.99644 37.1379 9.27236 37.4622 9.63369C37.53 9.70859 37.5954 9.78611 37.6621 9.86363C37.7741 9.99108 37.8235 10.0647 37.8031 10.2486C37.7713 10.5351 37.7899 10.811 37.8558 11.0908C37.8612 11.1132 37.8959 11.104 37.8908 11.0816C37.8339 10.8294 37.7248 10.2644 37.9184 10.0437C37.9429 10.0147 37.9415 9.98189 37.9184 9.95299C37.4978 9.43793 37.0549 8.87558 36.3435 8.85324C36.3363 8.58389 36.3392 8.30139 36.2714 8.03992C36.2624 8.00576 36.2079 8.01232 36.2095 8.0478C36.2222 8.33686 36.2373 8.62066 36.2279 8.90973ZM26.1503 4.27423C26.1656 4.26765 26.1752 4.24401 26.1691 4.22824C26.1288 4.12707 26.056 4.00091 26.1732 3.93784C26.2853 3.8774 26.4085 3.84456 26.5356 3.84325C26.7147 3.84193 26.8756 3.94574 27.0199 4.03903C27.2749 4.20458 27.5108 4.31888 27.8184 4.23347C27.8454 4.22559 27.8538 4.19669 27.8425 4.17304C27.8018 4.08632 27.7642 4.00222 27.7123 3.9247C28.008 3.94704 28.3049 3.94442 28.5963 4.00749C28.8576 4.06399 29.041 4.19801 29.2139 4.39379C29.4391 4.64737 29.6491 4.9522 30.0292 4.90622C30.0527 4.90359 30.0706 4.88124 30.0572 4.85759C29.9641 4.69991 29.9218 4.52517 29.8272 4.36882C30.3575 4.37539 30.9326 4.41087 31.3794 4.72096C31.8271 5.03236 32.0479 5.56318 32.5428 5.82465C32.5778 5.84305 32.6353 5.8115 32.6173 5.76814C32.5909 5.70376 32.5791 5.64068 32.574 5.57367C32.8172 5.64331 33.0919 5.71295 33.2717 5.89428C33.4546 6.07822 33.5493 6.39226 33.6622 6.62088C33.6707 6.63797 33.6959 6.64847 33.7142 6.6419C34.0816 6.50657 34.4543 6.45008 34.7007 6.81009C34.8864 7.08076 34.9662 7.41711 35.1141 7.7088C35.121 7.72194 35.138 7.73115 35.1528 7.72984C35.4973 7.72327 35.8146 7.79421 36.1457 7.88356C36.1674 7.88881 36.1764 7.85597 36.1549 7.85071C35.8587 7.76268 35.5369 7.66545 35.2268 7.64574C35.111 7.63786 34.9848 7.15827 34.9381 7.04922C34.8013 6.72862 34.6119 6.45138 34.2375 6.43167C34.1435 6.42642 34.0469 6.44612 33.9554 6.46583C33.8892 6.48028 33.8247 6.50393 33.7607 6.52627C33.6913 6.54992 33.6538 6.40934 33.6316 6.36467C33.5543 6.21357 33.4858 6.05457 33.3878 5.91529C33.1959 5.642 32.8373 5.55528 32.536 5.46199C32.5058 5.45411 32.4746 5.47778 32.4749 5.50931C32.475 5.56844 32.4789 5.62099 32.4879 5.67355C32.0522 5.38974 31.8064 4.89832 31.3645 4.6132C30.9033 4.31494 30.2891 4.2926 29.7572 4.2926C29.7249 4.2926 29.7067 4.33334 29.7307 4.35699C29.8641 4.48575 29.8962 4.68152 29.9774 4.84445C29.5647 4.85759 29.3554 4.41086 29.0803 4.16516C28.699 3.82354 28.0974 3.88267 27.6263 3.83668C27.5875 3.83274 27.5771 3.88134 27.5975 3.90499C27.6654 3.98514 27.7072 4.07318 27.7495 4.16647C27.41 4.23742 27.1785 4.02589 26.8939 3.86691C26.5964 3.70135 26.3001 3.76311 26.0187 3.93261C26.0042 3.94049 25.9932 3.96151 25.9998 3.97859C26.0201 4.02195 26.0352 4.06661 26.0452 4.11391C26.0819 4.24924 25.9615 4.26632 25.8489 4.27815C25.6902 4.29392 25.5459 4.20326 25.4249 4.11391C25.3829 4.08238 25.3423 4.15334 25.3838 4.18356C25.6304 4.36751 25.8697 4.40036 26.1503 4.27423ZM17.6879 6.28057C17.6869 5.96129 17.667 5.63543 17.7385 5.32272C17.7751 5.16111 17.8536 5.01396 18.0357 5.02316C18.1873 5.03104 18.3326 5.06519 18.4853 5.0481C18.7134 5.02183 18.8989 4.80371 19.0094 4.62108C19.0832 4.49888 19.129 4.35963 19.1632 4.22167C19.1876 4.12181 19.2261 4.16254 19.3193 4.17568C19.4261 4.19145 19.5321 4.20064 19.6364 4.22955C19.673 4.23874 19.6949 4.19539 19.6717 4.16911C19.6211 4.1113 19.5763 4.04821 19.5284 3.98909C19.7632 3.92733 20.0128 3.85903 20.254 3.90633C20.449 3.94574 20.6337 4.0561 20.8163 4.13231C21.2313 4.30312 21.8115 4.31232 22.2402 4.18356C22.2681 4.17567 22.2734 4.14415 22.2561 4.12312C22.23 4.09159 22.1663 4.02193 22.1413 3.96412C22.6045 4.02456 23.0823 3.93523 23.5434 3.89319C24.0395 3.8472 24.7133 3.77097 25.1271 4.10865C25.1343 4.11522 25.1448 4.10472 25.1376 4.09815C24.7768 3.76048 24.2465 3.76836 23.7849 3.79464C23.2362 3.82618 22.6528 3.97465 22.104 3.88793C22.0813 3.88399 22.0583 3.89712 22.0583 3.92208C22.0583 4.00486 22.1116 4.06792 22.1653 4.12836C21.6608 4.26238 21.0946 4.17831 20.6282 3.97202C20.4891 3.91027 20.3458 3.83668 20.1921 3.82223C19.9435 3.79727 19.6929 3.86954 19.4547 3.93261C19.4269 3.93917 19.4207 3.97333 19.4386 3.99304C19.4796 4.03903 19.5166 4.08896 19.5542 4.13757C19.422 4.11261 19.2872 4.1034 19.1571 4.06792C19.1393 4.06267 19.1148 4.07318 19.1117 4.0942C19.056 4.42794 18.9042 4.77745 18.5843 4.9325C18.3542 5.04418 18.1172 4.88781 17.8875 4.96139C17.7252 5.01263 17.6695 5.27016 17.6441 5.40812C17.5916 5.69324 17.6127 5.99151 17.6142 6.28057C17.6145 6.32788 17.6882 6.32788 17.6879 6.28057ZM11.9111 9.75721C12.1309 9.61924 12.3396 9.58641 12.5903 9.55093C12.8231 9.5194 12.9925 9.38013 13.1428 9.208C13.3115 9.01486 13.3425 8.77571 13.5638 8.62066C13.835 8.43146 14.1979 8.44066 14.4951 8.30532C14.5166 8.29613 14.5164 8.2646 14.502 8.25015C14.4445 8.18839 14.3919 8.12268 14.3331 8.06355C14.9166 8.11611 14.7777 7.21478 15.0071 6.84294C15.2575 6.43563 15.8286 6.4527 16.1975 6.20831C16.2651 6.16364 16.3221 6.1045 16.3754 6.04538C16.4783 5.92844 16.5814 6.0283 16.7043 6.08479C16.9826 6.21356 17.2667 6.32786 17.5587 6.42115C17.566 6.42378 17.5691 6.41328 17.5618 6.41066C17.1731 6.26744 16.8119 6.07559 16.4431 5.88902C16.4267 5.88113 16.4091 5.88508 16.3989 5.90084C16.0377 6.44087 15.2202 6.28058 14.9083 6.86922C14.7154 7.23449 14.8634 8.14766 14.2149 7.96766C14.1739 7.95714 14.1529 8.01232 14.1867 8.03466C14.2576 8.08065 14.3067 8.13715 14.3613 8.1989C14.4525 8.30401 14.2827 8.3119 14.1973 8.33555C14.038 8.37891 13.876 8.40386 13.7193 8.45773C13.504 8.53263 13.3342 8.68506 13.2466 8.89266C13.1245 9.18172 12.8891 9.4261 12.5708 9.48128C12.3138 9.52464 12.1015 9.55094 11.8742 9.69415C11.8346 9.71912 11.8712 9.78217 11.9111 9.75721ZM9.25213 17.8667C9.16606 17.6854 9.10786 17.4988 9.06726 17.3031C9.06056 17.2702 9.03651 16.9759 9.02363 16.9759C9.0578 16.9772 9.09354 16.9733 9.12704 16.968C9.26474 16.9431 9.378 16.8761 9.46892 16.7696C9.6806 16.5239 9.72028 16.1494 9.75641 15.8407C9.80542 15.4215 9.81041 14.9958 9.89082 14.5806C9.95494 14.2482 10.0961 13.8908 10.4871 13.8908C10.5144 13.8908 10.5375 13.8567 10.5202 13.833C10.4065 13.6701 10.1669 13.3757 10.4193 13.2338C10.5609 13.1537 10.7291 13.1195 10.8759 13.0486C11.2389 12.8699 11.4166 12.4481 11.4022 12.0618C11.3945 11.8516 11.3082 11.6545 11.1853 11.4877C11.1116 11.3878 11.1463 11.4141 11.2246 11.3431C11.2853 11.2866 11.3277 11.2288 11.3647 11.1552C11.552 10.7808 11.4042 10.3274 11.6234 9.95429C11.6255 9.95035 11.6201 9.94773 11.618 9.95168C11.3255 10.3669 11.5977 11.1486 11.0636 11.3812C11.0475 11.3878 11.048 11.4114 11.0584 11.422C11.3265 11.7097 11.4047 12.0842 11.2886 12.4586C11.1839 12.7963 10.9174 12.979 10.6015 13.092C10.4762 13.1366 10.3193 13.1747 10.2533 13.3022C10.1737 13.4559 10.319 13.6753 10.4155 13.8159C9.82079 13.8593 9.77494 14.6897 9.7346 15.1469C9.68993 15.6567 9.75549 16.905 8.99092 16.8944C8.96911 16.8944 8.94992 16.9128 8.95045 16.9352C8.95768 17.2742 9.03757 17.6013 9.18302 17.9075C9.20522 17.9548 9.27407 17.9141 9.25213 17.8667ZM9.31349 23.5534C9.25383 23.4023 9.17027 23.2604 9.12494 23.1027C9.04886 22.8386 9.32019 22.6652 9.50834 22.5443C9.52621 22.5325 9.53134 22.5115 9.52162 22.4931C9.33438 22.1317 9.0733 21.8335 8.73825 21.6049C8.97923 21.4367 9.06305 21.1476 9.20443 20.8993C9.21718 20.8769 9.20443 20.852 9.18209 20.8441C8.80184 20.6969 8.86216 20.3501 9.19129 20.1871C9.21363 20.1766 9.21494 20.1438 9.19891 20.128C8.9925 19.9178 8.73286 19.6484 8.71158 19.3383C8.70356 19.224 8.67991 19.0755 8.76847 18.9862C8.81814 18.935 8.87831 18.906 8.92456 18.8495C8.98776 18.7747 9.01352 18.6932 9.09892 18.6341C9.15227 18.5973 9.22427 18.5789 9.26999 18.5316C9.37301 18.4252 9.2558 18.2859 9.18761 18.1952C9.17395 18.1781 9.14281 18.1952 9.1566 18.2136C9.23426 18.3227 9.32426 18.4514 9.16068 18.5316C9.09051 18.5671 9.02679 18.5999 8.96911 18.6538C8.89645 18.7221 8.87056 18.818 8.78542 18.8798C8.74259 18.91 8.70593 18.9363 8.6744 18.9796C8.56547 19.1255 8.62946 19.4132 8.68911 19.5656C8.77504 19.7837 8.94677 19.9769 9.11088 20.1451C8.76795 20.3448 8.74679 20.7258 9.12073 20.8966C8.99052 21.141 8.90801 21.4262 8.65455 21.5733C8.62946 21.5878 8.63156 21.6219 8.65455 21.6377C8.83929 21.7573 9.00091 21.8965 9.14688 22.0608C9.22454 22.1488 9.29023 22.2447 9.3529 22.3433C9.44356 22.4852 9.42346 22.5049 9.29548 22.6008C9.15358 22.7072 9.01233 22.8636 9.04058 23.0554C9.07869 23.3116 9.2428 23.5442 9.31743 23.7912C9.44304 24.2064 9.32097 24.6295 9.36171 25.0513C9.3663 25.0986 9.44054 25.0986 9.43608 25.0513C9.4115 24.7964 9.44593 24.5402 9.45263 24.2853C9.4596 24.029 9.4073 23.7912 9.31349 23.5534Z" fill="black"/>
<path d="M40.0498 20.6982C40.0498 20.6982 40.9112 19.7916 41.002 18.9757C41.002 18.9757 40.7752 18.341 40.367 18.2044L40.4124 17.8418C40.4124 17.8418 40.3216 17.5251 39.9137 17.3885C39.5057 17.2531 39.3696 16.2099 39.7324 15.3032C40.0951 14.3966 39.6872 13.2627 39.6872 13.2627C39.6872 13.2627 39.4149 13.3534 39.0069 13.2627C38.5988 13.1721 38.2814 12.8541 38.4627 12.4468C38.6442 12.0382 38.6894 11.7215 38.5534 11.4942C38.4174 11.2682 38.0093 11.2682 38.0093 11.2682L37.8734 11.0856C37.7826 10.7229 37.7826 10.3603 37.8734 9.99765C37.4199 9.49967 37.0572 8.90971 36.2863 8.90971C36.2863 8.63773 36.2863 8.31977 36.241 8.04778L36.1503 7.86645C35.8329 7.77579 35.4704 7.68515 35.1528 7.68515C34.79 6.91519 34.7447 6.18989 33.7017 6.59721C33.294 5.82594 33.4299 5.78128 32.523 5.5093C32.523 5.59996 32.523 5.69061 32.5685 5.78127C32.0244 5.50928 31.8429 4.96531 31.3441 4.64734C30.9362 4.37536 30.256 4.33069 29.7572 4.33069C29.8932 4.46603 29.9385 4.73801 30.0292 4.87466C29.4852 4.96532 29.3036 4.24004 28.8504 4.05872C28.4422 3.8774 28.0342 3.92206 27.6263 3.87739C27.7169 3.96805 27.7621 4.10338 27.8076 4.19404C27.082 4.42135 26.9007 3.42278 26.0392 3.96805C26.0845 4.05872 26.0845 4.14937 26.1297 4.24003C25.8579 4.37536 25.6311 4.33071 25.4044 4.14939L25.1324 4.1034C24.4977 3.51476 22.8654 4.05872 22.0945 3.92207V3.96805C22.1397 4.01273 22.1852 4.1034 22.2305 4.14939C21.9584 4.24005 21.2783 4.24005 20.9609 4.14939C20.2355 3.87741 20.3261 3.74075 19.4646 3.96805C19.51 4.01273 19.6008 4.14937 19.6462 4.19404C19.51 4.14937 19.2834 4.14939 19.1471 4.1034C19.1019 4.42137 18.9206 4.82868 18.6033 4.96533C18.4219 5.10066 17.9684 4.91934 17.8776 5.01001C17.6056 5.19133 17.651 5.87193 17.651 6.28056L17.5603 6.4159C17.1523 6.28057 16.7894 6.09924 16.4269 5.91792C16.0641 6.50656 15.3386 6.28056 14.976 6.82453C14.7038 7.23184 14.9305 8.2291 14.2051 8.00311C14.2957 8.04778 14.3864 8.18444 14.4772 8.2751C14.2051 8.41043 13.8422 8.41043 13.6155 8.54707C13.2075 8.77307 13.3435 8.9544 13.1169 9.18171C12.6636 9.72567 12.4367 9.36301 11.8927 9.72565L11.6205 9.95297C11.3033 10.4063 11.6205 11.1762 11.0765 11.4035C11.5299 11.8568 11.4393 12.5821 10.9857 12.9448C10.5325 13.2627 9.94298 13.0814 10.4871 13.8514C9.26303 13.8067 10.2604 16.9811 8.99091 16.9352C8.99091 17.2531 9.08144 17.6158 9.21756 17.8878L9.1721 18.2044C9.48954 18.613 9.08144 18.4764 8.94545 18.7484C8.80946 19.0204 8.62814 18.839 8.67334 19.3383C8.67334 19.6103 8.99091 19.9729 9.1721 20.1543C8.76413 20.3356 8.76413 20.7442 9.1721 20.8795C9.03611 21.1068 8.94545 21.4695 8.67334 21.6048C9.03611 21.8321 9.30822 22.1501 9.48954 22.5128C8.76412 22.9661 9.1721 23.1474 9.35355 23.782C9.48955 24.1893 9.35355 24.6886 9.39888 25.0512L9.48954 25.3692C9.89764 25.9132 10.3964 26.4571 10.9857 26.7738C11.5299 27.0458 12.1194 26.9551 12.618 27.1824C13.2983 27.5451 13.2075 27.863 14.069 27.9984C14.6132 28.089 14.84 28.0444 15.1118 28.679L15.2931 29.3583C15.5654 30.3109 15.3386 31.7168 15.8374 32.5774L16.9256 33.258C16.9256 33.258 16.6536 32.0794 16.5175 31.3082C16.3815 30.5382 16.2455 29.7669 16.0641 28.8143C15.8827 27.863 15.5654 26.0485 16.472 24.4626C16.472 24.4626 17.1523 23.8267 17.379 23.2827C17.6056 22.7387 17.4245 22.1948 17.7416 21.4695C18.0591 20.7442 18.3312 20.0189 18.3312 20.0189C18.3312 20.0189 18.7845 19.747 19.0113 19.2477L19.1019 18.6577C19.1019 18.6577 19.1926 18.4317 19.374 17.9324L19.8728 17.6158L19.374 17.3438C19.374 17.3438 19.7822 17.2071 20.3717 16.8445C20.9609 16.4818 21.9584 16.0732 21.9584 16.0732L21.7316 15.8472C21.7316 15.8472 22.7746 15.8012 23.4094 15.6199C24.0443 15.4386 24.9055 15.0313 25.5859 15.1666C26.266 15.3033 27.6263 15.8472 27.6263 15.8472L27.2179 15.3479C27.2179 15.3479 27.6715 15.3939 28.1248 15.4846C28.5782 15.5752 29.2131 16.0732 29.2131 16.0732C29.2131 16.0732 29.984 15.8919 30.3013 15.5293L30.6641 15.3479L30.3467 15.7566C30.3467 15.7566 30.8906 16.0285 31.2082 15.7106C31.2082 15.7106 31.7067 15.6659 31.9337 15.7566C32.1602 15.8472 32.9764 16.2545 33.974 15.8919L33.7017 16.1192C33.7017 16.1192 34.5182 16.2099 34.9716 16.4359C35.4249 16.6632 36.1503 17.7064 36.2863 19.0663C36.4226 20.4262 36.4676 22.2395 36.4676 22.2395C36.4676 22.2395 37.3292 24.0987 37.3292 24.8253C37.3292 25.5505 37.0572 27.0458 37.1024 27.3178C37.1479 27.5911 37.4199 28.3163 37.3744 29.2676C37.3744 29.2676 37.7373 28.4517 37.7373 27.9077C37.7373 27.3638 37.828 26.5018 38.3719 25.9578C38.9161 25.4139 39.4149 25.4139 39.5057 25.1879C39.5961 24.9606 39.4602 24.8252 39.6417 24.5073C39.8229 24.1893 40.0498 23.6913 40.0498 23.6913C40.0498 23.6913 39.959 23.1921 39.5961 22.9661C39.5961 22.9661 39.3245 22.2854 39.6417 21.8768C39.959 21.4695 40.0498 20.6982 40.0498 20.6982Z" fill="#050301"/>
<path d="M26.946 24.3706C26.946 24.3706 26.62 24.7503 26.1578 24.9014C26.3968 24.6557 26.5579 24.3338 26.6286 23.9633C26.6286 23.9633 26.0392 24.0986 25.3589 23.9633C24.6789 23.8266 21.6408 22.2394 20.1448 22.422C20.1448 22.422 20.2809 22.4667 20.5529 22.6034C20.5529 22.6034 18.3312 22.7847 17.1976 24.7346C17.1976 24.7346 18.5125 23.9633 19.9633 24.2799C21.4143 24.5979 23.3188 25.1879 24.4977 25.3692C24.7876 25.4139 25.0528 25.4086 25.2907 25.3613C25.6967 25.3297 26.5994 25.1682 26.946 24.3706Z" fill="#050301"/>
<path d="M30.7547 24.3706C30.7547 24.3706 30.9669 24.7503 31.268 24.9014C31.1123 24.6557 31.0075 24.3338 30.9614 23.9633C30.9614 23.9633 31.345 24.0986 31.788 23.9633C32.2309 23.8266 34.2091 22.2394 35.1834 22.422C35.1834 22.422 35.0948 22.4667 34.9176 22.6034C34.9176 22.6034 36.3644 22.7847 37.1024 24.7346C37.1024 24.7346 36.2464 23.9633 35.3017 24.2799C34.3567 24.5979 33.1165 25.1879 32.349 25.3692C32.1601 25.4139 31.9874 25.4086 31.8326 25.3613C31.568 25.3297 30.9802 25.1682 30.7547 24.3706Z" fill="#050301"/>
<path d="M19.1926 27.5911C19.1926 27.5911 18.6938 27.4991 18.2405 27.1365L18.6486 27.0918C18.6486 27.0918 19.6462 26.3205 21.0517 26.1392C22.4572 25.9579 23.5908 26.5478 24.3614 27.3637C24.3614 27.3637 22.0037 27.6357 21.8224 27.6357L19.1926 27.5911Z" fill="#050301"/>
<path d="M18.7871 26.5518C19.6031 26.0853 20.5618 25.8422 21.4987 25.8383C22.3233 25.8357 23.0796 26.0604 23.7704 26.5058C23.7742 26.5084 23.7775 26.5018 23.774 26.4992C23.1453 26.0485 22.333 25.8055 21.5679 25.7503C20.558 25.678 19.6246 26.0144 18.7821 26.5439C18.7766 26.5465 18.7816 26.5557 18.7871 26.5518Z" fill="#461C0F"/>
<path d="M24.4521 27.4097C22.9803 26.2522 20.3836 26.155 18.9658 27.4544L19.2379 27.5911C20.5981 28.4977 22.8198 28.2704 24.2256 27.7264L24.4521 27.6358L24.9055 27.7264L24.4521 27.4097Z" fill="white"/>
<path d="M21.3295 28.1915C21.9898 28.1915 22.5251 27.6554 22.5251 26.9959C22.5251 26.8461 22.4969 26.7042 22.4469 26.5728C21.6786 26.4506 20.8716 26.5058 20.1573 26.7567C20.1418 26.8343 20.1334 26.9131 20.1334 26.9959C20.1334 27.6554 20.6688 28.1915 21.3295 28.1915Z" fill="#310F0B"/>
<path d="M21.3294 28.0536C21.914 28.0536 22.3877 27.5793 22.3877 26.9959C22.3877 26.8369 22.3517 26.6858 22.2886 26.5505C21.6237 26.4664 20.9372 26.515 20.3119 26.7068C20.286 26.7988 20.2711 26.8947 20.2711 26.9959C20.2711 27.5793 20.7449 28.0536 21.3294 28.0536Z" fill="#310F0B"/>
<path d="M21.9538 26.9959C21.9538 27.3401 21.6742 27.62 21.3294 27.62C20.9845 27.62 20.7049 27.3401 20.7049 26.9959C20.7049 26.6503 20.9845 26.3705 21.3294 26.3705C21.6742 26.3705 21.9538 26.6503 21.9538 26.9959Z" fill="#050301"/>
<path d="M21.7704 26.9958C21.7704 27.2389 21.5729 27.436 21.3294 27.436C21.086 27.436 20.8882 27.2389 20.8882 26.9958C20.8882 26.7514 21.086 26.5543 21.3294 26.5543C21.5729 26.5543 21.7704 26.7514 21.7704 26.9958Z" fill="#050301"/>
<path d="M21.3294 26.733C21.4586 26.733 21.5645 26.6358 21.5817 26.511C21.4147 26.5136 21.2483 26.5254 21.0837 26.5438C21.1137 26.6529 21.2117 26.733 21.3294 26.733Z" fill="white"/>
<path d="M18.974 27.4623C19.7171 26.8329 20.7661 26.5754 21.72 26.5662C22.6796 26.5583 23.6704 26.8474 24.4481 27.4163C24.4555 27.4215 24.4652 27.4097 24.4579 27.4032C23.6874 26.7738 22.7039 26.4887 21.72 26.4545C20.6886 26.419 19.7069 26.7304 18.9581 27.4465C18.9471 27.457 18.9629 27.4715 18.974 27.4623Z" fill="#050301"/>
<path d="M19.2298 27.6042C19.9447 28.0707 20.8065 28.2178 21.6471 28.2204C22.5194 28.2244 23.4199 28.0654 24.2272 27.7317C24.2341 27.729 24.2314 27.7185 24.2239 27.7212C22.6863 28.2599 20.6857 28.5121 19.2462 27.5766C19.2285 27.5648 19.2122 27.5937 19.2298 27.6042Z" fill="#C7635D"/>
<path d="M35.6449 27.5911C35.6449 27.5911 36.0522 27.4991 36.4226 27.1365L36.0892 27.0918C36.0892 27.0918 35.2749 26.3205 34.1277 26.1392C32.98 25.9579 32.0548 26.5478 31.4256 27.3637C31.4256 27.3637 33.3504 27.6357 33.4983 27.6357L35.6449 27.5911Z" fill="#050301"/>
<path d="M35.9762 26.5518C35.3098 26.0853 34.5274 25.8422 33.7627 25.8383C33.0896 25.8357 32.472 26.0604 31.9083 26.5058C31.9051 26.5084 31.9022 26.5018 31.9051 26.4992C32.4184 26.0485 33.0815 25.8055 33.7062 25.7503C34.5307 25.678 35.2925 26.0144 35.9803 26.5439C35.9847 26.5465 35.9808 26.5557 35.9762 26.5518Z" fill="#461C0F"/>
<path d="M31.3516 27.4097C32.5532 26.2522 34.6728 26.155 35.8301 27.4544L35.6081 27.5911C34.4978 28.4977 32.6841 28.2704 31.5368 27.7264L31.3516 27.6358L30.9815 27.7264L31.3516 27.4097Z" fill="white"/>
<path d="M34.3367 26.9959C34.3367 26.8461 34.3107 26.7042 34.2653 26.5728C33.5626 26.4322 32.8084 26.5334 32.1579 26.85C32.1525 26.8973 32.1489 26.9459 32.1489 26.9959C32.1489 27.5516 32.4974 28.0181 32.9686 28.1521C33.0759 28.1679 33.1843 28.1797 33.2931 28.1889C33.8737 28.16 34.3367 27.637 34.3367 26.9959Z" fill="#310F0B"/>
<path d="M33.243 28.0536C33.7775 28.0536 34.2107 27.5793 34.2107 26.9959C34.2107 26.8356 34.1772 26.6832 34.1188 26.5478C33.5077 26.4546 32.8663 26.5413 32.2939 26.7883C32.2815 26.8553 32.2748 26.9249 32.2748 26.9959C32.2748 27.5793 32.7083 28.0536 33.243 28.0536Z" fill="#310F0B"/>
<path d="M33.8139 26.9959C33.8139 27.3401 33.5581 27.62 33.243 27.62C32.9274 27.62 32.6716 27.3401 32.6716 26.9959C32.6716 26.6503 32.9274 26.3705 33.243 26.3705C33.5581 26.3705 33.8139 26.6503 33.8139 26.9959Z" fill="#050301"/>
<path d="M33.6463 26.9958C33.6463 27.2389 33.4656 27.436 33.243 27.436C33.02 27.436 32.8394 27.2389 32.8394 26.9958C32.8394 26.7514 33.02 26.5543 33.243 26.5543C33.4656 26.5543 33.6463 26.7514 33.6463 26.9958Z" fill="#050301"/>
<path d="M33.243 26.733C33.3604 26.733 33.4565 26.6371 33.4735 26.5149C33.3229 26.5215 33.173 26.5386 33.0245 26.5662C33.0578 26.6634 33.1426 26.733 33.243 26.733Z" fill="white"/>
<path d="M35.8237 27.4623C35.2168 26.8329 34.3604 26.5754 33.582 26.5662C32.7984 26.5583 31.9898 26.8474 31.3548 27.4163C31.3487 27.4215 31.341 27.4097 31.3468 27.4032C31.9758 26.7738 32.7787 26.4887 33.582 26.4545C34.424 26.419 35.2252 26.7304 35.8368 27.4465C35.8455 27.457 35.8328 27.4715 35.8237 27.4623Z" fill="#050301"/>
<path d="M35.6148 27.6042C35.0313 28.0707 34.3278 28.2178 33.6414 28.2204C32.9293 28.2244 32.1942 28.0654 31.5352 27.7317C31.5295 27.729 31.5319 27.7185 31.5379 27.7212C32.7933 28.2599 34.4261 28.5121 35.6014 27.5766C35.6158 27.5648 35.6291 27.5937 35.6148 27.6042Z" fill="#C7635D"/>
</svg>
