<svg width="9" height="10" viewBox="0 0 9 10" fill="none" xmlns="http://www.w3.org/2000/svg">
<path d="M6.76615 4.918C7.33548 5.07667 7.78348 5.366 8.11015 5.786C8.43682 6.19667 8.60015 6.71933 8.60015 7.354C8.60015 8.20333 8.27815 8.85667 7.63415 9.314C6.99948 9.77133 6.07082 10 4.84815 10H0.172148V0.199999H4.56815C5.68815 0.199999 6.55148 0.424 7.15815 0.872C7.77415 1.32 8.08215 1.94067 8.08215 2.734C8.08215 3.24733 7.96082 3.69067 7.71815 4.064C7.48482 4.43733 7.16748 4.722 6.76615 4.918ZM1.57215 1.334V4.47H4.44215C5.16082 4.47 5.71148 4.33933 6.09415 4.078C6.48615 3.80733 6.68215 3.41533 6.68215 2.902C6.68215 2.38867 6.48615 2.00133 6.09415 1.74C5.71148 1.46933 5.16082 1.334 4.44215 1.334H1.57215ZM4.79215 8.866C5.58548 8.866 6.18282 8.73533 6.58415 8.474C6.98548 8.21267 7.18615 7.802 7.18615 7.242C7.18615 6.15 6.38815 5.604 4.79215 5.604H1.57215V8.866H4.79215Z" fill="#B9B9B9"/>
</svg>
